<?xml version="1.0" encoding="iso-8859-1"?>
<!-- Generator: Adobe Illustrator 23.1.0, SVG Export Plug-In . SVG Version: 6.00 Build 0)  -->
<svg version="1.1" id="Capa_1" xmlns="http://www.w3.org/2000/svg" xmlns:xlink="http://www.w3.org/1999/xlink" x="0px" y="0px"
	 viewBox="0 0 512 512" style="enable-background:new 0 0 512 512;" xml:space="preserve">
<g>
	<path style="fill:#FF7C48;" d="M436,0.02H226H15c-8.284,0-15,6.716-15,15v361c0,8.284,6.716,15,15,15h45v45
		c0,5.684,3.208,10.869,8.291,13.418c5.229,2.596,11.298,1.908,15.703-1.421l76.996-56.997H226h210c8.284,0,15-6.716,15-15v-361
		C451,6.736,444.284,0.02,436,0.02z"/>
	<path style="fill:#FF415B;" d="M451,376.02v-361c0-8.284-6.716-15-15-15H226v391h210C444.284,391.02,451,384.303,451,376.02z"/>
	<path style="fill:#596C76;" d="M376,60.02H226H75c-8.291,0-15,6.709-15,15v241c0,8.291,6.709,15,15,15h151h150
		c8.291,0,15-6.709,15-15v-241C391,66.729,384.291,60.02,376,60.02z"/>
	<path style="fill:#465A61;" d="M391,316.02v-241c0-8.291-6.709-15-15-15H226v271h150C384.291,331.02,391,324.311,391,316.02z"/>
	<path style="fill:#FFF5F5;" d="M294.32,183.539L226,137.992l-21.68-14.453c-4.585-3.076-10.532-3.34-15.396-0.747
		c-4.878,2.607-7.925,7.69-7.925,13.228v120c0,5.537,3.047,10.62,7.925,13.228c4.81,2.58,10.745,2.353,15.396-0.747L226,254.048
		l68.32-45.547c4.175-2.783,6.68-7.471,6.68-12.48S298.495,186.323,294.32,183.539z"/>
	<path style="fill:#EFE2DD;" d="M301,196.02c0-5.01-2.505-9.697-6.68-12.48L226,137.992v116.056l68.32-45.547
		C298.495,205.717,301,201.03,301,196.02z"/>
	<path style="fill:#8CF2F2;" d="M497,271.02H256c-8.401,0-15,6.599-15,15v150c0,8.401,6.599,15,15,15h95.099L376,469.62l51,39.401
		c4.499,3.3,10.499,3.9,15.599,1.5c5.101-2.701,8.401-7.8,8.401-13.5v-46h46c8.401,0,15-6.599,15-15v-150
		C512,277.619,505.401,271.02,497,271.02z"/>
	<path style="fill:#57D9D4;" d="M512,286.02v150c0,8.401-6.599,15-15,15h-46v46c0,5.7-3.3,10.8-8.401,13.5
		c-5.099,2.4-11.1,1.8-15.599-1.5l-51-39.401v-198.6h121C505.401,271.02,512,277.619,512,286.02z"/>
	<circle style="fill:#596C76;" cx="316" cy="361.02" r="15"/>
	<circle style="fill:#596C76;" cx="376" cy="361.02" r="15"/>
	<circle style="fill:#465A61;" cx="436" cy="361.02" r="15"/>
	<path style="fill:#465A61;" d="M391,361.02c0,8.401-6.599,15-15,15v-30C384.401,346.02,391,352.619,391,361.02z"/>
</g>
<g>
</g>
<g>
</g>
<g>
</g>
<g>
</g>
<g>
</g>
<g>
</g>
<g>
</g>
<g>
</g>
<g>
</g>
<g>
</g>
<g>
</g>
<g>
</g>
<g>
</g>
<g>
</g>
<g>
</g>
</svg>
