<?xml version="1.0" encoding="iso-8859-1"?>
<!-- Generator: Adobe Illustrator 23.1.0, SVG Export Plug-In . SVG Version: 6.00 Build 0)  -->
<svg version="1.1" id="Capa_1" xmlns="http://www.w3.org/2000/svg" xmlns:xlink="http://www.w3.org/1999/xlink" x="0px" y="0px"
	 viewBox="0 0 512 512" style="enable-background:new 0 0 512 512;" xml:space="preserve">
<g>
	<path style="fill:#FF7C48;" d="M256,0.004c-0.025,0-0.048-0.004-0.073-0.004C148.949,0.527,61.908,88.993,61.908,196
		c0,127.471,164.839,292.577,183.633,310.873c2.915,2.827,6.68,4.248,10.459,4.248s7.544-1.421,10.459-4.248
		C285.253,488.577,450.092,323.471,450.092,196C450.092,89.017,363.087,0.571,256,0.004z M256,331c-74.559,0-135-60.441-135-135
		S181.441,60,256,60s135,61.441,135,136S330.559,331,256,331z"/>
	<path style="fill:#FF415B;" d="M256,0.004V60c74.559,0,135,61.441,135,136s-60.441,135-135,135v180.121
		c3.779,0,7.544-1.421,10.459-4.248C285.253,488.577,450.092,323.471,450.092,196C450.092,89.017,363.087,0.571,256,0.004z"/>
	<path style="fill:#8CF2F2;" d="M346,482h-90h-90c-8.291,0-15,6.709-15,15s6.709,15,15,15h90h90c8.291,0,15-6.709,15-15
		S354.291,482,346,482z"/>
	<path style="fill:#57D9D4;" d="M361,497c0-8.291-6.709-15-15-15h-90v30h90C354.291,512,361,505.291,361,497z"/>
	<g>
		<path style="fill:#57D9D4;" d="M256,211c-36.224,0-66.443,25.681-73.458,59.828C201.499,289.439,227.404,301,256,301
			s54.501-11.561,73.458-30.172C322.443,236.681,292.224,211,256,211z"/>
		<path style="fill:#26BFBF;" d="M256,211v90c28.596,0,54.501-11.561,73.458-30.172C322.443,236.681,292.224,211,256,211z"/>
		<path style="fill:#FFCEBF;" d="M256,120c-24.814,0-45,21.186-45,46s20.186,45,45,45s45-20.186,45-45S280.814,120,256,120z"/>
		<path style="fill:#FFBFAB;" d="M301,166c0-24.814-20.186-46-45-46v91C280.814,211,301,190.814,301,166z"/>
	</g>
</g>
<g>
</g>
<g>
</g>
<g>
</g>
<g>
</g>
<g>
</g>
<g>
</g>
<g>
</g>
<g>
</g>
<g>
</g>
<g>
</g>
<g>
</g>
<g>
</g>
<g>
</g>
<g>
</g>
<g>
</g>
</svg>
