<?xml version="1.0" encoding="iso-8859-1"?>
<!-- Generator: Adobe Illustrator 23.1.0, SVG Export Plug-In . SVG Version: 6.00 Build 0)  -->
<svg version="1.1" id="Capa_1" xmlns="http://www.w3.org/2000/svg" xmlns:xlink="http://www.w3.org/1999/xlink" x="0px" y="0px"
	 viewBox="0 0 512.002 512.002" style="enable-background:new 0 0 512.002 512.002;" xml:space="preserve">
<g>
	<g>
		<path style="fill:none;" d="M30,164.988c0,8.276,6.724,15,15,15h181c11.567,0,22.02,4.508,30,11.704v-41.704H45
			C36.724,149.988,30,156.712,30,164.988z"/>
		<path style="fill:#465A61;" d="M401.605,79.383c-5.859-5.859-15.352-5.859-21.211,0c-26.191,26.191-60.996,40.605-98.027,40.605
			H256H45c-24.814,0-45,20.186-45,45s20.186,45,45,45h181c8.276,0,15,6.724,15,15v30c0,8.291,6.709,15,15,15s15-6.709,15-15v-30
			c0-13.248-5.861-25.052-15-33.296c-7.98-7.196-18.433-11.704-30-11.704H45c-8.276,0-15-6.724-15-15s6.724-15,15-15h211h26.367
			c45.044,0,87.393-17.549,119.238-49.395C407.465,94.734,407.465,85.242,401.605,79.383z"/>
		<path style="fill:#3B4A51;" d="M282.367,149.988c45.044,0,87.393-17.549,119.238-49.395c5.859-5.859,5.859-15.352,0-21.211
			s-15.352-5.859-21.211,0c-26.191,26.191-60.996,40.605-98.027,40.605H256v30H282.367z"/>
		<path style="fill:#3B4A51;" d="M271,254.988v-30c0-13.248-5.861-25.052-15-33.296v78.296C264.291,269.988,271,263.279,271,254.988
			z"/>
	</g>
	<path style="fill:#596C76;" d="M497,239.988H256H15c-8.291,0-15,6.709-15,15v242c0,8.291,6.709,15,15,15h241h241
		c8.291,0,15-6.709,15-15v-242C512,246.697,505.291,239.988,497,239.988z"/>
	<path style="fill:#465A61;" d="M512,496.988v-242c0-8.291-6.709-15-15-15H256v272h241C505.291,511.988,512,505.279,512,496.988z"/>
	<path style="fill:#FFF5F5;" d="M136,330.988H76c-8.291,0-15-6.709-15-15s6.709-15,15-15h60c8.291,0,15,6.709,15,15
		S144.291,330.988,136,330.988z"/>
	<path style="fill:#FFF5F5;" d="M226,330.988h-30c-8.291,0-15-6.709-15-15s6.709-15,15-15h30c8.291,0,15,6.709,15,15
		S234.291,330.988,226,330.988z"/>
	<path style="fill:#EFE2DD;" d="M316,330.988h-30c-8.291,0-15-6.709-15-15s6.709-15,15-15h30c8.291,0,15,6.709,15,15
		S324.291,330.988,316,330.988z"/>
	<path style="fill:#EFE2DD;" d="M436,330.988h-60c-8.291,0-15-6.709-15-15s6.709-15,15-15h60c8.291,0,15,6.709,15,15
		S444.291,330.988,436,330.988z"/>
	<path style="fill:#EFE2DD;" d="M436,390.988h-90c-8.291,0-15-6.709-15-15s6.709-15,15-15h90c8.291,0,15,6.709,15,15
		S444.291,390.988,436,390.988z"/>
	<path style="fill:#FFF5F5;" d="M196,390.988h-30c-8.291,0-15-6.709-15-15s6.709-15,15-15h30c8.291,0,15,6.709,15,15
		S204.291,390.988,196,390.988z"/>
	<path style="fill:#FFF5F5;" d="M106,390.988H76c-8.291,0-15-6.709-15-15s6.709-15,15-15h30c8.291,0,15,6.709,15,15
		S114.291,390.988,106,390.988z"/>
	<path style="fill:#57D9D4;" d="M436,450.988h-30c-8.291,0-15-6.709-15-15s6.709-15,15-15h30c8.291,0,15,6.709,15,15
		S444.291,450.988,436,450.988z"/>
	<path style="fill:#8CF2F2;" d="M136,450.988H76c-8.291,0-15-6.709-15-15s6.709-15,15-15h60c8.291,0,15,6.709,15,15
		S144.291,450.988,136,450.988z"/>
	<path style="fill:#57D9D4;" d="M406.776,184.734L378.52,99.993L308.28,57.85c-11.947-7.174-8.449-25.393,5.259-27.656l181-30
		c5.391-0.835,10.986,1.274,14.355,5.669c3.384,4.395,4.058,10.283,1.758,15.337l-76,165
		C429.012,198.594,411.09,197.674,406.776,184.734z"/>
	<path style="fill:#FFF5F5;" d="M286,360.988h-30c-8.291,0-15,6.709-15,15s6.709,15,15,15h30c8.291,0,15-6.709,15-15
		S294.291,360.988,286,360.988z"/>
	<path style="fill:#8CF2F2;" d="M346,420.988h-90h-60c-8.291,0-15,6.709-15,15s6.709,15,15,15h60h90c8.291,0,15-6.709,15-15
		S354.291,420.988,346,420.988z"/>
	<path style="fill:#57D9D4;" d="M361,435.988c0-8.291-6.709-15-15-15h-90v30h90C354.291,450.988,361,444.279,361,435.988z"/>
	<path style="fill:#EFE2DD;" d="M301,375.988c0-8.291-6.709-15-15-15h-30v30h30C294.291,390.988,301,384.279,301,375.988z"/>
</g>
<g>
</g>
<g>
</g>
<g>
</g>
<g>
</g>
<g>
</g>
<g>
</g>
<g>
</g>
<g>
</g>
<g>
</g>
<g>
</g>
<g>
</g>
<g>
</g>
<g>
</g>
<g>
</g>
<g>
</g>
</svg>
