<?xml version="1.0" encoding="iso-8859-1"?>
<!-- Generator: Adobe Illustrator 23.1.0, SVG Export Plug-In . SVG Version: 6.00 Build 0)  -->
<svg version="1.1" id="Capa_1" xmlns="http://www.w3.org/2000/svg" xmlns:xlink="http://www.w3.org/1999/xlink" x="0px" y="0px"
	 viewBox="0 0 512 512" style="enable-background:new 0 0 512 512;" xml:space="preserve">
<g>
	<path style="fill:#FFF5F5;" d="M419.667,121.879c-6.343-33.179-34.629-59.682-69.141-61.747C333.314,23.745,296.62,0,256,0
		s-77.314,23.745-94.526,60.132c-34.512,2.065-62.798,28.568-69.141,61.747C40.873,128.603,0,172.738,0,226
		c0,44.429,29.124,84.229,70.99,99.009C82.211,328.979,93.988,331,106,331h150h150c12.012,0,23.789-2.021,34.995-5.977
		C482.874,310.229,512,270.429,512,226C512,172.738,471.127,128.603,419.667,121.879z"/>
	<path style="fill:#EFE2DD;" d="M440.995,325.023C482.874,310.229,512,270.429,512,226c0-53.262-40.873-97.397-92.333-104.121
		c-6.343-33.179-34.629-59.682-69.141-61.747C333.314,23.745,296.62,0,256,0v331h150C418.012,331,429.789,328.979,440.995,325.023z"
		/>
	<g>
		<path style="fill:#8CF2F2;" d="M211,211h45h45c8.291,0,15-6.709,15-15s-6.709-15-15-15h-45h-45c-8.291,0-15,6.709-15,15
			S202.709,211,211,211z"/>
		<path style="fill:#8CF2F2;" d="M211,151h45h45c8.291,0,15-6.709,15-15s-6.709-15-15-15h-45h-45c-8.291,0-15,6.709-15,15
			S202.709,151,211,151z"/>
		<path style="fill:#8CF2F2;" d="M344.491,400.452C341.986,395.281,336.742,392,331,392h-15V256c0-8.291-6.709-15-15-15h-45h-45
			c-8.291,0-15,6.709-15,15v136h-15c-5.742,0-10.986,3.281-13.491,8.452c-2.52,5.186-1.846,11.338,1.714,15.85l75,90
			C247.064,509.905,251.415,512,256,512s8.936-2.095,11.777-5.698l75-90C346.337,411.79,347.011,405.638,344.491,400.452z"/>
	</g>
	<path style="fill:#57D9D4;" d="M316,196c0-8.291-6.709-15-15-15h-45v30h45C309.291,211,316,204.291,316,196z"/>
	<path style="fill:#57D9D4;" d="M316,136c0-8.291-6.709-15-15-15h-45v30h45C309.291,151,316,144.291,316,136z"/>
	<path style="fill:#57D9D4;" d="M342.777,416.302c3.56-4.512,4.233-10.664,1.714-15.85C341.986,395.281,336.742,392,331,392h-15V256
		c0-8.291-6.709-15-15-15h-45v271c4.585,0,8.936-2.095,11.777-5.698L342.777,416.302z"/>
</g>
<g>
</g>
<g>
</g>
<g>
</g>
<g>
</g>
<g>
</g>
<g>
</g>
<g>
</g>
<g>
</g>
<g>
</g>
<g>
</g>
<g>
</g>
<g>
</g>
<g>
</g>
<g>
</g>
<g>
</g>
</svg>
