<?xml version="1.0" encoding="iso-8859-1"?>
<!-- Generator: Adobe Illustrator 23.1.0, SVG Export Plug-In . SVG Version: 6.00 Build 0)  -->
<svg version="1.1" id="Capa_1" xmlns="http://www.w3.org/2000/svg" xmlns:xlink="http://www.w3.org/1999/xlink" x="0px" y="0px"
	 viewBox="0 0 512 512" style="enable-background:new 0 0 512 512;" xml:space="preserve">
<g>
	<path style="fill:#EFE2DD;" d="M505.95,213.959l-91-66.929L256,146.488l-159.053-0.542l-91,68.086
		c-1.875,1.421-3.362,3.237-4.38,5.286l125.091,228.419H256l159.34-0.002l95.063-228.47
		C509.367,217.204,507.854,215.38,505.95,213.959z"/>
	<path style="fill:#CDBFBA;" d="M510.403,219.265c-1.036-2.062-2.549-3.885-4.453-5.306l-91-66.929L256,146.488v301.249
		l159.34-0.002L510.403,219.265z"/>
	<path style="fill:#FFF5F5;" d="M406,0H256H106c-8.291,0-15,6.709-15,15v428.5h165h165V15C421,6.709,414.291,0,406,0z"/>
	<path style="fill:#EFE2DD;" d="M421,15c0-8.291-6.709-15-15-15H256v443.5h165V15z"/>
	<path style="fill:#8CF2F2;" d="M302.5,219.399c-3.6,7.2-12.599,10.201-20.099,6.601L256,212.8L216.099,192.7
		c-7.5-3.602-10.499-12.601-6.599-20.101c1.5-2.999,4.2-5.4,7.2-6.599c3.9-2.1,8.699-2.1,12.9,0l26.4,13.2l39.901,20.099
		C303.401,202.899,306.4,211.899,302.5,219.399z"/>
	<path style="fill:#8CF2F2;" d="M295.901,132.7L256,152.8L229.6,166c-4.2,2.1-9,2.1-12.9,0c-2.999-1.201-5.7-3.6-7.2-6.601
		c-3.9-7.5-0.901-16.5,6.599-20.099L256,119.2l26.4-13.2c7.5-3.6,16.5-0.601,20.099,6.599
		C306.4,120.099,303.401,129.099,295.901,132.7z"/>
	<path style="fill:#57D9D4;" d="M302.5,219.399c-3.6,7.2-12.599,10.201-20.099,6.601L256,212.8v-33.6l39.901,20.099
		C303.401,202.899,306.4,211.899,302.5,219.399z"/>
	<path style="fill:#57D9D4;" d="M295.901,132.7L256,152.8v-33.6l26.4-13.2c7.5-3.6,16.5-0.601,20.099,6.599
		C306.4,120.099,303.401,129.099,295.901,132.7z"/>
	<path style="fill:#57D9D4;" d="M196,211c-24.814,0-45-20.186-45-45s20.186-45,45-45s45,20.186,45,45S220.814,211,196,211z"/>
	<path style="fill:#26BFBF;" d="M316,271c-24.814,0-45-20.186-45-45s20.186-45,45-45s45,20.186,45,45S340.814,271,316,271z"/>
	<path style="fill:#26BFBF;" d="M316,151c-24.814,0-45-20.186-45-45s20.186-45,45-45s45,20.186,45,45S340.814,151,316,151z"/>
	<path style="fill:#8CF2F2;" d="M510.403,219.265l-172.473,139.44l0.071,26.288l-24.051-6.788l-48.611,39.529
		c-2.732,2.175-6.037,3.265-9.34,3.265c-3.305,0.002-6.608-1.088-9.342-3.263l-48.62-39.523l-24.04,6.78l0.055-26.277L1.567,219.318
		C0.549,221.367,0,223.649,0,226v271c0,8.291,6.709,15,15,15h241h241c8.291,0,15-6.709,15-15V226
		C512,223.627,511.44,221.327,510.403,219.265z"/>
	<path style="fill:#57D9D4;" d="M512,497V226c0-2.373-0.56-4.673-1.597-6.735l-172.473,139.44l0.071,26.288l-24.051-6.788
		l-48.611,39.529c-2.732,2.175-6.037,3.265-9.34,3.265v91h241C505.291,512,512,505.291,512,497z"/>
	<path style="fill:#26BFBF;" d="M428.002,444.994c4.98-6.621,3.633-16.025-3.003-20.991l-87.068-65.297l-23.979,19.501l93.06,69.791
		C413.656,452.979,423.054,451.617,428.002,444.994z"/>
	<path style="fill:#57D9D4;" d="M83.998,444.994c4.951,6.627,14.352,7.983,20.991,3.003l93.049-69.783l-23.985-19.497
		l-87.052,65.286C80.365,428.969,79.018,438.373,83.998,444.994z"/>
</g>
<g>
</g>
<g>
</g>
<g>
</g>
<g>
</g>
<g>
</g>
<g>
</g>
<g>
</g>
<g>
</g>
<g>
</g>
<g>
</g>
<g>
</g>
<g>
</g>
<g>
</g>
<g>
</g>
<g>
</g>
</svg>
