<?xml version="1.0" encoding="iso-8859-1"?>
<!-- Generator: Adobe Illustrator 23.1.0, SVG Export Plug-In . SVG Version: 6.00 Build 0)  -->
<svg version="1.1" id="Capa_1" xmlns="http://www.w3.org/2000/svg" xmlns:xlink="http://www.w3.org/1999/xlink" x="0px" y="0px"
	 viewBox="0 0 512 512" style="enable-background:new 0 0 512 512;" xml:space="preserve">
<g>
	<g>
		<path style="fill:#465A61;" d="M271,0h-90H91C66.147,0,46,20.147,46,45v60h135h135V45C316,20.147,295.853,0,271,0z"/>
		<path style="fill:#3B4A51;" d="M316,45c0-24.853-20.147-45-45-45h-90v105h135V45z"/>
		<path style="fill:#465A61;" d="M181,407H46v60c0,24.853,20.147,45,45,45h90h90c24.853,0,45-20.147,45-45v-60H181z"/>
		<path style="fill:#3B4A51;" d="M316,467v-60H181v105h90C295.853,512,316,491.853,316,467z"/>
		<path style="fill:#FFE375;" d="M271,60h-90H91c-24.853,0-45,20.147-45,45v302c0,24.853,20.147,45,45,45h90h90
			c24.853,0,45-20.147,45-45V105C316,80.147,295.853,60,271,60z"/>
		<path style="fill:#FFB725;" d="M316,407V105c0-24.853-20.147-45-45-45h-90v392h90C295.853,452,316,431.853,316,407z"/>
	</g>
	<path style="fill:#FFF5F5;" d="M459.994,244.003c-17.139-12.861-31.685-23.921-44.194-33.428C350.966,161.269,337.475,151,301,151
		c-36.46,0-49.922,10.239-114.624,59.443c-12.539,9.536-27.144,20.64-44.37,33.56C138.227,246.83,136,251.283,136,256
		s2.227,9.17,6.006,11.997c17.139,12.861,31.685,23.921,44.194,33.428C251.034,350.731,264.525,361,301,361
		c36.46,0,49.922-10.239,114.624-59.443c12.539-9.536,27.144-20.64,44.37-33.56C463.773,265.17,466,260.717,466,256
		S463.773,246.83,459.994,244.003z"/>
	<path style="fill:#EFE2DD;" d="M459.994,267.997C463.773,265.17,466,260.717,466,256s-2.227-9.17-6.006-11.997
		c-17.139-12.861-31.685-23.921-44.194-33.428C350.966,161.269,337.475,151,301,151v210c36.46,0,49.922-10.239,114.624-59.443
		C428.163,292.021,442.768,280.917,459.994,267.997z"/>
	<circle style="fill:#57D9D4;" cx="301" cy="256" r="45"/>
	<path style="fill:#26BFBF;" d="M346,256c0-24.814-20.186-45-45-45v90C325.814,301,346,280.814,346,256z"/>
	<circle style="fill:#596C76;" cx="301" cy="256" r="15"/>
	<path style="fill:#465A61;" d="M316,256c0-8.276-6.724-15-15-15v30C309.276,271,316,264.276,316,256z"/>
</g>
<g>
</g>
<g>
</g>
<g>
</g>
<g>
</g>
<g>
</g>
<g>
</g>
<g>
</g>
<g>
</g>
<g>
</g>
<g>
</g>
<g>
</g>
<g>
</g>
<g>
</g>
<g>
</g>
<g>
</g>
</svg>
