<?xml version="1.0" encoding="iso-8859-1"?>
<!-- Generator: Adobe Illustrator 23.1.0, SVG Export Plug-In . SVG Version: 6.00 Build 0)  -->
<svg version="1.1" id="Capa_1" xmlns="http://www.w3.org/2000/svg" xmlns:xlink="http://www.w3.org/1999/xlink" x="0px" y="0px"
	 viewBox="0 0 512 512" style="enable-background:new 0 0 512 512;" xml:space="preserve">
<g>
	<rect x="272" y="302" style="fill:#465A61;" width="60" height="90"/>
	<path style="fill:#8CF2F2;" d="M407,0H226H45C20.186,0,0,20.186,0,45v242c0,24.814,20.186,45,45,45h15v45
		c0,5.537,3.047,10.62,7.925,13.228c4.81,2.58,10.745,2.353,15.396-0.747L170.541,332H226h226V45C452,20.186,431.814,0,407,0z"/>
	<path style="fill:#57D9D4;" d="M452,45c0-24.814-20.186-45-45-45H226v332h226V45z"/>
	<path style="fill:#FFB725;" d="M497,362h-15l-30-30l-30,30h-45H256c-8.291,0-15,6.709-15,15v120c0,8.291,6.709,15,15,15h121h120
		c8.291,0,15-6.709,15-15V377C512,368.709,505.291,362,497,362z"/>
	<path style="fill:#FF9100;" d="M512,497V377c0-8.291-6.709-15-15-15h-15l-30-30l-30,30h-45v150h120
		C505.291,512,512,505.291,512,497z"/>
	<path style="fill:#596C76;" d="M407,422h-30h-30c-8.291,0-15,6.709-15,15s6.709,15,15,15h30h30c8.291,0,15-6.709,15-15
		S415.291,422,407,422z"/>
	<path style="fill:#465A61;" d="M422,437c0-8.291-6.709-15-15-15h-30v30h30C415.291,452,422,445.291,422,437z"/>
	<path style="fill:#596C76;" d="M392,182c-5.098,0-10.1,0.489-15,1.324c-36.046,6.141-65.691,33.946-73.184,70.673
		c-0.908,4.424,0.22,9.009,3.076,12.495c2.842,3.486,7.119,5.508,11.616,5.508h31.055c6.357,0,12.012-3.999,14.136-9.99
		c2.426-6.835,7.311-12.145,13.301-15.652c4.499-2.635,9.56-4.358,15-4.358c16.538,0,30,13.462,30,30v90h60v-90
		C482,222.371,441.629,182,392,182z"/>
	<path style="fill:#465A61;" d="M422,272v90h60v-90c0-49.629-40.371-90-90-90c-5.098,0-10.1,0.489-15,1.324v63.034
		c4.499-2.635,9.56-4.358,15-4.358C408.538,242,422,255.462,422,272z"/>
</g>
<g>
</g>
<g>
</g>
<g>
</g>
<g>
</g>
<g>
</g>
<g>
</g>
<g>
</g>
<g>
</g>
<g>
</g>
<g>
</g>
<g>
</g>
<g>
</g>
<g>
</g>
<g>
</g>
<g>
</g>
</svg>
