<?xml version="1.0" encoding="iso-8859-1"?>
<!-- Generator: Adobe Illustrator 23.1.0, SVG Export Plug-In . SVG Version: 6.00 Build 0)  -->
<svg version="1.1" id="Capa_1" xmlns="http://www.w3.org/2000/svg" xmlns:xlink="http://www.w3.org/1999/xlink" x="0px" y="0px"
	 viewBox="0 0 512 512" style="enable-background:new 0 0 512 512;" xml:space="preserve">
<g>
	<g>
		<path style="fill:#465A61;" d="M346,0h-90h-90c-24.853,0-45,20.147-45,45v60h135h135V45C391,20.147,370.853,0,346,0z"/>
		<path style="fill:#3B4A51;" d="M391,45c0-24.853-20.147-45-45-45h-90v105h135V45z"/>
		<path style="fill:#465A61;" d="M256,406H121v60c0,24.853,20.147,46,45,46h90h90c24.853,0,45-21.147,45-46v-60H256z"/>
		<path style="fill:#3B4A51;" d="M391,466v-60H256v106h90C370.853,512,391,490.853,391,466z"/>
		<path style="fill:#FF7C48;" d="M346,60h-90h-90c-24.853,0-45,20.147-45,45v301c0,24.853,20.147,45,45,45h90h90
			c24.853,0,45-20.147,45-45V105C391,80.147,370.853,60,346,60z"/>
		<path style="fill:#FF415B;" d="M391,406V105c0-24.853-20.147-45-45-45h-90v391h90C370.853,451,391,430.853,391,406z"/>
	</g>
	<path style="fill:#FFF5F5;" d="M324.32,243.52L256,197.972l-21.68-14.453c-4.614-3.076-10.518-3.369-15.396-0.747
		C214.047,185.38,211,190.463,211,196v120c0,5.537,3.047,10.62,7.925,13.228c4.81,2.58,10.745,2.355,15.396-0.747L256,314.028
		l68.32-45.547c4.175-2.783,6.68-7.471,6.68-12.48S328.495,246.303,324.32,243.52z"/>
	<path style="fill:#EFE2DD;" d="M331,256c0-5.01-2.505-9.697-6.68-12.48L256,197.972v116.056l68.32-45.547
		C328.495,265.697,331,261.01,331,256z"/>
</g>
<g>
</g>
<g>
</g>
<g>
</g>
<g>
</g>
<g>
</g>
<g>
</g>
<g>
</g>
<g>
</g>
<g>
</g>
<g>
</g>
<g>
</g>
<g>
</g>
<g>
</g>
<g>
</g>
<g>
</g>
</svg>
