<?xml version="1.0" encoding="iso-8859-1"?>
<!-- Generator: Adobe Illustrator 23.1.0, SVG Export Plug-In . SVG Version: 6.00 Build 0)  -->
<svg version="1.1" id="Capa_1" xmlns="http://www.w3.org/2000/svg" xmlns:xlink="http://www.w3.org/1999/xlink" x="0px" y="0px"
	 viewBox="0 0 512 512" style="enable-background:new 0 0 512 512;" xml:space="preserve">
<g>
	<path style="fill:#8CF2F2;" d="M467,31H286H106c-24.853,0-46,20.147-46,45v240c0,24.853,21.147,45,46,45h180h181
		c24.853,0,45-20.147,45-45V76C512,51.147,491.853,31,467,31z"/>
	<path style="fill:#57D9D4;" d="M512,316V76c0-24.853-20.147-45-45-45H286v330h181C491.853,361,512,340.853,512,316z"/>
	<path style="fill:#FF7C48;" d="M407,91H226H45c-24.814,0-45,20.186-45,45v240c0,24.814,20.186,45,45,45h15v45
		c0,5.537,3.047,10.62,7.925,13.228c4.81,2.58,10.745,2.355,15.396-0.747L170.541,421H226h181c24.814,0,45-20.186,45-45V136
		C452,111.185,431.814,91,407,91z"/>
	<path style="fill:#FF415B;" d="M452,376V136c0-24.814-20.186-45-45-45H226v330h181C431.814,421,452,400.814,452,376z"/>
	<path style="fill:#FFF5F5;" d="M279.071,151c-25.239,0-42.012,13.594-52.515,27.363c-0.163-0.22-0.392-0.412-0.557-0.632
		C215.272,163.473,198.743,151,175.229,151c-37.529,0-66.914,31.348-66.914,71.367c0,43.286,33.164,71.426,83.364,114.023
		c7.72,6.548,15.908,13.506,24.492,20.947c2.827,2.446,6.328,3.662,9.829,3.662s7.002-1.216,9.829-3.662
		c10.195-8.848,19.893-16.978,28.975-24.595C311.942,293.163,346,264.584,346,222.367C346,182.348,316.601,151,279.071,151z"/>
	<path style="fill:#EFE2DD;" d="M264.804,332.743C311.942,293.163,346,264.584,346,222.367c0-40.02-29.399-71.367-66.929-71.367
		c-25.239,0-42.012,13.594-52.515,27.363c-0.163-0.22-0.392-0.412-0.557-0.632V361c3.501,0,7.002-1.216,9.829-3.662
		C246.024,348.49,255.722,340.36,264.804,332.743z"/>
</g>
<g>
</g>
<g>
</g>
<g>
</g>
<g>
</g>
<g>
</g>
<g>
</g>
<g>
</g>
<g>
</g>
<g>
</g>
<g>
</g>
<g>
</g>
<g>
</g>
<g>
</g>
<g>
</g>
<g>
</g>
</svg>
