<?xml version="1.0" encoding="iso-8859-1"?>
<!-- Generator: Adobe Illustrator 23.1.0, SVG Export Plug-In . SVG Version: 6.00 Build 0)  -->
<svg version="1.1" id="Capa_1" xmlns="http://www.w3.org/2000/svg" xmlns:xlink="http://www.w3.org/1999/xlink" x="0px" y="0px"
	 viewBox="0 0 512 512" style="enable-background:new 0 0 512 512;" xml:space="preserve">
<g>
	<path style="fill:#FFE375;" d="M450.312,401.088C489.54,360.512,512,309.403,512,255.995c0-124.072-115.39-225-256-225
		c-107.476,0-204.979,59.927-241.146,149.121C4.995,204.418,0,229.95,0,255.995c0,124.072,115.39,225,256,225
		c37.646,0,74.077-7.236,108.398-21.519l98.452,21.182c5.339,1.203,11.349-0.747,15-5.479c3.545-4.556,4.146-10.737,1.567-15.894
		L450.312,401.088z"/>
	<path style="fill:#FFB725;" d="M462.851,480.658c5.339,1.203,11.349-0.747,15-5.479c3.545-4.556,4.146-10.737,1.567-15.894
		l-29.106-58.198C489.54,360.512,512,309.403,512,255.995c0-124.072-115.39-225-256-225v450c37.646,0,74.077-7.236,108.398-21.519
		L462.851,480.658z"/>
	<g>
		<path style="fill:#465A61;" d="M136,225.995h120h120c8.291,0,15-6.709,15-15s-6.709-15-15-15H256H136c-8.291,0-15,6.709-15,15
			S127.709,225.995,136,225.995z"/>
	</g>
	<path style="fill:#465A61;" d="M376,285.995H256H136c-8.291,0-15,6.709-15,15s6.709,15,15,15h120h120c8.291,0,15-6.709,15-15
		S384.291,285.995,376,285.995z"/>
	<path style="fill:#3B4A51;" d="M391,210.995c0-8.291-6.709-15-15-15H256v30h120C384.291,225.995,391,219.286,391,210.995z"/>
	<path style="fill:#3B4A51;" d="M391,300.995c0-8.291-6.709-15-15-15H256v30h120C384.291,315.995,391,309.286,391,300.995z"/>
	<path style="fill:#465A61;" d="M161.884,375.424c-7.969-2.285-12.583-10.591-10.313-18.545l60-210
		c2.285-7.983,10.664-12.466,18.545-10.313c7.969,2.285,12.583,10.591,10.313,18.545l-60,210
		C178.205,372.868,170.137,377.707,161.884,375.424z"/>
	<path style="fill:#3B4A51;" d="M281.884,375.424c-7.969-2.285-12.583-10.591-10.313-18.545l60-210
		c2.285-7.983,10.693-12.466,18.545-10.313c7.969,2.285,12.583,10.591,10.313,18.545l-60,210
		C298.205,372.868,290.137,377.707,281.884,375.424z"/>
</g>
<g>
</g>
<g>
</g>
<g>
</g>
<g>
</g>
<g>
</g>
<g>
</g>
<g>
</g>
<g>
</g>
<g>
</g>
<g>
</g>
<g>
</g>
<g>
</g>
<g>
</g>
<g>
</g>
<g>
</g>
</svg>
