<?xml version="1.0" encoding="iso-8859-1"?>
<!-- Generator: Adobe Illustrator 23.1.0, SVG Export Plug-In . SVG Version: 6.00 Build 0)  -->
<svg version="1.1" id="Capa_1" xmlns="http://www.w3.org/2000/svg" xmlns:xlink="http://www.w3.org/1999/xlink" x="0px" y="0px"
	 viewBox="0 0 512 512" style="enable-background:new 0 0 512 512;" xml:space="preserve">
<g>
	<path style="fill:#FF7C48;" d="M467,30.975H166c-24.901,0-45,20.099-45,45v180c0,24.899,20.099,45,45,45h301
		c24.901,0,45-20.101,45-45v-180C512,51.075,491.901,30.975,467,30.975z"/>
	<path style="fill:#FF415B;" d="M512,75.975v180c0,24.899-20.099,45-45,45H316v-270h151C491.901,30.975,512,51.075,512,75.975z"/>
	<path style="fill:#8CF2F2;" d="M406,90.975H106c-24.901,0-45,20.099-45,45v180c0,24.899,20.099,45,45,45h300
		c24.901,0,45-20.101,45-45v-180C451,111.075,430.901,90.975,406,90.975z"/>
	<path style="fill:#57D9D4;" d="M451,135.975v180c0,24.899-20.099,45-45,45H256v-270h150C430.901,90.975,451,111.075,451,135.975z"
		/>
	<path style="fill:#FFE375;" d="M346,150.975H46c-24.901,0-46,20.099-46,45v180c0,24.899,21.099,45,46,45h15v45
		c0,5.4,2.999,10.499,7.8,13.2c4.799,2.699,10.8,2.399,15.601-0.601l86.1-57.599H346c24.901,0,45-20.101,45-45v-180
		C391,171.075,370.901,150.975,346,150.975z"/>
	<path style="fill:#FFB725;" d="M391,195.975v180c0,24.899-20.099,45-45,45H196v-270h150C370.901,150.975,391,171.075,391,195.975z"
		/>
	<path style="fill:#596C76;" d="M301,255.975c0,8.399-6.599,15-15,15H106c-8.401,0-15-6.601-15-15c0-8.401,6.599-15,15-15h180
		C294.401,240.975,301,247.574,301,255.975z"/>
	<path style="fill:#596C76;" d="M301,315.975c0,8.399-6.599,15-15,15H106c-8.401,0-15-6.601-15-15c0-8.401,6.599-15,15-15h180
		C294.401,300.975,301,307.574,301,315.975z"/>
	<path style="fill:#465A61;" d="M301,315.975c0,8.399-6.599,15-15,15h-90v-30h90C294.401,300.975,301,307.574,301,315.975z"/>
	<path style="fill:#465A61;" d="M286,270.975h-90v-30h90c8.401,0,15,6.599,15,15C301,264.374,294.401,270.975,286,270.975z"/>
</g>
<g>
</g>
<g>
</g>
<g>
</g>
<g>
</g>
<g>
</g>
<g>
</g>
<g>
</g>
<g>
</g>
<g>
</g>
<g>
</g>
<g>
</g>
<g>
</g>
<g>
</g>
<g>
</g>
<g>
</g>
</svg>
