<?xml version="1.0" encoding="iso-8859-1"?>
<!-- Generator: Adobe Illustrator 23.1.0, SVG Export Plug-In . SVG Version: 6.00 Build 0)  -->
<svg version="1.1" id="Capa_1" xmlns="http://www.w3.org/2000/svg" xmlns:xlink="http://www.w3.org/1999/xlink" x="0px" y="0px"
	 viewBox="0 0 512 512" style="enable-background:new 0 0 512 512;" xml:space="preserve">
<g>
	<path style="fill:#FF9100;" d="M497,91H361v330h136c8.291,0,15-6.709,15-15V106C512,97.709,505.291,91,497,91z"/>
	<path style="fill:#FFB725;" d="M15,91c-8.291,0-15,6.709-15,15v300c0,8.291,6.709,15,15,15h136V91H15z"/>
	<path style="fill:#FFF5F5;" d="M421,151v315c0,8.399-6.599,15-15,15H106c-8.401,0-15-6.601-15-15V46c0-8.401,6.599-15,15-15h195
		L421,151z"/>
	<path style="fill:#EFE2DD;" d="M421,151v315c0,8.399-6.599,15-15,15H256V31h45L421,151z"/>
	<path style="fill:#CDBFBA;" d="M416.605,125.395l-90-90C323.793,32.582,319.984,31,316,31h-15v105c0,8.284,6.716,15,15,15h105v-15
		C421,132.016,419.418,128.207,416.605,125.395z"/>
	<path style="fill:#EFE2DD;" d="M331,376c0,8.399-6.599,15-15,15H196c-8.401,0-15-6.601-15-15c0-8.401,6.599-15,15-15h120
		C324.401,361,331,367.599,331,376z"/>
	<path style="fill:#EFE2DD;" d="M331,316c0,8.399-6.599,15-15,15H196c-8.401,0-15-6.601-15-15c0-8.401,6.599-15,15-15h120
		C324.401,301,331,307.599,331,316z"/>
	<path style="fill:#EFE2DD;" d="M331,256c0,8.399-6.599,15-15,15H196c-8.401,0-15-6.601-15-15c0-8.401,6.599-15,15-15h120
		C324.401,241,331,247.599,331,256z"/>
	<path style="fill:#EFE2DD;" d="M331,196c0,8.399-6.599,15-15,15H196c-8.401,0-15-6.601-15-15c0-8.401,6.599-15,15-15h120
		C324.401,181,331,187.599,331,196z"/>
	<path style="fill:#EFE2DD;" d="M271,136c0,8.399-6.599,15-15,15h-60c-8.401,0-15-6.601-15-15c0-8.401,6.599-15,15-15h60
		C264.401,121,271,127.599,271,136z"/>
	<path style="fill:#CDBFBA;" d="M256,151v-30c8.401,0,15,6.599,15,15C271,144.399,264.401,151,256,151z"/>
	<path style="fill:#CDBFBA;" d="M331,376c0,8.399-6.599,15-15,15h-60v-30h60C324.401,361,331,367.599,331,376z"/>
	<path style="fill:#CDBFBA;" d="M331,316c0,8.399-6.599,15-15,15h-60v-30h60C324.401,301,331,307.599,331,316z"/>
	<path style="fill:#CDBFBA;" d="M331,256c0,8.399-6.599,15-15,15h-60v-30h60C324.401,241,331,247.599,331,256z"/>
	<path style="fill:#CDBFBA;" d="M316,211h-60v-30h60c8.401,0,15,6.599,15,15C331,204.399,324.401,211,316,211z"/>
</g>
<g>
</g>
<g>
</g>
<g>
</g>
<g>
</g>
<g>
</g>
<g>
</g>
<g>
</g>
<g>
</g>
<g>
</g>
<g>
</g>
<g>
</g>
<g>
</g>
<g>
</g>
<g>
</g>
<g>
</g>
</svg>
