<?xml version="1.0" encoding="iso-8859-1"?>
<!-- Generator: Adobe Illustrator 23.1.0, SVG Export Plug-In . SVG Version: 6.00 Build 0)  -->
<svg version="1.1" id="Capa_1" xmlns="http://www.w3.org/2000/svg" xmlns:xlink="http://www.w3.org/1999/xlink" x="0px" y="0px"
	 viewBox="0 0 512 512" style="enable-background:new 0 0 512 512;" xml:space="preserve">
<g>
	<g>
		<path style="fill:#465A61;" d="M286.039,0h-90h-90c-24.853,0-45,20.147-45,45v61h135h135V45C331.039,20.147,310.891,0,286.039,0z"
			/>
		<path style="fill:#3B4A51;" d="M331.039,45c0-24.853-20.147-45-45-45h-90v106h135V45z"/>
		<path style="fill:#465A61;" d="M196.039,406h-135v60c0,24.853,20.147,46,45,46h90h90c24.853,0,45-21.147,45-46v-60H196.039z"/>
		<path style="fill:#3B4A51;" d="M331.039,466v-60h-135v106h90C310.891,512,331.039,490.853,331.039,466z"/>
		<path style="fill:#FFE375;" d="M286.039,60h-90h-90c-24.853,0-45,21.147-45,46v300c0,24.853,20.147,45,45,45h90h90
			c24.853,0,45-20.147,45-45V106C331.039,81.147,310.891,60,286.039,60z"/>
		<path style="fill:#FFB725;" d="M331.039,406V106c0-24.853-20.147-46-45-46h-90v391h90C310.891,451,331.039,430.853,331.039,406z"
			/>
	</g>
	<path style="fill:#57D9D4;" d="M443.455,277.021l-21.812-12.598c0.249-2.769,0.396-5.581,0.396-8.423s-0.146-5.654-0.396-8.423
		l21.812-12.598c7.178-4.146,9.639-13.315,5.493-20.493l-30-51.973c-1.992-3.442-5.273-5.962-9.111-6.987s-7.925-0.498-11.382,1.494
		l-22.163,12.803c-4.541-3.135-9.302-5.903-14.253-8.276V136c0-8.291-6.709-15-15-15h-30h-30c-8.291,0-15,6.709-15,15v25.547
		c-4.951,2.373-9.712,5.142-14.253,8.276l-22.163-12.803c-3.457-1.992-7.559-2.52-11.382-1.494
		c-3.838,1.025-7.119,3.545-9.111,6.987l-30,51.973c-4.146,7.178-1.685,16.348,5.493,20.493l21.812,12.598
		c-0.249,2.769-0.396,5.581-0.396,8.423s0.146,5.654,0.396,8.423l-21.812,12.598c-7.178,4.146-9.639,13.315-5.493,20.493l30,51.973
		c1.992,3.442,5.273,5.962,9.111,6.987c3.823,1.011,7.925,0.483,11.382-1.494l22.163-12.803c4.541,3.135,9.302,5.903,14.253,8.276
		V376c0,8.291,6.709,15,15,15h30h30c8.291,0,15-6.709,15-15v-25.547c4.951-2.373,9.712-5.142,14.253-8.276l22.163,12.803
		c3.457,1.978,7.544,2.505,11.382,1.494c3.838-1.025,7.119-3.545,9.111-6.987l30-51.973
		C453.093,290.336,450.632,281.166,443.455,277.021z M317.039,301c-24.814,0-45-20.186-45-45s20.186-45,45-45s45,20.186,45,45
		S341.853,301,317.039,301z"/>
	<path style="fill:#26BFBF;" d="M362.039,376v-25.547c4.951-2.373,9.712-5.142,14.253-8.276l22.163,12.803
		c3.457,1.978,7.544,2.505,11.382,1.494c3.838-1.025,7.119-3.545,9.111-6.987l30-51.973c4.146-7.178,1.685-16.348-5.493-20.493
		l-21.812-12.598c0.249-2.769,0.396-5.581,0.396-8.423s-0.146-5.654-0.396-8.423l21.812-12.598
		c7.178-4.146,9.639-13.315,5.493-20.493l-30-51.973c-1.992-3.442-5.273-5.962-9.111-6.987s-7.925-0.498-11.382,1.494
		l-22.163,12.803c-4.541-3.135-9.302-5.903-14.253-8.276V136c0-8.291-6.709-15-15-15h-30v90c24.814,0,45,20.186,45,45
		s-20.186,45-45,45v90h30C355.33,391,362.039,384.291,362.039,376z"/>
</g>
<g>
</g>
<g>
</g>
<g>
</g>
<g>
</g>
<g>
</g>
<g>
</g>
<g>
</g>
<g>
</g>
<g>
</g>
<g>
</g>
<g>
</g>
<g>
</g>
<g>
</g>
<g>
</g>
<g>
</g>
</svg>
