<?xml version="1.0" encoding="iso-8859-1"?>
<!-- Generator: Adobe Illustrator 23.1.0, SVG Export Plug-In . SVG Version: 6.00 Build 0)  -->
<svg version="1.1" id="Capa_1" xmlns="http://www.w3.org/2000/svg" xmlns:xlink="http://www.w3.org/1999/xlink" x="0px" y="0px"
	 viewBox="0 0 512.008 512.008" style="enable-background:new 0 0 512.008 512.008;" xml:space="preserve">
<g>
	<path style="fill:#FF7C48;" d="M191.54,320.475l-31.82-31.82L13.151,435.221c-17.534,17.534-17.534,46.069,0,63.647
		c17.538,17.509,46.113,17.534,63.633-0.015l146.569-146.566L191.54,320.475z"/>
	<path style="fill:#FF415B;" d="M76.783,498.854l146.569-146.566l-31.813-31.813L13.151,498.869
		C30.688,516.377,59.264,516.403,76.783,498.854z"/>
	<path style="fill:#596C76;" d="M454.886,57.122c-76.225-76.225-199.671-76.1-275.771,0c-76.225,76.223-76.1,199.671,0,275.771
		c0.002,0.002,0.004,0.002,0.005,0.004c76.223,76.218,199.667,76.093,275.766-0.004C531.111,256.669,530.986,133.221,454.886,57.122
		z"/>
	<path style="fill:#465A61;" d="M454.886,332.894c76.225-76.225,76.1-199.673,0-275.771L179.12,332.897
		C255.343,409.115,378.787,408.99,454.886,332.894z"/>
	<path style="fill:#FFF5F5;" d="M433.618,78.39c-64.537-64.537-168.739-64.497-233.236,0c-64.537,64.536-64.497,168.739,0,233.236
		c0.002,0.002,0.004,0.002,0.005,0.004c64.536,64.53,168.735,64.49,233.231-0.004C498.155,247.088,498.115,142.885,433.618,78.39z"
		/>
	<path style="fill:#EFE2DD;" d="M433.618,311.626c64.537-64.537,64.497-168.741,0-233.236l-233.231,233.24
		C264.923,376.16,369.123,376.119,433.618,311.626z"/>
	<path style="fill:#8CF2F2;" d="M412.416,99.592C387.972,75.147,354.222,60.008,317,60.008c-74.443,0-135,60.557-135,135
		c0,37.224,15.141,70.975,39.587,95.42c24.445,24.443,58.193,39.58,95.413,39.58c74.443,0,135-60.557,135-135
		C452,157.786,436.861,124.036,412.416,99.592z"/>
	<path style="fill:#57D9D4;" d="M452,195.008c0-37.222-15.139-70.972-39.584-95.416L221.587,290.428
		c24.445,24.443,58.193,39.58,95.413,39.58C391.443,330.008,452,269.451,452,195.008z"/>
	<path style="fill:#57D9D4;" d="M391.209,120.799C372.195,101.785,345.945,90.008,317,90.008c-57.891,0-105,47.109-105,105
		c0,28.947,11.779,55.199,30.795,74.213c19.014,19.012,45.262,30.787,74.205,30.787c57.891,0,105-47.109,105-105
		C422,166.062,410.223,139.812,391.209,120.799z"/>
	<path style="fill:#26BFBF;" d="M422,195.008c0-28.945-11.777-55.195-30.791-74.209L242.795,269.22
		c19.014,19.012,45.262,30.787,74.205,30.787C374.891,300.008,422,252.898,422,195.008z"/>
	<path style="fill:#8CF2F2;" d="M437,180.008H332.004H197c-8.291,0-15,6.709-15,15s6.709,15,15,15h105.005H437
		c8.291,0,15-6.709,15-15S445.291,180.008,437,180.008z"/>
	<path style="fill:#57D9D4;" d="M452,195.008c0-8.291-6.709-15-15-15H332.004l-29.998,30H437
		C445.291,210.008,452,203.299,452,195.008z"/>
	<path style="fill:#8CF2F2;" d="M371.996,140.016C363.778,95.32,345.334,60.008,317,60.008c-39.39,0-60,67.91-60,135
		c0,18.834,1.798,37.557,5.006,54.999c8.22,44.691,26.662,80.001,54.994,80.001c39.39,0,60-67.91,60-135
		C377,176.177,375.202,157.457,371.996,140.016z M317,300.008c-7.385,0-23.721-26.755-28.533-76.461
		c-0.859-8.866-1.467-18.215-1.467-28.539c0-68.203,21.299-105,30-105c7.385,0,23.723,26.755,28.535,76.469
		c0.859,8.864,1.465,18.212,1.465,28.531C347,263.211,325.701,300.008,317,300.008z"/>
	<path style="fill:#57D9D4;" d="M317,330.008c39.39,0,60-67.91,60-135c0-18.831-1.798-37.551-5.004-54.992l-26.461,26.461
		c0.859,8.864,1.465,18.212,1.465,28.531c0,68.203-21.299,105-30,105c-7.385,0-23.721-26.755-28.533-76.461l-26.461,26.461
		C270.226,294.698,288.668,330.008,317,330.008z"/>
</g>
<g>
</g>
<g>
</g>
<g>
</g>
<g>
</g>
<g>
</g>
<g>
</g>
<g>
</g>
<g>
</g>
<g>
</g>
<g>
</g>
<g>
</g>
<g>
</g>
<g>
</g>
<g>
</g>
<g>
</g>
</svg>
