<?xml version="1.0" encoding="iso-8859-1"?>
<!-- Generator: Adobe Illustrator 23.1.0, SVG Export Plug-In . SVG Version: 6.00 Build 0)  -->
<svg version="1.1" id="Capa_1" xmlns="http://www.w3.org/2000/svg" xmlns:xlink="http://www.w3.org/1999/xlink" x="0px" y="0px"
	 viewBox="0 0 512 512" style="enable-background:new 0 0 512 512;" xml:space="preserve">
<g>
	<path style="fill:#FF7C48;" d="M256,61C148.599,61,61,148.599,61,256c0,107.399,87.599,195,195,195s195-87.601,195-195
		C451,148.599,363.401,61,256,61z M256,421c-90.901,0-165-74.101-165-165c0-90.901,74.099-165,165-165s165,74.099,165,165
		C421,346.899,346.901,421,256,421z"/>
	<path style="fill:#FF415B;" d="M451,256c0,107.399-87.599,195-195,195v-30c90.901,0,165-74.101,165-165
		c0-90.901-74.099-165-165-165V61C363.401,61,451,148.599,451,256z"/>
	<path style="fill:#FF7C48;" d="M271,376v121c0,8.399-6.599,15-15,15s-15-6.601-15-15V376c0-8.401,6.599-15,15-15
		S271,367.599,271,376z"/>
	<path style="fill:#FF7C48;" d="M271,15v121c0,8.399-6.599,15-15,15s-15-6.601-15-15V15c0-8.401,6.599-15,15-15S271,6.599,271,15z"
		/>
	<path style="fill:#FF415B;" d="M271,15v121c0,8.399-6.599,15-15,15V0C264.401,0,271,6.599,271,15z"/>
	<path style="fill:#FF415B;" d="M271,376v121c0,8.399-6.599,15-15,15V361C264.401,361,271,367.599,271,376z"/>
	<path style="fill:#FF7C48;" d="M136,271H15c-8.291,0-15-6.709-15-15s6.709-15,15-15h121c8.291,0,15,6.709,15,15
		S144.291,271,136,271z"/>
	<path style="fill:#FF415B;" d="M497,271H376c-8.291,0-15-6.709-15-15s6.709-15,15-15h121c8.291,0,15,6.709,15,15
		S505.291,271,497,271z"/>
	<g>
		<circle style="fill:#FFF5F5;" cx="256" cy="256" r="135"/>
		<path style="fill:#EFE2DD;" d="M391,256c0-74.559-60.441-135-135-135v270C330.559,391,391,330.559,391,256z"/>
		<path style="fill:#57D9D4;" d="M256,271c-36.224,0-66.443,25.681-73.458,59.828C201.499,349.439,227.404,361,256,361
			s54.501-11.561,73.458-30.172C322.443,296.681,292.224,271,256,271z"/>
		<path style="fill:#26BFBF;" d="M256,271v90c28.596,0,54.501-11.561,73.458-30.172C322.443,296.681,292.224,271,256,271z"/>
		<circle style="fill:#FFCEBF;" cx="256" cy="226" r="45"/>
		<path style="fill:#FFBFAB;" d="M301,226c0-24.814-20.186-45-45-45v90C280.814,271,301,250.814,301,226z"/>
	</g>
</g>
<g>
</g>
<g>
</g>
<g>
</g>
<g>
</g>
<g>
</g>
<g>
</g>
<g>
</g>
<g>
</g>
<g>
</g>
<g>
</g>
<g>
</g>
<g>
</g>
<g>
</g>
<g>
</g>
<g>
</g>
</svg>
