<?xml version="1.0" encoding="iso-8859-1"?>
<!-- Generator: Adobe Illustrator 23.1.0, SVG Export Plug-In . SVG Version: 6.00 Build 0)  -->
<svg version="1.1" id="Capa_1" xmlns="http://www.w3.org/2000/svg" xmlns:xlink="http://www.w3.org/1999/xlink" x="0px" y="0px"
	 viewBox="0 0 512 512" style="enable-background:new 0 0 512 512;" xml:space="preserve">
<g>
	<path style="fill:#8CF2F2;" d="M481,120v315c0,8.399-6.599,15-15,15H166c-8.401,0-15-6.601-15-15V15c0-8.401,6.599-15,15-15h195
		L481,120z"/>
	<path style="fill:#57D9D4;" d="M481,120v315c0,8.399-6.599,15-15,15H316V0h45L481,120z"/>
	<path style="fill:#26BFBF;" d="M476.605,94.395l-90-90C383.793,1.582,379.984,0,376,0h-15v105c0,8.284,6.716,15,15,15h105v-15
		C481,101.016,479.418,97.207,476.605,94.395z"/>
	<path style="fill:#FFF5F5;" d="M361,180v317c0,8.399-6.599,15-15,15H46c-8.401,0-15-6.601-15-15V75c0-8.401,6.599-15,15-15h195
		L361,180z"/>
	<path style="fill:#EFE2DD;" d="M361,180v317c0,8.399-6.599,15-15,15H196V60h45L361,180z"/>
	<path style="fill:#CDBFBA;" d="M356.605,154.395l-90-90C263.793,61.582,259.984,60,256,60h-15v105c0,8.284,6.716,15,15,15h105v-15
		C361,161.016,359.418,157.207,356.605,154.395z"/>
	<path style="fill:#EFE2DD;" d="M211,135c0,8.399-6.599,15-15,15h-90c-8.401,0-15-6.601-15-15c0-8.401,6.599-15,15-15h90
		C204.401,120,211,126.599,211,135z"/>
	<path style="fill:#EFE2DD;" d="M211,195c0,8.399-6.599,15-15,15h-90c-8.401,0-15-6.601-15-15c0-8.401,6.599-15,15-15h90
		C204.401,180,211,186.599,211,195z"/>
	<path style="fill:#CDBFBA;" d="M211,195c0,8.399-6.599,15-15,15v-30C204.401,180,211,186.599,211,195z"/>
	<path style="fill:#CDBFBA;" d="M196,150v-30c8.401,0,15,6.599,15,15C211,143.399,204.401,150,196,150z"/>
	<path style="fill:#8CF2F2;" d="M242.5,398.399c-3.6,7.2-12.599,10.201-20.099,6.601L196,391.8L156.099,371.7
		c-7.5-3.602-10.499-12.601-6.599-20.101c1.5-2.999,4.2-5.4,7.2-6.599c3.9-2.1,8.699-2.1,12.9,0l26.4,13.2l39.901,20.099
		C243.401,381.899,246.4,390.899,242.5,398.399z"/>
	<path style="fill:#8CF2F2;" d="M235.901,311.7L196,331.8L169.6,345c-4.2,2.1-9,2.1-12.9,0c-2.999-1.201-5.7-3.6-7.2-6.601
		c-3.9-7.5-0.901-16.5,6.599-20.099L196,298.2l26.4-13.2c7.5-3.6,16.5-0.601,20.099,6.599
		C246.4,299.099,243.401,308.099,235.901,311.7z"/>
	<path style="fill:#57D9D4;" d="M242.5,398.399c-3.6,7.2-12.599,10.201-20.099,6.601L196,391.8v-33.6l39.901,20.099
		C243.401,381.899,246.4,390.899,242.5,398.399z"/>
	<path style="fill:#57D9D4;" d="M235.901,311.7L196,331.8v-33.6l26.4-13.2c7.5-3.6,16.5-0.601,20.099,6.599
		C246.4,299.099,243.401,308.099,235.901,311.7z"/>
	<path style="fill:#57D9D4;" d="M136,390c-24.814,0-45-20.186-45-45s20.186-45,45-45s45,20.186,45,45S160.814,390,136,390z"/>
	<path style="fill:#26BFBF;" d="M256,450c-24.814,0-45-20.186-45-45s20.186-45,45-45s45,20.186,45,45S280.814,450,256,450z"/>
	<path style="fill:#26BFBF;" d="M256,330c-24.814,0-45-20.186-45-45s20.186-45,45-45s45,20.186,45,45S280.814,330,256,330z"/>
</g>
<g>
</g>
<g>
</g>
<g>
</g>
<g>
</g>
<g>
</g>
<g>
</g>
<g>
</g>
<g>
</g>
<g>
</g>
<g>
</g>
<g>
</g>
<g>
</g>
<g>
</g>
<g>
</g>
<g>
</g>
</svg>
