<?xml version="1.0" encoding="iso-8859-1"?>
<!-- Generator: Adobe Illustrator 23.1.0, SVG Export Plug-In . SVG Version: 6.00 Build 0)  -->
<svg version="1.1" id="Capa_1" xmlns="http://www.w3.org/2000/svg" xmlns:xlink="http://www.w3.org/1999/xlink" x="0px" y="0px"
	 viewBox="0 0 512 512" style="enable-background:new 0 0 512 512;" xml:space="preserve">
<g>
	<path style="fill:#FFF5F5;" d="M419.667,121.879c-6.343-33.179-34.629-59.682-69.141-61.747C333.314,23.745,296.62,0,256,0
		s-77.314,23.745-94.526,60.132c-34.512,2.065-62.798,28.568-69.141,61.747C40.873,128.603,0,172.738,0,226
		c0,44.429,29.124,84.229,70.99,99.009C82.211,328.979,93.988,331,106,331h150h150c12.012,0,23.789-2.021,34.995-5.977
		C482.874,310.229,512,270.429,512,226C512,172.738,471.127,128.603,419.667,121.879z"/>
	<path style="fill:#EFE2DD;" d="M440.995,325.023C482.874,310.229,512,270.429,512,226c0-53.262-40.873-97.397-92.333-104.121
		c-6.343-33.179-34.629-59.682-69.141-61.747C333.314,23.745,296.62,0,256,0v331h150C418.012,331,429.789,328.979,440.995,325.023z"
		/>
	<path style="fill:#FF7C48;" d="M406,241H256H106c-8.291,0-15,6.709-15,15v241c0,8.291,6.709,15,15,15h150h150
		c8.291,0,15-6.709,15-15V256C421,247.709,414.291,241,406,241z"/>
	<path style="fill:#FF415B;" d="M421,497V256c0-8.291-6.709-15-15-15H256v271h150C414.291,512,421,505.291,421,497z"/>
	<path style="fill:#57D9D4;" d="M226,211c-8.291,0-15-6.709-15-15v-60c0-8.291,6.709-15,15-15s15,6.709,15,15v60
		C241,204.291,234.291,211,226,211z"/>
	<path style="fill:#26BFBF;" d="M286,211c-8.291,0-15-6.709-15-15v-60c0-8.291,6.709-15,15-15s15,6.709,15,15v60
		C301,204.291,294.291,211,286,211z"/>
	<path style="fill:#FFF5F5;" d="M324.32,363.52L256,317.972l-21.68-14.453c-4.585-3.076-10.532-3.34-15.396-0.747
		C214.047,305.38,211,310.463,211,316v120c0,5.537,3.047,10.62,7.925,13.228c4.81,2.58,10.745,2.353,15.396-0.747L256,434.028
		l68.32-45.547c4.175-2.783,6.68-7.471,6.68-12.48S328.495,366.303,324.32,363.52z"/>
	<path style="fill:#EFE2DD;" d="M331,376c0-5.01-2.505-9.697-6.68-12.48L256,317.972v116.056l68.32-45.547
		C328.495,385.697,331,381.01,331,376z"/>
</g>
<g>
</g>
<g>
</g>
<g>
</g>
<g>
</g>
<g>
</g>
<g>
</g>
<g>
</g>
<g>
</g>
<g>
</g>
<g>
</g>
<g>
</g>
<g>
</g>
<g>
</g>
<g>
</g>
<g>
</g>
</svg>
