<?xml version="1.0" encoding="iso-8859-1"?>
<!-- Generator: Adobe Illustrator 23.1.0, SVG Export Plug-In . SVG Version: 6.00 Build 0)  -->
<svg version="1.1" id="Capa_1" xmlns="http://www.w3.org/2000/svg" xmlns:xlink="http://www.w3.org/1999/xlink" x="0px" y="0px"
	 viewBox="0 0 512 512" style="enable-background:new 0 0 512 512;" xml:space="preserve">
<g>
	<path style="fill:#FFE375;" d="M196,437h-45v30c0,24.814,20.186,45,45,45s45-20.186,45-45v-30H196z"/>
	<path style="fill:#FFB725;" d="M241,467v-30h-45v75C220.814,512,241,491.814,241,467z"/>
	<path style="fill:#FFB725;" d="M196,60c-24.814,0-45,20.186-45,45s20.186,45,45,45s45-20.186,45-45S220.814,60,196,60z M196,120
		c-8.276,0-15-6.724-15-15s6.724-15,15-15s15,6.724,15,15S204.276,120,196,120z"/>
	<path style="fill:#FF9100;" d="M241,105c0-24.814-20.186-45-45-45v30c8.276,0,15,6.724,15,15s-6.724,15-15,15v30
		C220.814,150,241,129.814,241,105z"/>
	<path style="fill:#FFE375;" d="M332,377V255c0-74.443-61.557-135-136-135S60,180.557,60,255v122c0,24.814-20.186,45-45,45l37.5,15
		H196h140.374L377,422C352.186,422,332,401.814,332,377z"/>
	<path style="fill:#FFB725;" d="M377,422c-24.814,0-45-20.186-45-45V255c0-74.443-61.557-135-136-135v317h140.374L377,422z"/>
	<path style="fill:#FFB725;" d="M377,422H196H15c-8.284,0-15,6.714-15,15c0,8.284,6.716,15,15,15h181h181c8.284,0,15-6.716,15-15
		C392,428.714,385.284,422,377,422z"/>
	<path style="fill:#FF9100;" d="M392,437c0-8.286-6.716-15-15-15H196v30h181C385.284,452,392,445.284,392,437z"/>
	<circle style="fill:#FF7C48;" cx="392" cy="120" r="120"/>
	<path style="fill:#FF415B;" d="M512,120C512,53.833,458.167,0,392,0v240C458.167,240,512,186.167,512,120z"/>
	<g>
		<path style="fill:#FFF5F5;" d="M392,52.5c-8.291,0-15,6.709-15,15v60c0,8.291,6.709,15,15,15s15-6.709,15-15v-60
			C407,59.209,400.291,52.5,392,52.5z"/>
		<circle style="fill:#FFF5F5;" cx="392" cy="172.5" r="15"/>
	</g>
	<path style="fill:#EFE2DD;" d="M407,127.5v-60c0-8.291-6.709-15-15-15v90C400.291,142.5,407,135.791,407,127.5z"/>
	<path style="fill:#EFE2DD;" d="M407,172.5c0-8.286-6.716-15-15-15v30C400.284,187.5,407,180.784,407,172.5z"/>
</g>
<g>
</g>
<g>
</g>
<g>
</g>
<g>
</g>
<g>
</g>
<g>
</g>
<g>
</g>
<g>
</g>
<g>
</g>
<g>
</g>
<g>
</g>
<g>
</g>
<g>
</g>
<g>
</g>
<g>
</g>
</svg>
