<?xml version="1.0" encoding="iso-8859-1"?>
<!-- Generator: Adobe Illustrator 23.1.0, SVG Export Plug-In . SVG Version: 6.00 Build 0)  -->
<svg version="1.1" id="Capa_1" xmlns="http://www.w3.org/2000/svg" xmlns:xlink="http://www.w3.org/1999/xlink" x="0px" y="0px"
	 viewBox="0 0 512 512" style="enable-background:new 0 0 512 512;" xml:space="preserve">
<g>
	<path style="fill:#FF7C48;" d="M466,121H256H46c-24.814,0-46,20.186-46,45v240c0,24.814,21.186,45,46,45h164.18l33.105,53.954
		c2.739,4.38,7.544,7.046,12.715,7.046s9.976-2.666,12.715-7.046L301.82,451H466c24.814,0,46-20.186,46-45V166
		C512,141.186,490.814,121,466,121z"/>
	<path style="fill:#FF415B;" d="M301.82,451H466c24.814,0,46-20.186,46-45V166c0-24.814-21.186-45-46-45H256v391
		c5.171,0,9.976-2.666,12.715-7.046L301.82,451z"/>
	<path style="fill:#FFE375;" d="M173.178,374.989L136,355.697l-37.178,19.292c-5.054,2.607-11.177,2.153-15.732-1.187
		c-4.6-3.34-6.914-8.979-5.977-14.59l6.87-41.323l-29.839-29.37c-4.043-3.999-5.493-9.932-3.735-15.322
		c1.758-5.405,6.416-9.36,12.026-10.21l41.426-6.226l18.721-37.471c5.068-10.166,21.768-10.166,26.836,0l18.721,37.471l41.426,6.226
		c5.61,0.85,10.269,4.805,12.026,10.21c1.758,5.391,0.308,11.323-3.735,15.322l-29.839,29.37l6.87,41.323
		c0.938,5.61-1.377,11.25-5.977,14.59C184.418,377.084,178.333,377.654,173.178,374.989z"/>
	<path style="fill:#FFB725;" d="M413.178,374.989L376,355.697l-37.178,19.292c-5.054,2.607-11.177,2.153-15.732-1.187
		c-4.6-3.34-6.914-8.979-5.977-14.59l6.87-41.323l-29.839-29.37c-4.043-3.999-5.493-9.932-3.735-15.322
		c1.758-5.405,6.416-9.36,12.026-10.21l41.426-6.226l18.721-37.471c5.068-10.166,21.768-10.166,26.836,0l18.721,37.471l41.426,6.226
		c5.61,0.85,10.269,4.805,12.026,10.21c1.758,5.391,0.308,11.323-3.735,15.322l-29.839,29.37l6.87,41.323
		c0.938,5.61-1.377,11.25-5.977,14.59C424.418,377.084,418.333,377.654,413.178,374.989z"/>
	<path style="fill:#FFE375;" d="M373.48,82.812c-1.758-5.391-6.416-9.346-12.041-10.195l-63.369-9.521l-28.652-55.47
		C266.884,2.542,261.442,0,256,0s-10.884,2.542-13.418,7.625l-28.652,55.47l-63.369,9.521c-5.625,0.85-10.283,4.805-12.041,10.195
		c-1.758,5.405-0.308,11.338,3.735,15.322l45.659,44.971l-10.518,63.237c-0.938,5.61,1.377,11.25,5.977,14.59
		c4.585,3.354,10.679,3.779,15.732,1.187L256,192.602l56.895,29.517c5.156,2.664,11.241,2.095,15.732-1.187
		c4.6-3.34,6.914-8.979,5.977-14.59l-10.518-63.237l45.659-44.971C373.788,94.149,375.238,88.217,373.48,82.812z"/>
	<path style="fill:#FFB725;" d="M328.627,220.932c4.6-3.34,6.914-8.979,5.977-14.59l-10.518-63.237l45.659-44.971
		c4.043-3.984,5.493-9.917,3.735-15.322c-1.758-5.391-6.416-9.346-12.041-10.195l-63.369-9.521l-28.652-55.47
		C266.884,2.542,261.442,0,256,0v192.602l56.895,29.517C318.051,224.782,324.135,224.213,328.627,220.932z"/>
</g>
<g>
</g>
<g>
</g>
<g>
</g>
<g>
</g>
<g>
</g>
<g>
</g>
<g>
</g>
<g>
</g>
<g>
</g>
<g>
</g>
<g>
</g>
<g>
</g>
<g>
</g>
<g>
</g>
<g>
</g>
</svg>
