<?xml version="1.0" encoding="iso-8859-1"?>
<!-- Generator: Adobe Illustrator 23.1.0, SVG Export Plug-In . SVG Version: 6.00 Build 0)  -->
<svg version="1.1" id="Capa_1" xmlns="http://www.w3.org/2000/svg" xmlns:xlink="http://www.w3.org/1999/xlink" x="0px" y="0px"
	 viewBox="0 0 512 512" style="enable-background:new 0 0 512 512;" xml:space="preserve">
<g>
	<path style="fill:#596C76;" d="M136,0H76c-8.291,0-15,6.709-15,15v60h90V15C151,6.709,144.291,0,136,0z"/>
	<path style="fill:#465A61;" d="M121,420H45c-8.284,0-15-6.716-15-15v-75h91V420z"/>
	<path style="fill:#3B4A51;" d="M467,420h-76v-90h91v75C482,413.284,475.284,420,467,420z"/>
	<path style="fill:#FFF5F5;" d="M286,330H91v167c0,8.291,6.709,15,15,15h180h120c8.291,0,15-6.709,15-15V330H286z"/>
	<path style="fill:#EFE2DD;" d="M421,497V330H286v182h120C414.291,512,421,505.291,421,497z"/>
	<polygon style="fill:#FFE375;" points="286,330 121,330 121,482 286,482 391,482 391,330 	"/>
	<rect x="286" y="330" style="fill:#FFB725;" width="105" height="152"/>
	<path style="fill:#FF7C48;" d="M497,60h-98.5L357.997,6.006C355.17,2.227,350.717,0,346,0h-60h-60
		c-4.717,0-9.17,2.227-11.997,6.006L173.5,60H15C6.709,60,0,66.709,0,75v165l30,30h256h196l30-30V75C512,66.709,505.291,60,497,60z"
		/>
	<path style="fill:#FF415B;" d="M512,240V75c0-8.291-6.709-15-15-15h-98.5L357.997,6.006C355.17,2.227,350.717,0,346,0h-60v270h196
		L512,240z"/>
	<path style="fill:#596C76;" d="M286,240H0v105c0,8.291,6.709,15,15,15h271h211c8.291,0,15-6.709,15-15V240H286z"/>
	<path style="fill:#465A61;" d="M512,345V240H286v120h211C505.291,360,512,353.291,512,345z"/>
	<path style="fill:#FFF5F5;" d="M136,210H76c-8.291,0-15-6.709-15-15v-60c0-8.291,6.709-15,15-15h60c8.291,0,15,6.709,15,15v60
		C151,203.291,144.291,210,136,210z"/>
	<circle style="fill:#FFF5F5;" cx="286" cy="195" r="105"/>
	<path style="fill:#EFE2DD;" d="M391,195c0-57.99-47.01-105-105-105v210C343.99,300,391,252.99,391,195z"/>
	<circle style="fill:#8CF2F2;" cx="286" cy="195" r="75"/>
	<path style="fill:#57D9D4;" d="M361,195c0-41.353-33.647-75-75-75v150C327.353,270,361,236.353,361,195z"/>
	<circle style="fill:#57D9D4;" cx="286" cy="195" r="45"/>
	<path style="fill:#26BFBF;" d="M331,195c0-24.814-20.186-45-45-45v90C310.814,240,331,219.814,331,195z"/>
	<circle style="fill:#FFF5F5;" cx="286" cy="195" r="15"/>
	<path style="fill:#EFE2DD;" d="M301,195c0-8.276-6.724-15-15-15v30C294.276,210,301,203.276,301,195z"/>
</g>
<g>
</g>
<g>
</g>
<g>
</g>
<g>
</g>
<g>
</g>
<g>
</g>
<g>
</g>
<g>
</g>
<g>
</g>
<g>
</g>
<g>
</g>
<g>
</g>
<g>
</g>
<g>
</g>
<g>
</g>
</svg>
