<?xml version="1.0" encoding="iso-8859-1"?>
<!-- Generator: Adobe Illustrator 23.1.0, SVG Export Plug-In . SVG Version: 6.00 Build 0)  -->
<svg version="1.1" id="Capa_1" xmlns="http://www.w3.org/2000/svg" xmlns:xlink="http://www.w3.org/1999/xlink" x="0px" y="0px"
	 viewBox="0 0 512 512" style="enable-background:new 0 0 512 512;" xml:space="preserve">
<g>
	<g>
		<path style="fill:#FFE375;" d="M497,90H256H15c-8.291,0-15,6.709-15,15v256l31.874,30H256h222.25L512,361V105
			C512,96.709,505.291,90,497,90z"/>
		<path style="fill:#FFB725;" d="M512,361V105c0-8.291-6.709-15-15-15H256v301h222.25L512,361z"/>
		<path style="fill:#465A61;" d="M256,361H0v45c0,8.291,6.709,15,15,15h196v46c0,8.276-6.724,15-15,15l15,15h45h45l15-15
			c-8.262,0-15-6.725-15-15v-46h196c8.291,0,15-6.709,15-15v-45H256z"/>
		<path style="fill:#3B4A51;" d="M316,482c-8.262,0-15-6.725-15-15v-46h196c8.291,0,15-6.709,15-15v-45H256v136h45L316,482z"/>
		<path style="fill:#465A61;" d="M346,482h-90h-90c-8.291,0-15,6.709-15,15s6.709,15,15,15h90h90c8.291,0,15-6.709,15-15
			S354.291,482,346,482z"/>
		<path style="fill:#3B4A51;" d="M361,497c0-8.291-6.709-15-15-15h-90v30h90C354.291,512,361,505.291,361,497z"/>
	</g>
	<path style="fill:#596C76;" d="M256,150c-8.291,0-15,6.709-15,15v121c0,8.291,6.709,15,15,15s15-6.709,15-15V165
		C271,156.709,264.291,150,256,150z"/>
	<path style="fill:#465A61;" d="M271,286V165c0-8.291-6.709-15-15-15v151C264.291,301,271,294.291,271,286z"/>
	<path style="fill:#596C76;" d="M316,271h-60h-60c-8.291,0-15,6.709-15,15s6.709,15,15,15h60h60c8.291,0,15-6.709,15-15
		S324.291,271,316,271z"/>
	<path style="fill:#465A61;" d="M331,286c0-8.291-6.709-15-15-15h-60v30h60C324.291,301,331,294.291,331,286z"/>
	<path style="fill:#FF7C48;" d="M331,0h-75H151l30,150l30,30h45h120c8.291,0,15-6.709,15-15V60C391,26.909,364.091,0,331,0z"/>
	<path style="fill:#FF415B;" d="M391,165V60c0-33.091-26.909-60-60-60h-75v180h120C384.291,180,391,173.291,391,165z"/>
	<path style="fill:#596C76;" d="M256,60c-8.291,0-15,6.709-15,15v30c0,8.291,6.709,15,15,15s15-6.709,15-15V75
		C271,66.709,264.291,60,256,60z"/>
	<path style="fill:#465A61;" d="M271,105V75c0-8.291-6.709-15-15-15v60C264.291,120,271,113.291,271,105z"/>
	<path style="fill:#FFF5F5;" d="M211,60v120H106c-8.401,0-15-6.601-15-15V60c0-33.001,27.001-60,60-60C183.74,0,211,26.735,211,60z"
		/>
</g>
<g>
</g>
<g>
</g>
<g>
</g>
<g>
</g>
<g>
</g>
<g>
</g>
<g>
</g>
<g>
</g>
<g>
</g>
<g>
</g>
<g>
</g>
<g>
</g>
<g>
</g>
<g>
</g>
<g>
</g>
</svg>
