<?xml version="1.0" encoding="iso-8859-1"?>
<!-- Generator: Adobe Illustrator 23.1.0, SVG Export Plug-In . SVG Version: 6.00 Build 0)  -->
<svg version="1.1" id="Capa_1" xmlns="http://www.w3.org/2000/svg" xmlns:xlink="http://www.w3.org/1999/xlink" x="0px" y="0px"
	 viewBox="0 0 512 512" style="enable-background:new 0 0 512 512;" xml:space="preserve">
<g>
	<g>
		<path style="fill:#FFE375;" d="M497,90H256H15c-8.291,0-15,6.709-15,15v255l31.874,30H256h222.25L512,360V105
			C512,96.709,505.291,90,497,90z"/>
		<path style="fill:#FFB725;" d="M512,360V105c0-8.291-6.709-15-15-15H256v300h222.25L512,360z"/>
		<path style="fill:#465A61;" d="M256,360H0v46c0,8.291,6.709,15,15,15h196v46c0,8.276-6.724,15-15,15l15,15h45h45l15-15
			c-8.262,0-15-6.725-15-15v-46h196c8.291,0,15-6.709,15-15v-46H256z"/>
		<path style="fill:#3B4A51;" d="M316,482c-8.262,0-15-6.725-15-15v-46h196c8.291,0,15-6.709,15-15v-46H256v137h45L316,482z"/>
		<path style="fill:#465A61;" d="M346,482h-90h-90c-8.291,0-15,6.709-15,15s6.709,15,15,15h90h90c8.291,0,15-6.709,15-15
			S354.291,482,346,482z"/>
		<path style="fill:#3B4A51;" d="M361,497c0-8.291-6.709-15-15-15h-90v30h90C354.291,512,361,505.291,361,497z"/>
	</g>
	<path style="fill:#FF7C48;" d="M448.4,275.099c3.9,4.501,4.799,10.8,2.401,16.199C448.1,296.7,443,300,437,300H331
		c-65.4,0-120-54-120-120c0-66.601,55.499-120,120-120c66.301,0,121,53.699,121,120c0,26.4-10.499,53.699-24,71.7L448.4,275.099z"/>
	<path style="fill:#8CF2F2;" d="M181,0C114.699,0,61,53.699,61,120c0,26.1,8.401,51,24,71.7l-20.4,23.399
		c-3.9,4.501-4.799,10.8-2.401,16.199C64.9,236.7,70,240,76,240h105c66.301,0,120-53.701,120-120C301,53.699,247.301,0,181,0z"/>
	<path style="fill:#57D9D4;" d="M301,120c0,66.299-53.699,120-120,120V0C247.301,0,301,53.699,301,120z"/>
	<circle style="fill:#596C76;" cx="121" cy="120" r="15"/>
	<circle style="fill:#596C76;" cx="181" cy="120" r="15"/>
	<circle style="fill:#465A61;" cx="241" cy="120" r="15"/>
	<path style="fill:#465A61;" d="M196,120c0,8.399-6.599,15-15,15v-30C189.401,105,196,111.599,196,120z"/>
	<path style="fill:#FF415B;" d="M448.4,275.099c3.9,4.501,4.799,10.8,2.401,16.199C448.1,296.7,443,300,437,300H331V60
		c66.301,0,121,53.699,121,120c0,26.4-10.499,53.699-24,71.7L448.4,275.099z"/>
</g>
<g>
</g>
<g>
</g>
<g>
</g>
<g>
</g>
<g>
</g>
<g>
</g>
<g>
</g>
<g>
</g>
<g>
</g>
<g>
</g>
<g>
</g>
<g>
</g>
<g>
</g>
<g>
</g>
<g>
</g>
</svg>
