<?xml version="1.0" encoding="iso-8859-1"?>
<!-- Generator: Adobe Illustrator 23.1.0, SVG Export Plug-In . SVG Version: 6.00 Build 0)  -->
<svg version="1.1" id="Capa_1" xmlns="http://www.w3.org/2000/svg" xmlns:xlink="http://www.w3.org/1999/xlink" x="0px" y="0px"
	 viewBox="0 0 512 512" style="enable-background:new 0 0 512 512;" xml:space="preserve">
<g>
	<path style="fill:#FF7C48;" d="M256,0.004c-0.026,0-0.048-0.004-0.073-0.004C148.949,0.527,61.908,87.993,61.908,195
		c0,127.471,164.839,293.577,183.633,311.873c2.915,2.827,6.68,4.248,10.459,4.248s7.544-1.421,10.459-4.248
		C285.253,488.577,450.092,322.471,450.092,195C450.092,88.017,363.087,0.571,256,0.004z"/>
	<path style="fill:#FF415B;" d="M450.092,195C450.092,88.017,363.087,0.571,256,0.004v511.117c3.779,0,7.544-1.421,10.459-4.248
		C285.253,488.577,450.092,322.471,450.092,195z"/>
	<path style="fill:#8CF2F2;" d="M346,482h-90h-90c-8.291,0-15,6.709-15,15s6.709,15,15,15h90h90c8.291,0,15-6.709,15-15
		S354.291,482,346,482z"/>
	<path style="fill:#57D9D4;" d="M361,497c0-8.291-6.709-15-15-15h-90v30h90C354.291,512,361,505.291,361,497z"/>
	<path style="fill:#FFF5F5;" d="M351.464,256.816l-21.226-21.211c-5.859-5.859-15.352-5.859-21.211,0l-10.605,10.605L256,203.789
		l-51.211-51.211l10.605-10.605c5.859-5.859,5.859-15.352,0-21.211l-21.211-21.226c-5.856-5.856-15.35-5.863-21.211,0
		l-10.605,10.605c-23.394,23.394-23.394,61.465,0,84.858L256,288.633c23.465,23.465,61.414,23.445,84.858,0l10.605-10.605
		C357.296,272.194,357.345,262.698,351.464,256.816z"/>
	<path style="fill:#EFE2DD;" d="M340.858,288.633l10.605-10.605c5.832-5.834,5.881-15.33,0-21.211l-21.226-21.211
		c-5.859-5.859-15.352-5.859-21.211,0l-10.605,10.605L256,203.789v84.844C279.465,312.098,317.414,312.078,340.858,288.633z"/>
</g>
<g>
</g>
<g>
</g>
<g>
</g>
<g>
</g>
<g>
</g>
<g>
</g>
<g>
</g>
<g>
</g>
<g>
</g>
<g>
</g>
<g>
</g>
<g>
</g>
<g>
</g>
<g>
</g>
<g>
</g>
</svg>
