<?xml version="1.0" encoding="iso-8859-1"?>
<!-- Generator: Adobe Illustrator 23.1.0, SVG Export Plug-In . SVG Version: 6.00 Build 0)  -->
<svg version="1.1" id="Capa_1" xmlns="http://www.w3.org/2000/svg" xmlns:xlink="http://www.w3.org/1999/xlink" x="0px" y="0px"
	 viewBox="0 0 512 512" style="enable-background:new 0 0 512 512;" xml:space="preserve">
<g>
	<path style="fill:#3B4A51;" d="M512,377v-91v-90c0-24.853-21.147-45-46-45h-60v135v136h60C490.853,422,512,401.853,512,377z"/>
	<path style="fill:#465A61;" d="M106,286V151H46c-24.853,0-46,20.147-46,45v90v91c0,24.853,21.147,45,46,45h60V286z"/>
	<path style="fill:#FFE375;" d="M406,151H256H106c-24.853,0-45,20.147-45,45v90v91c0,24.853,20.147,45,45,45h150h150
		c24.853,0,45-20.147,45-45v-91v-90C451,171.147,430.853,151,406,151z"/>
	<path style="fill:#FFB725;" d="M451,377v-91v-90c0-24.853-20.147-45-45-45H256v271h150C430.853,422,451,401.853,451,377z"/>
	<path style="fill:#FF415B;" d="M316,316h-15v181c0,8.291,6.709,15,15,15s15-6.709,15-15V316H316z"/>
	<path style="fill:#FF415B;" d="M356.605,335.395l-30-30c-2.93-2.93-6.768-4.395-10.605-4.395s-7.676,1.465-10.605,4.395l-30,30
		c-5.859,5.859-5.859,15.352,0,21.211s15.352,5.859,21.211,0L316,337.211l19.395,19.395c5.859,5.859,15.352,5.859,21.211,0
		S362.465,341.254,356.605,335.395z"/>
	<path style="fill:#FF7C48;" d="M196,301c-8.291,0-15,6.709-15,15v181h15h15V316C211,307.709,204.291,301,196,301z"/>
	<path style="fill:#FF7C48;" d="M236.605,456.395c-5.859-5.859-15.352-5.859-21.211,0L196,475.789l-19.395-19.395
		c-5.859-5.859-15.352-5.859-21.211,0s-5.859,15.352,0,21.211l30,30c2.93,2.93,6.768,4.395,10.605,4.395s7.676-1.465,10.605-4.395
		l30-30C242.465,471.746,242.465,462.254,236.605,456.395z"/>
	<g>
		<path style="fill:#FFF5F5;" d="M361,30H256H146.781L121,60v166c0,8.291,6.709,15,15,15h120h120c8.291,0,15-6.709,15-15V60L361,30z
			"/>
		<path style="fill:#EFE2DD;" d="M391,226V60l-30-30H256v211h120C384.291,241,391,234.291,391,226z"/>
		<path style="fill:#26BFBF;" d="M376,0h-45l-30,30l30,30h60V15C391,6.709,384.291,0,376,0z"/>
		<path style="fill:#596C76;" d="M256,0H136c-8.291,0-15,6.709-15,15v45h135h75V0H256z"/>
		<rect x="256" style="fill:#465A61;" width="75" height="60"/>
	</g>
</g>
<g>
</g>
<g>
</g>
<g>
</g>
<g>
</g>
<g>
</g>
<g>
</g>
<g>
</g>
<g>
</g>
<g>
</g>
<g>
</g>
<g>
</g>
<g>
</g>
<g>
</g>
<g>
</g>
<g>
</g>
</svg>
