<?xml version="1.0" encoding="iso-8859-1"?>
<!-- Generator: Adobe Illustrator 23.1.0, SVG Export Plug-In . SVG Version: 6.00 Build 0)  -->
<svg version="1.1" id="Capa_1" xmlns="http://www.w3.org/2000/svg" xmlns:xlink="http://www.w3.org/1999/xlink" x="0px" y="0px"
	 viewBox="0 0 512 512" style="enable-background:new 0 0 512 512;" xml:space="preserve">
<g>
	<path style="fill:#8CF2F2;" d="M45,331c-8.291,0-15-6.709-15-15V166c0-8.291,6.709-15,15-15h60c8.291,0,15,6.709,15,15
		s-6.709,15-15,15H60v135C60,324.291,53.291,331,45,331z"/>
	<path style="fill:#57D9D4;" d="M467,331c-8.291,0-15-6.709-15-15V181h-45c-8.291,0-15-6.709-15-15s6.709-15,15-15h60
		c8.291,0,15,6.709,15,15v150C482,324.291,475.291,331,467,331z"/>
	<g>
		<path style="fill:#FFF5F5;" d="M392,30H256H115.781L90,60v196c0,8.291,6.709,15,15,15h151h151c8.291,0,15-6.709,15-15V60L392,30z"
			/>
		<path style="fill:#EFE2DD;" d="M422,256V60l-30-30H256v241h151C415.291,271,422,264.291,422,256z"/>
		<path style="fill:#26BFBF;" d="M407,0h-45l-30,30l30,30h60V15C422,6.709,415.291,0,407,0z"/>
		<path style="fill:#596C76;" d="M256,0H105c-8.291,0-15,6.709-15,15v45h166h106V0H256z"/>
		<rect x="256" style="fill:#465A61;" width="106" height="60"/>
	</g>
	<path style="fill:#EFE2DD;" d="M332,136c0,8.399-6.599,15-15,15H195c-8.401,0-15-6.601-15-15c0-8.401,6.599-15,15-15h122
		C325.401,121,332,127.599,332,136z"/>
	<path style="fill:#EFE2DD;" d="M332,196c0,8.399-6.599,15-15,15H195c-8.401,0-15-6.601-15-15c0-8.401,6.599-15,15-15h122
		C325.401,181,332,187.599,332,196z"/>
	<g>
		<path style="fill:#FFF5F5;" d="M211,331h-91H25.781L0,361v136c0,8.291,6.709,15,15,15h105h106c8.291,0,15-6.709,15-15V361L211,331
			z"/>
		<path style="fill:#EFE2DD;" d="M241,497V361l-30-30h-91v181h106C234.291,512,241,505.291,241,497z"/>
		<path style="fill:#26BFBF;" d="M226,301h-46l-30,30l30,30h61v-45C241,307.709,234.291,301,226,301z"/>
		<path style="fill:#596C76;" d="M120,301H15c-8.291,0-15,6.709-15,15v45h120h60v-60H120z"/>
		<rect x="120" y="301" style="fill:#465A61;" width="60" height="60"/>
	</g>
	<g>
		<path style="fill:#FFF5F5;" d="M482,331h-90h-95.219L271,361v136c0,8.291,6.709,15,15,15h106h105c8.291,0,15-6.709,15-15V361
			L482,331z"/>
		<path style="fill:#EFE2DD;" d="M512,497V361l-30-30h-90v181h105C505.291,512,512,505.291,512,497z"/>
		<path style="fill:#26BFBF;" d="M497,301h-45l-30,30l30,30h60v-45C512,307.709,505.291,301,497,301z"/>
		<path style="fill:#596C76;" d="M392,301H286c-8.291,0-15,6.709-15,15v45h121h60v-60H392z"/>
		<rect x="392" y="301" style="fill:#465A61;" width="60" height="60"/>
	</g>
	<path style="fill:#CDBFBA;" d="M332,196c0,8.399-6.599,15-15,15h-61v-30h61C325.401,181,332,187.599,332,196z"/>
	<path style="fill:#CDBFBA;" d="M317,151h-61v-30h61c8.401,0,15,6.599,15,15C332,144.399,325.401,151,317,151z"/>
</g>
<g>
</g>
<g>
</g>
<g>
</g>
<g>
</g>
<g>
</g>
<g>
</g>
<g>
</g>
<g>
</g>
<g>
</g>
<g>
</g>
<g>
</g>
<g>
</g>
<g>
</g>
<g>
</g>
<g>
</g>
</svg>
