<?xml version="1.0" encoding="iso-8859-1"?>
<!-- Generator: Adobe Illustrator 23.1.0, SVG Export Plug-In . SVG Version: 6.00 Build 0)  -->
<svg version="1.1" id="Capa_1" xmlns="http://www.w3.org/2000/svg" xmlns:xlink="http://www.w3.org/1999/xlink" x="0px" y="0px"
	 viewBox="0 0 512 512" style="enable-background:new 0 0 512 512;" xml:space="preserve">
<g>
	<path style="fill:#FFE375;" d="M512,286v211c0,8.399-6.599,15-15,15H391l-30-30h-90l-30,30H136c-8.401,0-15-6.601-15-15V286
		l34.501-30H482L512,286z"/>
	<path style="fill:#FFB725;" d="M512,286v211c0,8.399-6.599,15-15,15H391l-30-30h-45V256h166L512,286z"/>
	<g>
		<path style="fill:#26BFBF;" d="M497,226h-46l-30,30l30,30h61v-45C512,232.714,505.284,226,497,226z"/>
	</g>
	<path style="fill:#BB5D4C;" d="M316,331c-24.901,0-45,20.099-45,45c0,24.899,20.099,46,45,46s45-21.101,45-46
		C361,351.099,340.901,331,316,331z"/>
	<path style="fill:#A44F3E;" d="M316,422v-91c24.901,0,45,20.099,45,45C361,400.899,340.901,422,316,422z"/>
	<path style="fill:#FF7C48;" d="M391,497v15H241v-15c0-41.4,33.6-75,75-75C357.573,422,391,455.429,391,497z"/>
	<path style="fill:#FF415B;" d="M391,497v15h-75v-90C357.573,422,391,455.429,391,497z"/>
	<polygon style="fill:#465A61;" points="451,226 361,226 361,263.5 391,286 451,286 	"/>
	<path style="fill:#57D9D4;" d="M497,181c-8.291,0-15-6.709-15-15V90h-46c-8.291,0-15-6.709-15-15s6.709-15,15-15h61
		c8.291,0,15,6.709,15,15v91C512,174.291,505.291,181,497,181z"/>
	<path style="fill:#8CF2F2;" d="M76,452H15c-8.291,0-15-6.709-15-15v-91c0-8.291,6.709-15,15-15s15,6.709,15,15v76h46
		c8.291,0,15,6.709,15,15S84.291,452,76,452z"/>
	<g>
		<path style="fill:#FFF5F5;" d="M391,60v226H271l-30-30h-90l-30,30H15c-8.284,0-15-6.716-15-15V60l34.501-30H361L391,60z"/>
		<polygon style="fill:#EFE2DD;" points="391,60 391,286 271,286 241,256 196,256 196,30 361,30 		"/>
		<g>
			<path style="fill:#26BFBF;" d="M376,0h-75l-30,30l30,30h90V15C391,6.714,384.284,0,376,0z"/>
			<path style="fill:#596C76;" d="M196,0H15C6.716,0,0,6.714,0,15v45h196h105V0H196z"/>
			<rect x="196" style="fill:#465A61;" width="105" height="60"/>
		</g>
		<path style="fill:#FFCEBF;" d="M196,105c-24.901,0-45,21.099-45,46c0,24.899,20.099,45,45,45s45-20.101,45-45
			C241,126.099,220.901,105,196,105z"/>
		<path style="fill:#FFBFAB;" d="M196,196v-91c24.901,0,45,21.099,45,46C241,175.899,220.901,196,196,196z"/>
		<path style="fill:#57D9D4;" d="M271,271v15H121v-15c0-41.4,33.6-75,75-75C237.573,196,271,229.429,271,271z"/>
		<path style="fill:#26BFBF;" d="M271,271v15h-75v-90C237.573,196,271,229.429,271,271z"/>
	</g>
</g>
<g>
</g>
<g>
</g>
<g>
</g>
<g>
</g>
<g>
</g>
<g>
</g>
<g>
</g>
<g>
</g>
<g>
</g>
<g>
</g>
<g>
</g>
<g>
</g>
<g>
</g>
<g>
</g>
<g>
</g>
</svg>
