<?xml version="1.0" encoding="iso-8859-1"?>
<!-- Generator: Adobe Illustrator 23.1.0, SVG Export Plug-In . SVG Version: 6.00 Build 0)  -->
<svg version="1.1" id="Capa_1" xmlns="http://www.w3.org/2000/svg" xmlns:xlink="http://www.w3.org/1999/xlink" x="0px" y="0px"
	 viewBox="0 0 512 512" style="enable-background:new 0 0 512 512;" xml:space="preserve">
<g>
	<g>
		<path style="fill:#FFF5F5;" d="M482,30H256H34.374L0,60v316c0,8.284,6.716,15,15,15h241h241c8.284,0,15-6.716,15-15V60L482,30z"/>
		<path style="fill:#EFE2DD;" d="M512,376V60l-30-30H256v361h241C505.284,391,512,384.284,512,376z"/>
		<path style="fill:#26BFBF;" d="M497,0H391l-30,30l30,30h121V15C512,6.714,505.284,0,497,0z"/>
		<path style="fill:#596C76;" d="M256,0H15C6.716,0,0,6.714,0,15v45h256h135V0H256z"/>
		<rect x="256" style="fill:#465A61;" width="135" height="60"/>
	</g>
	<path style="fill:#FF7C48;" d="M361,151H256H151c-33.137,0-60,26.862-60,60c0,33.137,26.863,60,60,60h105h105
		c33.137,0,60-26.863,60-60C421,177.862,394.137,151,361,151z"/>
	<path style="fill:#FF415B;" d="M421,211c0-33.138-26.863-60-60-60H256v120h105C394.137,271,421,244.137,421,211z"/>
	<path style="fill:#FFCEBF;" d="M362.289,348.827L271,287.978V211c0-10.984-6.194-20.176-15-25.402
		c-4.479-2.659-9.415-4.598-15-4.598c-16.569,0-30,13.431-30,30v56.516L196,331l-15-18.896l-46.392,68.95
		c-10.093,15.146-10.093,34.746,0,49.907l48.911,74.359c2.783,4.175,7.471,6.68,12.48,6.68h60h60c5.684,0,10.869-3.208,13.418-8.291
		l48.149-97.313C387.689,386.137,381.127,361.396,362.289,348.827z"/>
	<path style="fill:#FFBFAB;" d="M329.418,503.709l48.149-97.313c10.122-20.259,3.56-45-15.278-57.568L271,287.978V211
		c0-10.984-6.194-20.176-15-25.402V512h60C321.684,512,326.869,508.792,329.418,503.709z"/>
	<path style="fill:#FFBFAB;" d="M196,391c8.284,0,15-6.716,15-15V267.516l-30,44.588V376C181,384.284,187.716,391,196,391z"/>
</g>
<g>
</g>
<g>
</g>
<g>
</g>
<g>
</g>
<g>
</g>
<g>
</g>
<g>
</g>
<g>
</g>
<g>
</g>
<g>
</g>
<g>
</g>
<g>
</g>
<g>
</g>
<g>
</g>
<g>
</g>
</svg>
