<?xml version="1.0" encoding="iso-8859-1"?>
<!-- Generator: Adobe Illustrator 23.1.0, SVG Export Plug-In . SVG Version: 6.00 Build 0)  -->
<svg version="1.1" id="Capa_1" xmlns="http://www.w3.org/2000/svg" xmlns:xlink="http://www.w3.org/1999/xlink" x="0px" y="0px"
	 viewBox="0 0 512 512" style="enable-background:new 0 0 512 512;" xml:space="preserve">
<g>
	<g>
		<path style="fill:#FFF5F5;" d="M482,62.579H256H34.374L0,92.579v285c0,8.284,6.716,15,15,15h241h241c8.284,0,15-6.716,15-15v-285
			L482,62.579z"/>
		<path style="fill:#EFE2DD;" d="M512,377.579v-285l-30-30H256v330h241C505.284,392.579,512,385.862,512,377.579z"/>
		<path style="fill:#26BFBF;" d="M497,32.579H391l-30,30l30,30h121v-45C512,39.293,505.284,32.579,497,32.579z"/>
		<path style="fill:#596C76;" d="M256,32.579H15c-8.284,0-15,6.714-15,15v45h256h135v-60H256z"/>
		<rect x="256" y="32.579" style="fill:#465A61;" width="135" height="60"/>
	</g>
	<path style="fill:#FFCEBF;" d="M391.718,325.416c-8.086-14.297-22.734-22.837-39.17-22.837H301v-45c0-24.853-20.147-45-45-45
		c-8.284,0-15,6.714-15,15v30c0,24.853-20.147,45-45,45h-15l-30,30v90l30,30l75,17.6l33.486,7.859
		c19.109,4.834,39.155-3.235,49.512-20.479l52.134-86.821C399.584,356.661,399.818,339.712,391.718,325.416z"/>
	<path style="fill:#FFBFAB;" d="M338.998,457.559l52.134-86.821c8.452-14.077,8.687-31.025,0.586-45.322
		c-8.086-14.297-22.734-22.837-39.17-22.837H301v-45c0-24.853-20.147-45-45-45v257.6l33.486,7.859
		C308.595,482.872,328.642,474.802,338.998,457.559z"/>
	<path style="fill:#57D9D4;" d="M181,302.579h-45c-8.291,0-15,6.709-15,15v120c0,8.291,6.709,15,15,15h45V302.579z"/>
</g>
<g>
</g>
<g>
</g>
<g>
</g>
<g>
</g>
<g>
</g>
<g>
</g>
<g>
</g>
<g>
</g>
<g>
</g>
<g>
</g>
<g>
</g>
<g>
</g>
<g>
</g>
<g>
</g>
<g>
</g>
</svg>
