<?xml version="1.0" encoding="iso-8859-1"?>
<!-- Generator: Adobe Illustrator 23.1.0, SVG Export Plug-In . SVG Version: 6.00 Build 0)  -->
<svg version="1.1" id="Capa_1" xmlns="http://www.w3.org/2000/svg" xmlns:xlink="http://www.w3.org/1999/xlink" x="0px" y="0px"
	 viewBox="0 0 512 512" style="enable-background:new 0 0 512 512;" xml:space="preserve">
<g>
	<g>
		<ellipse style="fill:#8CF2F2;" cx="256" cy="196" rx="195" ry="196"/>
		<path style="fill:#57D9D4;" d="M451,196C451,88.305,363.695,0,256,0v392C363.695,392,451,303.695,451,196z"/>
		<ellipse style="fill:#57D9D4;" cx="256" cy="196" rx="165" ry="166"/>
		<path style="fill:#26BFBF;" d="M421,196c0-90.981-74.019-166-165-166v332C346.981,362,421,286.981,421,196z"/>
		<path style="fill:#8CF2F2;" d="M256,0c-51.313,0-90,84.833-90,196s38.687,196,90,196s90-84.833,90-196S307.313,0,256,0z M256,362
			c-28.33,0-60-71.562-60-166s31.67-166,60-166s60,71.562,60,166S284.33,362,256,362z"/>
		<path style="fill:#57D9D4;" d="M346,196C346,84.833,307.313,0,256,0v30c28.33,0,60,71.562,60,166s-31.67,166-60,166v30
			C307.313,392,346,307.167,346,196z"/>
		<g>
			<path style="fill:#8CF2F2;" d="M86.283,151H256h169.717c8.291,0,15-6.709,15-15s-6.709-15-15-15H256H86.283
				c-8.291,0-15,6.709-15,15S77.992,151,86.283,151z"/>
			<path style="fill:#8CF2F2;" d="M425.717,241H256H86.283c-8.291,0-15,6.709-15,15s6.709,15,15,15H256h169.717
				c8.291,0,15-6.709,15-15S434.008,241,425.717,241z"/>
		</g>
		<path style="fill:#57D9D4;" d="M440.717,136c0-8.291-6.709-15-15-15H256v30h169.717C434.008,151,440.717,144.291,440.717,136z"/>
		<path style="fill:#57D9D4;" d="M440.717,256c0-8.291-6.709-15-15-15H256v30h169.717C434.008,271,440.717,264.291,440.717,256z"/>
	</g>
	<path style="fill:#FFF5F5;" d="M331,332h-75h-75c-33.137,0-60,26.863-60,60l45,30l45-30h45h45l45,30l45-30
		C391,358.863,364.137,332,331,332z"/>
	<path style="fill:#EFE2DD;" d="M346,422l45-30c0-33.137-26.863-60-60-60h-75v60h45L346,422z"/>
	<path style="fill:#FFF5F5;" d="M346,422l-45,30h-45h-45l-45-30l-45,30c0,33.137,26.863,60,60,60h75h75c33.137,0,60-26.863,60-60
		L346,422z"/>
	<path style="fill:#EFE2DD;" d="M391,452l-45-30l-45,30h-45v60h75C364.137,512,391,485.137,391,452z"/>
	<g>
		<path style="fill:#EFE2DD;" d="M211,392H30c-16.569,0-30,13.431-30,30c0,16.567,13.431,30,30,30h91h90c16.569,0,30-13.433,30-30
			C241,405.431,227.569,392,211,392z"/>
		<path style="fill:#CDBFBA;" d="M482,392H301c-16.569,0-30,13.431-30,30c0,16.567,13.431,30,30,30h90h91c16.569,0,30-13.433,30-30
			C512,405.431,498.569,392,482,392z"/>
	</g>
</g>
<g>
</g>
<g>
</g>
<g>
</g>
<g>
</g>
<g>
</g>
<g>
</g>
<g>
</g>
<g>
</g>
<g>
</g>
<g>
</g>
<g>
</g>
<g>
</g>
<g>
</g>
<g>
</g>
<g>
</g>
</svg>
