<?xml version="1.0" encoding="iso-8859-1"?>
<!-- Generator: Adobe Illustrator 23.1.0, SVG Export Plug-In . SVG Version: 6.00 Build 0)  -->
<svg version="1.1" id="Capa_1" xmlns="http://www.w3.org/2000/svg" xmlns:xlink="http://www.w3.org/1999/xlink" x="0px" y="0px"
	 viewBox="0 0 512 512" style="enable-background:new 0 0 512 512;" xml:space="preserve">
<g>
	<g>
		<path style="fill:#465A61;" d="M286,0h-90h-90C81.147,0,61,20.147,61,45v60h135h135V45C331,20.147,310.853,0,286,0z"/>
		<path style="fill:#3B4A51;" d="M331,45c0-24.853-20.147-45-45-45h-90v105h135V45z"/>
		<path style="fill:#465A61;" d="M196,407H61v60c0,24.853,20.147,45,45,45h90h90c24.853,0,45-20.147,45-45v-60H196z"/>
		<path style="fill:#3B4A51;" d="M331,467v-60H196v105h90C310.853,512,331,491.853,331,467z"/>
		<path style="fill:#FFE375;" d="M286,60h-90h-90c-24.853,0-45,20.147-45,45v302c0,24.853,20.147,45,45,45h90h90
			c24.853,0,45-20.147,45-45V105C331,80.147,310.853,60,286,60z"/>
		<path style="fill:#FFB725;" d="M331,407V105c0-24.853-20.147-45-45-45h-90v392h90C310.853,452,331,431.853,331,407z"/>
	</g>
	<path style="fill:#8CF2F2;" d="M316,151c-57.99,0-105,47.01-105,105s47.01,105,105,105s105-47.01,105-105S373.99,151,316,151z
		 M316,331c-41.353,0-75-33.647-75-75s33.647-75,75-75s75,33.647,75,75S357.353,331,316,331z"/>
	<path style="fill:#57D9D4;" d="M421,256c0-57.99-47.01-105-105-105v30c41.353,0,75,33.647,75,75s-33.647,75-75,75v30
		C373.99,361,421,313.99,421,256z"/>
	<g>
		<circle style="fill:#57D9D4;" cx="316" cy="166" r="45"/>
		<circle style="fill:#57D9D4;" cx="316" cy="346" r="45"/>
	</g>
	<path style="fill:#26BFBF;" d="M361,166c0-24.814-20.186-45-45-45v90C340.814,211,361,190.814,361,166z"/>
	<path style="fill:#26BFBF;" d="M361,346c0-24.814-20.186-45-45-45v90C340.814,391,361,370.814,361,346z"/>
	<path style="fill:#57D9D4;" d="M226,301c-24.814,0-45-20.186-45-45s20.186-45,45-45s45,20.186,45,45S250.814,301,226,301z"/>
	<path style="fill:#26BFBF;" d="M406,301c-24.814,0-45-20.186-45-45s20.186-45,45-45s45,20.186,45,45S430.814,301,406,301z"/>
</g>
<g>
</g>
<g>
</g>
<g>
</g>
<g>
</g>
<g>
</g>
<g>
</g>
<g>
</g>
<g>
</g>
<g>
</g>
<g>
</g>
<g>
</g>
<g>
</g>
<g>
</g>
<g>
</g>
<g>
</g>
</svg>
