<?xml version="1.0" encoding="iso-8859-1"?>
<!-- Generator: Adobe Illustrator 23.1.0, SVG Export Plug-In . SVG Version: 6.00 Build 0)  -->
<svg version="1.1" id="Capa_1" xmlns="http://www.w3.org/2000/svg" xmlns:xlink="http://www.w3.org/1999/xlink" x="0px" y="0px"
	 viewBox="0 0 512 512" style="enable-background:new 0 0 512 512;" xml:space="preserve">
<g>
	<path style="fill:#8CF2F2;" d="M391,75v60c0,8.399-6.599,15-15,15H136c-8.401,0-15-6.601-15-15V75c0-8.401,6.599-15,15-15
		s15,6.599,15,15v45h210V75c0-8.401,6.599-15,15-15S391,66.599,391,75z"/>
	<path style="fill:#8CF2F2;" d="M271,75v120c0,8.399-6.599,15-15,15s-15-6.601-15-15V75c0-8.401,6.599-15,15-15S271,66.599,271,75z"
		/>
	<path style="fill:#57D9D4;" d="M391,75v60c0,8.399-6.599,15-15,15H256v-30h105V75c0-8.401,6.599-15,15-15S391,66.599,391,75z"/>
	<path style="fill:#57D9D4;" d="M271,75v120c0,8.399-6.599,15-15,15V60C264.401,60,271,66.599,271,75z"/>
	<path style="fill:#3B4A51;" d="M512,467v-91v-90c0-24.853-20.147-45-45-45h-61v135v136h61C491.853,512,512,491.853,512,467z"/>
	<path style="fill:#465A61;" d="M106,376V241H45c-24.853,0-45,20.147-45,45v90v91c0,24.853,20.147,45,45,45h61V376z"/>
	<path style="fill:#FFE375;" d="M406,241H256H106c-24.853,0-45,20.147-45,45v90v91c0,24.853,20.147,45,45,45h150h150
		c24.853,0,45-20.147,45-45v-91v-90C451,261.147,430.853,241,406,241z"/>
	<path style="fill:#FFB725;" d="M451,467v-91v-90c0-24.853-20.147-45-45-45H256v271h150C430.853,512,451,491.853,451,467z"/>
	<path style="fill:#8CF2F2;" d="M256,180c-74.559,0-135,61.441-135,136s60.441,135,135,135s135-60.441,135-135S330.559,180,256,180z
		"/>
	<path style="fill:#57D9D4;" d="M391,316c0-74.559-60.441-136-135-136v271C330.559,451,391,390.559,391,316z"/>
	<path style="fill:#57D9D4;" d="M256,210c-57.891,0-105,48.109-105,106s47.109,105,105,105s105-47.109,105-105S313.891,210,256,210z
		"/>
	<path style="fill:#26BFBF;" d="M361,316c0-57.891-47.109-106-105-106v211C313.891,421,361,373.891,361,316z"/>
	<path style="fill:#8CF2F2;" d="M256,180c-39.39,0-60,68.91-60,136s20.61,135,60,135s60-67.91,60-135S295.39,180,256,180z M256,421
		c-8.701,0-30-36.797-30-105s21.299-106,30-106s30,37.797,30,106S264.701,421,256,421z"/>
	<path style="fill:#57D9D4;" d="M316,316c0-67.09-20.61-136-60-136v30c8.701,0,30,37.797,30,106s-21.299,105-30,105v30
		C295.39,451,316,383.09,316,316z"/>
	<path style="fill:#8CF2F2;" d="M376,301H256H136c-8.291,0-15,6.709-15,15s6.709,15,15,15h120h120c8.291,0,15-6.709,15-15
		S384.291,301,376,301z"/>
	<path style="fill:#57D9D4;" d="M391,316c0-8.291-6.709-15-15-15H256v30h120C384.291,331,391,324.291,391,316z"/>
	<path style="fill:#57D9D4;" d="M136,90c-24.814,0-45-20.186-45-45s20.186-45,45-45s45,20.186,45,45S160.814,90,136,90z"/>
	<path style="fill:#57D9D4;" d="M256,0c-24.901,0-45,20.099-45,45c0,24.899,20.099,45,45,45s45-20.101,45-45
		C301,20.099,280.901,0,256,0z"/>
	<path style="fill:#26BFBF;" d="M376,90c-24.814,0-45-20.186-45-45s20.186-45,45-45s45,20.186,45,45S400.814,90,376,90z"/>
	<path style="fill:#26BFBF;" d="M301,45c0,24.899-20.099,45-45,45V0C280.901,0,301,20.099,301,45z"/>
</g>
<g>
</g>
<g>
</g>
<g>
</g>
<g>
</g>
<g>
</g>
<g>
</g>
<g>
</g>
<g>
</g>
<g>
</g>
<g>
</g>
<g>
</g>
<g>
</g>
<g>
</g>
<g>
</g>
<g>
</g>
</svg>
