<?xml version="1.0" encoding="iso-8859-1"?>
<!-- Generator: Adobe Illustrator 23.1.0, SVG Export Plug-In . SVG Version: 6.00 Build 0)  -->
<svg version="1.1" id="Capa_1" xmlns="http://www.w3.org/2000/svg" xmlns:xlink="http://www.w3.org/1999/xlink" x="0px" y="0px"
	 viewBox="0 0 512 512" style="enable-background:new 0 0 512 512;" xml:space="preserve">
<g>
	<path style="fill:#FF7C48;" d="M497,0H256H15C6.709,0,0,6.709,0,15v482c0,8.291,6.709,15,15,15h241h241c8.291,0,15-6.709,15-15V15
		C512,6.709,505.291,0,497,0z"/>
	<path style="fill:#FF415B;" d="M512,497V15c0-8.291-6.709-15-15-15H256v512h241C505.291,512,512,505.291,512,497z"/>
	<path style="fill:#596C76;" d="M437,60H256H76c-8.291,0-15,6.709-15,15v241c0,8.291,6.709,15,15,15h180h181c8.291,0,15-6.709,15-15
		V75C452,66.709,445.291,60,437,60z"/>
	<path style="fill:#465A61;" d="M452,316V75c0-8.291-6.709-15-15-15H256v271h181C445.291,331,452,324.291,452,316z"/>
	<path style="fill:#596C76;" d="M256,421h-60c-8.291,0-15-6.709-15-15s6.709-15,15-15h60c8.291,0,15,6.709,15,15
		S264.291,421,256,421z"/>
	<path style="fill:#465A61;" d="M437,421H316c-8.291,0-15-6.709-15-15s6.709-15,15-15h121c8.291,0,15,6.709,15,15
		S445.291,421,437,421z"/>
	<path style="fill:#FFF5F5;" d="M76,451c-8.291,0-15-6.709-15-15v-60c0-8.291,6.709-15,15-15s15,6.709,15,15v60
		C91,444.291,84.291,451,76,451z"/>
	<path style="fill:#FFF5F5;" d="M136,451c-8.291,0-15-6.709-15-15v-60c0-8.291,6.709-15,15-15s15,6.709,15,15v60
		C151,444.291,144.291,451,136,451z"/>
	<path style="fill:#FFF5F5;" d="M324.32,183.52L256,137.972l-21.68-14.453c-4.6-3.076-10.532-3.369-15.396-0.747
		C214.047,125.38,211,130.463,211,136v120c0,5.537,3.047,10.62,7.925,13.228c4.81,2.58,10.745,2.353,15.396-0.747L256,254.028
		l68.32-45.547c4.175-2.783,6.68-7.471,6.68-12.48S328.495,186.303,324.32,183.52z"/>
	<path style="fill:#EFE2DD;" d="M331,196c0-5.01-2.505-9.697-6.68-12.48L256,137.972v116.056l68.32-45.547
		C328.495,205.697,331,201.01,331,196z"/>
	<path style="fill:#EFE2DD;" d="M286,451c-24.814,0-45-20.186-45-45s20.186-45,45-45s45,20.186,45,45S310.814,451,286,451z"/>
</g>
<g>
</g>
<g>
</g>
<g>
</g>
<g>
</g>
<g>
</g>
<g>
</g>
<g>
</g>
<g>
</g>
<g>
</g>
<g>
</g>
<g>
</g>
<g>
</g>
<g>
</g>
<g>
</g>
<g>
</g>
</svg>
