<?xml version="1.0" encoding="iso-8859-1"?>
<!-- Generator: Adobe Illustrator 23.1.0, SVG Export Plug-In . SVG Version: 6.00 Build 0)  -->
<svg version="1.1" id="Capa_1" xmlns="http://www.w3.org/2000/svg" xmlns:xlink="http://www.w3.org/1999/xlink" x="0px" y="0px"
	 viewBox="0 0 512 512" style="enable-background:new 0 0 512 512;" xml:space="preserve">
<g>
	<g>
		<path style="fill:#FFE375;" d="M497,90H256H15c-8.291,0-15,6.709-15,15v256l31.874,31H256h222.25L512,361V105
			C512,96.709,505.291,90,497,90z"/>
		<path style="fill:#FFB725;" d="M512,361V105c0-8.291-6.709-15-15-15H256v302h222.25L512,361z"/>
		<path style="fill:#465A61;" d="M256,361H0v46c0,8.291,6.709,15,15,15h196v45c0,8.276-6.724,15-15,15l15,15h45h45l15-15
			c-8.262,0-15-6.725-15-15v-45h196c8.291,0,15-6.709,15-15v-46H256z"/>
		<path style="fill:#3B4A51;" d="M316,482c-8.262,0-15-6.725-15-15v-45h196c8.291,0,15-6.709,15-15v-46H256v136h45L316,482z"/>
		<path style="fill:#465A61;" d="M376,482H256H136c-8.291,0-15,6.709-15,15s6.709,15,15,15h120h120c8.291,0,15-6.709,15-15
			S384.291,482,376,482z"/>
		<path style="fill:#3B4A51;" d="M391,497c0-8.291-6.709-15-15-15H256v30h120C384.291,512,391,505.291,391,497z"/>
	</g>
	<g>
		<g>
			<path style="fill:#FFF5F5;" d="M391,30H256H116.781L91,60v195c0,8.291,6.709,15,15,15h150h150c8.291,0,15-6.709,15-15V60L391,30z
				"/>
			<path style="fill:#EFE2DD;" d="M421,255V60l-30-30H256v240h150C414.291,270,421,263.291,421,255z"/>
			<path style="fill:#26BFBF;" d="M406,0h-45l-30,30l30,30h60V15C421,6.709,414.291,0,406,0z"/>
			<path style="fill:#596C76;" d="M256,0H106c-8.291,0-15,6.709-15,15v45h165h105V0H256z"/>
			<rect x="256" y="0" style="fill:#465A61;" width="105" height="60"/>
		</g>
		<path style="fill:#EFE2DD;" d="M331,135c0,8.399-6.599,15-15,15H196c-8.401,0-15-6.601-15-15c0-8.401,6.599-15,15-15h120
			C324.401,120,331,126.599,331,135z"/>
		<path style="fill:#EFE2DD;" d="M331,195c0,8.399-6.599,15-15,15H196c-8.401,0-15-6.601-15-15c0-8.401,6.599-15,15-15h120
			C324.401,180,331,186.599,331,195z"/>
		<path style="fill:#CDBFBA;" d="M331,195c0,8.399-6.599,15-15,15h-60v-30h60C324.401,180,331,186.599,331,195z"/>
		<path style="fill:#CDBFBA;" d="M316,150h-60v-30h60c8.401,0,15,6.599,15,15C331,143.399,324.401,150,316,150z"/>
	</g>
</g>
<g>
</g>
<g>
</g>
<g>
</g>
<g>
</g>
<g>
</g>
<g>
</g>
<g>
</g>
<g>
</g>
<g>
</g>
<g>
</g>
<g>
</g>
<g>
</g>
<g>
</g>
<g>
</g>
<g>
</g>
</svg>
