<?xml version="1.0" encoding="iso-8859-1"?>
<!-- Generator: Adobe Illustrator 23.1.0, SVG Export Plug-In . SVG Version: 6.00 Build 0)  -->
<svg version="1.1" id="Capa_1" xmlns="http://www.w3.org/2000/svg" xmlns:xlink="http://www.w3.org/1999/xlink" x="0px" y="0px"
	 viewBox="0 0 512 512" style="enable-background:new 0 0 512 512;" xml:space="preserve">
<g>
	<g>
		<path style="fill:#465A61;" d="M252.682,0h-90h-90c-24.853,0-45,20.147-45,45v60h135h135V45C297.682,20.147,277.535,0,252.682,0z"
			/>
		<path style="fill:#3B4A51;" d="M297.682,45c0-24.853-20.147-45-45-45h-90v105h135V45z"/>
		<path style="fill:#465A61;" d="M162.682,407h-135v60c0,24.853,20.147,45,45,45h90h90c24.853,0,45-20.147,45-45v-60H162.682z"/>
		<path style="fill:#3B4A51;" d="M297.682,467v-60h-135v105h90C277.535,512,297.682,491.853,297.682,467z"/>
		<path style="fill:#FFE375;" d="M252.682,60h-90h-90c-24.853,0-45,20.147-45,45v302c0,24.853,20.147,45,45,45h90h90
			c24.853,0,45-20.147,45-45V105C297.682,80.147,277.535,60,252.682,60z"/>
		<path style="fill:#FFB725;" d="M297.682,407V105c0-24.853-20.147-45-45-45h-90v392h90C277.535,452,297.682,431.853,297.682,407z"
			/>
	</g>
	<path style="fill:#FFCEBF;" d="M478.4,233.837C470.314,219.54,455.665,211,439.23,211h-51.548v-45
		c0-19.565-12.563-36.048-30-42.246c-4.713-1.675-9.712-2.754-15-2.754c-8.284,0-15,6.714-15,15v30c0,24.853-20.147,45-45,45h-15
		l-30,30v75.938l30,44.063l90,21.121l18.486,4.338c19.109,4.834,39.155-3.235,49.512-20.479l52.134-86.821
		C486.266,265.082,486.5,248.134,478.4,233.837z"/>
	<path style="fill:#FFBFAB;" d="M425.68,365.98l52.134-86.821c8.452-14.077,8.687-31.025,0.586-45.322
		C470.314,219.54,455.665,211,439.23,211h-51.548v-45c0-19.565-12.563-36.048-30-42.246v258.367l18.486,4.338
		C395.277,391.293,415.324,383.224,425.68,365.98z"/>
	<path style="fill:#57D9D4;" d="M267.682,211h-45c-8.291,0-15,6.709-15,15v120c0,8.291,6.709,15,15,15h45V211z"/>
</g>
<g>
</g>
<g>
</g>
<g>
</g>
<g>
</g>
<g>
</g>
<g>
</g>
<g>
</g>
<g>
</g>
<g>
</g>
<g>
</g>
<g>
</g>
<g>
</g>
<g>
</g>
<g>
</g>
<g>
</g>
</svg>
