<?xml version="1.0" encoding="iso-8859-1"?>
<!-- Generator: Adobe Illustrator 23.1.0, SVG Export Plug-In . SVG Version: 6.00 Build 0)  -->
<svg version="1.1" id="Capa_1" xmlns="http://www.w3.org/2000/svg" xmlns:xlink="http://www.w3.org/1999/xlink" x="0px" y="0px"
	 viewBox="0 0 512 512" style="enable-background:new 0 0 512 512;" xml:space="preserve">
<g>
	<g>
		<path style="fill:#465A61;" d="M308.5,0h-90h-90c-24.853,0-45,20.147-45,45v60h135h135V45C353.5,20.147,333.353,0,308.5,0z"/>
		<path style="fill:#3B4A51;" d="M353.5,45c0-24.853-20.147-45-45-45h-90v105h135V45z"/>
		<path style="fill:#465A61;" d="M218.5,407h-135v60c0,24.853,20.147,45,45,45h90h90c24.853,0,45-20.147,45-45v-60H218.5z"/>
		<path style="fill:#3B4A51;" d="M353.5,467v-60h-135v105h90C333.353,512,353.5,491.853,353.5,467z"/>
		<path style="fill:#FFE375;" d="M308.5,60h-90h-90c-24.853,0-45,20.147-45,45v302c0,24.853,20.147,45,45,45h90h90
			c24.853,0,45-20.147,45-45V105C353.5,80.147,333.353,60,308.5,60z"/>
		<path style="fill:#FFB725;" d="M353.5,407V105c0-24.853-20.147-45-45-45h-90v392h90C333.353,452,353.5,431.853,353.5,407z"/>
	</g>
	<path style="fill:#FF7C48;" d="M361.571,151c-25.239,0-42.568,13.594-53.071,27.363C297.792,163.832,281.605,151,257.729,151
		c-37.529,0-66.914,31.348-66.914,71.367c0,43.286,33.164,71.426,83.364,114.023c7.72,6.548,15.908,13.506,24.492,20.947
		c2.827,2.446,6.328,3.662,9.829,3.662s7.002-1.216,9.829-3.662c10.195-8.848,19.893-16.978,28.975-24.595
		c47.139-39.58,81.196-68.159,81.196-110.376C428.5,182.348,399.101,151,361.571,151z"/>
	<path style="fill:#FF415B;" d="M347.304,332.743c47.139-39.58,81.196-68.159,81.196-110.376c0-40.02-29.399-71.367-66.929-71.367
		c-25.239,0-42.568,13.594-53.071,27.363V361c3.501,0,7.002-1.216,9.829-3.662C328.524,348.49,338.222,340.36,347.304,332.743z"/>
</g>
<g>
</g>
<g>
</g>
<g>
</g>
<g>
</g>
<g>
</g>
<g>
</g>
<g>
</g>
<g>
</g>
<g>
</g>
<g>
</g>
<g>
</g>
<g>
</g>
<g>
</g>
<g>
</g>
<g>
</g>
</svg>
