<?xml version="1.0" encoding="iso-8859-1"?>
<!-- Generator: Adobe Illustrator 23.1.0, SVG Export Plug-In . SVG Version: 6.00 Build 0)  -->
<svg version="1.1" id="Capa_1" xmlns="http://www.w3.org/2000/svg" xmlns:xlink="http://www.w3.org/1999/xlink" x="0px" y="0px"
	 viewBox="0 0 512 512" style="enable-background:new 0 0 512 512;" xml:space="preserve">
<g>
	<path style="fill:#8CF2F2;" d="M271,166v60c0,8.399-6.599,15-15,15s-15-6.601-15-15v-60c0-8.401,6.599-15,15-15
		S271,157.599,271,166z"/>
	<path style="fill:#57D9D4;" d="M271,166v60c0,8.399-6.599,15-15,15v-90C264.401,151,271,157.599,271,166z"/>
	<path style="fill:#8CF2F2;" d="M361,166c0,8.399-6.599,15-15,15H166c-8.401,0-15-6.601-15-15c0-8.401,6.599-15,15-15h180
		C354.401,151,361,157.599,361,166z"/>
	<path style="fill:#57D9D4;" d="M361,166c0,8.399-6.599,15-15,15h-90v-30h90C354.401,151,361,157.599,361,166z"/>
	<g>
		<path style="fill:#465A61;" d="M467,31h-46h-45c-24.853,0-45,20.147-45,45v60h90h91V76C512,51.147,491.853,31,467,31z"/>
		<path style="fill:#3B4A51;" d="M512,76c0-24.853-20.147-45-45-45h-46v105h91V76z"/>
		<path style="fill:#465A61;" d="M421,256h-90v60c0,24.853,20.147,45,45,45h45h46c24.853,0,45-20.147,45-45v-60H421z"/>
		<path style="fill:#3B4A51;" d="M512,316v-60h-91v105h46C491.853,361,512,340.853,512,316z"/>
		<path style="fill:#FFE375;" d="M467,91h-46h-45c-24.853,0-45,20.147-45,45v120c0,24.853,20.147,45,45,45h45h46
			c24.853,0,45-20.147,45-45V136C512,111.147,491.853,91,467,91z"/>
		<path style="fill:#FFB725;" d="M512,256V136c0-24.853-20.147-45-45-45h-46v210h46C491.853,301,512,280.853,512,256z"/>
	</g>
	<g>
		<path style="fill:#465A61;" d="M136,31H91H45C20.147,31,0,51.147,0,76v60h91h90V76C181,51.147,160.853,31,136,31z"/>
		<path style="fill:#3B4A51;" d="M181,76c0-24.853-20.147-45-45-45H91v105h90V76z"/>
		<path style="fill:#465A61;" d="M91,256H0v60c0,24.853,20.147,45,45,45h46h45c24.853,0,45-20.147,45-45v-60H91z"/>
		<path style="fill:#3B4A51;" d="M181,316v-60H91v105h45C160.853,361,181,340.853,181,316z"/>
		<path style="fill:#FFE375;" d="M136,91H91H45c-24.853,0-45,20.147-45,45v120c0,24.853,20.147,45,45,45h46h45
			c24.853,0,45-20.147,45-45V136C181,111.147,160.853,91,136,91z"/>
		<path style="fill:#FFB725;" d="M181,256V136c0-24.853-20.147-45-45-45H91v210h45C160.853,301,181,280.853,181,256z"/>
	</g>
	<g>
		<circle style="fill:#FFF5F5;" cx="256" cy="346" r="135"/>
		<path style="fill:#EFE2DD;" d="M391,346c0-74.559-60.441-135-135-135v270C330.559,481,391,420.559,391,346z"/>
		<path style="fill:#57D9D4;" d="M256,361c-36.224,0-66.443,25.681-73.458,59.828C201.499,439.439,227.404,451,256,451
			s54.501-11.561,73.458-30.172C322.443,386.681,292.224,361,256,361z"/>
		<path style="fill:#26BFBF;" d="M256,361v90c28.596,0,54.501-11.561,73.458-30.172C322.443,386.681,292.224,361,256,361z"/>
		<circle style="fill:#FFCEBF;" cx="256" cy="316" r="45"/>
		<path style="fill:#FFBFAB;" d="M301,316c0-24.814-20.186-45-45-45v90C280.814,361,301,340.814,301,316z"/>
	</g>
</g>
<g>
</g>
<g>
</g>
<g>
</g>
<g>
</g>
<g>
</g>
<g>
</g>
<g>
</g>
<g>
</g>
<g>
</g>
<g>
</g>
<g>
</g>
<g>
</g>
<g>
</g>
<g>
</g>
<g>
</g>
</svg>
