<?xml version="1.0" encoding="iso-8859-1"?>
<!-- Generator: Adobe Illustrator 23.1.0, SVG Export Plug-In . SVG Version: 6.00 Build 0)  -->
<svg version="1.1" id="Capa_1" xmlns="http://www.w3.org/2000/svg" xmlns:xlink="http://www.w3.org/1999/xlink" x="0px" y="0px"
	 viewBox="0 0 512 512" style="enable-background:new 0 0 512 512;" xml:space="preserve">
<g>
	<g>
		<path style="fill:#FFF5F5;" d="M482,30H256H34.374L0,60v316c0,8.284,6.716,15,15,15h241h241c8.284,0,15-6.716,15-15V60L482,30z"/>
		<path style="fill:#EFE2DD;" d="M512,376V60l-30-30H256v361h241C505.284,391,512,384.284,512,376z"/>
		<path style="fill:#57D9D4;" d="M497,0H391l-30,30l30,30h121V15C512,6.714,505.284,0,497,0z"/>
		<path style="fill:#596C76;" d="M256,0H15C6.716,0,0,6.714,0,15v45h256h135V0H256z"/>
		<rect x="256" style="fill:#465A61;" width="135" height="60"/>
	</g>
	<path style="fill:#FF9100;" d="M346,331h-30c-8.291,0-15-6.709-15-15s6.709-15,15-15h30c24.814,0,45-20.186,45-45v-45h-45
		c-8.291,0-15-6.709-15-15s6.709-15,15-15h60c8.291,0,15,6.709,15,15v60C421,297.353,387.353,331,346,331z"/>
	<path style="fill:#FFB725;" d="M196,331h-30c-41.353,0-75-33.647-75-75v-60c0-8.291,6.709-15,15-15h60c8.291,0,15,6.709,15,15
		s-6.709,15-15,15h-45v45c0,24.814,20.186,45,45,45h30c8.291,0,15,6.709,15,15S204.291,331,196,331z"/>
	<path style="fill:#FFE375;" d="M361,136v107.699c0,30.901-12.599,60.901-34.501,82.8c-20.099,20.4-32.399,64.2-23.399,85.8
		c2.699,6,6.301,8.701,12.9,8.701l-30,30h-60l-30-30c6.599,0,10.499-2.701,12.9-9c9-21.301-3.3-65.101-23.399-85.501
		C163.599,304.6,151,274.6,151,243.699V136H361z"/>
	<path style="fill:#FFB725;" d="M361,136v107.699c0,30.901-12.599,60.901-34.501,82.8c-20.099,20.4-32.399,64.2-23.399,85.8
		c2.699,6,6.301,8.701,12.9,8.701l-30,30h-30V136H361z"/>
	<path style="fill:#FFB725;" d="M256,181c-24.901,0-45,20.099-45,45c0,24.899,20.099,45,45,45s45-20.101,45-45
		C301,201.099,280.901,181,256,181z"/>
	<path style="fill:#FF9100;" d="M256,271v-90c24.901,0,45,20.099,45,45C301,250.899,280.901,271,256,271z"/>
	<path style="fill:#FFB725;" d="M391,136c0,8.399-6.599,15-15,15H136c-8.401,0-15-6.601-15-15c0-8.401,6.599-15,15-15h240
		C384.401,121,391,127.599,391,136z"/>
	<path style="fill:#FF9100;" d="M391,136c0,8.399-6.599,15-15,15H256v-30h120C384.401,121,391,127.599,391,136z"/>
	<path style="fill:#BB5D4C;" d="M359.5,490.399l-30-61C326.8,424.3,321.7,421,316,421H196c-5.7,0-10.8,3.3-13.5,8.399l-30,61
		c-2.1,4.501-2.1,10.201,0.601,14.401c2.999,4.499,7.8,7.2,12.9,7.2h180c5.099,0,9.901-2.701,12.9-7.2
		C361.601,500.6,361.601,494.9,359.5,490.399z"/>
	<path style="fill:#883F2E;" d="M359.5,490.399c2.1,4.501,2.1,10.201-0.601,14.401c-2.999,4.499-7.8,7.2-12.9,7.2h-90v-91h60
		c5.7,0,10.8,3.3,13.5,8.399L359.5,490.399z"/>
</g>
<g>
</g>
<g>
</g>
<g>
</g>
<g>
</g>
<g>
</g>
<g>
</g>
<g>
</g>
<g>
</g>
<g>
</g>
<g>
</g>
<g>
</g>
<g>
</g>
<g>
</g>
<g>
</g>
<g>
</g>
</svg>
