<?xml version="1.0" encoding="iso-8859-1"?>
<!-- Generator: Adobe Illustrator 23.1.0, SVG Export Plug-In . SVG Version: 6.00 Build 0)  -->
<svg version="1.1" id="Capa_1" xmlns="http://www.w3.org/2000/svg" xmlns:xlink="http://www.w3.org/1999/xlink" x="0px" y="0px"
	 viewBox="0 0 512 512" style="enable-background:new 0 0 512 512;" xml:space="preserve">
<g>
	<g>
		<path style="fill:#FFF5F5;" d="M482,30H256H34.374L0,60v317c0,8.284,6.716,15,15,15h241h241c8.284,0,15-6.716,15-15V60L482,30z"/>
		<path style="fill:#EFE2DD;" d="M512,377V60l-30-30H256v362h241C505.284,392,512,385.284,512,377z"/>
		<path style="fill:#57D9D4;" d="M497,0H391l-30,30l30,30h121V15C512,6.714,505.284,0,497,0z"/>
		<path style="fill:#596C76;" d="M256,0H15C6.716,0,0,6.714,0,15v45h256h135V0H256z"/>
		<rect x="256" y="0" style="fill:#465A61;" width="135" height="60"/>
	</g>
	<path style="fill:#596C76;" d="M436,122H256H76c-8.291,0-15,6.709-15,15v75l30,15h165h165l30-15v-75
		C451,128.709,444.291,122,436,122z M121,182H91v-30h30V182z M181,182h-30v-30h30V182z M241,182h-30v-30h30V182z M301,182h-30v-30
		h30V182z M361,182h-30v-30h30V182z M421,182h-30v-30h30V182z"/>
	<path style="fill:#465A61;" d="M451,212v-75c0-8.291-6.709-15-15-15H256v105h165L451,212z M301,182h-30v-30h30V182z M361,182h-30
		v-30h30V182z M391,152h30v30h-30V152z"/>
	<path style="fill:#596C76;" d="M421,407H256H91l-30,15v75c0,8.291,6.709,15,15,15h180h180c8.291,0,15-6.709,15-15v-75L421,407z
		 M121,482H91v-30h30V482z M181,482h-30v-30h30V482z M241,482h-30v-30h30V482z M301,482h-30v-30h30V482z M361,482h-30v-30h30V482z
		 M421,482h-30v-30h30V482z"/>
	<path style="fill:#465A61;" d="M451,497v-75l-30-15H256v105h180C444.291,512,451,505.291,451,497z M301,482h-30v-30h30V482z
		 M361,482h-30v-30h30V482z M421,482h-30v-30h30V482z"/>
	<polygon style="fill:#FF7C48;" points="256,212 61,212 61,422 256,422 451,422 451,212 	"/>
	<rect x="256" y="212" style="fill:#FF415B;" width="195" height="210"/>
	<path style="fill:#FFF5F5;" d="M324.32,304.52L256,258.972l-21.68-14.453c-4.57-3.062-10.518-3.354-15.396-0.747
		S211,251.463,211,257v120c0,5.537,3.047,10.62,7.925,13.228c4.81,2.58,10.745,2.353,15.396-0.747L256,375.028l68.32-45.547
		c4.175-2.783,6.68-7.471,6.68-12.48S328.495,307.303,324.32,304.52z"/>
	<path style="fill:#EFE2DD;" d="M331,317c0-5.01-2.505-9.697-6.68-12.48L256,258.972v116.056l68.32-45.547
		C328.495,326.697,331,322.01,331,317z"/>
</g>
<g>
</g>
<g>
</g>
<g>
</g>
<g>
</g>
<g>
</g>
<g>
</g>
<g>
</g>
<g>
</g>
<g>
</g>
<g>
</g>
<g>
</g>
<g>
</g>
<g>
</g>
<g>
</g>
<g>
</g>
</svg>
