<?xml version="1.0" encoding="iso-8859-1"?>
<!-- Generator: Adobe Illustrator 23.1.0, SVG Export Plug-In . SVG Version: 6.00 Build 0)  -->
<svg version="1.1" id="Capa_1" xmlns="http://www.w3.org/2000/svg" xmlns:xlink="http://www.w3.org/1999/xlink" x="0px" y="0px"
	 viewBox="0 0 512 512" style="enable-background:new 0 0 512 512;" xml:space="preserve">
<g>
	<path style="fill:#3B4A51;" d="M166,361h-30c-8.291,0-15-6.709-15-15s6.709-15,15-15h30c8.276,0,15-6.724,15-15v-30
		c0-8.291,6.709-15,15-15s15,6.709,15,15v30C211,340.814,190.814,361,166,361z"/>
	<path style="fill:#465A61;" d="M136,481h-30c-8.291,0-15-6.709-15-15V286c0-8.291,6.709-15,15-15h30c8.291,0,15,6.709,15,15v180
		C151,474.291,144.291,481,136,481z"/>
	<path style="fill:#FF7C48;" d="M181,151H76c-41.353,0-76,33.647-76,75s34.647,75,76,75h105l30-30v-45v-45L181,151z"/>
	<path style="fill:#FF415B;" d="M76,301h105l30-30v-45H0C0,267.353,34.647,301,76,301z"/>
	<path style="fill:#EFE2DD;" d="M503.709,182.582l-60-30V226v73.418l60-30C508.792,266.869,512,261.684,512,256v-30v-30
		C512,190.316,508.792,185.131,503.709,182.582z"/>
	<path style="fill:#CDBFBA;" d="M503.709,269.418C508.792,266.869,512,261.684,512,256v-30h-68.291v73.418L503.709,269.418z"/>
	<polygon style="fill:#FFF5F5;" points="181,151 181,226 181,301 431.727,390.048 431.727,226 431.727,61.952 	"/>
	<polygon style="fill:#EFE2DD;" points="431.727,390.048 431.727,226 181,226 181,301 	"/>
	<path style="fill:#FF7C48;" d="M437,31c-8.291,0-15,6.709-15,15v180v180c0,8.291,6.709,15,15,15s15-6.709,15-15V226V46
		C452,37.709,445.291,31,437,31z"/>
	<path style="fill:#FF415B;" d="M437,421c8.291,0,15-6.709,15-15V226h-30v180C422,414.291,428.709,421,437,421z"/>
</g>
<g>
</g>
<g>
</g>
<g>
</g>
<g>
</g>
<g>
</g>
<g>
</g>
<g>
</g>
<g>
</g>
<g>
</g>
<g>
</g>
<g>
</g>
<g>
</g>
<g>
</g>
<g>
</g>
<g>
</g>
</svg>
