<?xml version="1.0" encoding="iso-8859-1"?>
<!-- Generator: Adobe Illustrator 23.1.0, SVG Export Plug-In . SVG Version: 6.00 Build 0)  -->
<svg version="1.1" id="Capa_1" xmlns="http://www.w3.org/2000/svg" xmlns:xlink="http://www.w3.org/1999/xlink" x="0px" y="0px"
	 viewBox="0 0 512 512" style="enable-background:new 0 0 512 512;" xml:space="preserve">
<g>
	<g>
		<path style="fill:#465A61;" d="M271,0h-90H91C66.147,0,46,20.147,46,45v60h135h135V45C316,20.147,295.853,0,271,0z"/>
		<path style="fill:#3B4A51;" d="M316,45c0-24.853-20.147-45-45-45h-90v105h135V45z"/>
		<path style="fill:#465A61;" d="M181,407H46v60c0,24.853,20.147,45,45,45h90h90c24.853,0,45-20.147,45-45v-60H181z"/>
		<path style="fill:#3B4A51;" d="M316,467v-60H181v105h90C295.853,512,316,491.853,316,467z"/>
		<path style="fill:#FFE375;" d="M271,60h-90H91c-24.853,0-45,20.147-45,45v302c0,24.853,20.147,45,45,45h90h90
			c24.853,0,45-20.147,45-45V105C316,80.147,295.853,60,271,60z"/>
		<path style="fill:#FFB725;" d="M316,407V105c0-24.853-20.147-45-45-45h-90v392h90C295.853,452,316,431.853,316,407z"/>
	</g>
	<path style="fill:#BB5D4C;" d="M459.057,154.413C392.729,112.24,364.34,110.541,301,149.374
		c-63.354-38.862-91.758-37.163-158.057,5.039c-4.321,2.754-6.943,7.529-6.943,12.656v180c0,5.479,2.988,10.518,7.778,13.154
		c4.805,2.607,10.635,2.432,15.278-0.498c59.443-37.822,74.443-37.822,133.887,0c2.461,1.567,5.259,2.344,8.057,2.344
		s5.596-0.776,8.057-2.344c59.443-37.822,74.443-37.822,133.887,0c4.629,2.93,10.474,3.105,15.278,0.498
		c4.79-2.637,7.778-7.676,7.778-13.154v-180C466,161.942,463.378,157.167,459.057,154.413z"/>
	<path style="fill:#A44F3E;" d="M442.943,359.726c4.629,2.93,10.474,3.105,15.278,0.498c4.79-2.637,7.778-7.676,7.778-13.154v-180
		c0-5.127-2.622-9.902-6.943-12.656C392.729,112.24,364.34,110.541,301,149.374v212.695c2.798,0,5.596-0.776,8.057-2.344
		C368.5,321.903,383.5,321.903,442.943,359.726z"/>
	<path style="fill:#FFF5F5;" d="M309.057,179.726c-2.461,1.567-5.259,2.351-8.057,2.351s-5.596-0.784-8.057-2.351
		c-57.041-36.299-73.169-37.749-126.943-4.365v145.225c23.027-12.759,41.514-19.131,60-19.131c22.324,0,44.648,9.302,75,27.92
		c55.474-34.028,84.17-36.929,135-8.789V175.36C382.284,141.977,366.127,143.427,309.057,179.726z"/>
	<path style="fill:#EFE2DD;" d="M436,320.585V175.36c-53.716-33.384-69.873-31.934-126.943,4.365
		c-2.461,1.567-5.259,2.351-8.057,2.351v147.297C356.474,295.346,385.17,292.445,436,320.585z"/>
</g>
<g>
</g>
<g>
</g>
<g>
</g>
<g>
</g>
<g>
</g>
<g>
</g>
<g>
</g>
<g>
</g>
<g>
</g>
<g>
</g>
<g>
</g>
<g>
</g>
<g>
</g>
<g>
</g>
<g>
</g>
</svg>
