<?xml version="1.0" encoding="iso-8859-1"?>
<!-- Generator: Adobe Illustrator 23.1.0, SVG Export Plug-In . SVG Version: 6.00 Build 0)  -->
<svg version="1.1" id="Capa_1" xmlns="http://www.w3.org/2000/svg" xmlns:xlink="http://www.w3.org/1999/xlink" x="0px" y="0px"
	 viewBox="0 0 512 512" style="enable-background:new 0 0 512 512;" xml:space="preserve">
<g>
	<g>
		<ellipse style="fill:#8CF2F2;" cx="271" cy="196" rx="195" ry="196"/>
		<path style="fill:#57D9D4;" d="M466,196C466,88.305,378.695,0,271,0v392C378.695,392,466,303.695,466,196z"/>
		<ellipse style="fill:#57D9D4;" cx="271" cy="196" rx="165" ry="166"/>
		<path style="fill:#26BFBF;" d="M436,196c0-90.981-74.019-166-165-166v332C361.981,362,436,286.981,436,196z"/>
		<path style="fill:#8CF2F2;" d="M271,0c-51.313,0-90,84.833-90,196s38.687,196,90,196s90-84.833,90-196S322.313,0,271,0z M271,362
			c-28.33,0-60-71.562-60-166s31.67-166,60-166s60,71.562,60,166S299.33,362,271,362z"/>
		<path style="fill:#57D9D4;" d="M361,196C361,84.833,322.313,0,271,0v30c28.33,0,60,71.562,60,166s-31.67,166-60,166v30
			C322.313,392,361,307.167,361,196z"/>
		<g>
			<path style="fill:#8CF2F2;" d="M101.283,151H271h169.717c8.291,0,15-6.709,15-15s-6.709-15-15-15H271H101.283
				c-8.291,0-15,6.709-15,15S92.992,151,101.283,151z"/>
			<path style="fill:#8CF2F2;" d="M440.717,242H271H101.283c-8.291,0-15,6.709-15,15s6.709,15,15,15H271h169.717
				c8.291,0,15-6.709,15-15S449.008,242,440.717,242z"/>
		</g>
		<path style="fill:#57D9D4;" d="M455.717,136c0-8.291-6.709-15-15-15H271v30h169.717C449.008,151,455.717,144.291,455.717,136z"/>
		<path style="fill:#57D9D4;" d="M455.717,257c0-8.291-6.709-15-15-15H271v30h169.717C449.008,272,455.717,265.291,455.717,257z"/>
	</g>
	<g>
		<circle style="fill:#FFF5F5;" cx="181" cy="377" r="135"/>
		<path style="fill:#EFE2DD;" d="M316,377c0-74.559-60.441-135-135-135v270C255.559,512,316,451.559,316,377z"/>
		<path style="fill:#57D9D4;" d="M181,392c-36.224,0-66.443,25.681-73.458,59.828C126.499,470.439,152.404,482,181,482
			s54.501-11.561,73.458-30.172C247.443,417.681,217.224,392,181,392z"/>
		<path style="fill:#26BFBF;" d="M181,392v90c28.596,0,54.501-11.561,73.458-30.172C247.443,417.681,217.224,392,181,392z"/>
		<circle style="fill:#FFCEBF;" cx="181" cy="347" r="45"/>
		<path style="fill:#FFBFAB;" d="M226,347c0-24.814-20.186-45-45-45v90C205.814,392,226,371.814,226,347z"/>
	</g>
</g>
<g>
</g>
<g>
</g>
<g>
</g>
<g>
</g>
<g>
</g>
<g>
</g>
<g>
</g>
<g>
</g>
<g>
</g>
<g>
</g>
<g>
</g>
<g>
</g>
<g>
</g>
<g>
</g>
<g>
</g>
</svg>
