<?xml version="1.0" encoding="iso-8859-1"?>
<!-- Generator: Adobe Illustrator 23.1.0, SVG Export Plug-In . SVG Version: 6.00 Build 0)  -->
<svg version="1.1" id="Capa_1" xmlns="http://www.w3.org/2000/svg" xmlns:xlink="http://www.w3.org/1999/xlink" x="0px" y="0px"
	 viewBox="0 0 512 512" style="enable-background:new 0 0 512 512;" xml:space="preserve">
<g>
	<path style="fill:#FFF5F5;" d="M512,467v-90v-90c0-24.853-20.147-45-45-45h-61v135v135h61C491.853,512,512,491.853,512,467z"/>
	<path style="fill:#FFF5F5;" d="M106,377V242H45c-24.853,0-45,20.147-45,45v90v90c0,24.853,20.147,45,45,45h61V377z"/>
	<path style="fill:#465A61;" d="M406,242H256H106c-24.853,0-45,20.147-45,45v90v90c0,24.853,20.147,45,45,45h150h150
		c24.853,0,46-20.147,46-45v-90v-90C452,262.147,430.853,242,406,242z"/>
	<path style="fill:#3B4A51;" d="M452,467v-90v-90c0-24.853-21.147-45-46-45H256v270h150C430.853,512,452,491.853,452,467z"/>
	<path style="fill:#FFE375;" d="M406,272H256H106c-8.284,0-15,6.716-15,15v90v90c0,8.284,6.716,15,15,15h150h150
		c8.284,0,16-6.716,16-15v-90v-90C422,278.716,414.284,272,406,272z"/>
	<path style="fill:#FFB725;" d="M422,467v-90v-90c0-8.284-7.716-15-16-15H256v210h150C414.284,482,422,475.284,422,467z"/>
	<circle style="fill:#8CF2F2;" cx="256" cy="317" r="135"/>
	<path style="fill:#57D9D4;" d="M391,317c0-74.559-60.441-135-135-135v270C330.559,452,391,391.559,391,317z"/>
	<circle style="fill:#57D9D4;" cx="256" cy="317" r="105"/>
	<path style="fill:#26BFBF;" d="M361,317c0-57.891-47.109-105-105-105v210C313.891,422,361,374.891,361,317z"/>
	<path style="fill:#8CF2F2;" d="M256,182c-39.39,0-60,67.91-60,135s20.61,135,60,135s60-67.91,60-135S295.39,182,256,182z M256,422
		c-8.701,0-30-36.797-30-105s21.299-105,30-105s30,36.797,30,105S264.701,422,256,422z"/>
	<path style="fill:#57D9D4;" d="M316,317c0-67.09-20.61-135-60-135v30c8.701,0,30,36.797,30,105s-21.299,105-30,105v30
		C295.39,452,316,384.09,316,317z"/>
	<path style="fill:#8CF2F2;" d="M376,302H256H136c-8.291,0-15,6.709-15,15s6.709,15,15,15h120h120c8.291,0,15-6.709,15-15
		S384.291,302,376,302z"/>
	<path style="fill:#57D9D4;" d="M391,317c0-8.291-6.709-15-15-15H256v30h120C384.291,332,391,325.291,391,317z"/>
	<path style="fill:#FF7C48;" d="M256,0c-41.353,0-75,33.647-75,75c0,13.11,3.457,26.045,10.005,37.412l52.002,92.088
		c2.681,4.644,7.632,7.5,12.993,7.5s10.313-2.856,12.993-7.5l52.002-92.103C327.543,101.045,331,88.11,331,75
		C331,33.647,297.353,0,256,0z M256,90c-8.284,0-15-6.716-15-15c0-8.286,6.716-15,15-15s15,6.714,15,15
		C271,83.284,264.284,90,256,90z"/>
	<path style="fill:#FF415B;" d="M320.995,112.397C327.543,101.045,331,88.11,331,75c0-41.353-33.647-75-75-75v60
		c8.284,0,15,6.714,15,15c0,8.284-6.716,15-15,15v122c5.361,0,10.313-2.856,12.993-7.5L320.995,112.397z"/>
</g>
<g>
</g>
<g>
</g>
<g>
</g>
<g>
</g>
<g>
</g>
<g>
</g>
<g>
</g>
<g>
</g>
<g>
</g>
<g>
</g>
<g>
</g>
<g>
</g>
<g>
</g>
<g>
</g>
<g>
</g>
</svg>
