<?xml version="1.0" encoding="iso-8859-1"?>
<!-- Generator: Adobe Illustrator 23.1.0, SVG Export Plug-In . SVG Version: 6.00 Build 0)  -->
<svg version="1.1" id="Capa_1" xmlns="http://www.w3.org/2000/svg" xmlns:xlink="http://www.w3.org/1999/xlink" x="0px" y="0px"
	 viewBox="0 0 512 512" style="enable-background:new 0 0 512 512;" xml:space="preserve">
<g>
	<path style="fill:#8CF2F2;" d="M271,256v151c0,8.399-6.599,15-15,15s-15-6.601-15-15V256c0-8.401,6.599-15,15-15
		S271,247.599,271,256z"/>
	<path style="fill:#57D9D4;" d="M271,256v151c0,8.399-6.599,15-15,15V241C264.401,241,271,247.599,271,256z"/>
	<path style="fill:#8CF2F2;" d="M466,346v61c0,8.399-6.599,15-15,15s-15-6.601-15-15v-61c0-8.401-6.599-15-15-15H90
		c-8.401,0-15,6.599-15,15v61c0,8.399-6.599,15-15,15s-15-6.601-15-15v-61c0-24.901,20.099-45,45-45h331
		C445.901,301,466,321.099,466,346z"/>
	<path style="fill:#57D9D4;" d="M466,346v61c0,8.399-6.599,15-15,15s-15-6.601-15-15v-61c0-8.401-6.599-15-15-15H256v-30h165
		C445.901,301,466,321.099,466,346z"/>
	<g>
		<path style="fill:#FFF5F5;" d="M256,0c-74.559,0-135,60.441-135,135s60.441,136,135,136s135-61.441,135-136S330.559,0,256,0z"/>
		<path style="fill:#EFE2DD;" d="M391,135C391,60.441,330.559,0,256,0v271C330.559,271,391,209.559,391,135z"/>
		<path style="fill:#57D9D4;" d="M256,150c-36.224,0-66.443,26.681-73.458,60.828C201.499,229.439,227.404,241,256,241
			s54.501-11.561,73.458-30.172C322.443,176.681,292.224,150,256,150z"/>
		<path style="fill:#26BFBF;" d="M256,150v91c28.596,0,54.501-11.561,73.458-30.172C322.443,176.681,292.224,150,256,150z"/>
		<circle style="fill:#FFCEBF;" cx="256" cy="105" r="45"/>
		<path style="fill:#FFBFAB;" d="M301,105c0-24.814-20.186-45-45-45v90C280.814,150,301,129.814,301,105z"/>
	</g>
	<path style="fill:#57D9D4;" d="M60,512c-33.091,0-60-26.909-60-60s26.909-60,60-60s60,26.909,60,60S93.091,512,60,512z"/>
	<path style="fill:#26BFBF;" d="M451,512c-33.091,0-60-26.909-60-60s26.909-60,60-60s61,26.909,61,60S484.091,512,451,512z"/>
	<path style="fill:#57D9D4;" d="M256,392c-32.999,0-60,26.999-60,60c0,32.999,27.001,60,60,60s60-27.001,60-60
		C316,418.999,288.999,392,256,392z"/>
	<path style="fill:#26BFBF;" d="M316,452c0,32.999-27.001,60-60,60V392C288.999,392,316,418.999,316,452z"/>
</g>
<g>
</g>
<g>
</g>
<g>
</g>
<g>
</g>
<g>
</g>
<g>
</g>
<g>
</g>
<g>
</g>
<g>
</g>
<g>
</g>
<g>
</g>
<g>
</g>
<g>
</g>
<g>
</g>
<g>
</g>
</svg>
