<?xml version="1.0" encoding="iso-8859-1"?>
<!-- Generator: Adobe Illustrator 23.1.0, SVG Export Plug-In . SVG Version: 6.00 Build 0)  -->
<svg version="1.1" id="Capa_1" xmlns="http://www.w3.org/2000/svg" xmlns:xlink="http://www.w3.org/1999/xlink" x="0px" y="0px"
	 viewBox="0 0 512 512" style="enable-background:new 0 0 512 512;" xml:space="preserve">
<g>
	<path style="fill:#FFF5F5;" d="M419.667,121.879c-6.343-33.179-34.629-59.682-69.141-61.747C333.314,23.745,296.62,0,256,0
		s-77.314,23.745-94.526,60.132c-34.512,2.065-62.798,28.568-69.141,61.747C40.873,128.603,0,172.738,0,226
		c0,44.429,29.124,84.229,70.99,99.009C82.211,328.979,93.988,331,106,331h150h150c12.012,0,23.789-2.021,34.995-5.977
		C482.874,310.229,512,270.429,512,226C512,172.738,471.127,128.603,419.667,121.879z"/>
	<path style="fill:#EFE2DD;" d="M440.995,325.023C482.874,310.229,512,270.429,512,226c0-53.262-40.873-97.397-92.333-104.121
		c-6.343-33.179-34.629-59.682-69.141-61.747C333.314,23.745,296.62,0,256,0v331h150C418.012,331,429.789,328.979,440.995,325.023z"
		/>
	<path style="fill:#3B4A51;" d="M451,467v-61v-90c0-24.853-20.147-45-45-45h-60v135v106h60C430.853,512,451,491.853,451,467z"/>
	<path style="fill:#465A61;" d="M166,406V271h-60c-24.853,0-45,20.147-45,45v90v61c0,24.853,20.147,45,45,45h60V406z"/>
	<path style="fill:#FFE375;" d="M346,271h-90h-90c-24.853,0-45,20.147-45,45v90v61c0,24.853,20.147,45,45,45h90h90
		c24.853,0,45-20.147,45-45v-61v-90C391,291.147,370.853,271,346,271z"/>
	<path style="fill:#FFB725;" d="M391,467v-61v-90c0-24.853-20.147-45-45-45h-90v241h90C370.853,512,391,491.853,391,467z"/>
	<g>
		<path style="fill:#8CF2F2;" d="M340.888,144.555c-25.591-15.41-55.239-23.115-84.888-23.115s-59.297,7.705-84.888,23.115
			c-7.104,4.263-9.39,13.491-5.112,20.581c4.263,7.09,13.462,9.375,20.581,5.112c20.933-12.598,45.176-18.896,69.419-18.896
			s48.486,6.299,69.419,18.896c7.062,4.279,16.309,1.985,20.581-5.112C350.277,158.046,347.992,148.817,340.888,144.555z"/>
		<path style="fill:#8CF2F2;" d="M310.038,196c-16.289-9.814-35.164-14.722-54.038-14.722s-37.749,4.907-54.038,14.722
			c-7.09,4.277-9.375,13.491-5.098,20.596c4.277,7.09,13.447,9.375,20.596,5.098c11.602-7.002,25.071-10.503,38.54-10.503
			s26.938,3.501,38.54,10.503c7.092,4.272,16.329,1.992,20.596-5.098C319.413,209.491,317.128,200.277,310.038,196z"/>
	</g>
	<path style="fill:#57D9D4;" d="M346,165.136c4.277-7.09,1.992-16.318-5.112-20.581c-25.591-15.41-55.239-23.115-84.888-23.115
		v29.912c24.243,0,48.486,6.299,69.419,18.896C332.481,174.527,341.728,172.233,346,165.136z"/>
	<path style="fill:#57D9D4;" d="M315.136,216.596c4.277-7.104,1.992-16.318-5.098-20.596c-16.289-9.814-35.164-14.722-54.038-14.722
		v29.912c13.469,0,26.938,3.501,38.54,10.503C301.632,225.965,310.869,223.686,315.136,216.596z"/>
	<circle style="fill:#8CF2F2;" cx="256" cy="286" r="45"/>
	<path style="fill:#57D9D4;" d="M301,286c0-24.814-20.186-45-45-45v90C280.814,331,301,310.814,301,286z"/>
</g>
<g>
</g>
<g>
</g>
<g>
</g>
<g>
</g>
<g>
</g>
<g>
</g>
<g>
</g>
<g>
</g>
<g>
</g>
<g>
</g>
<g>
</g>
<g>
</g>
<g>
</g>
<g>
</g>
<g>
</g>
</svg>
