<?xml version="1.0" encoding="iso-8859-1"?>
<!-- Generator: Adobe Illustrator 23.1.0, SVG Export Plug-In . SVG Version: 6.00 Build 0)  -->
<svg version="1.1" id="Capa_1" xmlns="http://www.w3.org/2000/svg" xmlns:xlink="http://www.w3.org/1999/xlink" x="0px" y="0px"
	 viewBox="0 0 512 512" style="enable-background:new 0 0 512 512;" xml:space="preserve">
<g>
	<g>
		<path style="fill:#465A61;" d="M256,0h-90H76C51.147,0,31,20.147,31,45v60h135h135V45C301,20.147,280.853,0,256,0z"/>
		<path style="fill:#3B4A51;" d="M301,45c0-24.853-20.147-45-45-45h-90v105h135V45z"/>
		<path style="fill:#465A61;" d="M166,407H31v60c0,24.853,20.147,45,45,45h90h90c24.853,0,45-20.147,45-45v-60H166z"/>
		<path style="fill:#3B4A51;" d="M301,467v-60H166v105h90C280.853,512,301,491.853,301,467z"/>
		<path style="fill:#FFE375;" d="M256,60h-90H76c-24.853,0-45,20.147-45,45v302c0,24.853,20.147,45,45,45h90h90
			c24.853,0,45-20.147,45-45V105C301,80.147,280.853,60,256,60z"/>
		<path style="fill:#FFB725;" d="M301,407V105c0-24.853-20.147-45-45-45h-90v392h90C280.853,452,301,431.853,301,407z"/>
	</g>
	<g>
		<path style="fill:#57D9D4;" d="M380.731,340.873c-2.256,0-4.541-0.513-6.694-1.582l-99.492-49.746
			c-7.412-3.706-10.415-12.715-6.709-20.127c3.721-7.412,12.729-10.371,20.127-6.709l99.492,49.746
			c7.412,3.706,10.415,12.715,6.709,20.127C391.527,337.841,386.239,340.873,380.731,340.873z"/>
	</g>
	<g>
		<path style="fill:#8CF2F2;" d="M281.269,250.873c-5.508,0-10.796-3.032-13.433-8.291c-3.706-7.412-0.703-16.421,6.709-20.127
			l99.492-49.746c7.397-3.706,16.421-0.718,20.127,6.709c3.706,7.412,0.703,16.421-6.709,20.127l-99.492,49.746
			C285.81,250.36,283.524,250.873,281.269,250.873z"/>
	</g>
	<circle style="fill:#57D9D4;" cx="241" cy="256" r="60"/>
	<path style="fill:#26BFBF;" d="M241,316c33.091,0,60-26.909,60-60H181C181,289.091,207.909,316,241,316z"/>
	<g>
		<path style="fill:#57D9D4;" d="M421,226c-33.091,0-60-26.909-60-60s26.909-60,60-60s60,26.909,60,60S454.091,226,421,226z"/>
	</g>
	<g>
		<path style="fill:#26BFBF;" d="M421,406c-33.091,0-60-26.909-60-60s26.909-60,60-60s60,26.909,60,60S454.091,406,421,406z"/>
	</g>
</g>
<g>
</g>
<g>
</g>
<g>
</g>
<g>
</g>
<g>
</g>
<g>
</g>
<g>
</g>
<g>
</g>
<g>
</g>
<g>
</g>
<g>
</g>
<g>
</g>
<g>
</g>
<g>
</g>
<g>
</g>
</svg>
