<?xml version="1.0" encoding="iso-8859-1"?>
<!-- Generator: Adobe Illustrator 23.1.0, SVG Export Plug-In . SVG Version: 6.00 Build 0)  -->
<svg version="1.1" id="Capa_1" xmlns="http://www.w3.org/2000/svg" xmlns:xlink="http://www.w3.org/1999/xlink" x="0px" y="0px"
	 viewBox="0 0 512 512" style="enable-background:new 0 0 512 512;" xml:space="preserve">
<g>
	<g>
		<path style="fill:#FFF5F5;" d="M481,30H256H34.374L0,60v346c0,8.284,6.716,15,15,15h241h241c8.284,0,15-6.716,15-15V60L481,30z"/>
		<path style="fill:#EFE2DD;" d="M512,406V60l-31-30H256v391h241C505.284,421,512,414.284,512,406z"/>
		<path style="fill:#57D9D4;" d="M497,0H391l-30,30l30,30h121V15C512,6.714,505.284,0,497,0z"/>
		<path style="fill:#596C76;" d="M256,0H15C6.716,0,0,6.714,0,15v45h256h135V0H256z"/>
		<rect x="256" style="fill:#465A61;" width="135" height="60"/>
	</g>
	<path style="fill:#FF7C48;" d="M309.071,121c-25.239,0-42.568,13.594-53.071,27.363C245.292,133.832,229.105,121,205.229,121
		c-37.529,0-66.914,31.348-66.914,71.367c0,43.286,33.164,71.426,83.364,114.023c7.72,6.548,15.908,13.506,24.492,20.947
		c2.827,2.446,6.328,3.662,9.829,3.662s7.002-1.216,9.829-3.662c10.195-8.848,19.893-16.978,28.975-24.595
		C341.942,263.163,376,234.584,376,192.367C376,152.348,346.601,121,309.071,121z"/>
	<path style="fill:#FF415B;" d="M294.804,302.743C341.942,263.163,376,234.584,376,192.367c0-40.02-29.399-71.367-66.929-71.367
		c-25.239,0-42.568,13.594-53.071,27.363V331c3.501,0,7.002-1.216,9.829-3.662C276.024,318.49,285.722,310.36,294.804,302.743z"/>
	<path style="fill:#FF7C48;" d="M189.159,322.006c-16.479,0-29.648,7.529-38.159,16.992c-8.511-9.463-19.775-16.992-36.255-16.992
		c-29.282,0-52.222,24.331-52.222,55.386c0,32.607,25.356,54.009,60.454,83.628c6.021,5.083,12.422,10.488,19.146,16.318
		C144.95,479.784,147.499,481,151,481s7.954-1.216,10.781-3.662c6.709-5.815,13.096-11.206,19.102-16.274
		c29.513-24.904,60.498-48.653,60.498-83.672C241.381,346.337,218.441,322.006,189.159,322.006z"/>
	<path style="fill:#FF415B;" d="M180.883,461.063c29.513-24.904,60.498-48.653,60.498-83.672c0-31.055-22.939-55.386-52.222-55.386
		c-16.479,0-29.648,7.529-38.159,16.992V481c3.501,0,7.954-1.216,10.781-3.662C168.49,471.522,174.877,466.132,180.883,461.063z"/>
	<path style="fill:#FF7C48;" d="M399.159,352.006c-16.479,0-29.648,7.529-38.159,16.992c-8.511-9.463-19.775-16.992-36.255-16.992
		c-29.282,0-52.222,24.331-52.222,55.386c0,32.607,25.356,55.009,60.454,84.628c6.021,5.083,12.422,10.488,19.146,16.318
		C354.95,510.784,357.499,512,361,512s7.954-1.216,10.781-3.662c6.709-5.815,13.096-11.206,19.102-16.274
		c29.513-24.904,60.498-49.653,60.498-84.672C451.381,376.337,428.441,352.006,399.159,352.006z"/>
	<path style="fill:#FF415B;" d="M390.883,492.063c29.513-24.904,60.498-49.653,60.498-84.672c0-31.055-22.939-55.386-52.222-55.386
		c-16.479,0-29.648,7.529-38.159,16.992V512c3.501,0,7.954-1.216,10.781-3.662C378.49,502.522,384.877,497.132,390.883,492.063z"/>
</g>
<g>
</g>
<g>
</g>
<g>
</g>
<g>
</g>
<g>
</g>
<g>
</g>
<g>
</g>
<g>
</g>
<g>
</g>
<g>
</g>
<g>
</g>
<g>
</g>
<g>
</g>
<g>
</g>
<g>
</g>
</svg>
