<?xml version="1.0" encoding="iso-8859-1"?>
<!-- Generator: Adobe Illustrator 23.1.0, SVG Export Plug-In . SVG Version: 6.00 Build 0)  -->
<svg version="1.1" id="Capa_1" xmlns="http://www.w3.org/2000/svg" xmlns:xlink="http://www.w3.org/1999/xlink" x="0px" y="0px"
	 viewBox="0 0 512 512" style="enable-background:new 0 0 512 512;" xml:space="preserve">
<g>
	<g>
		<path style="fill:#465A61;" d="M467,0h-76h-75c-24.853,0-45,21.147-45,46v60h120h121V46C512,21.147,491.853,0,467,0z"/>
		<path style="fill:#3B4A51;" d="M512,46c0-24.853-20.147-46-45-46h-76v106h121V46z"/>
		<path style="fill:#465A61;" d="M391,316H271v60c0,24.853,20.147,45,45,45h75h76c24.853,0,45-20.147,45-45v-60H391z"/>
		<path style="fill:#3B4A51;" d="M512,376v-60H391v105h76C491.853,421,512,400.853,512,376z"/>
		<path style="fill:#FFE375;" d="M467,61h-76h-75c-24.853,0-45,20.147-45,45v210c0,24.853,20.147,45,45,45h75h76
			c24.853,0,45-20.147,45-45V106C512,81.147,491.853,61,467,61z"/>
		<path style="fill:#FFB725;" d="M512,316V106c0-24.853-20.147-45-45-45h-76v300h76C491.853,361,512,340.853,512,316z"/>
	</g>
	<g>
		<path style="fill:#465A61;" d="M196,91h-75H45c-24.853,0-45,20.147-45,45v60h121h120v-60C241,111.147,220.853,91,196,91z"/>
		<path style="fill:#3B4A51;" d="M241,136c0-24.853-20.147-45-45-45h-75v105h120V136z"/>
		<path style="fill:#465A61;" d="M121,406H0v60c0,24.853,20.147,46,45,46h76h75c24.853,0,45-21.147,45-46v-60H121z"/>
		<path style="fill:#3B4A51;" d="M241,466v-60H121v106h75C220.853,512,241,490.853,241,466z"/>
		<path style="fill:#FFE375;" d="M196,151h-75H45c-24.853,0-45,20.147-45,45v210c0,24.853,20.147,45,45,45h76h75
			c24.853,0,45-20.147,45-45V196C241,171.147,220.853,151,196,151z"/>
		<path style="fill:#FFB725;" d="M241,406V196c0-24.853-20.147-45-45-45h-75v300h75C220.853,451,241,430.853,241,406z"/>
	</g>
	<path style="fill:#FFF5F5;" d="M442.709,242.582l-59.312-29.648C365.014,158.471,313.554,121,256,121
		s-109.014,37.471-127.397,91.934l-59.312,29.648C64.208,245.116,61,250.316,61,256s3.208,10.884,8.291,13.418l59.312,29.648
		C146.986,353.529,198.446,391,256,391s109.014-37.471,127.397-91.934l59.312-29.648C447.792,266.884,451,261.684,451,256
		S447.792,245.116,442.709,242.582z"/>
	<path style="fill:#EFE2DD;" d="M383.397,299.066l59.312-29.648C447.792,266.884,451,261.684,451,256s-3.208-10.884-8.291-13.418
		l-59.312-29.648C365.014,158.471,313.554,121,256,121v270C313.554,391,365.014,353.529,383.397,299.066z"/>
	<path style="fill:#57D9D4;" d="M256,271c-36.037,0-66.086,25.437-73.303,59.323C201.856,349.367,227.937,361,256,361
		s54.144-11.633,73.303-30.677C322.086,296.437,292.037,271,256,271z"/>
	<path style="fill:#26BFBF;" d="M256,271v90c28.063,0,54.144-11.633,73.303-30.677C322.086,296.437,292.037,271,256,271z"/>
	<circle style="fill:#FFCEBF;" cx="256" cy="226" r="45"/>
	<path style="fill:#FFBFAB;" d="M301,226c0-24.814-20.186-45-45-45v90C280.814,271,301,250.814,301,226z"/>
</g>
<g>
</g>
<g>
</g>
<g>
</g>
<g>
</g>
<g>
</g>
<g>
</g>
<g>
</g>
<g>
</g>
<g>
</g>
<g>
</g>
<g>
</g>
<g>
</g>
<g>
</g>
<g>
</g>
<g>
</g>
</svg>
