<?xml version="1.0" encoding="iso-8859-1"?>
<!-- Generator: Adobe Illustrator 23.1.0, SVG Export Plug-In . SVG Version: 6.00 Build 0)  -->
<svg version="1.1" id="Capa_1" xmlns="http://www.w3.org/2000/svg" xmlns:xlink="http://www.w3.org/1999/xlink" x="0px" y="0px"
	 viewBox="0 0 512 512" style="enable-background:new 0 0 512 512;" xml:space="preserve">
<g>
	<path style="fill:#EFE2DD;" d="M451,166H256H61v195c0,5.684,3.208,10.869,8.291,13.418l180,90C251.4,465.473,253.7,466,256,466
		s4.6-0.527,6.709-1.582l180.044-90.015c5.083-2.549,8.291-7.749,8.291-13.433L451,166z"/>
	<path style="fill:#CDBFBA;" d="M442.753,374.403c5.083-2.549,8.291-7.749,8.291-13.433L451,166H256v300
		c2.3,0,4.6-0.527,6.709-1.582L442.753,374.403z"/>
	<path style="fill:#FFF5F5;" d="M444.364,153.549L264.35,32.505c-2.529-1.69-5.438-2.523-8.35-2.518
		c-2.889,0.005-5.781,0.839-8.291,2.518L67.68,153.52c-4.453,2.959-6.987,8.071-6.65,13.418c0.337,5.332,3.486,10.093,8.262,12.48
		l179.971,89.985c2.109,1.055,4.409,1.582,6.709,1.582c0.009,0,0.02-0.007,0.029-0.007c2.291-0.004,4.565-0.526,6.665-1.575
		l180.088-89.956c4.775-2.388,7.925-7.148,8.262-12.48C451.352,161.62,448.817,156.522,444.364,153.549z"/>
	<path style="fill:#EFE2DD;" d="M442.753,179.447c4.775-2.388,7.925-7.148,8.262-12.48c0.337-5.347-2.197-10.444-6.65-13.418
		L264.35,32.505c-2.529-1.69-5.438-2.523-8.35-2.518v240.991c2.291-0.004,4.565-0.526,6.665-1.575L442.753,179.447z"/>
	<path style="fill:#57D9D4;" d="M256,0c-24.814,0-45,21.186-45,46s20.186,45,45,45s45-20.186,45-45S280.814,0,256,0z"/>
	<path style="fill:#26BFBF;" d="M301,46c0-24.814-20.186-46-45-46v91C280.814,91,301,70.814,301,46z"/>
	<path style="fill:#57D9D4;" d="M76,406c-24.814,0-45-20.186-45-45s20.186-45,45-45s45,20.186,45,45S100.814,406,76,406z"/>
	<path style="fill:#26BFBF;" d="M436,406c-24.814,0-45-20.186-45-45s20.186-45,45-45s45,20.186,45,45S460.814,406,436,406z"/>
	<path style="fill:#57D9D4;" d="M76,226c-33.091,0-60-26.909-60-60s26.909-60,60-60s60,26.909,60,60S109.091,226,76,226z"/>
	<path style="fill:#57D9D4;" d="M436,226c-33.091,0-60-26.909-60-60s26.909-60,60-60s60,26.909,60,60S469.091,226,436,226z"/>
	<path style="fill:#57D9D4;" d="M256,391c-33.091,0-60,26.909-60,60s26.909,61,60,61s60-27.909,60-61S289.091,391,256,391z"/>
	<path style="fill:#57D9D4;" d="M316,451c0-33.091-26.909-60-60-60v121C289.091,512,316,484.091,316,451z"/>
	<circle style="fill:#57D9D4;" cx="256" cy="256" r="45"/>
	<path style="fill:#26BFBF;" d="M301,256c0-24.814-20.186-45-45-45v90C280.814,301,301,280.814,301,256z"/>
</g>
<g>
</g>
<g>
</g>
<g>
</g>
<g>
</g>
<g>
</g>
<g>
</g>
<g>
</g>
<g>
</g>
<g>
</g>
<g>
</g>
<g>
</g>
<g>
</g>
<g>
</g>
<g>
</g>
<g>
</g>
</svg>
