<?xml version="1.0" encoding="iso-8859-1"?>
<!-- Generator: Adobe Illustrator 23.1.0, SVG Export Plug-In . SVG Version: 6.00 Build 0)  -->
<svg version="1.1" id="Capa_1" xmlns="http://www.w3.org/2000/svg" xmlns:xlink="http://www.w3.org/1999/xlink" x="0px" y="0px"
	 viewBox="0 0 512 512" style="enable-background:new 0 0 512 512;" xml:space="preserve">
<g>
	<path style="fill:#FFE375;" d="M437,91H226H30L0,226v136l31.874,30H226h192.25L452,362V106C452,97.709,445.291,91,437,91z"/>
	<g>
		<path style="fill:#FFB725;" d="M452,362V106c0-8.291-6.709-15-15-15H226v301h192.25L452,362z"/>
		<path style="fill:#465A61;" d="M226,362H0v45c0,8.291,6.709,15,15,15h165v45c0,8.276-6.724,15-15,15l15,15h46h46l15-15
			c-8.262,0-15-6.725-15-15v-45h165c8.291,0,15-6.709,15-15v-45H226z"/>
		<path style="fill:#3B4A51;" d="M287,482c-8.262,0-15-6.725-15-15v-45h165c8.291,0,15-6.709,15-15v-45H226v135h46L287,482z"/>
		<path style="fill:#465A61;" d="M347,482H226H105c-8.291,0-15,6.709-15,15s6.709,15,15,15h121h121c8.291,0,15-6.709,15-15
			S355.291,482,347,482z"/>
		<path style="fill:#3B4A51;" d="M362,497c0-8.291-6.709-15-15-15H226v30h121C355.291,512,362,505.291,362,497z"/>
	</g>
	<g>
		<path style="fill:#465A61;" d="M90,166H0v60c0,24.853,20.147,45,45,45h45h45c24.853,0,45-20.147,45-45v-60H90z"/>
		<path style="fill:#3B4A51;" d="M180,226v-60H90v105h45C159.853,271,180,250.853,180,226z"/>
		<path style="fill:#FFE375;" d="M135,0H90H45C20.147,0,0,20.147,0,45v121c0,24.853,20.147,45,45,45h45h45c24.853,0,45-20.147,45-45
			V45C180,20.147,159.853,0,135,0z"/>
		<path style="fill:#FFB725;" d="M180,166V45c0-24.853-20.147-45-45-45H90v211h45C159.853,211,180,190.853,180,166z"/>
	</g>
	<g>
		<path style="fill:#465A61;" d="M467,181h-60h-60c-24.853,0-45,20.147-45,45v60h105h105v-60C512,201.147,491.853,181,467,181z"/>
		<path style="fill:#3B4A51;" d="M512,226c0-24.853-20.147-45-45-45h-60v105h105V226z"/>
		<path style="fill:#465A61;" d="M407,407H302v60c0,24.853,20.147,45,45,45h60h60c24.853,0,45-20.147,45-45v-60H407z"/>
		<path style="fill:#3B4A51;" d="M512,467v-60H407v105h60C491.853,512,512,491.853,512,467z"/>
		<path style="fill:#FFE375;" d="M467,241h-60h-60c-24.853,0-45,20.147-45,45v121c0,24.853,20.147,45,45,45h60h60
			c24.853,0,45-20.147,45-45V286C512,261.147,491.853,241,467,241z"/>
		<path style="fill:#FFB725;" d="M512,407V286c0-24.853-20.147-45-45-45h-60v211h60C491.853,452,512,431.853,512,407z"/>
	</g>
</g>
<g>
</g>
<g>
</g>
<g>
</g>
<g>
</g>
<g>
</g>
<g>
</g>
<g>
</g>
<g>
</g>
<g>
</g>
<g>
</g>
<g>
</g>
<g>
</g>
<g>
</g>
<g>
</g>
<g>
</g>
</svg>
