<?xml version="1.0" encoding="iso-8859-1"?>
<!-- Generator: Adobe Illustrator 23.1.0, SVG Export Plug-In . SVG Version: 6.00 Build 0)  -->
<svg version="1.1" id="Capa_1" xmlns="http://www.w3.org/2000/svg" xmlns:xlink="http://www.w3.org/1999/xlink" x="0px" y="0px"
	 viewBox="0 0 512 512" style="enable-background:new 0 0 512 512;" xml:space="preserve">
<g>
	<path d="M294.416,183.583l-90-61c-4.597-3.115-10.538-3.437-15.443-0.835c-4.905,2.601-7.973,7.7-7.973,13.252v121
		c0,5.532,3.045,10.615,7.922,13.225c4.866,2.604,10.784,2.332,15.398-0.744l90-60c4.156-2.771,6.661-7.428,6.68-12.423
		S298.55,186.386,294.416,183.583z M211,227.972v-64.685l48.113,32.61L211,227.972z"/>
	<path d="M497,271h-46V15c0-8.284-6.716-15-15-15H15C6.716,0,0,6.716,0,15v361c0,8.284,6.716,15,15,15h45v45
		c0,5.682,3.21,10.875,8.292,13.416C73.36,451.951,79.444,451.417,84,448l76-57h81v45c0,8.284,6.716,15,15,15h94.933l75.972,57.928
		c4.541,3.463,10.647,4.042,15.75,1.515c5.111-2.53,8.345-7.74,8.345-13.443v-46h46c8.284,0,15-6.716,15-15V286
		C512,277.716,505.284,271,497,271z M155.001,361c-3.246,0-6.403,1.053-9,3l-56,42v-30c0-8.284-6.716-15-15-15H30V30h391v241h-30V75
		c0-8.284-6.716-15-15-15H75c-8.284,0-15,6.716-15,15v241c0,8.284,6.716,15,15,15h166v30H155.001z M256,271c-8.284,0-15,6.716-15,15
		v15H90V90h271v181H256z M482,421h-46c-8.284,0-15,6.716-15,15v30.699l-55.905-42.627C362.481,422.079,359.286,421,356,421h-85V301
		h211V421z"/>
	<circle cx="316" cy="361" r="15"/>
	<circle cx="376" cy="361" r="15"/>
	<circle cx="436" cy="361" r="15"/>
</g>
<g>
</g>
<g>
</g>
<g>
</g>
<g>
</g>
<g>
</g>
<g>
</g>
<g>
</g>
<g>
</g>
<g>
</g>
<g>
</g>
<g>
</g>
<g>
</g>
<g>
</g>
<g>
</g>
<g>
</g>
</svg>
