<?xml version="1.0" encoding="iso-8859-1"?>
<!-- Generator: Adobe Illustrator 23.1.0, SVG Export Plug-In . SVG Version: 6.00 Build 0)  -->
<svg version="1.1" id="Capa_1" xmlns="http://www.w3.org/2000/svg" xmlns:xlink="http://www.w3.org/1999/xlink" x="0px" y="0px"
	 viewBox="0 0 511.997 511.997" style="enable-background:new 0 0 511.997 511.997;" xml:space="preserve">
<g>
	<path d="M221.481,481.997h-55.482c-8.284,0-15,6.716-15,15s6.716,15,15,15h180c8.284,0,15-6.716,15-15s-6.716-15-15-15h-55.482
		c18.681-20.087,45.756-50.825,72.239-86.705c57.955-78.514,87.341-145.904,87.341-200.295C450.097,88.003,363.058,0.527,256.072,0
		c-0.049,0-0.099,0-0.147,0C148.94,0.527,61.901,88.003,61.901,194.997c0,54.392,29.386,121.781,87.341,200.295
		C175.725,431.172,202.8,461.911,221.481,481.997z M255.999,30c90.495,0.482,164.098,74.485,164.098,164.997
		c0,47.167-28.174,110.267-81.477,182.479c-32.645,44.225-66.114,80.292-82.621,97.336c-16.507-17.044-49.976-53.11-82.621-97.336
		c-53.303-72.212-81.477-135.312-81.477-182.479C91.901,104.485,165.504,30.482,255.999,30z"/>
	<path d="M390.999,194.997c0-74.439-60.561-135-135-135s-135,60.561-135,135s60.561,135,135,135S390.999,269.437,390.999,194.997z
		 M210.999,289.853v-4.855c0-24.813,20.187-45,45-45s45,20.187,45,45v4.855c-13.647,6.5-28.905,10.145-45,10.145
		S224.645,296.353,210.999,289.853z M150.999,194.997c0-57.897,47.103-105,105-105s105,47.103,105,105
		c0,29.317-12.082,55.86-31.522,74.928c-6.996-34.156-37.284-59.928-73.478-59.928s-66.482,25.771-73.478,59.928
		C163.081,250.858,150.999,224.314,150.999,194.997z"/>
	<path d="M300.999,164.997c0-24.813-20.187-45-45-45s-45,20.187-45,45s20.187,45,45,45S300.999,189.811,300.999,164.997z
		 M255.999,179.997c-8.271,0-15-6.729-15-15s6.729-15,15-15s15,6.729,15,15S264.27,179.997,255.999,179.997z"/>
</g>
<g>
</g>
<g>
</g>
<g>
</g>
<g>
</g>
<g>
</g>
<g>
</g>
<g>
</g>
<g>
</g>
<g>
</g>
<g>
</g>
<g>
</g>
<g>
</g>
<g>
</g>
<g>
</g>
<g>
</g>
</svg>
