<?xml version="1.0" encoding="iso-8859-1"?>
<!-- Generator: Adobe Illustrator 23.1.0, SVG Export Plug-In . SVG Version: 6.00 Build 0)  -->
<svg version="1.1" id="Capa_1" xmlns="http://www.w3.org/2000/svg" xmlns:xlink="http://www.w3.org/1999/xlink" x="0px" y="0px"
	 viewBox="0 0 512 512" style="enable-background:new 0 0 512 512;" xml:space="preserve">
<g>
	<path d="M497,242H271v-16c0-24.813-20.187-45-45-45H45c-8.271,0-15-6.729-15-15s6.729-15,15-15h237.36
		c37.066,0,73.312-12.209,102.484-34.033l22.925,68.776c1.953,5.858,7.295,9.92,13.461,10.237c0.26,0.013,0.517,0.02,0.773,0.02
		c5.868,0,11.23-3.434,13.666-8.824l75-166c2.285-5.058,1.59-10.965-1.807-15.355c-3.396-4.391-8.946-6.545-14.409-5.604l-180,31
		c-6.18,1.064-11.045,5.86-12.198,12.024c-1.153,6.164,1.649,12.394,7.026,15.621l57.25,34.35
		C342.575,111.035,312.818,121,282.36,121H45c-24.813,0-45,20.187-45,45s20.187,45,45,45h181c8.271,0,15,6.729,15,15v16H15
		c-8.284,0-15,6.716-15,15v240c0,8.284,6.716,15,15,15h482c8.284,0,15-6.716,15-15V257C512,248.716,505.284,242,497,242z
		 M471.694,34.579L424.11,139.898l-17.88-53.641c-1.151-3.452-3.595-6.367-6.513-8.119l-40.354-24.213L471.694,34.579z M482,482H30
		V272h452V482z"/>
	<path d="M75,332h61c8.284,0,15-6.716,15-15s-6.716-15-15-15H75c-8.284,0-15,6.716-15,15S66.716,332,75,332z"/>
	<path d="M196,332h30c8.284,0,15-6.716,15-15s-6.716-15-15-15h-30c-8.284,0-15,6.716-15,15S187.716,332,196,332z"/>
	<path d="M286,332h30c8.284,0,15-6.716,15-15s-6.716-15-15-15h-30c-8.284,0-15,6.716-15,15S277.716,332,286,332z"/>
	<path d="M376,332h61c8.284,0,15-6.716,15-15s-6.716-15-15-15h-61c-8.284,0-15,6.716-15,15S367.716,332,376,332z"/>
	<path d="M346,392h91c8.284,0,15-6.716,15-15s-6.716-15-15-15h-91c-8.284,0-15,6.716-15,15S337.716,392,346,392z"/>
	<path d="M256,392h30c8.284,0,15-6.716,15-15s-6.716-15-15-15h-30c-8.284,0-15,6.716-15,15S247.716,392,256,392z"/>
	<path d="M211,377c0-8.284-6.716-15-15-15h-30c-8.284,0-15,6.716-15,15s6.716,15,15,15h30C204.284,392,211,385.284,211,377z"/>
	<path d="M75,392h31c8.284,0,15-6.716,15-15s-6.716-15-15-15H75c-8.284,0-15,6.716-15,15S66.716,392,75,392z"/>
	<path d="M437,422h-31c-8.284,0-15,6.716-15,15s6.716,15,15,15h31c8.284,0,15-6.716,15-15S445.284,422,437,422z"/>
	<path d="M346,422H196c-8.284,0-15,6.716-15,15s6.716,15,15,15h150c8.284,0,15-6.716,15-15S354.284,422,346,422z"/>
	<path d="M136,422H75c-8.284,0-15,6.716-15,15s6.716,15,15,15h61c8.284,0,15-6.716,15-15S144.284,422,136,422z"/>
</g>
<g>
</g>
<g>
</g>
<g>
</g>
<g>
</g>
<g>
</g>
<g>
</g>
<g>
</g>
<g>
</g>
<g>
</g>
<g>
</g>
<g>
</g>
<g>
</g>
<g>
</g>
<g>
</g>
<g>
</g>
</svg>
