<?xml version="1.0" encoding="iso-8859-1"?>
<!-- Generator: Adobe Illustrator 23.1.0, SVG Export Plug-In . SVG Version: 6.00 Build 0)  -->
<svg version="1.1" id="Capa_1" xmlns="http://www.w3.org/2000/svg" xmlns:xlink="http://www.w3.org/1999/xlink" x="0px" y="0px"
	 viewBox="0 0 512 512" style="enable-background:new 0 0 512 512;" xml:space="preserve">
<g>
	<path d="M419.69,121.872c-6.206-33.07-34.28-59.611-69.154-61.734C333.317,23.75,296.619,0,256,0s-77.317,23.75-94.536,60.138
		c-34.83,2.12-62.941,28.628-69.154,61.734C40.303,128.543,0,172.697,0,226c0,57.599,47.947,105,106,105h75v31h-15
		c-5.682,0-10.876,3.21-13.416,8.292c-2.541,5.082-1.993,11.163,1.416,15.708l90,120c2.833,3.777,7.278,6,12,6s9.167-2.223,12-6
		l90-120c3.409-4.545,3.957-10.626,1.416-15.708C356.876,365.21,351.682,362,346,362h-15v-31h75c58.06,0,106-47.409,106-105
		C512,172.697,471.697,128.543,419.69,121.872z M256,472l-60-80c8.284,0,15-6.716,15-15V271h90v106c0,8.284,6.716,15,15,15L256,472z
		 M406,301h-75v-45c0-8.284-6.716-15-15-15H196c-8.284,0-15,6.716-15,15v45h-75c-41.51,0-76-33.931-76-75c0-41.355,34.094-75,76-75
		c8.284,0,15-6.716,15-15c0-24.724,20.838-48.061,48.999-45.522c6.851,0.618,13.246-3.506,15.511-10.004
		C196.028,50.284,224.356,30,256,30s59.972,20.284,70.49,50.474c2.265,6.497,8.659,10.621,15.511,10.004
		C370.601,87.9,391,111.729,391,136c0,8.284,6.716,15,15,15c41.906,0,76,33.645,76,75C482,267.052,447.526,301,406,301z"/>
	<path d="M316,181H196c-8.284,0-15,6.716-15,15c0,8.284,6.716,15,15,15h120c8.284,0,15-6.716,15-15C331,187.716,324.284,181,316,181
		z"/>
	<path d="M316,121H196c-8.284,0-15,6.716-15,15s6.716,15,15,15h120c8.284,0,15-6.716,15-15S324.284,121,316,121z"/>
</g>
<g>
</g>
<g>
</g>
<g>
</g>
<g>
</g>
<g>
</g>
<g>
</g>
<g>
</g>
<g>
</g>
<g>
</g>
<g>
</g>
<g>
</g>
<g>
</g>
<g>
</g>
<g>
</g>
<g>
</g>
</svg>
