<?xml version="1.0" encoding="iso-8859-1"?>
<!-- Generator: Adobe Illustrator 23.1.0, SVG Export Plug-In . SVG Version: 6.00 Build 0)  -->
<svg version="1.1" id="Capa_1" xmlns="http://www.w3.org/2000/svg" xmlns:xlink="http://www.w3.org/1999/xlink" x="0px" y="0px"
	 viewBox="0 0 512 512" style="enable-background:new 0 0 512 512;" xml:space="preserve">
<g>
	<path d="M505.758,213.821L421,151.484V15c0-8.284-6.716-15-15-15H106c-8.284,0-15,6.716-15,15v135.408L6.219,213.836
		C2.7,216.362,0,220.905,0,226v271c0,8.284,6.716,15,15,15h482c8.284,0,15-6.716,15-15V226
		C512,220.932,509.466,216.497,505.758,213.821z M471.809,226.093L421,264.042v-75.318L471.809,226.093z M391,30v256.448
		c-7.124,5.321-119.953,89.591-135,100.83c-13.764-10.28-121.141-90.478-135-100.83V30H391z M91,264.042L40.053,225.99L91,187.874
		V264.042z M30,482V255.925l140.842,105.193L87,424c-6.627,4.97-7.971,14.373-3,21c4.946,6.594,14.341,7.994,21,3l90.894-68.171
		l51.13,38.188c2.661,1.988,5.818,2.982,8.976,2.982s6.314-0.994,8.976-2.982l51.13-38.188L407,448c6.597,4.948,16.008,3.657,21-3
		c4.971-6.627,3.627-16.03-3-21l-83.842-62.882L482,255.925V482H30z"/>
	<path d="M196,211c12.111,0,23.111-4.817,31.208-12.626l44.147,22.074C271.13,222.269,271,224.119,271,226c0,24.813,20.187,45,45,45
		s45-20.187,45-45s-20.187-45-45-45c-12.111,0-23.11,4.817-31.208,12.626l-44.147-22.074C240.87,169.731,241,167.881,241,166
		s-0.13-3.731-0.355-5.552l44.147-22.074C292.889,146.183,303.889,151,316,151c24.813,0,45-20.187,45-45s-20.187-45-45-45
		s-45,20.187-45,45c0,1.881,0.13,3.731,0.355,5.552l-44.147,22.074C219.111,125.817,208.111,121,196,121c-24.813,0-45,20.187-45,45
		S171.187,211,196,211z M316,211c8.271,0,15,6.729,15,15s-6.729,15-15,15s-15-6.729-15-15S307.729,211,316,211z M316,91
		c8.271,0,15,6.729,15,15s-6.729,15-15,15s-15-6.729-15-15S307.729,91,316,91z M196,151c8.271,0,15,6.729,15,15s-6.729,15-15,15
		s-15-6.729-15-15S187.729,151,196,151z"/>
</g>
<g>
</g>
<g>
</g>
<g>
</g>
<g>
</g>
<g>
</g>
<g>
</g>
<g>
</g>
<g>
</g>
<g>
</g>
<g>
</g>
<g>
</g>
<g>
</g>
<g>
</g>
<g>
</g>
<g>
</g>
</svg>
