<?xml version="1.0" encoding="iso-8859-1"?>
<!-- Generator: Adobe Illustrator 23.1.0, SVG Export Plug-In . SVG Version: 6.00 Build 0)  -->
<svg version="1.1" id="Capa_1" xmlns="http://www.w3.org/2000/svg" xmlns:xlink="http://www.w3.org/1999/xlink" x="0px" y="0px"
	 viewBox="0 0 512 512" style="enable-background:new 0 0 512 512;" xml:space="preserve">
<g>
	<path d="M316,45c0-24.813-20.187-45-45-45H91C66.187,0,46,20.187,46,45v422c0,24.813,20.187,45,45,45h180c24.813,0,45-20.187,45-45
		V360.222c26.6-3.136,44.546-16.778,99.583-58.632c12.736-9.686,27.172-20.663,44.414-33.587C463.776,265.17,466,260.723,466,256
		s-2.224-9.17-6.003-12.002c-17.18-12.878-31.579-23.828-44.283-33.49c-55.129-41.924-73.102-55.589-99.713-58.729V45z M91,30h180
		c8.271,0,15,6.729,15,15v17.58c-4.695-1.665-9.742-2.58-15-2.58H91c-5.258,0-10.305,0.915-15,2.58V45C76,36.729,82.729,30,91,30z
		 M186.417,210.41c-12.736,9.686-27.172,20.663-44.414,33.587C138.224,246.83,136,251.277,136,256s2.224,9.17,6.003,12.002
		c17.18,12.878,31.579,23.828,44.283,33.49c55.129,41.924,73.102,55.589,99.713,58.729V407c0,8.271-6.729,15-15,15H91
		c-8.271,0-15-6.729-15-15V105c0-8.271,6.729-15,15-15h180c8.271,0,15,6.729,15,15v46.778
		C259.4,154.914,241.454,168.557,186.417,210.41z M271,482H91c-8.271,0-15-6.729-15-15v-17.58c4.695,1.665,9.742,2.58,15,2.58h180
		c5.258,0,10.305-0.915,15-2.58V467C286,475.271,279.271,482,271,482z M426.049,256c-10.559,7.971-19.982,15.137-28.626,21.71
		C333.284,326.486,326.615,331,301,331c-25.497,0-33.299-5.283-96.553-53.387c-8.608-6.546-17.992-13.682-28.496-21.613
		c10.559-7.971,19.982-15.137,28.626-21.71C268.716,185.514,275.385,181,301,181c25.497,0,33.299,5.283,96.553,53.387
		C406.161,240.933,415.545,248.07,426.049,256z"/>
	<path d="M256,256c0,24.813,20.187,45,45,45s45-20.187,45-45s-20.187-45-45-45S256,231.187,256,256z M316,256
		c0,8.271-6.729,15-15,15s-15-6.729-15-15s6.729-15,15-15S316,247.729,316,256z"/>
</g>
<g>
</g>
<g>
</g>
<g>
</g>
<g>
</g>
<g>
</g>
<g>
</g>
<g>
</g>
<g>
</g>
<g>
</g>
<g>
</g>
<g>
</g>
<g>
</g>
<g>
</g>
<g>
</g>
<g>
</g>
</svg>
