<?xml version="1.0" encoding="iso-8859-1"?>
<!-- Generator: Adobe Illustrator 23.1.0, SVG Export Plug-In . SVG Version: 6.00 Build 0)  -->
<svg version="1.1" id="Capa_1" xmlns="http://www.w3.org/2000/svg" xmlns:xlink="http://www.w3.org/1999/xlink" x="0px" y="0px"
	 viewBox="0 0 512 512" style="enable-background:new 0 0 512 512;" xml:space="preserve">
<g>
	<path d="M497,362h-15V257c0-28.544-11.454-54.458-30-73.404V45c0-24.813-20.187-45-45-45H45C20.187,0,0,20.187,0,45v242
		c0,24.813,20.187,45,45,45h15v45c0,5.532,3.045,10.615,7.922,13.225c4.865,2.604,10.784,2.332,15.398-0.744L169.542,332H272v30h-15
		c-8.284,0-15,6.716-15,15v120c0,8.284,6.716,15,15,15h240c8.284,0,15-6.716,15-15V377C512,368.716,505.284,362,497,362z M422,362
		V257c0-24.813-20.187-45-45-45c-19.556,0-36.239,12.539-42.43,30h-31.063c6.969-34.191,37.274-60,73.493-60
		c41.355,0,75,33.645,75,75v105H422z M362,362v-30h30v30H362z M165,302c-2.961,0-5.856,0.876-8.32,2.519L90,348.972V317
		c0-8.284-6.716-15-15-15H45c-8.271,0-15-6.729-15-15V45c0-8.271,6.729-15,15-15h362c8.271,0,15,6.729,15,15v117.145
		c-13.647-6.5-28.905-10.145-45-10.145c-57.897,0-105,47.103-105,105c0,8.284,6.716,15,15,15h60c8.284,0,15-6.716,15-15
		c0-8.271,6.729-15,15-15s15,6.729,15,15v45H165z M302,332h30v30h-30V332z M482,482H272v-90h210V482z"/>
	<path d="M407,422h-60c-8.284,0-15,6.716-15,15s6.716,15,15,15h60c8.284,0,15-6.716,15-15S415.284,422,407,422z"/>
</g>
<g>
</g>
<g>
</g>
<g>
</g>
<g>
</g>
<g>
</g>
<g>
</g>
<g>
</g>
<g>
</g>
<g>
</g>
<g>
</g>
<g>
</g>
<g>
</g>
<g>
</g>
<g>
</g>
<g>
</g>
</svg>
