<?xml version="1.0" encoding="iso-8859-1"?>
<!-- Generator: Adobe Illustrator 23.1.0, SVG Export Plug-In . SVG Version: 6.00 Build 0)  -->
<svg version="1.1" id="Capa_1" xmlns="http://www.w3.org/2000/svg" xmlns:xlink="http://www.w3.org/1999/xlink" x="0px" y="0px"
	 viewBox="0 0 512 512" style="enable-background:new 0 0 512 512;" xml:space="preserve">
<g>
	<path d="M346,512c24.813,0,45-20.187,45-45V45c0-24.813-20.187-45-45-45H166c-24.813,0-45,20.187-45,45v422
		c0,24.813,20.187,45,45,45H346z M151,105c0-8.271,6.729-15,15-15h180c8.271,0,15,6.729,15,15v302c0,8.271-6.729,15-15,15H166
		c-8.271,0-15-6.729-15-15V105z M166,30h180c8.271,0,15,6.729,15,15v17.58c-4.695-1.665-9.741-2.58-15-2.58H166
		c-5.258,0-10.305,0.915-15,2.58V45C151,36.729,157.729,30,166,30z M151,467v-17.58c4.695,1.665,9.742,2.58,15,2.58h180
		c5.259,0,10.305-0.915,15-2.58V467c0,8.271-6.729,15-15,15H166C157.729,482,151,475.271,151,467z"/>
	<path d="M218.922,329.225c4.866,2.604,10.784,2.332,15.398-0.744l90-60c4.173-2.782,6.68-7.465,6.68-12.481
		s-2.507-9.699-6.68-12.481l-90-60c-4.602-3.069-10.52-3.355-15.398-0.744C214.045,185.385,211,190.468,211,196v120
		C211,321.532,214.045,326.615,218.922,329.225z M241,224.028L288.958,256L241,287.972V224.028z"/>
</g>
<g>
</g>
<g>
</g>
<g>
</g>
<g>
</g>
<g>
</g>
<g>
</g>
<g>
</g>
<g>
</g>
<g>
</g>
<g>
</g>
<g>
</g>
<g>
</g>
<g>
</g>
<g>
</g>
<g>
</g>
</svg>
