<?xml version="1.0" encoding="iso-8859-1"?>
<!-- Generator: Adobe Illustrator 23.1.0, SVG Export Plug-In . SVG Version: 6.00 Build 0)  -->
<svg version="1.1" id="Capa_1" xmlns="http://www.w3.org/2000/svg" xmlns:xlink="http://www.w3.org/1999/xlink" x="0px" y="0px"
	 viewBox="0 0 512 512" style="enable-background:new 0 0 512 512;" xml:space="preserve">
<g>
	<path d="M467,31H105c-24.813,0-45,20.187-45,45v15H45c-24.813,0-45,20.187-45,45v240c0,24.813,20.187,45,45,45h15v45
		c0,5.532,3.045,10.615,7.922,13.225c4.865,2.604,10.784,2.332,15.398-0.744L169.542,421H407c24.813,0,45-20.187,45-45v-15h15
		c24.813,0,45-20.187,45-45V76C512,51.187,491.813,31,467,31z M422,376c0,8.271-6.729,15-15,15H165c-2.961,0-5.856,0.876-8.32,2.519
		L90,437.972V406c0-8.284-6.716-15-15-15H45c-8.271,0-15-6.729-15-15V136c0-8.271,6.729-15,15-15h362c8.271,0,15,6.729,15,15V376z
		 M482,316c0,8.271-6.729,15-15,15h-15V136c0-24.813-20.187-45-45-45H90V76c0-8.271,6.729-15,15-15h362c8.271,0,15,6.729,15,15V316z
		"/>
	<path d="M279.077,151c-20.614,0-38.728,9.451-52.47,27.352C213.624,160.449,195.898,151,175.23,151
		c-38.088,0-67.923,31.347-67.923,71.364c0,46.165,42.404,78.63,82.371,112.387c8.462,7.147,17.213,14.538,26.497,22.585
		c2.819,2.443,6.321,3.665,9.824,3.665s7.005-1.222,9.824-3.665c10.165-8.81,19.718-16.827,28.956-24.581
		C311.932,293.181,346,264.589,346,222.364C346,183.208,317.899,151,279.077,151z M245.494,309.775
		c-6.312,5.297-12.769,10.716-19.489,16.445c-5.833-4.983-11.461-9.737-16.969-14.388c-44.729-37.781-71.729-60.585-71.729-89.468
		c0-23.195,16.657-41.364,37.923-41.364c26.992,0,35.813,32.105,36.235,33.709c1.661,6.512,7.444,11.159,14.167,11.319
		c6.696,0.168,12.752-4.165,14.705-10.619c0.438-1.405,11.078-34.409,38.739-34.409c21.05,0,36.923,17.782,36.923,41.364
		C316,250.602,287.951,274.142,245.494,309.775z"/>
</g>
<g>
</g>
<g>
</g>
<g>
</g>
<g>
</g>
<g>
</g>
<g>
</g>
<g>
</g>
<g>
</g>
<g>
</g>
<g>
</g>
<g>
</g>
<g>
</g>
<g>
</g>
<g>
</g>
<g>
</g>
</svg>
