<?xml version="1.0" encoding="iso-8859-1"?>
<!-- Generator: Adobe Illustrator 23.1.0, SVG Export Plug-In . SVG Version: 6.00 Build 0)  -->
<svg version="1.1" id="Capa_1" xmlns="http://www.w3.org/2000/svg" xmlns:xlink="http://www.w3.org/1999/xlink" x="0px" y="0px"
	 viewBox="0 0 512 512" style="enable-background:new 0 0 512 512;" xml:space="preserve">
<g>
	<path d="M256,31C117.966,31,0,128.692,0,256c0,124.065,114.841,225,256,225c37.649,0,74.09-7.236,108.398-21.517l98.446,21.181
		c5.662,1.218,11.49-0.934,15.01-5.473c3.534-4.559,4.142-10.74,1.562-15.899l-29.092-58.185C490.183,360.01,512,308.879,512,256
		C512,131.934,397.159,31,256,31z M421.75,387.157c-4.818,4.541-6.09,11.703-3.129,17.625l19.99,39.982l-72.559-15.612
		c-3.074-0.661-6.276-0.34-9.158,0.918C325.09,443.958,291.144,451,256,451c-124.617,0-226-87.477-226-195
		C30,144.836,135.123,61,256,61c124.617,0,226,87.477,226,195C482,303.964,460.603,350.544,421.75,387.157z"/>
	<path d="M376,226c8.284,0,15-6.716,15-15s-6.716-15-15-15h-27.257l11.68-40.879c2.276-7.966-2.337-16.268-10.302-18.544
		c-7.964-2.275-16.269,2.336-18.544,10.302L317.542,196h-88.799l11.68-40.879c2.276-7.966-2.337-16.268-10.302-18.544
		c-7.964-2.275-16.268,2.336-18.544,10.302L197.542,196H136c-8.284,0-15,6.716-15,15s6.716,15,15,15h52.971l-17.143,60H136
		c-8.284,0-15,6.716-15,15s6.716,15,15,15h27.257l-11.68,40.879c-2.276,7.966,2.337,16.268,10.302,18.544
		c8.009,2.287,16.281-2.379,18.544-10.302L194.458,316h88.799l-11.68,40.879c-2.276,7.966,2.337,16.268,10.302,18.544
		c8.009,2.287,16.281-2.379,18.544-10.302L314.458,316H376c8.284,0,15-6.716,15-15s-6.716-15-15-15h-52.971l17.143-60H376z
		 M291.828,286h-88.8l17.143-60h88.8L291.828,286z"/>
</g>
<g>
</g>
<g>
</g>
<g>
</g>
<g>
</g>
<g>
</g>
<g>
</g>
<g>
</g>
<g>
</g>
<g>
</g>
<g>
</g>
<g>
</g>
<g>
</g>
<g>
</g>
<g>
</g>
<g>
</g>
</svg>
