<?xml version="1.0" encoding="iso-8859-1"?>
<!-- Generator: Adobe Illustrator 23.1.0, SVG Export Plug-In . SVG Version: 6.00 Build 0)  -->
<svg version="1.1" id="Capa_1" xmlns="http://www.w3.org/2000/svg" xmlns:xlink="http://www.w3.org/1999/xlink" x="0px" y="0px"
	 viewBox="0 0 512 512" style="enable-background:new 0 0 512 512;" xml:space="preserve">
<g>
	<path d="M467,31H165c-24.813,0-45,20.187-45,45v15h-15c-24.813,0-45,20.187-45,45v15H45c-24.813,0-45,20.187-45,45v180
		c0,24.813,20.187,45,45,45h15v45c0,5.532,3.045,10.615,7.922,13.225c4.865,2.604,10.784,2.332,15.398-0.744L169.542,421H347
		c24.813,0,45-20.187,45-45v-15h15c24.813,0,45-20.187,45-45v-15h15c24.813,0,45-20.187,45-45V76C512,51.187,491.813,31,467,31z
		 M362,376c0,8.271-6.729,15-15,15H165c-2.961,0-5.856,0.876-8.32,2.519L90,437.972V406c0-8.284-6.716-15-15-15H45
		c-8.271,0-15-6.729-15-15V196c0-8.271,6.729-15,15-15h302c8.271,0,15,6.729,15,15V376z M422,316c0,8.271-6.729,15-15,15h-15V196
		c0-24.813-20.187-45-45-45H90v-15c0-8.271,6.729-15,15-15h302c8.271,0,15,6.729,15,15V316z M482,256c0,8.271-6.729,15-15,15h-15
		V136c0-24.813-20.187-45-45-45H150V76c0-8.271,6.729-15,15-15h302c8.271,0,15,6.729,15,15V256z"/>
	<path d="M287,241H105c-8.284,0-15,6.716-15,15s6.716,15,15,15h182c8.284,0,15-6.716,15-15S295.284,241,287,241z"/>
	<path d="M287,301H105c-8.284,0-15,6.716-15,15s6.716,15,15,15h182c8.284,0,15-6.716,15-15S295.284,301,287,301z"/>
</g>
<g>
</g>
<g>
</g>
<g>
</g>
<g>
</g>
<g>
</g>
<g>
</g>
<g>
</g>
<g>
</g>
<g>
</g>
<g>
</g>
<g>
</g>
<g>
</g>
<g>
</g>
<g>
</g>
<g>
</g>
</svg>
