<?xml version="1.0" encoding="iso-8859-1"?>
<!-- Generator: Adobe Illustrator 23.1.0, SVG Export Plug-In . SVG Version: 6.00 Build 0)  -->
<svg version="1.1" id="Capa_1" xmlns="http://www.w3.org/2000/svg" xmlns:xlink="http://www.w3.org/1999/xlink" x="0px" y="0px"
	 viewBox="0 0 512 512" style="enable-background:new 0 0 512 512;" xml:space="preserve">
<g>
	<path d="M497,91H382.213l-55.607-55.607c-0.001-0.001-0.002-0.002-0.003-0.003C323.831,32.62,319.997,31,316,31H106
		c-8.284,0-15,6.716-15,15v45H15c-8.284,0-15,6.716-15,15v300c0,8.284,6.716,15,15,15h76v45c0,8.284,6.716,15,15,15h300
		c8.284,0,15-6.716,15-15v-45h76c8.284,0,15-6.716,15-15V106C512,97.716,505.284,91,497,91z M331,82.213L369.787,121H331V82.213z
		 M30,391V121h61v270H30z M391,451H121V61h180v75c0,8.284,6.716,15,15,15h75V451z M482,391h-61V136c0-3.87-1.535-7.748-4.394-10.607
		L412.213,121H482V391z"/>
	<path d="M316,361H196c-8.284,0-15,6.716-15,15s6.716,15,15,15h120c8.284,0,15-6.716,15-15S324.284,361,316,361z"/>
	<path d="M316,301H196c-8.284,0-15,6.716-15,15s6.716,15,15,15h120c8.284,0,15-6.716,15-15S324.284,301,316,301z"/>
	<path d="M316,241H196c-8.284,0-15,6.716-15,15s6.716,15,15,15h120c8.284,0,15-6.716,15-15S324.284,241,316,241z"/>
	<path d="M316,181H196c-8.284,0-15,6.716-15,15s6.716,15,15,15h120c8.284,0,15-6.716,15-15S324.284,181,316,181z"/>
	<path d="M196,151h60c8.284,0,15-6.716,15-15s-6.716-15-15-15h-60c-8.284,0-15,6.716-15,15S187.716,151,196,151z"/>
</g>
<g>
</g>
<g>
</g>
<g>
</g>
<g>
</g>
<g>
</g>
<g>
</g>
<g>
</g>
<g>
</g>
<g>
</g>
<g>
</g>
<g>
</g>
<g>
</g>
<g>
</g>
<g>
</g>
<g>
</g>
</svg>
