<?xml version="1.0" encoding="iso-8859-1"?>
<!-- Generator: Adobe Illustrator 23.1.0, SVG Export Plug-In . SVG Version: 6.00 Build 0)  -->
<svg version="1.1" id="Capa_1" xmlns="http://www.w3.org/2000/svg" xmlns:xlink="http://www.w3.org/1999/xlink" x="0px" y="0px"
	 viewBox="0 0 512 512" style="enable-background:new 0 0 512 512;" xml:space="preserve">
<g>
	<path d="M271.537,256c0,24.813,20.187,45,45,45s45-20.187,45-45s-20.187-45-45-45S271.537,231.187,271.537,256z M331.537,256
		c0,8.271-6.729,15-15,15s-15-6.729-15-15s6.729-15,15-15S331.537,247.729,331.537,256z"/>
	<path d="M61.537,45v422c0,24.813,20.187,45,45,45h180c24.813,0,45-20.187,45-45v-76h15c8.284,0,15-6.716,15-15v-25.546
		c4.954-2.372,9.715-5.137,14.259-8.28l22.165,12.797c7.168,4.14,16.348,1.683,20.49-5.49l30-51.962
		c4.14-7.17,1.683-16.349-5.49-20.49l-21.823-12.599c0.268-2.9,0.399-5.698,0.399-8.429c0-2.731-0.132-5.529-0.399-8.429
		l21.823-12.599c7.17-4.139,9.632-13.317,5.49-20.49l-30-51.962c-4.14-7.17-13.316-9.631-20.49-5.49l-22.165,12.798
		c-4.544-3.143-9.305-5.908-14.259-8.28V136c0-8.284-6.716-15-15-15h-15V45c0-24.813-20.187-45-45-45h-180
		C81.724,0,61.537,20.187,61.537,45z M286.537,482h-180c-8.271,0-15-6.729-15-15v-17.58c4.695,1.665,9.742,2.58,15,2.58h180
		c5.259,0,10.305-0.915,15-2.58V467C301.537,475.271,294.809,482,286.537,482z M341.5,185.657c8.512,3.035,16.38,7.604,23.384,13.58
		c4.832,4.123,11.737,4.756,17.236,1.58l17.851-10.307l15,25.98l-17.587,10.153c-5.502,3.176-8.406,9.474-7.249,15.721
		c0.957,5.17,1.402,9.502,1.402,13.635c0,4.133-0.445,8.466-1.402,13.636c-1.156,6.247,1.747,12.544,7.249,15.721l17.587,10.153
		l-15,25.98l-17.851-10.306c-5.501-3.176-12.405-2.543-17.236,1.58c-7.004,5.976-14.872,10.545-23.384,13.58
		c-5.974,2.13-9.963,7.787-9.963,14.129V361h-30v-20.53c0-6.342-3.989-11.999-9.963-14.129c-8.515-3.036-16.382-7.604-23.384-13.578
		c-4.831-4.123-11.735-4.755-17.237-1.58l-17.85,10.306l-15-25.98l17.586-10.153c5.501-3.176,8.405-9.473,7.25-15.719
		c-0.957-5.173-1.403-9.507-1.403-13.637c0-4.131,0.446-8.464,1.403-13.637c1.156-6.246-1.748-12.543-7.25-15.719l-17.586-10.153
		l15-25.98l17.85,10.306c5.501,3.177,12.405,2.543,17.237-1.579c7.004-5.976,14.872-10.545,23.384-13.58
		c5.974-2.13,9.963-7.787,9.963-14.129V151h30v20.528C331.537,177.87,335.527,183.527,341.5,185.657z M286.537,121
		c-8.284,0-15,6.716-15,15v25.546c-4.953,2.372-9.715,5.137-14.259,8.28l-22.164-12.797c-3.446-1.989-7.54-2.529-11.382-1.499
		c-3.843,1.03-7.119,3.544-9.108,6.989l-30,51.962c-4.14,7.17-1.683,16.349,5.49,20.49l21.823,12.6
		c-0.268,2.901-0.4,5.699-0.4,8.429c0,2.73,0.132,5.528,0.4,8.429l-21.823,12.599c-7.169,4.139-9.632,13.317-5.49,20.49l30,51.962
		c4.139,7.17,13.315,9.632,20.491,5.49l22.164-12.798c4.544,3.143,9.304,5.906,14.259,8.279V376c0,8.284,6.716,15,15,15h15v16
		c0,8.271-6.729,15-15,15h-180c-8.271,0-15-6.729-15-15V105c0-8.271,6.729-15,15-15h180c8.271,0,15,6.729,15,15v16H286.537z
		 M301.537,45v17.58c-4.695-1.665-9.741-2.58-15-2.58h-180c-5.258,0-10.305,0.915-15,2.58V45c0-8.271,6.729-15,15-15h180
		C294.809,30,301.537,36.729,301.537,45z"/>
</g>
<g>
</g>
<g>
</g>
<g>
</g>
<g>
</g>
<g>
</g>
<g>
</g>
<g>
</g>
<g>
</g>
<g>
</g>
<g>
</g>
<g>
</g>
<g>
</g>
<g>
</g>
<g>
</g>
<g>
</g>
</svg>
