<?xml version="1.0" encoding="iso-8859-1"?>
<!-- Generator: Adobe Illustrator 23.1.0, SVG Export Plug-In . SVG Version: 6.00 Build 0)  -->
<svg version="1.1" id="Capa_1" xmlns="http://www.w3.org/2000/svg" xmlns:xlink="http://www.w3.org/1999/xlink" x="0px" y="0px"
	 viewBox="0 0 512.01 512.01" style="enable-background:new 0 0 512.01 512.01;" xml:space="preserve">
<g>
	<path d="M317.01,0c-107.523,0-195,87.477-195,195c0,37.494,10.647,72.544,29.062,102.303L13.19,435.186
		c-17.584,17.584-17.588,46.047-0.001,63.635c17.585,17.585,46.048,17.588,63.636,0l137.882-137.882
		C244.466,379.353,279.516,390,317.01,390c107.523,0,195-87.477,195-195S424.534,0,317.01,0z M55.612,477.607
		c-5.862,5.861-15.346,5.862-21.209,0c-5.86-5.859-5.862-15.347,0-21.208l134.593-134.593c6.519,7.598,13.611,14.69,21.209,21.209
		L55.612,477.607z M317.01,360c-90.981,0-165-74.019-165-165s74.019-165,165-165s165,74.019,165,165S407.992,360,317.01,360z"/>
	<path d="M317.01,60c-74.439,0-135,60.561-135,135s60.561,135,135,135s135-60.561,135-135S391.45,60,317.01,60z M420.934,180h-44.27
		c-1.17-26.215-5.672-56.048-15.912-80.444C392.522,114.174,415.79,144.198,420.934,180z M317.01,300
		c-17.34,0-28.395-64.573-29.629-90.01h59.257C345.082,242.089,332.67,300,317.01,300z M287.382,180
		c1.557-32.089,13.969-90,29.629-90c17.34,0,28.395,64.573,29.629,90H287.382z M273.269,99.556
		c-10.239,24.392-14.742,54.223-15.912,80.444h-44.27C218.23,144.198,241.499,114.174,273.269,99.556z M213.086,210h44.27
		c1.17,26.215,5.672,56.048,15.912,80.444C241.499,275.826,218.23,245.802,213.086,210z M360.751,290.444
		c10.239-24.392,14.742-54.223,15.912-80.454h44.27C415.79,245.802,392.522,275.826,360.751,290.444z"/>
</g>
<g>
</g>
<g>
</g>
<g>
</g>
<g>
</g>
<g>
</g>
<g>
</g>
<g>
</g>
<g>
</g>
<g>
</g>
<g>
</g>
<g>
</g>
<g>
</g>
<g>
</g>
<g>
</g>
<g>
</g>
</svg>
