<?xml version="1.0" encoding="iso-8859-1"?>
<!-- Generator: Adobe Illustrator 23.1.0, SVG Export Plug-In . SVG Version: 6.00 Build 0)  -->
<svg version="1.1" id="Capa_1" xmlns="http://www.w3.org/2000/svg" xmlns:xlink="http://www.w3.org/1999/xlink" x="0px" y="0px"
	 viewBox="0 0 512 512" style="enable-background:new 0 0 512 512;" xml:space="preserve">
<g>
	<path d="M301,226c0-24.813-20.187-45-45-45s-45,20.187-45,45s20.187,45,45,45S301,250.813,301,226z M256,241
		c-8.271,0-15-6.729-15-15s6.729-15,15-15s15,6.729,15,15S264.271,241,256,241z"/>
	<path d="M497,241h-46.571C443.123,145.409,366.591,68.877,271,61.571V15c0-8.284-6.716-15-15-15s-15,6.716-15,15v46.571
		C145.409,68.877,68.877,145.409,61.571,241H15c-8.284,0-15,6.716-15,15s6.716,15,15,15h46.571
		C68.877,366.591,145.409,443.123,241,450.429V497c0,8.284,6.716,15,15,15s15-6.716,15-15v-46.571
		c95.591-7.306,172.123-83.838,179.429-179.429H497c8.284,0,15-6.716,15-15S505.284,241,497,241z M420.311,241h-30.149
		C383.223,178.521,333.479,128.777,271,121.838V91.689C350.035,98.846,413.154,161.965,420.311,241z M256,361
		c-16.095,0-31.354-3.645-45-10.145V346c0-24.813,20.187-45,45-45s45,20.187,45,45v4.855C287.354,357.355,272.095,361,256,361z
		 M329.478,330.928C322.482,296.771,292.194,271,256,271s-66.482,25.771-73.478,59.928C163.082,311.86,151,285.317,151,256
		c0-57.897,47.103-105,105-105s105,47.103,105,105C361,285.317,348.918,311.86,329.478,330.928z M241,91.689v30.149
		C178.521,128.777,128.777,178.521,121.838,241H91.689C98.846,161.965,161.965,98.846,241,91.689z M91.689,271h30.149
		c6.939,62.479,56.683,112.223,119.162,119.162v30.149C161.965,413.154,98.846,350.035,91.689,271z M271,420.311v-30.149
		c62.479-6.939,112.223-56.684,119.162-119.172h30.149C413.154,350.035,350.035,413.154,271,420.311z"/>
</g>
<g>
</g>
<g>
</g>
<g>
</g>
<g>
</g>
<g>
</g>
<g>
</g>
<g>
</g>
<g>
</g>
<g>
</g>
<g>
</g>
<g>
</g>
<g>
</g>
<g>
</g>
<g>
</g>
<g>
</g>
</svg>
