<?xml version="1.0" encoding="iso-8859-1"?>
<!-- Generator: Adobe Illustrator 23.1.0, SVG Export Plug-In . SVG Version: 6.00 Build 0)  -->
<svg version="1.1" id="Capa_1" xmlns="http://www.w3.org/2000/svg" xmlns:xlink="http://www.w3.org/1999/xlink" x="0px" y="0px"
	 viewBox="0 0 512 512" style="enable-background:new 0 0 512 512;" xml:space="preserve">
<g>
	<path d="M346,512c8.284,0,15-6.716,15-15v-45h105c8.284,0,15-6.716,15-15V105c0-4.101-1.708-7.921-4.393-10.607l-90-90
		c-0.001-0.001-0.002-0.002-0.003-0.003C383.838,1.627,380.019,0,376,0H166c-8.284,0-15,6.716-15,15v45H46c-8.284,0-15,6.716-15,15
		v422c0,8.284,6.716,15,15,15H346z M271,111.213L309.787,150H271V111.213z M391,51.213L429.787,90H391V51.213z M181,30h180v75
		c0,8.284,6.716,15,15,15h75v302h-90V165c0-3.923-1.572-7.786-4.393-10.607l-90-90c-0.001-0.001-0.002-0.002-0.003-0.003
		C263.819,61.608,259.99,60,256,60h-75V30z M61,90h180v75c0,8.284,6.716,15,15,15h75v302H61V90z"/>
	<path d="M256,332c24.813,0,45-20.187,45-45s-20.187-45-45-45s-45,20.187-45,45c0,1.881,0.13,3.731,0.355,5.552l-44.147,22.074
		C159.11,306.817,148.11,302,136,302c-24.813,0-45,20.187-45,45s20.187,45,45,45c12.11,0,23.11-4.817,31.208-12.626l44.147,22.074
		C211.13,403.269,211,405.119,211,407c0,24.813,20.187,45,45,45s45-20.187,45-45s-20.187-45-45-45
		c-12.11,0-23.11,4.817-31.208,12.626l-44.147-22.074C180.87,350.731,181,348.881,181,347s-0.13-3.731-0.355-5.552l44.147-22.074
		C232.89,327.183,243.89,332,256,332z M256,272c8.271,0,15,6.729,15,15s-6.729,15-15,15s-15-6.729-15-15S247.729,272,256,272z
		 M136,362c-8.271,0-15-6.729-15-15s6.729-15,15-15s15,6.729,15,15S144.271,362,136,362z M256,392c8.271,0,15,6.729,15,15
		s-6.729,15-15,15s-15-6.729-15-15S247.729,392,256,392z"/>
	<path d="M106,150h90c8.284,0,15-6.716,15-15s-6.716-15-15-15h-90c-8.284,0-15,6.716-15,15S97.716,150,106,150z"/>
	<path d="M106,210h90c8.284,0,15-6.716,15-15s-6.716-15-15-15h-90c-8.284,0-15,6.716-15,15S97.716,210,106,210z"/>
</g>
<g>
</g>
<g>
</g>
<g>
</g>
<g>
</g>
<g>
</g>
<g>
</g>
<g>
</g>
<g>
</g>
<g>
</g>
<g>
</g>
<g>
</g>
<g>
</g>
<g>
</g>
<g>
</g>
<g>
</g>
</svg>
