<?xml version="1.0" encoding="iso-8859-1"?>
<!-- Generator: Adobe Illustrator 23.1.0, SVG Export Plug-In . SVG Version: 6.00 Build 0)  -->
<svg version="1.1" id="Capa_1" xmlns="http://www.w3.org/2000/svg" xmlns:xlink="http://www.w3.org/1999/xlink" x="0px" y="0px"
	 viewBox="0 0 512 512" style="enable-background:new 0 0 512 512;" xml:space="preserve">
<g>
	<path d="M324.32,364.519l-90-60c-4.603-3.069-10.52-3.355-15.398-0.744C214.045,306.385,211,311.468,211,317v120
		c0,5.532,3.045,10.615,7.922,13.225c4.867,2.604,10.784,2.331,15.398-0.744l90-60c4.173-2.782,6.68-7.466,6.68-12.481
		S328.494,367.301,324.32,364.519z M241,408.972v-63.944L288.958,377L241,408.972z"/>
	<path d="M419.694,121.892c-6.198-33.082-34.283-59.631-69.159-61.754C333.318,23.75,296.619,0,256,0s-77.318,23.75-94.536,60.138
		c-34.831,2.12-62.953,28.633-69.159,61.754C41.474,128.558,0,172.799,0,227c0,52.24,39.542,96.544,91,103.914V497
		c0,8.284,6.716,15,15,15h300c8.284,0,15-6.716,15-15V330.914c51.503-7.377,91-51.723,91-103.914
		C512,172.803,470.531,128.559,419.694,121.892z M391,482H121V272h270V482z M421,300.489V257c0-8.284-6.716-15-15-15H106
		c-8.284,0-15,6.716-15,15v43.489C56.159,293.421,30,262.71,30,227c0-41.196,34.804-76,76-76c8.284,0,15-6.716,15-15
		c0-24.705,20.84-48.056,48.999-45.522c6.85,0.62,13.247-3.507,15.51-10.004C196.028,50.284,224.356,30,256,30
		s59.972,20.284,70.491,50.474c2.263,6.497,8.653,10.626,15.51,10.004C370.606,87.903,391,111.728,391,136c0,8.284,6.716,15,15,15
		c41.196,0,76,34.804,76,76C482,262.656,455.891,293.414,421,300.489z"/>
	<path d="M226,121c-8.284,0-15,6.716-15,15v61c0,8.284,6.716,15,15,15s15-6.716,15-15v-61C241,127.716,234.284,121,226,121z"/>
	<path d="M286,121c-8.284,0-15,6.716-15,15v61c0,8.284,6.716,15,15,15s15-6.716,15-15v-61C301,127.716,294.284,121,286,121z"/>
</g>
<g>
</g>
<g>
</g>
<g>
</g>
<g>
</g>
<g>
</g>
<g>
</g>
<g>
</g>
<g>
</g>
<g>
</g>
<g>
</g>
<g>
</g>
<g>
</g>
<g>
</g>
<g>
</g>
<g>
</g>
</svg>
