<?xml version="1.0" encoding="iso-8859-1"?>
<!-- Generator: Adobe Illustrator 23.1.0, SVG Export Plug-In . SVG Version: 6.00 Build 0)  -->
<svg version="1.1" id="Capa_1" xmlns="http://www.w3.org/2000/svg" xmlns:xlink="http://www.w3.org/1999/xlink" x="0px" y="0px"
	 viewBox="0 0 512 512" style="enable-background:new 0 0 512 512;" xml:space="preserve">
<g>
	<path d="M419.694,121.892c-2.757-14.714-9.814-28.329-20.541-39.303c-13.159-13.462-30.28-21.334-48.617-22.451
		C333.317,23.75,296.619,0,256,0s-77.318,23.75-94.536,60.138c-34.831,2.12-62.953,28.633-69.159,61.754
		C41.474,128.558,0,172.799,0,227c0,55.984,44.719,105,106,105h75v45c0,8.284,6.716,15,15,15h120c8.284,0,15-6.716,15-15v-45h75
		c58.06,0,106-47.409,106-105C512,172.804,470.531,128.559,419.694,121.892z M301,362h-90V257c0-8.284-6.716-15-15-15h-0.148
		L256,161.134L316.148,242H316c-8.284,0-15,6.716-15,15V362z M406,302h-75v-30h15c5.671,0,10.856-3.198,13.403-8.265
		c2.546-5.067,2.017-11.137-1.367-15.687l-90-121C265.206,123.243,260.742,121,256,121s-9.206,2.243-12.036,6.048l-90,121
		c-3.384,4.55-3.914,10.62-1.367,15.687C155.143,268.802,160.329,272,166,272h15v30h-75c-44.326,0-76-35.179-76-75
		c0-41.196,34.804-76,76-76c8.284,0,15-6.716,15-15c0-24.935,20.607-46,44.97-46c7.508,0.244,15.896,0.932,19.539-9.526
		C196.028,50.284,224.356,30,256,30s59.972,20.284,70.49,50.474C330.078,90.773,338.631,90.266,346,90c24.393,0,45,21.065,45,46
		c0,8.284,6.716,15,15,15c41.196,0,76,34.804,76,76C482,268.052,447.526,302,406,302z"/>
	<path d="M196,452h120c8.284,0,15-6.716,15-15s-6.716-15-15-15H196c-8.284,0-15,6.716-15,15S187.716,452,196,452z"/>
	<path d="M196,512h120c8.284,0,15-6.716,15-15s-6.716-15-15-15H196c-8.284,0-15,6.716-15,15S187.716,512,196,512z"/>
</g>
<g>
</g>
<g>
</g>
<g>
</g>
<g>
</g>
<g>
</g>
<g>
</g>
<g>
</g>
<g>
</g>
<g>
</g>
<g>
</g>
<g>
</g>
<g>
</g>
<g>
</g>
<g>
</g>
<g>
</g>
</svg>
