<?xml version="1.0" encoding="iso-8859-1"?>
<!-- Generator: Adobe Illustrator 23.1.0, SVG Export Plug-In . SVG Version: 6.00 Build 0)  -->
<svg version="1.1" id="Capa_1" xmlns="http://www.w3.org/2000/svg" xmlns:xlink="http://www.w3.org/1999/xlink" x="0px" y="0px"
	 viewBox="0 0 512 512" style="enable-background:new 0 0 512 512;" xml:space="preserve">
<g>
	<path d="M391,0c-66.168,0-120,53.832-120,120c0,8.41,0.874,16.618,2.528,24.544c-11.412-8.034-24.117-14.348-37.739-18.558
		C239.11,119.716,241,112.576,241,105c0-24.813-20.187-45-45-45s-45,20.187-45,45c0,7.546,1.876,14.658,5.172,20.911
		C100.554,142.854,60,194.312,60,255v122c0,24.813-20.187,45-45,45c-8.284,0-15,6.716-15,15s6.716,15,15,15h136v15
		c0,24.813,20.187,45,45,45s45-20.187,45-45v-15h135c8.284,0,15-6.716,15-15s-6.716-15-15-15c-24.813,0-45-20.187-45-45V255
		c0-11.631-1.479-22.922-4.257-33.697C345.332,233.136,367.379,240,391,240c66.72,0,121-53.832,121-120S457.72,0,391,0z M181,105
		c0-8.271,6.729-15,15-15s15,6.729,15,15s-6.729,15-15,15S181,113.271,181,105z M211,467c0,8.271-6.729,15-15,15s-15-6.729-15-15
		v-15h30V467z M74.965,422C84.4,409.457,90,393.869,90,377V255c0-57.897,47.552-105,106-105c57.897,0,105,47.103,105,105v122
		c0,16.869,5.6,32.457,15.035,45H74.965z M391,210c-49.626,0-90-40.374-90-90s40.374-90,90-90c50.178,0,91,40.374,91,90
		S441.178,210,391,210z"/>
	<path d="M391,52.5c-8.284,0-15,6.716-15,15v60c0,8.284,6.716,15,15,15s15-6.716,15-15v-60C406,59.216,399.284,52.5,391,52.5z"/>
	<circle cx="391" cy="172.5" r="15"/>
</g>
<g>
</g>
<g>
</g>
<g>
</g>
<g>
</g>
<g>
</g>
<g>
</g>
<g>
</g>
<g>
</g>
<g>
</g>
<g>
</g>
<g>
</g>
<g>
</g>
<g>
</g>
<g>
</g>
<g>
</g>
</svg>
