<?xml version="1.0" encoding="iso-8859-1"?>
<!-- Generator: Adobe Illustrator 23.1.0, SVG Export Plug-In . SVG Version: 6.00 Build 0)  -->
<svg version="1.1" id="Capa_1" xmlns="http://www.w3.org/2000/svg" xmlns:xlink="http://www.w3.org/1999/xlink" x="0px" y="0px"
	 viewBox="0 0 512 512" style="enable-background:new 0 0 512 512;" xml:space="preserve">
<g>
	<path d="M209.563,262.991l-41.416-6.239l-18.731-37.46C146.875,214.21,141.682,211,136,211s-10.875,3.21-13.416,8.292
		l-18.719,37.436l-42.385,6.258c-5.666,0.836-10.361,4.826-12.101,10.282c-1.74,5.457-0.221,11.427,3.915,15.389l30.668,29.376
		l-6.844,41.185c-0.932,5.604,1.384,11.254,5.98,14.594c4.578,3.327,10.666,3.805,15.728,1.178L136,355.692l37.174,19.297
		c5.045,2.619,11.132,2.161,15.729-1.178c4.596-3.34,6.911-8.99,5.979-14.595l-6.866-41.315l29.839-29.39
		c4.048-3.987,5.496-9.918,3.74-15.322C219.84,267.786,215.182,263.838,209.563,262.991z M161.416,301.992
		c-3.479,3.426-5.072,8.33-4.271,13.146l3.225,19.403l-17.458-9.063c-4.334-2.249-9.49-2.249-13.822,0l-17.458,9.063l3.225-19.403
		c0.813-4.889-0.842-9.863-4.421-13.292l-14.259-13.658l19.802-2.924c4.846-0.715,9.036-3.75,11.226-8.131L136,259.541l8.797,17.593
		c2.183,4.366,6.354,7.397,11.182,8.124l19.452,2.93L161.416,301.992z"/>
	<path d="M449.563,262.991l-41.416-6.239l-18.731-37.46C386.875,214.21,381.682,211,376,211s-10.875,3.21-13.416,8.292
		l-18.731,37.46l-41.416,6.239c-5.618,0.846-10.276,4.794-12.031,10.198c-1.756,5.404-0.308,11.335,3.74,15.322l29.84,29.39
		l-6.866,41.316c-0.932,5.604,1.384,11.254,5.98,14.594c4.578,3.327,10.666,3.805,15.728,1.178L376,355.692l37.174,19.297
		c5.046,2.619,11.133,2.161,15.729-1.178c4.596-3.34,6.911-8.99,5.979-14.595l-6.866-41.315l29.839-29.39
		c4.048-3.987,5.496-9.918,3.74-15.322C459.84,267.786,455.182,263.838,449.563,262.991z M401.416,301.992
		c-3.479,3.426-5.072,8.33-4.271,13.146l3.225,19.403l-17.458-9.063c-4.334-2.249-9.49-2.249-13.822,0l-17.458,9.063l3.225-19.403
		c0.801-4.816-0.793-9.72-4.271-13.146l-14.015-13.804l19.452-2.93c4.827-0.727,8.999-3.758,11.182-8.124L376,259.541l8.797,17.593
		c2.183,4.366,6.354,7.397,11.182,8.124l19.452,2.93L401.416,301.992z"/>
	<path d="M467,121H346.535l23.204-22.859c4.048-3.987,5.495-9.919,3.739-15.323c-1.757-5.404-6.415-9.351-12.034-10.196
		l-63.523-9.557L269.307,8.076C266.724,3.113,261.595,0,256,0s-10.724,3.113-13.307,8.076l-28.614,54.989l-63.523,9.557
		c-5.619,0.845-10.277,4.792-12.034,10.196c-1.756,5.403-0.309,11.335,3.739,15.323L165.465,121H45c-24.813,0-45,20.187-45,45v240
		c0,24.813,20.187,45,45,45h165.113l33.108,53.855c2.729,4.44,7.567,7.145,12.778,7.145s10.049-2.705,12.778-7.145L301.887,451H467
		c24.813,0,45-20.187,45-45V166C512,141.187,491.813,121,467,121z M226.093,91.595c4.744-0.714,8.86-3.653,11.075-7.909L256,47.495
		l18.832,36.191c2.215,4.256,6.331,7.195,11.075,7.909l41.405,6.23l-29.822,29.379c-3.479,3.426-5.071,8.331-4.271,13.146
		l6.872,41.324l-37.184-19.292c-2.166-1.124-4.537-1.685-6.908-1.685s-4.742,0.562-6.908,1.685l-37.184,19.292l6.872-41.324
		c0.801-4.816-0.792-9.72-4.271-13.146l-29.822-29.379L226.093,91.595z M482,406c0,8.271-6.729,15-15,15H293.5
		c-5.211,0-10.049,2.705-12.778,7.145L256,468.358l-24.722-40.213c-2.729-4.44-7.567-7.145-12.778-7.145H45c-8.271,0-15-6.729-15-15
		V166c0-8.271,6.729-15,15-15h141.597l-9.203,55.342c-0.932,5.604,1.383,11.254,5.978,14.594c4.596,3.34,10.684,3.798,15.728,1.181
		l56.9-29.521l56.9,29.521c5.042,2.616,11.131,2.159,15.728-1.181c4.595-3.34,6.909-8.99,5.978-14.594L325.403,151H467
		c8.271,0,15,6.729,15,15V406z"/>
</g>
<g>
</g>
<g>
</g>
<g>
</g>
<g>
</g>
<g>
</g>
<g>
</g>
<g>
</g>
<g>
</g>
<g>
</g>
<g>
</g>
<g>
</g>
<g>
</g>
<g>
</g>
<g>
</g>
<g>
</g>
</svg>
