<?xml version="1.0" encoding="iso-8859-1"?>
<!-- Generator: Adobe Illustrator 23.1.0, SVG Export Plug-In . SVG Version: 6.00 Build 0)  -->
<svg version="1.1" id="Capa_1" xmlns="http://www.w3.org/2000/svg" xmlns:xlink="http://www.w3.org/1999/xlink" x="0px" y="0px"
	 viewBox="0 0 512 512" style="enable-background:new 0 0 512 512;" xml:space="preserve">
<g>
	<path d="M497,60h-97.599L357.904,5.874C355.065,2.171,350.666,0,346,0H226c-4.666,0-9.065,2.171-11.904,5.874L172.599,60H150V15
		c0-8.284-6.716-15-15-15H75c-8.284,0-15,6.716-15,15v45H15C6.716,60,0,66.716,0,75v270c0,8.284,6.716,15,15,15h15v45
		c0,8.284,6.716,15,15,15h45v77c0,8.284,6.716,15,15,15h302c8.284,0,15-6.716,15-15v-77h45c8.284,0,15-6.716,15-15v-45h15
		c8.284,0,15-6.716,15-15V75C512,66.716,505.284,60,497,60z M90,30h30v30H90V30z M180,90c4.666,0,9.065-2.171,11.904-5.874
		L233.401,30h105.198l41.497,54.126C382.935,87.829,387.334,90,392,90h90v150H380.855c6.5-13.647,10.145-28.905,10.145-45
		c0-57.897-47.103-105-105-105s-105,47.103-105,105c0,16.095,3.645,31.353,10.145,45H30V90H180z M211,195c0-41.355,33.645-75,75-75
		s75,33.645,75,75s-33.645,75-75,75S211,236.355,211,195z M60,390v-30h30v30H60z M392,482H120V360h272V482z M452,390h-30v-30h30V390
		z M30,330v-60h182.596c18.946,18.546,44.86,30,73.404,30s54.458-11.454,73.404-30H482v60H30z"/>
	<path d="M331,195c0-24.813-20.187-45-45-45s-45,20.187-45,45s20.187,45,45,45S331,219.813,331,195z M271,195
		c0-8.271,6.729-15,15-15s15,6.729,15,15s-6.729,15-15,15S271,203.271,271,195z"/>
	<path d="M75,210h60c8.284,0,15-6.716,15-15v-60c0-8.284-6.716-15-15-15H75c-8.284,0-15,6.716-15,15v60
		C60,203.284,66.716,210,75,210z M90,150h30v30H90V150z"/>
</g>
<g>
</g>
<g>
</g>
<g>
</g>
<g>
</g>
<g>
</g>
<g>
</g>
<g>
</g>
<g>
</g>
<g>
</g>
<g>
</g>
<g>
</g>
<g>
</g>
<g>
</g>
<g>
</g>
<g>
</g>
</svg>
