<?xml version="1.0" encoding="iso-8859-1"?>
<!-- Generator: Adobe Illustrator 23.1.0, SVG Export Plug-In . SVG Version: 6.00 Build 0)  -->
<svg version="1.1" id="Capa_1" xmlns="http://www.w3.org/2000/svg" xmlns:xlink="http://www.w3.org/1999/xlink" x="0px" y="0px"
	 viewBox="0 0 512 512" style="enable-background:new 0 0 512 512;" xml:space="preserve">
<g>
	<path d="M497,90h-86.06C389.605,71.34,361.615,60,331,60c-14.386,0-28.668,2.613-42.056,7.61C269.457,27.621,228.395,0,181,0
		C125.187,0,78.152,38.301,64.797,90H15c-8.284,0-15,6.716-15,15v301c0,8.284,6.716,15,15,15h196v61c-14.095,0-30.95,0-45,0
		c-8.284,0-15,6.716-15,15s6.716,15,15,15c31.425,0,133.903,0,180,0c8.284,0,15-6.716,15-15s-6.716-14.99-15-14.99
		c-2.297,0-41.121,0-45.009,0l0.001-61.01H497c8.284,0,15-6.716,15-15V105C512,96.716,505.284,90,497,90z M331,90
		c50.178,0,91,40.374,91,90c0,23.18-9.034,46.025-24.785,62.676c-5.317,5.621-5.487,14.363-0.393,20.186l7.121,8.138H331
		c-34.596,0-66.61-21.14-81.417-52.588C280.642,196.702,301,160.686,301,120c0-8.208-0.831-16.227-2.408-23.976
		C308.874,92.066,319.893,90,331,90z M181,30c49.626,0,90,40.374,90,90s-40.374,90-90,90h-71.943l7.121-8.138
		c5.095-5.822,4.925-14.565-0.392-20.186C99.802,164.78,91,142.876,91,120C91,70.374,131.374,30,181,30z M61,120
		c0,26.018,8.482,51.056,24.119,71.8l-20.407,23.323c-3.876,4.429-4.803,10.716-2.371,16.076S70.114,240,76,240h105
		c14.786,0,28.952-2.695,42.043-7.608C242.804,273.093,283.836,301,331,301h106c5.886,0,11.228-3.442,13.659-8.802
		c2.433-5.36,1.505-11.646-2.37-16.076l-20.439-23.359C443.319,231.988,452,206.142,452,180c0-21.843-5.918-42.339-16.243-60H482
		v211H30V120H61z M286.002,391c-8.284,0-15,6.716-15,15c0,0-0.001,76-0.001,76H241v-76c0-8.284-6.716-15-15-15H30v-30h452v30
		H286.002z"/>
	<circle cx="121" cy="120" r="15"/>
	<circle cx="181" cy="120" r="15"/>
	<circle cx="241" cy="120" r="15"/>
</g>
<g>
</g>
<g>
</g>
<g>
</g>
<g>
</g>
<g>
</g>
<g>
</g>
<g>
</g>
<g>
</g>
<g>
</g>
<g>
</g>
<g>
</g>
<g>
</g>
<g>
</g>
<g>
</g>
<g>
</g>
</svg>
