<?xml version="1.0" encoding="iso-8859-1"?>
<!-- Generator: Adobe Illustrator 23.1.0, SVG Export Plug-In . SVG Version: 6.00 Build 0)  -->
<svg version="1.1" id="Capa_1" xmlns="http://www.w3.org/2000/svg" xmlns:xlink="http://www.w3.org/1999/xlink" x="0px" y="0px"
	 viewBox="0 0 511.998 511.998" style="enable-background:new 0 0 511.998 511.998;" xml:space="preserve">
<g>
	<path d="M315.245,199.391c-5.852-5.854-15.356-5.857-21.213,0l-10.606,10.606l-42.427-42.426l10.606-10.607
		c5.858-5.858,5.858-15.355,0-21.213l-42.427-42.426c-5.857-5.858-15.355-5.858-21.213,0l-21.213,21.213
		c-29.243,29.242-29.243,76.824,0,106.066l63.64,63.64c29.238,29.238,76.819,29.247,106.065,0l21.214-21.213
		c5.854-5.854,5.858-15.356,0-21.213L315.245,199.391z M315.245,263.031c-17.544,17.544-46.094,17.546-63.64,0l-63.64-63.64
		c-17.545-17.546-17.545-46.094,0-63.64l10.606-10.606l21.214,21.213l-10.606,10.607c-5.858,5.858-5.858,15.355,0,21.213
		l63.64,63.64c5.854,5.855,15.357,5.857,21.213,0l10.606-10.606l21.213,21.213L315.245,263.031z"/>
	<path d="M450.097,194.998C450.097,88.002,363.058,0.527,256.073,0c-0.051,0-0.098,0-0.148,0
		C148.939,0.527,61.9,88.002,61.9,194.998c0,54.392,29.386,121.781,87.341,200.295c26.483,35.878,53.559,66.617,72.24,86.705
		h-55.482c-8.284,0-15,6.716-15,15s6.716,15,15,15h180c8.284,0,15-6.716,15-15s-6.716-15-15-15h-55.482
		c18.681-20.087,45.756-50.827,72.24-86.705C420.712,316.779,450.097,249.39,450.097,194.998z M255.999,474.813
		c-16.508-17.044-49.978-53.112-82.621-97.335C120.075,305.265,91.9,242.165,91.9,194.998C91.9,104.485,165.504,30.482,255.999,30
		c90.495,0.482,164.099,74.485,164.099,164.998c0,47.167-28.175,110.267-81.478,182.479
		C305.976,421.7,272.507,457.768,255.999,474.813z"/>
</g>
<g>
</g>
<g>
</g>
<g>
</g>
<g>
</g>
<g>
</g>
<g>
</g>
<g>
</g>
<g>
</g>
<g>
</g>
<g>
</g>
<g>
</g>
<g>
</g>
<g>
</g>
<g>
</g>
<g>
</g>
</svg>
