<?xml version="1.0" encoding="iso-8859-1"?>
<!-- Generator: Adobe Illustrator 23.1.0, SVG Export Plug-In . SVG Version: 6.00 Build 0)  -->
<svg version="1.1" id="Capa_1" xmlns="http://www.w3.org/2000/svg" xmlns:xlink="http://www.w3.org/1999/xlink" x="0px" y="0px"
	 viewBox="0 0 512 512" style="enable-background:new 0 0 512 512;" xml:space="preserve">
<g>
	<path d="M467,151h-76V15c0-8.284-6.716-15-15-15H136c-8.284,0-15,6.716-15,15v136H45c-24.813,0-45,20.187-45,45v180
		c0,24.813,20.187,45,45,45h136v39.787l-4.394-4.394c-5.857-5.858-15.355-5.858-21.213,0c-5.858,5.858-5.858,15.355,0,21.213l30,30
		c5.857,5.858,15.355,5.859,21.213,0l30-30c5.858-5.858,5.858-15.355,0-21.213c-5.857-5.858-15.355-5.858-21.213,0L211,460.787V421
		h90v76c0,8.284,6.716,15,15,15s15-6.716,15-15v-76c17.942,0,115.244,0,136,0c24.813,0,45-20.187,45-45V196
		C512,171.187,491.813,151,467,151z M151,90h210v121H151V90z M361,60h-30V30h30V60z M301,30v30H151V30H301z M30,376V196
		c0-8.271,6.729-15,15-15h17.58c-1.665,4.695-2.58,9.742-2.58,15v180c0,5.258,0.915,10.305,2.58,15H45C36.729,391,30,384.271,30,376
		z M331,391v-38.787l4.394,4.394c5.857,5.858,15.355,5.859,21.213,0c5.858-5.858,5.858-15.355,0-21.213l-30-30
		c-5.857-5.858-15.355-5.858-21.213,0l-30,30c-5.858,5.858-5.858,15.355,0,21.213c5.857,5.858,15.355,5.858,21.213,0l4.394-4.394
		V391h-90v-75c0-8.284-6.716-15-15-15s-15,6.716-15,15v75h-76c-8.271,0-15-6.729-15-15V196c0-8.271,6.729-15,15-15h16v45
		c0,8.284,6.716,15,15,15h240c8.284,0,15-6.716,15-15v-45h16c8.271,0,15,6.729,15,15v180c0,8.271-6.729,15-15,15
		C384.129,391,353.505,391,331,391z M482,376c0,8.271-6.729,15-15,15h-17.58c1.665-4.695,2.58-9.742,2.58-15V196
		c0-5.258-0.915-10.305-2.58-15H467c8.271,0,15,6.729,15,15V376z"/>
</g>
<g>
</g>
<g>
</g>
<g>
</g>
<g>
</g>
<g>
</g>
<g>
</g>
<g>
</g>
<g>
</g>
<g>
</g>
<g>
</g>
<g>
</g>
<g>
</g>
<g>
</g>
<g>
</g>
<g>
</g>
</svg>
