<?xml version="1.0" encoding="iso-8859-1"?>
<!-- Generator: Adobe Illustrator 23.1.0, SVG Export Plug-In . SVG Version: 6.00 Build 0)  -->
<svg version="1.1" id="Capa_1" xmlns="http://www.w3.org/2000/svg" xmlns:xlink="http://www.w3.org/1999/xlink" x="0px" y="0px"
	 viewBox="0 0 512 512" style="enable-background:new 0 0 512 512;" xml:space="preserve">
<g>
	<path d="M497,300h-15V165c0-8.284-6.716-15-15-15h-45V15c0-8.284-6.716-15-15-15H105c-8.284,0-15,6.716-15,15v135H45
		c-8.284,0-15,6.716-15,15v135H15c-8.284,0-15,6.716-15,15v182c0,8.284,6.716,15,15,15h211c8.284,0,15-6.716,15-15V315
		c0-8.284-6.716-15-15-15H60V180h30v75c0,8.284,6.716,15,15,15h302c8.284,0,15-6.716,15-15v-75h30v120H286c-8.284,0-15,6.716-15,15
		v182c0,8.284,6.716,15,15,15h211c8.284,0,15-6.716,15-15V315C512,306.716,505.284,300,497,300z M151,330v30H30v-30H151z M30,482
		v-92h181v92H30z M211,360h-30v-30h30V360z M392,60h-30V30h30V60z M332,30v30H120V30H332z M392,240H120V90h272V240z M482,330v30h-30
		v-30H482z M422,330v30H301v-30H422z M301,482v-92h181v92H301z"/>
	<path d="M317,120H196c-8.284,0-15,6.716-15,15s6.716,15,15,15h121c8.284,0,15-6.716,15-15S325.284,120,317,120z"/>
	<path d="M317,180H196c-8.284,0-15,6.716-15,15s6.716,15,15,15h121c8.284,0,15-6.716,15-15S325.284,180,317,180z"/>
</g>
<g>
</g>
<g>
</g>
<g>
</g>
<g>
</g>
<g>
</g>
<g>
</g>
<g>
</g>
<g>
</g>
<g>
</g>
<g>
</g>
<g>
</g>
<g>
</g>
<g>
</g>
<g>
</g>
<g>
</g>
</svg>
