<?xml version="1.0" encoding="iso-8859-1"?>
<!-- Generator: Adobe Illustrator 23.1.0, SVG Export Plug-In . SVG Version: 6.00 Build 0)  -->
<svg version="1.1" id="Capa_1" xmlns="http://www.w3.org/2000/svg" xmlns:xlink="http://www.w3.org/1999/xlink" x="0px" y="0px"
	 viewBox="0 0 512 512" style="enable-background:new 0 0 512 512;" xml:space="preserve">
<g>
	<path d="M497,211H392V15c0-8.284-6.716-15-15-15H15C6.716,0,0,6.716,0,15v271c0,8.284,6.716,15,15,15h106v196
		c0,8.284,6.716,15,15,15h361c8.284,0,15-6.716,15-15V226C512,217.716,505.284,211,497,211z M482,271h-30v-30h30V271z M422,241v30
		h-30v-30H422z M362,60h-30V30h30V60z M302,30v30H30V30H302z M30,90h332v181h-91.537c-6.961-33.591-37.517-60-74.463-60
		c-36.219,0-66.522,25.808-73.491,60H30V90z M239.258,271H153.58c6.192-17.458,22.865-30,42.42-30
		C215.588,241,232.782,253.72,239.258,271z M274.569,482c6.242-17.832,23.148-31,42.431-31s36.188,13.168,42.431,31H274.569z
		 M390.516,482c-6.772-33.887-36.666-61-73.516-61c-36.857,0-66.747,27.121-73.516,61H151V301c9.978,0,321.031,0,331,0v181H390.516z
		"/>
	<path d="M362,376c0-24.813-20.187-45-45-45s-45,20.187-45,45s20.187,45,45,45S362,400.813,362,376z M317,391
		c-8.271,0-15-6.729-15-15s6.729-15,15-15s15,6.729,15,15S325.271,391,317,391z"/>
	<path d="M241,166c0-24.813-20.187-45-45-45s-45,20.187-45,45s20.187,45,45,45S241,190.813,241,166z M196,181
		c-8.271,0-15-6.729-15-15s6.729-15,15-15s15,6.729,15,15S204.271,181,196,181z"/>
	<path d="M497,60h-60c-8.284,0-15,6.716-15,15s6.716,15,15,15h45v76c0,8.284,6.716,15,15,15s15-6.716,15-15V75
		C512,66.716,505.284,60,497,60z"/>
	<path d="M15,451h60c8.284,0,15-6.716,15-15s-6.716-15-15-15H30v-75c0-8.284-6.716-15-15-15s-15,6.716-15,15v90
		C0,444.284,6.716,451,15,451z"/>
</g>
<g>
</g>
<g>
</g>
<g>
</g>
<g>
</g>
<g>
</g>
<g>
</g>
<g>
</g>
<g>
</g>
<g>
</g>
<g>
</g>
<g>
</g>
<g>
</g>
<g>
</g>
<g>
</g>
<g>
</g>
</svg>
