<?xml version="1.0" encoding="iso-8859-1"?>
<!-- Generator: Adobe Illustrator 23.1.0, SVG Export Plug-In . SVG Version: 6.00 Build 0)  -->
<svg version="1.1" id="Capa_1" xmlns="http://www.w3.org/2000/svg" xmlns:xlink="http://www.w3.org/1999/xlink" x="0px" y="0px"
	 viewBox="0 0 512 512" style="enable-background:new 0 0 512 512;" xml:space="preserve">
<g>
	<path d="M497,0H15C6.716,0,0,6.716,0,15v361c0,8.284,6.716,15,14.99,14.99h114.623c-4.666,13.173-3.016,27.947,4.949,39.894
		l48.906,74.359C186.242,509.46,190.952,512,196,512h120c5.704,0,10.914-3.235,13.444-8.347l48.128-97.257
		c2.473-4.945,3.943-10.158,4.49-15.396H497c8.284,0,15-6.716,15-15V15C512,6.716,505.284,0,497,0z M482,60h-60V30h60V60z M392,30
		v30H30V30H392z M350.712,393.035L306.687,482H204.088l-44.513-67.68c-3.37-5.054-3.37-11.586,0-16.641
		c8.008-12.012,12.287-18.431,21.425-32.137V376c0,8.284,6.716,15,15,15s15-6.716,15-15c0-1.853,0-148.699,0-150
		c0-8.271,6.729-15,15-15s15,6.703,15,14.942c0,13.278,0,55.695,0,70.059c0,5.015,2.507,9.698,6.68,12.48l97.963,65.309
		C351.925,377.978,354.116,386.228,350.712,393.035z M271,225.942C271,201.161,250.813,181,226,181s-45,20.187-45,45v15h-30
		c-16.804,0-31-13.738-31-30s14.196-30,31-30l210-0.01c16.804,0.01,31,13.748,31,30.01s-14.196,30-31,30h-90L271,225.942z
		 M374.535,361c-3.18-4.698-7.284-8.861-12.25-12.171L271,287.972L271,271h90c32.894,0,61-26.584,61-60c0-33.424-28.112-60-61-60
		H151c-32.895,0-61,26.584-61,60c0,33.424,28.112,60,61,60h30v40.458L147.972,361H30V90h452v271H374.535z"/>
</g>
<g>
</g>
<g>
</g>
<g>
</g>
<g>
</g>
<g>
</g>
<g>
</g>
<g>
</g>
<g>
</g>
<g>
</g>
<g>
</g>
<g>
</g>
<g>
</g>
<g>
</g>
<g>
</g>
<g>
</g>
</svg>
