<?xml version="1.0" encoding="iso-8859-1"?>
<!-- Generator: Adobe Illustrator 23.1.0, SVG Export Plug-In . SVG Version: 6.00 Build 0)  -->
<svg version="1.1" id="Capa_1" xmlns="http://www.w3.org/2000/svg" xmlns:xlink="http://www.w3.org/1999/xlink" x="0px" y="0px"
	 viewBox="0 0 512 512" style="enable-background:new 0 0 512 512;" xml:space="preserve">
<g>
	<path d="M497,31.987H15c-8.284,0-15,6.716-15,15v330c0,8.284,6.716,15,15,15h106v45c0,8.284,6.716,15,15,15h52.602
		c2.327,1.032-3.617-0.819,100.732,26.612c0.055,0.014,0.109,0.028,0.164,0.042c19.495,4.872,39.312-3.537,49.538-20.565
		l39.158-66.089H497c8.284,0,15-6.716,15-15v-330C512,38.703,505.284,31.987,497,31.987z M482,91.987h-60v-30h60V91.987z
		 M392,61.987v30H30v-30H392z M151,331.987h30v90h-30V331.987z M313.271,442.708c-3.409,5.676-10.007,8.422-16.431,6.846
		L211,427.063v-95.369c33.592-3.107,60-31.342,60-65.92v-21.216c17.461,6.191,30,22.874,30,42.43v30c0,8.284,6.716,15,15,15h36.552
		c7.895,0,11.76,5.324,13.055,7.613c1.295,2.289,3.869,8.342-0.242,15.187C365.136,355.167,361.147,361.903,313.271,442.708z
		 M395.01,361.987c4.368-12.164,3.284-25.538-3.294-37.163c-8.092-14.3-22.733-22.837-39.164-22.837H331v-15
		c0-41.355-33.645-75-75-75c-8.284,0-15,6.716-15,15v38.787c0,20.015-16.196,36.213-36.213,36.213c-10.25,0-57.361,0-68.787,0
		c-8.284,0-15,6.716-15,15v45H30v-240h452v240H395.01z"/>
</g>
<g>
</g>
<g>
</g>
<g>
</g>
<g>
</g>
<g>
</g>
<g>
</g>
<g>
</g>
<g>
</g>
<g>
</g>
<g>
</g>
<g>
</g>
<g>
</g>
<g>
</g>
<g>
</g>
<g>
</g>
</svg>
