<?xml version="1.0" encoding="iso-8859-1"?>
<!-- Generator: Adobe Illustrator 23.1.0, SVG Export Plug-In . SVG Version: 6.00 Build 0)  -->
<svg version="1.1" id="Capa_1" xmlns="http://www.w3.org/2000/svg" xmlns:xlink="http://www.w3.org/1999/xlink" x="0px" y="0px"
	 viewBox="0 0 512 512" style="enable-background:new 0 0 512 512;" xml:space="preserve">
<g>
	<path d="M467,362h-77.509c-1.254-6.156-3.265-12.039-5.93-17.55c0.194-0.153,0.393-0.298,0.582-0.462
		C426.286,307.22,451,253.387,451,196C451,87.925,363.523,0,256,0S61,87.925,61,196c0,56.757,24.253,110.818,66.857,147.988
		c0.189,0.165,0.389,0.306,0.583,0.459c-2.666,5.511-4.677,11.396-5.932,17.553H45c-24.813,0-45,20.187-45,45s20.187,45,45,45
		h77.509c6.968,34.192,37.271,60,73.491,60h120c36.22,0,66.522-25.808,73.491-60H467c24.813,0,45-20.187,45-45S491.813,362,467,362z
		 M365.323,320.572c-9.35-8.183-20.736-14.084-33.296-16.83c2.887-10.019,5.356-20.648,7.375-31.752h63.443
		C393.564,290.254,380.91,306.768,365.323,320.572z M210.797,302c-2.949-9.281-5.499-19.36-7.61-30.01h105.626
		c-2.112,10.65-4.661,20.729-7.61,30.01H210.797z M91,196c0-15.59,2.151-30.684,6.164-45.01h71.105
		C166.773,165.585,166,180.667,166,196c0,15.652,0.802,31.087,2.349,46H97.404C93.205,227.213,91,211.748,91,196z M196,196
		c0-15.42,0.828-30.517,2.424-45h115.152c1.596,14.483,2.424,29.58,2.424,45c0,15.569-0.886,31.076-2.568,46H198.568
		C196.886,227.076,196,211.569,196,196z M256,30c27.883,0,46.871,60.237,52.988,91H203.012C209.037,90.703,228.178,30,256,30z
		 M421,196c0,15.748-2.205,31.213-6.404,46h-70.944c1.547-14.913,2.349-30.348,2.349-46c0-15.333-0.773-30.415-2.27-45h71.105
		C418.849,165.316,421,180.41,421,196z M403.173,121H339.5c-4.979-27.42-13.75-57.554-27.912-81.296
		C351.406,54.081,384.186,83.441,403.173,121z M200.411,39.704C186.251,63.444,177.481,93.57,172.5,121h-63.673
		C127.814,83.441,160.594,54.081,200.411,39.704z M109.154,272h63.443c2.019,11.094,4.488,21.723,7.375,31.742
		c-12.56,2.746-23.946,8.647-33.296,16.83C131.09,306.768,118.436,290.254,109.154,272z M196,332c10.887,0,103.204,0,120,0
		c19.555,0,36.228,12.542,42.42,30c-41.239,0-163.529,0-204.84,0C159.772,344.542,176.445,332,196,332z M273.58,392
		c-1.665,4.695-2.58,9.742-2.58,15s0.915,10.305,2.58,15h-35.16c1.665-4.695,2.58-9.742,2.58-15s-0.915-10.305-2.58-15H273.58z
		 M30,407c0-8.271,6.729-15,15-15h151c8.271,0,15,6.729,15,15s-6.729,15-15,15H45C36.729,422,30,415.271,30,407z M316,482H196
		c-19.555,0-36.228-12.552-42.42-30.01c41.239,0,163.529,0,204.84,0C352.228,469.448,335.555,482,316,482z M467,422H316
		c-8.271,0-15-6.729-15-15s6.729-15,15-15h151c8.271,0,15,6.729,15,15S475.271,422,467,422z"/>
</g>
<g>
</g>
<g>
</g>
<g>
</g>
<g>
</g>
<g>
</g>
<g>
</g>
<g>
</g>
<g>
</g>
<g>
</g>
<g>
</g>
<g>
</g>
<g>
</g>
<g>
</g>
<g>
</g>
<g>
</g>
</svg>
