<?xml version="1.0" encoding="iso-8859-1"?>
<!-- Generator: Adobe Illustrator 23.1.0, SVG Export Plug-In . SVG Version: 6.00 Build 0)  -->
<svg version="1.1" id="Capa_1" xmlns="http://www.w3.org/2000/svg" xmlns:xlink="http://www.w3.org/1999/xlink" x="0px" y="0px"
	 viewBox="0 0 512 512" style="enable-background:new 0 0 512 512;" xml:space="preserve">
<g>
	<path d="M331,45c0-24.813-20.187-45-45-45H106C81.187,0,61,20.187,61,45v422c0,24.813,20.187,45,45,45h180
		c24.813,0,45-20.187,45-45v-78.58c15.948-5.656,27.785-20.059,29.715-37.415c21.95-10.393,39.897-28.34,50.29-50.29
		C433.47,298.216,451,279.121,451,256s-17.53-42.217-39.995-44.715c-10.393-21.95-28.34-39.897-50.29-50.29
		c-1.93-17.356-13.767-31.759-29.715-37.415V45z M106,30h180c8.271,0,15,6.729,15,15v17.58c-4.695-1.665-9.742-2.58-15-2.58H106
		c-5.258,0-10.305,0.915-15,2.58V45C91,36.729,97.729,30,106,30z M331,166c0,8.271-6.729,15-15,15s-15-6.729-15-15s6.729-15,15-15
		S331,157.729,331,166z M271.285,160.995c-21.95,10.393-39.897,28.34-50.29,50.29C198.53,213.783,181,232.879,181,256
		s17.53,42.217,39.995,44.715c10.393,21.949,28.341,39.897,50.29,50.29c1.93,17.356,13.767,31.759,29.715,37.416V407
		c0,8.271-6.729,15-15,15H106c-8.271,0-15-6.729-15-15V105c0-8.271,6.729-15,15-15h180c8.271,0,15,6.729,15,15v18.58
		C285.052,129.237,273.215,143.639,271.285,160.995z M226,241c8.271,0,15,6.729,15,15s-6.729,15-15,15s-15-6.729-15-15
		S217.729,241,226,241z M286,482H106c-8.271,0-15-6.729-15-15v-17.58c4.695,1.665,9.742,2.58,15,2.58h180
		c5.258,0,10.305-0.915,15-2.58V467C301,475.271,294.271,482,286,482z M316,361c-8.271,0-15-6.729-15-15s6.729-15,15-15
		s15,6.729,15,15S324.271,361,316,361z M421,256c0,8.271-6.729,15-15,15s-15-6.729-15-15s6.729-15,15-15S421,247.729,421,256z
		 M381.001,218.604C368.95,226.686,361,240.431,361,256s7.95,29.313,20.001,37.396c-6.613,11.416-16.189,20.992-27.605,27.604
		C345.314,308.95,331.569,301,316,301c-15.569,0-29.314,7.95-37.396,20.001c-11.416-6.612-20.992-16.188-27.605-27.604
		C263.05,285.313,271,271.569,271,256s-7.95-29.314-20.001-37.396c6.613-11.416,16.189-20.992,27.605-27.605
		C286.686,203.05,300.431,211,316,211s29.314-7.95,37.396-20.001C364.812,197.612,374.388,207.188,381.001,218.604z"/>
</g>
<g>
</g>
<g>
</g>
<g>
</g>
<g>
</g>
<g>
</g>
<g>
</g>
<g>
</g>
<g>
</g>
<g>
</g>
<g>
</g>
<g>
</g>
<g>
</g>
<g>
</g>
<g>
</g>
<g>
</g>
</svg>
