<?xml version="1.0" encoding="iso-8859-1"?>
<!-- Generator: Adobe Illustrator 23.1.0, SVG Export Plug-In . SVG Version: 6.00 Build 0)  -->
<svg version="1.1" id="Capa_1" xmlns="http://www.w3.org/2000/svg" xmlns:xlink="http://www.w3.org/1999/xlink" x="0px" y="0px"
	 viewBox="0 0 512 512" style="enable-background:new 0 0 512 512;" xml:space="preserve">
<g>
	<path d="M467,241h-97.797c-21.925-32.724-57.319-55.623-98.203-60.162V150h105c8.284,0,15-6.716,15-15V87.42
		c17.459-6.192,30-22.865,30-42.42c0-24.813-20.187-45-45-45s-45,20.187-45,45c0,19.555,12.541,36.228,30,42.42V120h-90V87.42
		c17.459-6.192,30-22.865,30-42.42c0-24.813-20.187-45-45-45s-45,20.187-45,45c0,19.555,12.541,36.228,30,42.42V120h-90V87.42
		c17.459-6.192,30-22.865,30-42.42c0-24.813-20.187-45-45-45S91,20.187,91,45c0,19.555,12.541,36.228,30,42.42V135
		c0,8.284,6.716,15,15,15h105v30.838c-40.949,4.546-76.341,27.531-98.203,60.162H45c-24.813,0-45,20.187-45,45v181
		c0,24.813,20.187,45,45,45h422c24.813,0,45-20.187,45-45V286C512,261.187,491.813,241,467,241z M376,30c8.271,0,15,6.729,15,15
		s-6.729,15-15,15s-15-6.729-15-15S367.729,30,376,30z M256,30c8.271,0,15,6.729,15,15s-6.729,15-15,15s-15-6.729-15-15
		S247.729,30,256,30z M136,30c8.271,0,15,6.729,15,15s-6.729,15-15,15s-15-6.729-15-15S127.729,30,136,30z M196.341,331
		c1.364,30.179,6.842,59.49,16.269,81.706c-32.508-14.643-56.351-45.211-61.544-81.706H196.341z M256,210
		c2.665,0,10.511,6.321,17.755,25.861c6.473,17.461,10.639,40.614,11.861,65.139h-59.232c1.222-24.524,5.388-47.678,11.861-65.139
		C245.489,216.321,253.335,210,256,210z M238.245,396.139c-6.473-17.461-10.639-40.614-11.861-65.149h59.232
		c-1.222,24.534-5.388,47.688-11.861,65.149C266.511,415.679,258.665,422,256,422S245.489,415.679,238.245,396.139z M315.659,330.99
		h45.275c-5.193,36.505-29.035,67.073-61.544,81.716C308.817,390.49,314.295,361.179,315.659,330.99z M360.934,301h-45.275
		c-1.364-30.179-6.842-59.49-16.269-81.706C332.231,234.087,355.793,264.873,360.934,301z M212.61,219.294
		c-9.427,22.216-14.905,51.527-16.269,81.706h-45.275C156.201,264.911,179.735,234.102,212.61,219.294z M120,316
		c0,74.639,61.379,136,136,136c74.638,0,136-61.379,136-136c0-15.536-2.646-30.702-7.715-45H407c8.271,0,15,6.729,15,15v181
		c0,8.271-6.729,15-15,15H105c-8.271,0-15-6.729-15-15V286c0-8.271,6.729-15,15-15.01h22.715C122.646,285.298,120,300.464,120,316z
		 M30,467V286c0-8.271,6.729-15,15-15.01h17.58C60.915,275.695,60,280.742,60,286v181c0,5.258,0.915,10.305,2.58,15H45
		C36.729,482,30,475.271,30,467z M482,467c0,8.271-6.729,15-15,15h-17.58c1.665-4.695,2.58-9.742,2.58-15V286
		c0-5.258-0.915-10.305-2.58-15H467c8.271,0,15,6.729,15,15V467z"/>
</g>
<g>
</g>
<g>
</g>
<g>
</g>
<g>
</g>
<g>
</g>
<g>
</g>
<g>
</g>
<g>
</g>
<g>
</g>
<g>
</g>
<g>
</g>
<g>
</g>
<g>
</g>
<g>
</g>
<g>
</g>
</svg>
