<?xml version="1.0" encoding="iso-8859-1"?>
<!-- Generator: Adobe Illustrator 23.1.0, SVG Export Plug-In . SVG Version: 6.00 Build 0)  -->
<svg version="1.1" id="Capa_1" xmlns="http://www.w3.org/2000/svg" xmlns:xlink="http://www.w3.org/1999/xlink" x="0px" y="0px"
	 viewBox="0 0 512 512" style="enable-background:new 0 0 512 512;" xml:space="preserve">
<g>
	<path d="M497,0H15C6.716,0,0,6.716,0,15v482c0,8.284,6.716,15,15,15h482c8.284,0,15-6.716,15-15V15C512,6.716,505.284,0,497,0z
		 M482,482H30V30h452V482z"/>
	<path d="M437,392H328.42c-6.192-17.458-22.865-30-42.42-30c-19.555,0-36.228,12.542-42.42,30H195c-8.284,0-15,6.716-15,15
		s6.716,15,15,15h48.58c6.192,17.458,22.865,30,42.42,30c19.555,0,36.228-12.542,42.42-30H437c8.284,0,15-6.716,15-15
		S445.284,392,437,392z M286,422c-8.271,0-15-6.729-15-15s6.729-15,15-15s15,6.729,15,15S294.271,422,286,422z"/>
	<path d="M75,332h362c8.284,0,15-6.716,15-15V75c0-8.284-6.716-15-15-15H75c-8.284,0-15,6.716-15,15v242
		C60,325.284,66.716,332,75,332z M90,90h332v212H90V90z"/>
	<path d="M75,452c8.284,0,15-6.716,15-15v-60c0-8.284-6.716-15-15-15s-15,6.716-15,15v60C60,445.284,66.716,452,75,452z"/>
	<path d="M135,362c-8.284,0-15,6.716-15,15v60c0,8.284,6.716,15,15,15s15-6.716,15-15v-60C150,368.716,143.284,362,135,362z"/>
	<path d="M324.32,183.519l-90-60c-4.602-3.068-10.52-3.355-15.398-0.744C214.045,125.385,211,130.468,211,136v120
		c0,5.532,3.045,10.615,7.922,13.225c4.867,2.604,10.784,2.331,15.398-0.744l90-60c4.173-2.782,6.68-7.466,6.68-12.481
		S328.493,186.301,324.32,183.519z M241,227.972v-63.944L288.958,196L241,227.972z"/>
</g>
<g>
</g>
<g>
</g>
<g>
</g>
<g>
</g>
<g>
</g>
<g>
</g>
<g>
</g>
<g>
</g>
<g>
</g>
<g>
</g>
<g>
</g>
<g>
</g>
<g>
</g>
<g>
</g>
<g>
</g>
</svg>
