<?xml version="1.0" encoding="iso-8859-1"?>
<!-- Generator: Adobe Illustrator 23.1.0, SVG Export Plug-In . SVG Version: 6.00 Build 0)  -->
<svg version="1.1" id="Capa_1" xmlns="http://www.w3.org/2000/svg" xmlns:xlink="http://www.w3.org/1999/xlink" x="0px" y="0px"
	 viewBox="0 0 512 512" style="enable-background:new 0 0 512 512;" xml:space="preserve">
<g>
	<path d="M497,90h-76V15c0-8.284-6.716-15-15-15H106c-8.284,0-15,6.716-15,15v75H15c-8.284,0-15,6.716-15,15v302
		c0,8.284,6.716,15,15,15h196v60c-7.424,0-66.539,0-75,0c-8.284,0-15,6.716-15,15s6.716,15,15,15c22.686,0,216.666,0,240,0
		c8.284,0,15-6.716,15-15s-6.716-14.99-15-14.99c-7.337,0-67.972,0-75.009,0l0.001-60.01H497c8.284,0,15-6.716,15-15V105
		C512,96.716,505.284,90,497,90z M121,90h270v150H121V90z M391,60h-30V30h30V60z M331,30v30H121V30H331z M91,120v135
		c0,8.284,6.716,15,15,15h300c8.284,0,15-6.716,15-15V120h61v212H30V120H91z M286.002,392c-8.284,0-15,6.716-15,15l-0.001,75H241
		v-75c0-8.284-6.716-15-15-15H30v-30h452v30H286.002z"/>
	<path d="M316,120H196c-8.284,0-15,6.716-15,15s6.716,15,15,15h120c8.284,0,15-6.716,15-15S324.284,120,316,120z"/>
	<path d="M316,180H196c-8.284,0-15,6.716-15,15s6.716,15,15,15h120c8.284,0,15-6.716,15-15S324.284,180,316,180z"/>
</g>
<g>
</g>
<g>
</g>
<g>
</g>
<g>
</g>
<g>
</g>
<g>
</g>
<g>
</g>
<g>
</g>
<g>
</g>
<g>
</g>
<g>
</g>
<g>
</g>
<g>
</g>
<g>
</g>
<g>
</g>
</svg>
