<?xml version="1.0" encoding="iso-8859-1"?>
<!-- Generator: Adobe Illustrator 23.1.0, SVG Export Plug-In . SVG Version: 6.00 Build 0)  -->
<svg version="1.1" id="Capa_1" xmlns="http://www.w3.org/2000/svg" xmlns:xlink="http://www.w3.org/1999/xlink" x="0px" y="0px"
	 viewBox="0 0 512 512" style="enable-background:new 0 0 512 512;" xml:space="preserve">
<g>
	<path d="M297.964,45c0-24.813-20.187-45-45-45h-180c-24.813,0-45,20.187-45,45v422c0,24.813,20.187,45,45,45h180
		c24.813,0,45-20.187,45-45V366.848l78.497,19.625c19.243,4.809,39.177-3.312,49.529-20.548l51.551-86.756
		c18.01-29.99-3.559-68.168-38.577-68.168h-21v-15c0-41.355-33.645-75-75-75c-8.284,0-15,6.716-15,15v38.787
		c0,9.673-3.767,18.767-10.606,25.607c-5.351,5.351-12.085,8.811-19.394,10.068V45z M72.964,30h180c8.271,0,15,6.729,15,15v17.58
		c-4.695-1.665-9.741-2.58-15-2.58h-180c-5.259,0-10.305,0.915-15,2.58V45C57.964,36.729,64.692,30,72.964,30z M267.964,407
		c0,8.271-6.729,15-15,15h-180c-8.271,0-15-6.729-15-15V105c0-8.271,6.729-15,15-15h180c8.271,0,15,6.729,15,15v106h-45
		c-8.284,0-15,6.716-15,15v120c0,8.284,6.716,15,15,15h45V407z M267.964,331h-30v-90h30V331z M252.964,482h-180
		c-8.271,0-15-6.729-15-15v-17.58c4.695,1.665,9.741,2.58,15,2.58h180c5.259,0,10.305-0.915,15-2.58V467
		C267.964,475.271,261.235,482,252.964,482z M338.57,221.606c12.506-12.506,19.394-29.133,19.394-46.82V153.57
		c17.461,6.191,30,22.874,30,42.43v30c0,8.284,6.716,15,15,15h36c11.648,0,18.891,12.678,12.822,22.783l-51.551,86.755
		c-3.421,5.697-10.054,8.439-16.498,6.829l-85.773-21.443v-95.218C313.304,239.288,327.541,232.636,338.57,221.606z"/>
</g>
<g>
</g>
<g>
</g>
<g>
</g>
<g>
</g>
<g>
</g>
<g>
</g>
<g>
</g>
<g>
</g>
<g>
</g>
<g>
</g>
<g>
</g>
<g>
</g>
<g>
</g>
<g>
</g>
<g>
</g>
</svg>
