<?xml version="1.0" encoding="iso-8859-1"?>
<!-- Generator: Adobe Illustrator 23.1.0, SVG Export Plug-In . SVG Version: 6.00 Build 0)  -->
<svg version="1.1" id="Capa_1" xmlns="http://www.w3.org/2000/svg" xmlns:xlink="http://www.w3.org/1999/xlink" x="0px" y="0px"
	 viewBox="0 0 512 512" style="enable-background:new 0 0 512 512;" xml:space="preserve">
<g>
	<path d="M354,45c0-24.813-20.187-45-45-45H129c-24.813,0-45,20.187-45,45v422c0,24.813,20.187,45,45,45h180
		c24.813,0,45-20.187,45-45V327.438c43.412-36.747,74-64.859,74-105.074C428,181.68,399.659,151,362.077,151
		c-2.739,0-5.431,0.179-8.077,0.51V45z M129,30h180c8.271,0,15,6.729,15,15v17.58c-4.695-1.665-9.742-2.58-15-2.58H129
		c-5.258,0-10.305,0.915-15,2.58V45C114,36.729,120.729,30,129,30z M309,482H129c-8.271,0-15-6.729-15-15v-17.58
		c4.695,1.665,9.742,2.58,15,2.58h180c5.258,0,10.305-0.915,15-2.58V467C324,475.271,317.271,482,309,482z M398,222.364
		c0,28.728-26.884,51.402-71.425,88.968c-5.699,4.806-11.525,9.72-17.569,14.88c-5.115-4.376-10.069-8.58-14.92-12.696
		c-45.384-38.506-72.777-61.748-72.777-91.152c0-23.581,15.874-41.364,36.923-41.364c27.038,0,35.842,32.215,36.237,33.717
		c1.664,6.508,7.445,11.151,14.165,11.311c6.745,0.171,12.751-4.165,14.705-10.62c0.439-1.405,11.079-34.409,38.74-34.409
		C385.661,181,398,201.809,398,222.364z M309.607,178.352C296.624,160.449,278.898,151,258.231,151
		c-18.922,0-36.215,7.724-48.695,21.749c-11.755,13.211-18.229,30.831-18.229,49.615c0,43.294,33.166,71.434,83.368,114.028
		c7.833,6.646,15.932,13.518,24.5,20.943c2.819,2.443,6.322,3.665,9.824,3.665s7.005-1.222,9.824-3.665
		c1.746-1.513,3.466-2.995,5.176-4.464V407c0,8.271-6.729,15-15,15H129c-8.271,0-15-6.729-15-15V105c0-8.271,6.729-15,15-15h180
		c8.271,0,15,6.729,15,15v58.869C318.801,167.822,313.981,172.655,309.607,178.352z"/>
</g>
<g>
</g>
<g>
</g>
<g>
</g>
<g>
</g>
<g>
</g>
<g>
</g>
<g>
</g>
<g>
</g>
<g>
</g>
<g>
</g>
<g>
</g>
<g>
</g>
<g>
</g>
<g>
</g>
<g>
</g>
</svg>
