<?xml version="1.0" encoding="iso-8859-1"?>
<!-- Generator: Adobe Illustrator 23.1.0, SVG Export Plug-In . SVG Version: 6.00 Build 0)  -->
<svg version="1.1" id="Capa_1" xmlns="http://www.w3.org/2000/svg" xmlns:xlink="http://www.w3.org/1999/xlink" x="0px" y="0px"
	 viewBox="0 0 512 512" style="enable-background:new 0 0 512 512;" xml:space="preserve">
<g>
	<path d="M301,316c0-24.813-20.187-45-45-45s-45,20.187-45,45s20.187,45,45,45S301,340.813,301,316z M256,331
		c-8.271,0-15-6.729-15-15s6.729-15,15-15s15,6.729,15,15S264.271,331,256,331z"/>
	<path d="M467,31h-91c-24.813,0-45,20.187-45,45v75H181V76c0-24.813-20.187-45-45-45H45C20.187,31,0,51.187,0,76v240
		c0,24.813,20.187,45,45,45h76.838c7.486,67.405,64.793,120,134.162,120s126.676-52.595,134.162-120H467c24.813,0,45-20.187,45-45
		V76C512,51.187,491.813,31,467,31z M376,61h91c8.271,0,15,6.729,15,15v17.58c-4.695-1.665-9.742-2.58-15-2.58h-91
		c-5.258,0-10.305,0.915-15,2.58V76C361,67.729,367.729,61,376,61z M361,256V136c0-8.271,6.729-15,15-15h91c8.271,0,15,6.729,15,15
		v120c0,8.271-6.729,15-15,15h-91C367.729,271,361,264.271,361,256z M331,233.806c-17.541-11.764-37.98-19.522-60-21.968V181h60
		V233.806z M241,181v30.838c-22.02,2.445-42.459,10.204-60,21.968V181H241z M30,136c0-8.271,6.729-15,15-15h91
		c8.271,0,15,6.729,15,15v120c0,8.271-6.729,15-15,15H45c-8.271,0-15-6.729-15-15V136z M45,61h91c8.271,0,15,6.729,15,15v17.58
		c-4.695-1.665-9.742-2.58-15-2.58H45c-5.258,0-10.305,0.915-15,2.58V76C30,67.729,36.729,61,45,61z M30,316v-17.58
		c4.695,1.665,9.742,2.58,15,2.57h83.722c-3.388,9.565-5.729,19.611-6.884,30.01H45C36.729,331,30,324.271,30,316z M211,440.855V436
		c0-24.813,20.187-45,45-45s45,20.187,45,45v4.855c-13.647,6.5-28.905,10.145-45,10.145S224.647,447.355,211,440.855z
		 M329.478,420.928C322.482,386.771,292.194,361,256,361s-66.482,25.771-73.478,59.928C163.082,401.86,151,375.316,151,346
		c0-57.897,47.103-105,105-105s105,47.103,105,105C361,375.316,348.918,401.86,329.478,420.928z M467,331h-76.838
		c-1.155-10.399-3.495-20.445-6.884-30H467c5.258,0,10.305-0.915,15-2.58V316C482,324.271,475.271,331,467,331z"/>
</g>
<g>
</g>
<g>
</g>
<g>
</g>
<g>
</g>
<g>
</g>
<g>
</g>
<g>
</g>
<g>
</g>
<g>
</g>
<g>
</g>
<g>
</g>
<g>
</g>
<g>
</g>
<g>
</g>
<g>
</g>
</svg>
