<?xml version="1.0" encoding="iso-8859-1"?>
<!-- Generator: Adobe Illustrator 23.1.0, SVG Export Plug-In . SVG Version: 6.00 Build 0)  -->
<svg version="1.1" id="Capa_1" xmlns="http://www.w3.org/2000/svg" xmlns:xlink="http://www.w3.org/1999/xlink" x="0px" y="0px"
	 viewBox="0 0 512 512" style="enable-background:new 0 0 512 512;" xml:space="preserve">
<g>
	<path d="M497,0H15C6.716,0,0,6.716,0,15v362c0,8.284,6.716,15,15,15h196.788c0.4,8.07-0.446,15.411-2.808,21.115
		C206.366,419.426,202.605,422,196,422c-5.601,0-10.864,3.187-13.417,8.292l-30,60c-2.325,4.649-2.076,10.172,0.657,14.594
		c2.733,4.422,7.561,7.114,12.76,7.114h180c5.198,0,10.026-2.692,12.76-7.114c2.733-4.422,2.981-9.944,0.656-14.594l-30-60
		C326.863,425.187,321.617,422,316,422c-6.594,0-10.346-2.565-12.951-8.854c-2.366-5.713-3.214-13.065-2.815-21.146H497
		c8.284,0,15-6.716,15-15V15C512,6.716,505.284,0,497,0z M482,60h-61V30h61V60z M391,30v30H30V30H391z M166.333,302H166
		c-24.393,0-45-21.523-45-47v-45h30v32.574C151,263.313,156.502,284.084,166.333,302z M190.271,482l15-30h101.459l15,30H190.271z
		 M237.68,422c11.756-32.927-2.577-87.105-31.069-115.602c-0.002-0.002-0.004-0.004-0.006-0.006
		C190.572,290.358,181,266.5,181,242.574V150h150v92.574c0,23.927-9.572,47.785-25.605,63.818c-0.002,0.002-0.004,0.004-0.006,0.006
		c-16.998,17-28.562,43.159-33.08,67.508c-0.016,0.077-0.028,0.154-0.043,0.231c-3.328,18.106-2.639,34.718,2.067,47.863H237.68z
		 M361,210h30v45c0,25.477-20.607,47-45,47h-0.332C355.498,284.084,361,263.313,361,242.574V210z M306.429,362
		c3.935-11.199,9.519-21.86,16.215-30H346c41.381,0,75-35.439,75-77v-60c0-8.284-6.716-15-15-15h-45v-30h15c8.284,0,15-6.716,15-15
		s-6.716-15-15-15H136c-8.284,0-15,6.716-15,15s6.716,15,15,15h15v30h-45c-8.284,0-15,6.716-15,15v60c0,41.549,33.605,77,75,77
		h23.357c6.699,8.142,12.287,18.803,16.226,30H30V90h452v272H306.429z"/>
	<path d="M301,225c0-24.813-20.187-45-45-45c-24.813,0-45,20.187-45,45s20.187,45,45,45C280.813,270,301,249.813,301,225z M256,240
		c-8.271,0-15-6.729-15-15s6.729-15,15-15s15,6.729,15,15S264.271,240,256,240z"/>
</g>
<g>
</g>
<g>
</g>
<g>
</g>
<g>
</g>
<g>
</g>
<g>
</g>
<g>
</g>
<g>
</g>
<g>
</g>
<g>
</g>
<g>
</g>
<g>
</g>
<g>
</g>
<g>
</g>
<g>
</g>
</svg>
