<?xml version="1.0" encoding="iso-8859-1"?>
<!-- Generator: Adobe Illustrator 23.1.0, SVG Export Plug-In . SVG Version: 6.00 Build 0)  -->
<svg version="1.1" id="Capa_1" xmlns="http://www.w3.org/2000/svg" xmlns:xlink="http://www.w3.org/1999/xlink" x="0px" y="0px"
	 viewBox="0 0 512 512" style="enable-background:new 0 0 512 512;" xml:space="preserve">
<g>
	<path d="M497,0H15C6.716,0,0,6.716,0,15v362c0,8.284,6.716,15,15,15h46v105c0,8.284,6.716,15,15,15h360c8.284,0,15-6.716,15-15V392
		h46c8.284,0,15-6.716,15-15V15C512,6.716,505.284,0,497,0z M482,60h-61V30h61V60z M391,30v30H30V30H391z M181,150v30h-30v-30H181z
		 M241,150v30h-30v-30H241z M301,150v30h-30v-30H301z M361,150v30h-30v-30H361z M421,150v30h-30v-30H421z M181,452v30h-30v-30H181z
		 M211,452h30v30h-30V452z M271,452h30v30h-30V452z M331,452h30v30h-30V452z M91,422V210h330v212H91z M121,180H91v-30h30V180z
		 M91,452h30v30H91V452z M391,482v-30h30v30H391z M451,362V135c0-8.284-6.716-15-15-15H76c-8.284,0-15,6.716-15,15v227H30V90h452
		v272H451z"/>
	<path d="M324.416,303.583l-90-61c-4.597-3.116-10.538-3.437-15.443-0.835C214.067,244.349,211,249.447,211,255v122
		c0,5.553,3.067,10.651,7.973,13.252c4.926,2.612,10.866,2.267,15.443-0.835l90-61C328.533,325.625,331,320.975,331,316
		S328.533,306.375,324.416,303.583z M241,348.712v-65.425L289.265,316L241,348.712z"/>
</g>
<g>
</g>
<g>
</g>
<g>
</g>
<g>
</g>
<g>
</g>
<g>
</g>
<g>
</g>
<g>
</g>
<g>
</g>
<g>
</g>
<g>
</g>
<g>
</g>
<g>
</g>
<g>
</g>
<g>
</g>
</svg>
