<?xml version="1.0" encoding="iso-8859-1"?>
<!-- Generator: Adobe Illustrator 23.1.0, SVG Export Plug-In . SVG Version: 6.00 Build 0)  -->
<svg version="1.1" id="Capa_1" xmlns="http://www.w3.org/2000/svg" xmlns:xlink="http://www.w3.org/1999/xlink" x="0px" y="0px"
	 viewBox="0 0 512 512" style="enable-background:new 0 0 512 512;" xml:space="preserve">
<g>
	<path d="M503.708,182.583L452,156.729V46c0-8.284-6.716-15-15-15s-15,6.716-15,15v19.575L192.302,151H75c-41.355,0-75,33.645-75,75
		c0,36.219,25.808,66.522,60,73.491V466c0,8.284,6.716,15,15,15h60c8.284,0,15-6.716,15-15V361h15c24.813,0,45-20.187,45-45v-8.418
		l212,78.843V406c0,8.284,6.716,15,15,15s15-6.716,15-15V295.271l51.708-25.854C508.79,266.875,512,261.682,512,256v-60
		C512,190.318,508.79,185.125,503.708,182.583z M30,226c0-24.813,20.187-45,45-45h105v90c-21.368,0-83.587,0-105,0
		C50.187,271,30,250.813,30,226z M120,451H90V301h30V451z M165,331h-15v-30h30v15C180,324.271,173.271,331,165,331z M210,275.575
		v-99.15l212-78.843v256.836L210,275.575z M482,246.729l-30,15v-71.459l30,15V246.729z"/>
</g>
<g>
</g>
<g>
</g>
<g>
</g>
<g>
</g>
<g>
</g>
<g>
</g>
<g>
</g>
<g>
</g>
<g>
</g>
<g>
</g>
<g>
</g>
<g>
</g>
<g>
</g>
<g>
</g>
<g>
</g>
</svg>
