<?xml version="1.0" encoding="iso-8859-1"?>
<!-- Generator: Adobe Illustrator 23.1.0, SVG Export Plug-In . SVG Version: 6.00 Build 0)  -->
<svg version="1.1" id="Capa_1" xmlns="http://www.w3.org/2000/svg" xmlns:xlink="http://www.w3.org/1999/xlink" x="0px" y="0px"
	 viewBox="0 0 512 512" style="enable-background:new 0 0 512 512;" xml:space="preserve">
<g>
	<path d="M46,45v422c0,24.813,20.187,45,45,45h180c24.813,0,45-20.187,45-45V355.369c28.062-17.31,44.756-23.878,60-23.878
		c16.463,0,34.607,7.651,66.947,28.231c4.619,2.94,10.472,3.128,15.271,0.494c4.799-2.634,7.782-7.674,7.782-13.149v-181
		c0-5.128-2.62-9.901-6.947-12.655c-60.858-38.728-89.797-43.331-143.053-13.823V45c0-24.813-20.187-45-45-45H91
		C66.187,0,46,20.187,46,45z M286,320.597c-23.026-12.757-41.522-19.157-60-19.157c-18.482,0-36.968,6.383-60,19.145V174.366
		c51.513-31.777,68.504-31.762,120,0.003V320.597z M286,139.589c-53.257-29.508-82.195-24.905-143.053,13.823
		c-4.327,2.753-6.947,7.526-6.947,12.655v181c0,5.475,2.983,10.515,7.782,13.149c4.799,2.635,10.652,2.445,15.271-0.494
		c32.339-20.58,50.484-28.231,66.947-28.231c15.244,0,31.938,6.569,60,23.878V407c0,8.271-6.729,15-15,15H91
		c-8.271,0-15-6.729-15-15V105c0-8.271,6.729-15,15-15h180c8.271,0,15,6.729,15,15V139.589z M271,482H91c-8.271,0-15-6.729-15-15
		v-17.58c4.695,1.665,9.742,2.58,15,2.58h180c5.258,0,10.305-0.915,15-2.58V467C286,475.271,279.271,482,271,482z M436,174.366
		v146.219c-46.064-25.523-73.935-25.521-120,0.001V174.369C367.512,142.594,384.505,142.6,436,174.366z M91,30h180
		c8.271,0,15,6.729,15,15v17.58c-4.695-1.665-9.742-2.58-15-2.58H91c-5.258,0-10.305,0.915-15,2.58V45C76,36.729,82.729,30,91,30z"
		/>
</g>
<g>
</g>
<g>
</g>
<g>
</g>
<g>
</g>
<g>
</g>
<g>
</g>
<g>
</g>
<g>
</g>
<g>
</g>
<g>
</g>
<g>
</g>
<g>
</g>
<g>
</g>
<g>
</g>
<g>
</g>
</svg>
