<?xml version="1.0" encoding="iso-8859-1"?>
<!-- Generator: Adobe Illustrator 23.1.0, SVG Export Plug-In . SVG Version: 6.00 Build 0)  -->
<svg version="1.1" id="Capa_1" xmlns="http://www.w3.org/2000/svg" xmlns:xlink="http://www.w3.org/1999/xlink" x="0px" y="0px"
	 viewBox="0 0 512 512" style="enable-background:new 0 0 512 512;" xml:space="preserve">
<g>
	<path d="M92.406,275.222C63.989,299.99,46,336.433,46,377c0,74.439,60.561,135,135,135c71.133,0,129.587-55.302,134.64-125.168
		C403.324,366.096,466,286.533,466,196C466,88.956,379.155,0,271,0C163.7,0,76,88.028,76,196
		C76,222.967,81.52,250.31,92.406,275.222z M271,30c27.81,0,46.726,60.021,52.787,90H218.213C224.354,89.626,243.612,30,271,30z
		 M328.468,150c1.669,14.787,2.532,30.226,2.532,46c0,16.34-0.905,31.701-2.506,46H213.468c-1.622-14.745-2.468-30.396-2.468-46
		c0-15.774,0.863-31.213,2.532-46H328.468z M436,196c0,15.837-2.318,31.291-6.628,46h-70.781c1.572-14.854,2.409-30.271,2.409-46
		c0-15.683-0.806-31.105-2.37-46h70.92C433.745,164.613,436,180.046,436,196z M265.749,271.99h58.092
		c-4.44,22.033-10.598,40.531-17.503,54.865C297.668,305.262,283.573,286.415,265.749,271.99z M183.32,242h-70.986
		c-4.168-14.813-6.334-30.332-6.334-46c0-15.954,2.255-31.387,6.45-46.01h70.92C181.806,164.895,181,180.317,181,196
		C181,211.536,181.804,227.132,183.32,242z M136,471.855V467c0-24.813,20.187-45,45-45s45,20.187,45,45v4.855
		c-13.647,6.5-28.905,10.145-45,10.145S149.647,478.355,136,471.855z M254.478,451.928C247.482,417.771,217.194,392,181,392
		s-66.482,25.771-73.478,59.928C88.082,432.86,76,406.316,76,377c0-57.897,47.103-105,105-105s105,47.103,105,105
		C286,406.316,273.918,432.86,254.478,451.928z M326.742,352.234c12.189-20.658,21.666-48.471,27.533-80.244h63.036
		C398.273,308.67,366.019,337.88,326.742,352.234z M417.663,120h-63.342c-4.963-26.903-13.668-56.716-27.733-80.296
		C366.052,53.953,398.602,82.92,417.663,120z M215.411,39.704C201.345,63.288,192.64,93.103,187.679,120h-63.342
		C143.398,82.92,175.948,53.953,215.411,39.704z"/>
	<path d="M226,347c0-24.813-20.187-45-45-45s-45,20.187-45,45s20.187,45,45,45S226,371.813,226,347z M181,362
		c-8.271,0-15-6.729-15-15s6.729-15,15-15s15,6.729,15,15S189.271,362,181,362z"/>
</g>
<g>
</g>
<g>
</g>
<g>
</g>
<g>
</g>
<g>
</g>
<g>
</g>
<g>
</g>
<g>
</g>
<g>
</g>
<g>
</g>
<g>
</g>
<g>
</g>
<g>
</g>
<g>
</g>
<g>
</g>
</svg>
