<?xml version="1.0" encoding="iso-8859-1"?>
<!-- Generator: Adobe Illustrator 23.1.0, SVG Export Plug-In . SVG Version: 6.00 Build 0)  -->
<svg version="1.1" id="Capa_1" xmlns="http://www.w3.org/2000/svg" xmlns:xlink="http://www.w3.org/1999/xlink" x="0px" y="0px"
	 viewBox="0 0 512 512" style="enable-background:new 0 0 512 512;" xml:space="preserve">
<g>
	<path d="M467,241h-97.975c-20.073-29.709-51.704-51.102-88.453-57.787l40.423-70.806C327.54,101.068,331,88.133,331,75
		c0-41.355-33.645-75-75-75c-41.355,0-75,33.645-75,75c0,13.133,3.459,26.068,9.969,37.346l40.458,70.868
		c-36.749,6.684-68.381,28.078-88.453,57.787H45c-24.813,0-45,20.187-45,45v181c0,24.813,20.187,45,45,45h422
		c24.813,0,45-20.187,45-45V286C512,261.187,491.813,241,467,241z M196.341,331c1.364,30.179,6.842,59.49,16.269,81.706
		c-32.509-14.643-56.351-45.211-61.544-81.706H196.341z M256,211c2.139,0,9.995,4.669,17.775,25.414
		c6.565,17.506,10.663,40.042,11.854,64.586h-59.257c1.191-24.543,5.289-47.08,11.854-64.586C246.004,215.669,253.861,211,256,211z
		 M238.245,396.139c-6.473-17.461-10.639-40.614-11.861-65.149h59.232c-1.222,24.534-5.388,47.688-11.861,65.149
		C266.511,415.679,258.665,422,256,422S245.489,415.679,238.245,396.139z M315.659,330.99h45.275
		c-5.193,36.504-29.035,67.073-61.544,81.716C308.817,390.49,314.295,361.179,315.659,330.99z M360.914,301h-45.26
		c-1.258-28.188-6.035-54.443-13.789-75.12c-0.727-1.939-1.471-3.781-2.223-5.563C331.979,234.847,355.693,265.005,360.914,301z
		 M211,75c0-24.813,20.187-45,45-45c24.813,0,45,20.187,45,45c0,7.875-2.07,15.625-6.022,22.472L256,165.746L216.987,97.41
		C213.07,90.625,211,82.875,211,75z M212.358,220.317c-0.752,1.782-1.495,3.624-2.223,5.563
		c-7.754,20.677-12.531,46.932-13.789,75.12h-45.26C156.307,265.006,180.02,234.847,212.358,220.317z M120,316
		c0,74.639,61.379,136,136,136c74.487,0,136-61.24,136-136c0-15.772-2.748-30.918-7.779-45H407c8.271,0,15,6.729,15,15v181
		c0,8.271-6.729,15-15,15H105c-8.271,0-15-6.729-15-15V286c0-8.271,6.729-15.01,15-15.01l22.779,0.01
		C122.748,285.082,120,300.228,120,316z M30,467V286c0-8.271,6.729-15,15-15.01h17.58C60.915,275.695,60,280.742,60,286v181
		c0,5.258,0.915,10.305,2.58,15H45C36.729,482,30,475.271,30,467z M482,467c0,8.271-6.729,15-15,15h-17.58
		c1.665-4.695,2.58-9.742,2.58-15V286c0-5.258-0.915-10.305-2.58-15H467c8.271,0,15,6.729,15,15V467z"/>
	<circle cx="256" cy="75" r="15"/>
</g>
<g>
</g>
<g>
</g>
<g>
</g>
<g>
</g>
<g>
</g>
<g>
</g>
<g>
</g>
<g>
</g>
<g>
</g>
<g>
</g>
<g>
</g>
<g>
</g>
<g>
</g>
<g>
</g>
<g>
</g>
</svg>
