<?xml version="1.0" encoding="iso-8859-1"?>
<!-- Generator: Adobe Illustrator 23.1.0, SVG Export Plug-In . SVG Version: 6.00 Build 0)  -->
<svg version="1.1" id="Capa_1" xmlns="http://www.w3.org/2000/svg" xmlns:xlink="http://www.w3.org/1999/xlink" x="0px" y="0px"
	 viewBox="0 0 512 512" style="enable-background:new 0 0 512 512;" xml:space="preserve">
<g>
	<path d="M301,105c0-24.813-20.187-45-45-45s-45,20.187-45,45s20.187,45,45,45S301,129.813,301,105z M256,120
		c-8.271,0-15-6.729-15-15s6.729-15,15-15s15,6.729,15,15S264.271,120,256,120z"/>
	<path d="M467,393.898V345c0-24.813-20.187-45-45-45H271v-30.838c67.406-7.486,120-64.793,120-134.162C391,60.561,330.439,0,256,0
		S121,60.561,121,135c0,69.369,52.594,126.676,120,134.162V300H90c-24.813,0-45,20.187-45,45v48.898C19.151,400.576,0,424.094,0,452
		c0,33.084,26.916,60,60,60s60-26.916,60-60c0-27.906-19.151-51.424-45-58.102V345c0-8.271,6.729-15,15-15h151v63.898
		c-25.849,6.678-45,30.195-45,58.102c0,33.084,26.916,60,60,60s60-26.916,60-60c0-27.906-19.151-51.424-45-58.102V330h151
		c8.271,0,15,6.729,15,15v48.898c-25.849,6.678-45,30.195-45,58.102c0,33.084,26.916,60,60,60s60-26.916,60-60
		C512,424.094,492.849,400.576,467,393.898z M211,229.855V225c0-24.813,20.187-45,45-45s45,20.187,45,45v4.855
		c-13.646,6.5-28.905,10.145-45,10.145S224.646,236.355,211,229.855z M151,135c0-57.897,47.103-105,105-105s105,47.103,105,105
		c0,29.316-12.082,55.86-31.522,74.928C322.482,175.771,292.194,150,256,150s-66.482,25.771-73.478,59.928
		C163.082,190.86,151,164.316,151,135z M90,452c0,16.542-13.458,30-30,30s-30-13.458-30-30s13.458-30,30-30S90,435.458,90,452z
		 M286,452c0,16.542-13.458,30-30,30s-30-13.458-30-30s13.458-30,30-30S286,435.458,286,452z M452,482c-16.542,0-30-13.458-30-30
		s13.458-30,30-30s30,13.458,30,30S468.542,482,452,482z"/>
</g>
<g>
</g>
<g>
</g>
<g>
</g>
<g>
</g>
<g>
</g>
<g>
</g>
<g>
</g>
<g>
</g>
<g>
</g>
<g>
</g>
<g>
</g>
<g>
</g>
<g>
</g>
<g>
</g>
<g>
</g>
</svg>
