<?xml version="1.0" encoding="iso-8859-1"?>
<!-- Generator: Adobe Illustrator 23.1.0, SVG Export Plug-In . SVG Version: 6.00 Build 0)  -->
<svg version="1.1" id="Capa_1" xmlns="http://www.w3.org/2000/svg" xmlns:xlink="http://www.w3.org/1999/xlink" x="0px" y="0px"
	 viewBox="0 0 512 512" style="enable-background:new 0 0 512 512;" xml:space="preserve">
<g>
	<path d="M340.896,144.557C315.307,129.146,285.95,121,256,121s-59.307,8.146-84.896,23.557c-7.097,4.274-9.385,13.492-5.11,20.588
		c4.274,7.096,13.489,9.387,20.589,5.111C207.499,157.659,231.503,151,256,151s48.501,6.659,69.417,19.256
		c7.111,4.282,16.324,1.971,20.589-5.111C350.28,158.049,347.992,148.832,340.896,144.557z"/>
	<path d="M310.033,195.992C293.747,186.184,275.063,181,256,181s-37.747,5.184-54.033,14.992
		c-7.097,4.273-9.386,13.491-5.111,20.588c4.273,7.096,13.492,9.388,20.588,5.111C229.059,214.697,242.391,211,256,211
		s26.941,3.697,38.557,10.691c7.111,4.282,16.322,1.971,20.588-5.111C319.419,209.483,317.13,200.266,310.033,195.992z"/>
	<path d="M419.69,121.872c-6.236-33.228-34.536-59.846-69.622-61.761C332.525,23.708,296.104,0,256,0s-76.525,23.707-94.068,60.11
		c-35.278,1.912-64.22,28.68-70.589,61.774C39.876,128.601,0,172.732,0,226c0,40.787,23.719,77.651,60,94.874V467
		c0,24.813,20.187,45,45,45h301c24.813,0,45-20.187,45-45V320.893c36.88-17.356,61-54.247,61-94.893
		C512,172.697,471.697,128.543,419.69,121.872z M90,467V316c0-8.271,6.729-15,15-15.01h17.58c-1.665,4.705-2.58,9.752-2.58,15.01
		v151c0,5.258,0.915,10.305,2.58,15H105C96.729,482,90,475.271,90,467z M213.58,301c6.192,17.458,22.865,30,42.42,30
		s36.228-12.542,42.42-30H346c8.271,0,15,6.729,15,15v151c0,8.271-6.729,15-15,15H165c-8.271,0-15-6.729-15-15V316
		c0-8.271,6.729-15,15-15H213.58z M241,286c0-8.271,6.729-15,15-15s15,6.729,15,15s-6.729,15-15,15S241,294.271,241,286z M421,467
		c0,8.271-6.729,15-15,15h-17.58c1.665-4.695,2.58-9.742,2.58-15V316c0-5.258-0.915-10.305-2.58-15H406c8.271,0,15,6.729,15,15V467z
		 M443.434,291.06C435.357,278.976,421.594,271,406,271H298.42c-6.192-17.458-22.865-30-42.42-30s-36.228,12.542-42.42,30H105
		c-15.575,0-29.324,7.956-37.406,20.016C44.673,277.805,30,253.117,30,226c0-41.355,33.645-75,75-75c8.284,0,15-6.716,15-15
		c0-24.303,20.014-44.931,44.115-45.96c10.569,4.106,18.815-1.163,21.395-8.566C196.237,50.686,224.564,30,256,30
		s59.763,20.686,70.49,51.474c2.609,7.489,10.877,12.649,21.391,8.568C371.442,91.09,391,111.709,391,136c0,8.284,6.716,15,15,15
		c41.906,0,76,33.645,76,75C482,253.02,466.939,277.75,443.434,291.06z"/>
</g>
<g>
</g>
<g>
</g>
<g>
</g>
<g>
</g>
<g>
</g>
<g>
</g>
<g>
</g>
<g>
</g>
<g>
</g>
<g>
</g>
<g>
</g>
<g>
</g>
<g>
</g>
<g>
</g>
<g>
</g>
</svg>
