<?xml version="1.0" encoding="iso-8859-1"?>
<!-- Generator: Adobe Illustrator 23.1.0, SVG Export Plug-In . SVG Version: 6.00 Build 0)  -->
<svg version="1.1" id="Capa_1" xmlns="http://www.w3.org/2000/svg" xmlns:xlink="http://www.w3.org/1999/xlink" x="0px" y="0px"
	 viewBox="0 0 512 512" style="enable-background:new 0 0 512 512;" xml:space="preserve">
<g>
	<path d="M421,226c33.084,0,60-26.916,60-60s-26.916-60-60-60s-60,26.916-60,60c0,4.309,0.466,8.509,1.334,12.563L301,209.229V45
		c0-24.813-20.187-45-45-45H76C51.187,0,31,20.187,31,45v422c0,24.813,20.187,45,45,45h180c24.813,0,45-20.187,45-45V302.771
		l61.334,30.667C361.466,337.491,361,341.691,361,346c0,33.084,26.916,60,60,60s60-26.916,60-60s-26.916-60-60-60
		c-18.024,0-34.205,8-45.213,20.623l-76.121-38.061C300.534,264.509,301,260.309,301,256s-0.466-8.509-1.334-12.563l76.121-38.061
		C386.795,218,402.976,226,421,226z M421,316c16.542,0,30,13.458,30,30s-13.458,30-30,30s-30-13.458-30-30S404.458,316,421,316z
		 M61,105c0-8.271,6.729-15,15-15h180c8.271,0,15,6.729,15,15v99.072c-8.833-5.123-19.075-8.072-30-8.072c-33.084,0-60,26.916-60,60
		s26.916,60,60,60c10.925,0,21.167-2.949,30-8.072V407c0,8.271-6.729,15-15,15H76c-8.271,0-15-6.729-15-15V105z M271,256
		c0,16.542-13.458,30-30,30s-30-13.458-30-30s13.458-30,30-30S271,239.458,271,256z M76,30h180c8.271,0,15,6.729,15,15v17.58
		c-4.695-1.665-9.742-2.58-15-2.58H76c-5.258,0-10.305,0.915-15,2.58V45C61,36.729,67.729,30,76,30z M256,482H76
		c-8.271,0-15-6.729-15-15v-17.58c4.695,1.665,9.742,2.58,15,2.58h180c5.258,0,10.305-0.915,15-2.58V467
		C271,475.271,264.271,482,256,482z M421,136c16.542,0,30,13.458,30,30s-13.458,30-30,30s-30-13.458-30-30S404.458,136,421,136z"/>
</g>
<g>
</g>
<g>
</g>
<g>
</g>
<g>
</g>
<g>
</g>
<g>
</g>
<g>
</g>
<g>
</g>
<g>
</g>
<g>
</g>
<g>
</g>
<g>
</g>
<g>
</g>
<g>
</g>
<g>
</g>
</svg>
