<?xml version="1.0" encoding="iso-8859-1"?>
<!-- Generator: Adobe Illustrator 23.1.0, SVG Export Plug-In . SVG Version: 6.00 Build 0)  -->
<svg version="1.1" id="Capa_1" xmlns="http://www.w3.org/2000/svg" xmlns:xlink="http://www.w3.org/1999/xlink" x="0px" y="0px"
	 viewBox="0 0 512 512" style="enable-background:new 0 0 512 512;" xml:space="preserve">
<g>
	<path d="M497,0H15C6.716,0,0,6.716,0,15v392c0,8.284,6.716,15,15,15h65.157c10.687,12.889,25.568,25.458,42.81,40.011
		c6.122,5.167,12.452,10.509,19.162,16.325c2.819,2.443,6.321,3.665,9.824,3.665s7.005-1.222,9.824-3.665
		c6.71-5.816,13.041-11.159,19.163-16.326c14.012-11.827,31.676-26.449,42.903-40.009h50.271
		c6.033,25.41,28.884,44.716,58.854,70.011c6.122,5.167,12.452,10.509,19.162,16.325c2.819,2.443,6.321,3.665,9.824,3.665
		s7.005-1.222,9.824-3.665c6.71-5.816,13.041-11.159,19.163-16.326c28.953-24.437,52.634-43.889,58.848-70.009H497
		c8.284,0,15-6.716,15-15V15C512,6.716,505.284,0,497,0z M482,60h-61V30h61V60z M391,30v30H30V30H391z M161.589,439.083
		c-3.147,2.657-6.349,5.359-9.637,8.155c-3.287-2.795-6.489-5.497-9.636-8.153c-27.246-22.996-49.788-40.914-49.788-60.691
		c0-12.619,7.629-25.394,22.211-25.394c16.11,0,22.337,19.855,22.768,21.296c1.744,6.573,7.641,11.152,14.444,11.152
		c6.804,0,12.701-4.58,14.445-11.152c0.431-1.445,6.659-21.296,22.767-21.296c14.582,0,22.211,12.775,22.211,25.394
		C211.375,397.023,192.462,413.027,161.589,439.083z M371.589,469.083c-3.147,2.657-6.349,5.359-9.637,8.155
		c-3.287-2.795-6.489-5.497-9.636-8.153c-33.625-28.38-49.788-42.815-49.788-60.691c0-12.619,7.629-25.394,22.211-25.394
		c16.11,0,22.337,19.855,22.768,21.296c1.744,6.573,7.641,11.152,14.444,11.152c6.804,0,12.701-4.58,14.445-11.152
		c0.431-1.445,6.659-21.296,22.767-21.296c14.582,0,22.211,12.775,22.211,25.394C421.375,427.023,402.462,443.027,371.589,469.083z
		 M449.132,392c-6.441-22.816-26.093-39-49.968-39c-14.488,0-27.235,5.894-37.211,17.125C351.975,358.894,339.229,353,324.74,353
		c-23.875,0-43.527,16.184-49.968,39h-34.985c1.024-4.303,1.588-8.826,1.588-13.606c0-31.062-22.934-55.394-52.211-55.394
		c-14.488,0-27.235,5.894-37.211,17.125C141.975,328.894,129.229,323,114.74,323c-29.277,0-52.211,24.332-52.211,55.394
		c0,4.755,0.554,9.267,1.584,13.606H30V90h452v302H449.132z"/>
	<path d="M309.077,120c-20.614,0-38.727,9.451-52.47,27.352C243.624,129.449,225.898,120,205.231,120
		c-38.908,0-66.923,32.306-66.923,71.364c0,44.539,35.184,74.665,88.44,120.266c6.248,5.35,12.708,10.881,19.428,16.706
		c2.819,2.443,6.322,3.665,9.824,3.665s7.005-1.222,9.824-3.665c8.531-7.394,16.661-14.292,24.522-20.964
		C340.072,265.172,376,234.682,376,191.364C376,152.292,347.973,120,309.077,120z M270.935,284.497
		c-4.859,4.124-9.819,8.333-14.925,12.703c-3.312-2.845-6.559-5.625-9.75-8.357c-48.611-41.624-77.952-66.748-77.952-97.479
		c0-23.581,15.874-41.364,36.923-41.364c27.038,0,35.842,32.215,36.237,33.717c1.664,6.508,7.445,11.151,14.165,11.311
		c6.732,0.161,12.751-4.165,14.705-10.62c0.439-1.405,11.079-34.409,38.74-34.409C330.126,150,346,167.783,346,191.364
		C346,220.794,316.138,246.137,270.935,284.497z"/>
</g>
<g>
</g>
<g>
</g>
<g>
</g>
<g>
</g>
<g>
</g>
<g>
</g>
<g>
</g>
<g>
</g>
<g>
</g>
<g>
</g>
<g>
</g>
<g>
</g>
<g>
</g>
<g>
</g>
<g>
</g>
</svg>
