<?xml version="1.0" encoding="iso-8859-1"?>
<!-- Generator: Adobe Illustrator 23.1.0, SVG Export Plug-In . SVG Version: 6.00 Build 0)  -->
<svg version="1.1" id="Capa_1" xmlns="http://www.w3.org/2000/svg" xmlns:xlink="http://www.w3.org/1999/xlink" x="0px" y="0px"
	 viewBox="0 0 512 512" style="enable-background:new 0 0 512 512;" xml:space="preserve">
<g>
	<path d="M467,0H316c-24.813,0-45,20.187-45,45v76.845c-4.946-0.546-9.947-0.845-15-0.845c-5.806,0-11.549,0.374-17.21,1.093
		C232.917,104.067,215.96,91,196,91H45c-24.813,0-45,20.187-45,45v331c0,24.813,20.187,45,45,45h151c24.813,0,45-20.187,45-45
		v-76.845c4.946,0.546,9.947,0.845,15,0.845c5.806,0,11.548-0.374,17.21-1.093C279.083,407.933,296.04,421,316,421h151
		c24.813,0,45-20.187,45-45V45C512,20.187,491.813,0,467,0z M316,30h151c8.271,0,15,6.729,15,15v17.58
		c-4.695-1.665-9.741-2.58-15-2.58H316c-5.259,0-10.305,0.915-15,2.58V45C301,36.729,307.729,30,316,30z M301,105
		c0-8.271,6.729-15,15-15h151c8.271,0,15,6.729,15,15v211c0,8.271-6.729,15-15,15h-99.356c6.59-9.881,11.916-20.61,15.738-31.878
		l60.244-29.665C448.753,266.933,452,261.714,452,256s-3.247-10.933-8.374-13.457l-60.244-29.665
		c-13.257-39.09-43.62-70.308-82.382-84.141V105z M356.544,227.572c1.156,4.09,3.994,7.497,7.808,9.375L403.045,256l-38.693,19.053
		c-3.813,1.877-6.651,5.285-7.808,9.375c-5.115,18.083-14.838,33.971-27.637,46.525c-6.952-30.079-30.616-54.089-60.422-58.937
		c-40.405-6.573-77.662,19.647-85.853,58.472c-12.569-12.481-22.123-28.197-27.176-46.061c-1.157-4.09-3.994-7.497-7.807-9.375
		L108.955,256l38.694-19.053c3.813-1.877,6.65-5.285,7.807-9.375C168.208,182.488,209.553,151,256,151
		C302.446,151,343.791,182.488,356.544,227.572z M45,121h151c5.869,0,10.947,3.396,13.41,8.318
		c-12.574,4.67-24.461,11.25-35.344,19.684c-0.839,0.65-1.657,1.328-2.48,1.998H45c-5.258,0-10.305,0.915-15,2.58V136
		C30,127.729,36.729,121,45,121z M196,482H45c-8.271,0-15-6.729-15-15v-17.58c4.695,1.665,9.742,2.58,15,2.58h151
		c5.258,0,10.305-0.915,15-2.58V467C211,475.271,204.271,482,196,482z M211,407c0,8.271-6.729,15-15,15H45c-8.271,0-15-6.729-15-15
		V196c0-8.271,6.729-15,15-15.01h99.356c-6.591,9.891-11.916,20.62-15.738,31.888l-60.245,29.665C63.247,245.067,60,250.286,60,256
		s3.247,10.933,8.374,13.457l60.245,29.665c13.257,39.09,43.62,70.308,82.382,84.141V407z M211,350.627V346
		c0-26.941,23.912-49.046,52.668-44.374C284.951,305.089,301,325.545,301,349.21v1.417C287.229,357.301,271.914,361,256,361
		S224.771,357.301,211,350.627z M467,391H316c-5.869,0-10.947-3.396-13.41-8.318c13.54-5.029,26.194-12.211,37.824-21.682H467
		c5.259,0,10.305-0.915,15-2.58V376C482,384.271,475.271,391,467,391z"/>
	<path d="M256,271c24.813,0,45-20.187,45-45s-20.187-45-45-45c-24.813,0-45,20.187-45,45S231.187,271,256,271z M256,211
		c8.271,0,15,6.729,15,15s-6.729,15-15,15s-15-6.729-15-15S247.729,211,256,211z"/>
</g>
<g>
</g>
<g>
</g>
<g>
</g>
<g>
</g>
<g>
</g>
<g>
</g>
<g>
</g>
<g>
</g>
<g>
</g>
<g>
</g>
<g>
</g>
<g>
</g>
<g>
</g>
<g>
</g>
<g>
</g>
</svg>
