<?xml version="1.0" encoding="iso-8859-1"?>
<!-- Generator: Adobe Illustrator 23.1.0, SVG Export Plug-In . SVG Version: 6.00 Build 0)  -->
<svg version="1.1" id="Capa_1" xmlns="http://www.w3.org/2000/svg" xmlns:xlink="http://www.w3.org/1999/xlink" x="0px" y="0px"
	 viewBox="0 0 512 512" style="enable-background:new 0 0 512 512;" xml:space="preserve">
<g>
	<path d="M496,165c0-33.084-26.916-60-60-60c-15.349,0-29.365,5.8-39.987,15.315l-96.391-64.262C300.519,52.516,301,48.813,301,45
		c0-24.813-20.187-45-45-45s-45,20.187-45,45c0,3.813,0.481,7.516,1.378,11.054l-96.391,64.262C105.365,110.8,91.349,105,76,105
		c-33.084,0-60,26.916-60,60c0,27.906,19.151,51.424,45,58.102v96.479c-17.459,6.192-30,22.865-30,42.42c0,24.813,20.187,45,45,45
		c12.111,0,23.11-4.817,31.208-12.625l90.126,45.063C196.466,443.491,196,447.691,196,452c0,33.084,26.916,60,60,60s60-26.916,60-60
		c0-4.309-0.466-8.509-1.333-12.563l90.126-45.063C412.89,402.183,423.889,407,436,407c24.813,0,45-20.187,45-45
		c0-19.555-12.541-36.228-30-42.42v-96.479C476.849,216.424,496,192.906,496,165z M436,135c16.542,0,30,13.458,30,30
		s-13.458,30-30,30s-30-13.458-30-30C406,148.403,419.535,135,436,135z M256,270c-8.271,0-15-6.729-15-15s6.729-15,15-15
		s15,6.729,15,15S264.271,270,256,270z M287.208,222.625C279.11,214.817,268.111,210,256,210s-23.11,4.817-31.208,12.625
		l-90.126-45.063C135.534,173.509,136,169.309,136,165c0-6.914-1.19-13.552-3.351-19.738l96.387-64.259
		C236.556,86.65,245.894,90,256,90s19.444-3.35,26.964-8.997l96.387,64.259C377.19,151.448,376,158.086,376,165
		c0,4.309,0.466,8.509,1.333,12.563L287.208,222.625z M256,30c8.271,0,15,6.729,15,15s-6.729,15-15,15s-15-6.729-15-15
		S247.729,30,256,30z M46,165c0-16.542,13.458-30,30-30c16.503,0,30,13.437,30,30c0,16.542-13.458,30-30,30S46,181.542,46,165z
		 M76,377c-8.271,0-15-6.729-15-15s6.729-15,15-15s15,6.729,15,15S84.271,377,76,377z M120.645,367.552
		C120.87,365.731,121,363.881,121,362c0-19.555-12.541-36.228-30-42.42v-96.479c11.9-3.074,22.367-9.728,30.213-18.725
		l90.142,45.071C211.13,251.269,211,253.119,211,255c0,19.555,12.541,36.228,30,42.42v96.479
		c-11.9,3.074-22.367,9.728-30.213,18.725L120.645,367.552z M256,482c-16.542,0-30-13.458-30-30s13.458-30,30-30s30,13.458,30,30
		S272.542,482,256,482z M271,393.898V297.42c17.459-6.192,30-22.865,30-42.42c0-1.881-0.13-3.731-0.355-5.552l90.142-45.071
		c7.846,8.997,18.313,15.65,30.213,18.725v96.479c-17.459,6.192-30,22.865-30,42.42c0,1.881,0.13,3.731,0.355,5.552l-90.142,45.071
		C293.367,403.626,282.9,396.973,271,393.898z M436,377c-8.271,0-15-6.729-15-15s6.729-15,15-15s15,6.729,15,15S444.271,377,436,377
		z"/>
</g>
<g>
</g>
<g>
</g>
<g>
</g>
<g>
</g>
<g>
</g>
<g>
</g>
<g>
</g>
<g>
</g>
<g>
</g>
<g>
</g>
<g>
</g>
<g>
</g>
<g>
</g>
<g>
</g>
<g>
</g>
</svg>
