<?xml version="1.0" encoding="iso-8859-1"?>
<!-- Generator: Adobe Illustrator 23.1.0, SVG Export Plug-In . SVG Version: 6.00 Build 0)  -->
<svg version="1.1" id="Capa_1" xmlns="http://www.w3.org/2000/svg" xmlns:xlink="http://www.w3.org/1999/xlink" x="0px" y="0px"
	 viewBox="0 0 512 512" style="enable-background:new 0 0 512 512;" xml:space="preserve">
<g>
	<path d="M467,181h-15v-75c0-8.284-6.716-15-15-15H181V45c0-24.813-20.187-45-45-45H45C20.187,0,0,20.187,0,45
		c0,15.434,0,346.611,0,362c0,8.284,6.716,15,15,15h166v60h-75c-8.284,0-15,6.716-15,15s6.716,15,15,15c64.315,0,265.542,0,361,0
		c24.813,0,45-20.187,45-45V226C512,201.187,491.813,181,467,181z M482,226v17.58c-4.695-1.665-9.741-2.58-15-2.58H346
		c-5.259,0-10.305,0.915-15,2.58V226c0-8.271,6.729-15,15-15h121C475.271,211,482,217.729,482,226z M270.991,482.01l0.001-60.01H301
		v45c0,5.258,0.915,10.315,2.58,15.01C300.677,482.01,273.959,482.01,270.991,482.01z M331,286c0-8.271,6.729-15,15-15h121
		c8.271,0,15,6.729,15,15v121c0,8.271-6.729,15-15,15H346c-8.271,0-15-6.729-15-15V286z M422,121v60h-76c-24.813,0-45,20.187-45,45
		v106H30v-63.58c4.695,1.665,9.741,2.58,15,2.58h91c24.813,0,45-20.187,45-45V121H422z M30,226v-17.58
		c4.695,1.665,9.741,2.58,15,2.58h91c5.259,0,10.305-0.915,15-2.58V226c0,8.271-6.729,15-15,15H45C36.729,241,30,234.271,30,226z
		 M30,45c0-8.271,6.729-15,15-15h91c8.271,0,15,6.729,15,15v121c0,8.271-6.729,15-15,15H45c-8.271,0-15-6.729-15-15V45z M196,392H30
		v-30h271v30h-44.998c-8.284,0-15,6.716-15,15l-0.001,75H211v-75C211,398.716,204.284,392,196,392z M467,482H346
		c-8.271,0-15-6.729-15-15v-17.58c4.695,1.665,9.741,2.58,15,2.58h121c5.259,0,10.305-0.915,15-2.58V467
		C482,475.271,475.271,482,467,482z"/>
</g>
<g>
</g>
<g>
</g>
<g>
</g>
<g>
</g>
<g>
</g>
<g>
</g>
<g>
</g>
<g>
</g>
<g>
</g>
<g>
</g>
<g>
</g>
<g>
</g>
<g>
</g>
<g>
</g>
<g>
</g>
</svg>
