<?xml version="1.0" encoding="iso-8859-1"?>
<!-- Generator: Adobe Illustrator 23.1.0, SVG Export Plug-In . SVG Version: 6.00 Build 0)  -->
<svg version="1.1" id="Capa_1" xmlns="http://www.w3.org/2000/svg" xmlns:xlink="http://www.w3.org/1999/xlink" x="0px" y="0px"
	 viewBox="0 0 512 512" style="enable-background:new 0 0 512 512;" xml:space="preserve">
<g>
	<path d="M361,241V91H91v210h120v-15c0-11.334,4.352-21.581,11.294-29.502L204.32,268.48c-4.651,3.102-10.585,3.327-15.396,0.747
		C184.047,266.62,181,261.537,181,256V136c0-5.537,3.047-10.62,7.925-13.228c4.863-2.593,10.796-2.314,15.396,0.747l90,60
		c4.175,2.783,6.68,7.471,6.68,12.48s-2.505,9.697-6.68,12.48l-52.579,35.052c4.506-1.52,9.245-2.532,14.258-2.532H361z"/>
	<path d="M15,391h46v45c0,5.684,3.208,10.869,8.291,13.418c5.229,2.596,11.298,1.908,15.703-1.421L160.99,391H211v-60H76
		c-8.291,0-15-6.709-15-15V76c0-8.291,6.709-15,15-15h300c8.291,0,15,6.709,15,15v165h60V15c0-8.284-6.716-15-15-15H15
		C6.716,0,0,6.716,0,15v361C0,384.284,6.716,391,15,391z"/>
	<polygon points="211,227.978 258.959,196 211,164.022 	"/>
	<path d="M497,271H256c-8.291,0-15,6.709-15,15v150c0,8.291,6.709,15,15,15h95.01l75.996,57.997
		c4.398,3.323,10.463,4.023,15.703,1.421C447.792,507.869,451,502.684,451,497v-46h46c8.291,0,15-6.709,15-15V286
		C512,277.709,505.291,271,497,271z M316,376c-8.284,0-15-6.716-15-15s6.716-15,15-15s15,6.716,15,15S324.284,376,316,376z M376,376
		c-8.284,0-15-6.716-15-15s6.716-15,15-15s15,6.716,15,15S384.284,376,376,376z M436,376c-8.284,0-15-6.716-15-15s6.716-15,15-15
		s15,6.716,15,15S444.284,376,436,376z"/>
</g>
<g>
</g>
<g>
</g>
<g>
</g>
<g>
</g>
<g>
</g>
<g>
</g>
<g>
</g>
<g>
</g>
<g>
</g>
<g>
</g>
<g>
</g>
<g>
</g>
<g>
</g>
<g>
</g>
<g>
</g>
</svg>
