<?xml version="1.0" encoding="iso-8859-1"?>
<!-- Generator: Adobe Illustrator 23.1.0, SVG Export Plug-In . SVG Version: 6.00 Build 0)  -->
<svg version="1.1" id="Capa_1" xmlns="http://www.w3.org/2000/svg" xmlns:xlink="http://www.w3.org/1999/xlink" x="0px" y="0px"
	 viewBox="0 0 512 512" style="enable-background:new 0 0 512 512;" xml:space="preserve">
<g>
	<path d="M166,482c-8.291,0-15,6.709-15,15s6.709,15,15,15h180c8.291,0,15-6.709,15-15s-6.709-15-15-15h-55.239
		c51.035-54.291,159.331-182.666,159.331-286c0-107.007-87.041-195.473-194.165-196C148.949,0.527,61.908,88.993,61.908,196
		c0,103.334,108.296,231.709,159.331,286H166z M121,196c0-74.443,60.557-135,135-135s135,60.557,135,135
		c0,77.021-64.874,135-135,135C184.737,331,121,272.126,121,196z"/>
	<path d="M301,290.468V286c0-24.814-20.186-45-45-45s-45,20.186-45,45v4.468C224.693,297.023,239.835,301,256,301
		S287.307,297.023,301,290.468z"/>
	<circle cx="256" cy="166" r="15"/>
	<path d="M211,166c0-24.814,20.186-45,45-45s45,20.186,45,45s-20.186,45-45,45c36.158,0,66.418,25.728,73.451,59.835
		C348.875,251.77,361,225.299,361,196c0-57.891-47.109-105-105-105s-105,47.109-105,105c0,29.299,12.125,55.77,31.549,74.835
		C189.582,236.728,219.842,211,256,211C231.186,211,211,190.814,211,166z"/>
</g>
<g>
</g>
<g>
</g>
<g>
</g>
<g>
</g>
<g>
</g>
<g>
</g>
<g>
</g>
<g>
</g>
<g>
</g>
<g>
</g>
<g>
</g>
<g>
</g>
<g>
</g>
<g>
</g>
<g>
</g>
</svg>
