<?xml version="1.0" encoding="iso-8859-1"?>
<!-- Generator: Adobe Illustrator 23.1.0, SVG Export Plug-In . SVG Version: 6.00 Build 0)  -->
<svg version="1.1" id="Capa_1" xmlns="http://www.w3.org/2000/svg" xmlns:xlink="http://www.w3.org/1999/xlink" x="0px" y="0px"
	 viewBox="0 0 512.002 512.002" style="enable-background:new 0 0 512.002 512.002;" xml:space="preserve">
<g>
	<path d="M497,239.988H271v-15c0-24.814-20.186-45-45-45H45c-8.276,0-15-6.724-15-15s6.724-15,15-15h237.367
		c37.183,0,72.158-12.539,101.276-34.629l23.134,69.375c4.314,12.94,22.236,13.859,27.876,1.465l76-165
		c2.3-5.054,1.626-10.942-1.758-15.337c-3.369-4.395-8.965-6.504-14.355-5.669l-181,30c-13.707,2.263-17.205,20.482-5.259,27.656
		l56.83,34.098c-23.839,17.906-52.399,28.041-82.744,28.041H45c-24.814,0-45,20.186-45,45s20.186,45,45,45h181
		c8.276,0,15,6.724,15,15v15H15c-8.291,0-15,6.709-15,15v242c0,8.291,6.709,15,15,15h482c8.291,0,15-6.709,15-15v-242
		C512,246.697,505.291,239.988,497,239.988z M286,300.988h30c8.291,0,15,6.709,15,15s-6.709,15-15,15h-30c-8.291,0-15-6.709-15-15
		S277.709,300.988,286,300.988z M256,360.988h30c8.291,0,15,6.709,15,15s-6.709,15-15,15h-30c-8.291,0-15-6.709-15-15
		S247.709,360.988,256,360.988z M196,300.988h30c8.291,0,15,6.709,15,15s-6.709,15-15,15h-30c-8.291,0-15-6.709-15-15
		S187.709,300.988,196,300.988z M75,300.988h61c8.291,0,15,6.709,15,15s-6.709,15-15,15H75c-8.291,0-15-6.709-15-15
		S66.709,300.988,75,300.988z M75,360.988h31c8.291,0,15,6.709,15,15s-6.709,15-15,15H75c-8.291,0-15-6.709-15-15
		S66.709,360.988,75,360.988z M136,450.988H75c-8.291,0-15-6.709-15-15s6.709-15,15-15h61c8.291,0,15,6.709,15,15
		S144.291,450.988,136,450.988z M151,375.988c0-8.291,6.709-15,15-15h30c8.291,0,15,6.709,15,15s-6.709,15-15,15h-30
		C157.709,390.988,151,384.279,151,375.988z M346,450.988H196c-8.291,0-15-6.709-15-15s6.709-15,15-15h150c8.291,0,15,6.709,15,15
		S354.291,450.988,346,450.988z M436,450.988h-30c-8.291,0-15-6.709-15-15s6.709-15,15-15h30c8.291,0,15,6.709,15,15
		S444.291,450.988,436,450.988z M436,390.988h-90c-8.291,0-15-6.709-15-15s6.709-15,15-15h90c8.291,0,15,6.709,15,15
		S444.291,390.988,436,390.988z M436,330.988h-60c-8.291,0-15-6.709-15-15s6.709-15,15-15h60c8.291,0,15,6.709,15,15
		S444.291,330.988,436,330.988z"/>
</g>
<g>
</g>
<g>
</g>
<g>
</g>
<g>
</g>
<g>
</g>
<g>
</g>
<g>
</g>
<g>
</g>
<g>
</g>
<g>
</g>
<g>
</g>
<g>
</g>
<g>
</g>
<g>
</g>
<g>
</g>
</svg>
