<?xml version="1.0" encoding="iso-8859-1"?>
<!-- Generator: Adobe Illustrator 23.1.0, SVG Export Plug-In . SVG Version: 6.00 Build 0)  -->
<svg version="1.1" id="Capa_1" xmlns="http://www.w3.org/2000/svg" xmlns:xlink="http://www.w3.org/1999/xlink" x="0px" y="0px"
	 viewBox="0 0 512 512" style="enable-background:new 0 0 512 512;" xml:space="preserve">
<g>
	<path d="M301,271h-90c-8.291,0-15,6.709-15,15v105h-15c-5.742,0-10.986,3.281-13.491,8.452c-2.52,5.186-1.846,11.338,1.714,15.85
		l75,91C247.064,509.905,251.415,512,256,512s8.936-2.095,11.777-5.698l75-91c3.56-4.512,4.233-10.664,1.714-15.85
		C341.986,394.281,336.742,391,331,391h-15V286C316,277.709,309.291,271,301,271z"/>
	<path d="M419.667,121.879c-6.343-33.179-34.629-58.682-69.141-60.747C333.314,24.745,296.62,0,256,0s-77.314,24.745-94.526,61.132
		c-34.512,2.065-62.798,27.568-69.141,60.747C40.873,128.603,0,172.738,0,226c0,57.479,47.585,105,106,105h60v-45
		c0-24.814,20.186-45,45-45h90c24.814,0,45,20.186,45,45v45h60c58.521,0,106-47.622,106-105
		C512,172.738,471.127,128.603,419.667,121.879z M316,211H196c-8.291,0-15-6.709-15-15s6.709-15,15-15h120c8.291,0,15,6.709,15,15
		S324.291,211,316,211z M316,151H196c-8.291,0-15-6.709-15-15s6.709-15,15-15h120c8.291,0,15,6.709,15,15S324.291,151,316,151z"/>
</g>
<g>
</g>
<g>
</g>
<g>
</g>
<g>
</g>
<g>
</g>
<g>
</g>
<g>
</g>
<g>
</g>
<g>
</g>
<g>
</g>
<g>
</g>
<g>
</g>
<g>
</g>
<g>
</g>
<g>
</g>
</svg>
