<?xml version="1.0" encoding="iso-8859-1"?>
<!-- Generator: Adobe Illustrator 23.1.0, SVG Export Plug-In . SVG Version: 6.00 Build 0)  -->
<svg version="1.1" id="Capa_1" xmlns="http://www.w3.org/2000/svg" xmlns:xlink="http://www.w3.org/1999/xlink" x="0px" y="0px"
	 viewBox="0 0 512 512" style="enable-background:new 0 0 512 512;" xml:space="preserve">
<g>
	<polygon points="91,150.445 14.952,207.221 91,263.504 	"/>
	<path d="M340.992,361l84.007,63.003c6.636,4.966,7.983,14.37,3.003,20.991c-4.948,6.623-14.346,7.985-20.991,3.003L316,379.743
		l-51.006,38.254c-2.666,2.007-5.83,3.003-8.994,3.003s-6.328-0.996-8.994-3.003L196,379.743l-91.011,68.254
		c-6.639,4.98-16.04,3.624-20.991-3.003c-4.98-6.621-3.633-16.025,3.003-20.991L171.01,361L0,233.493V497c0,8.291,6.709,15,15,15
		h482c8.291,0,15-6.709,15-15V233.496L340.992,361z"/>
	<polygon points="421,151.529 421,263.505 496.971,207.281 	"/>
	<circle cx="196" cy="166" r="15"/>
	<circle cx="316" cy="226" r="15"/>
	<circle cx="316" cy="106" r="15"/>
	<path d="M391,286.005V15c0-8.284-6.716-15-15-15H136c-8.284,0-15,6.716-15,15v271.004L256,387.25L391,286.005z M196,211
		c-24.814,0-45-20.186-45-45s20.186-45,45-45c12.101,0,23.055,4.856,31.15,12.653l44.401-22.2C271.33,109.646,271,107.868,271,106
		c0-24.814,20.186-45,45-45s45,20.186,45,45s-20.186,45-45,45c-12.101,0-23.055-4.856-31.15-12.653l-44.401,22.2
		C240.67,162.354,241,164.132,241,166s-0.33,3.646-0.551,5.453l44.401,22.2C292.945,185.856,303.899,181,316,181
		c24.814,0,45,20.186,45,45s-20.186,45-45,45s-45-20.186-45-45c0-1.868,0.33-3.646,0.551-5.453l-44.401-22.2
		C219.055,206.144,208.101,211,196,211z"/>
</g>
<g>
</g>
<g>
</g>
<g>
</g>
<g>
</g>
<g>
</g>
<g>
</g>
<g>
</g>
<g>
</g>
<g>
</g>
<g>
</g>
<g>
</g>
<g>
</g>
<g>
</g>
<g>
</g>
<g>
</g>
</svg>
