<?xml version="1.0" encoding="iso-8859-1"?>
<!-- Generator: Adobe Illustrator 23.1.0, SVG Export Plug-In . SVG Version: 6.00 Build 0)  -->
<svg version="1.1" id="Capa_1" xmlns="http://www.w3.org/2000/svg" xmlns:xlink="http://www.w3.org/1999/xlink" x="0px" y="0px"
	 viewBox="0 0 512 512" style="enable-background:new 0 0 512 512;" xml:space="preserve">
<g>
	<circle cx="301" cy="256" r="15"/>
	<path d="M459.994,267.997C463.773,265.17,466,260.717,466,256s-2.227-9.17-6.006-11.997
		c-17.139-12.861-31.685-23.921-44.194-33.428C350.966,161.269,337.475,151,301,151c-36.46,0-49.922,10.239-114.624,59.443
		c-12.539,9.536-27.144,20.64-44.37,33.56C138.227,246.83,136,251.283,136,256s2.227,9.17,6.006,11.997
		c17.139,12.861,31.685,23.921,44.194,33.428C251.034,350.731,264.525,361,301,361c36.46,0,49.922-10.239,114.624-59.443
		C428.163,292.021,442.768,280.917,459.994,267.997z M301,301c-24.814,0-45-20.186-45-45s20.186-45,45-45s45,20.186,45,45
		S325.814,301,301,301z"/>
	<path d="M316,467v-18.763c-4.715,1.681-9.716,2.763-15,2.763H61c-5.284,0-10.285-1.082-15-2.763V467c0,24.814,20.186,45,45,45h180
		C295.814,512,316,491.814,316,467z"/>
	<path d="M271,0H91C66.186,0,46,21.186,46,46v17.763C50.715,62.082,55.716,61,61,61h240c5.284,0,10.285,1.082,15,2.763V46
		C316,21.186,295.814,0,271,0z"/>
	<path d="M316,390.312c-4.748,0.428-9.662,0.688-15,0.688c-46.582,0-66.592-15.22-132.905-65.654
		c-13.433-10.21-27.554-20.947-44.092-33.354C112.738,283.568,106,270.106,106,256s6.738-27.568,18.032-36.021
		c17.139-12.847,31.685-23.906,44.18-33.413C234.452,136.19,254.433,121,301,121c5.338,0,10.25,0.26,15,0.69V106
		c0-8.276-6.724-15-15-15H61c-8.276,0-15,6.724-15,15v300c0,8.276,6.724,15,15,15h240c8.276,0,15-6.724,15-15V390.312z"/>
</g>
<g>
</g>
<g>
</g>
<g>
</g>
<g>
</g>
<g>
</g>
<g>
</g>
<g>
</g>
<g>
</g>
<g>
</g>
<g>
</g>
<g>
</g>
<g>
</g>
<g>
</g>
<g>
</g>
<g>
</g>
</svg>
