<?xml version="1.0" encoding="iso-8859-1"?>
<!-- Generator: Adobe Illustrator 23.1.0, SVG Export Plug-In . SVG Version: 6.00 Build 0)  -->
<svg version="1.1" id="Capa_1" xmlns="http://www.w3.org/2000/svg" xmlns:xlink="http://www.w3.org/1999/xlink" x="0px" y="0px"
	 viewBox="0 0 512 512" style="enable-background:new 0 0 512 512;" xml:space="preserve">
<g>
	<path d="M45,301h15v45c0,5.537,3.047,10.62,7.925,13.228c4.81,2.58,10.745,2.353,15.396-0.747L169.541,301H392v-60
		c-6.357,17.959-23.408,30-42.422,30h-31.069c-13.579,0-26.279-6.035-34.863-16.567c-8.584-10.518-11.953-24.185-9.214-37.485
		C285.77,161.371,335.208,121,392,121c10.419,0,20.354,1.754,30,4.261V45c0-24.814-20.186-45-45-45H45C20.186,0,0,20.186,0,45v211
		C0,280.814,20.186,301,45,301z"/>
	<path d="M497,361h-15V241c0-49.629-40.371-90-90-90c-43.462,0-79.823,30.961-88.189,71.986c-0.901,4.415,0.233,8.996,3.08,12.486
		S314.004,241,318.507,241h31.068c6.354,0,12.015-4.003,14.138-9.992C367.839,219.364,378.963,211,392,211c16.538,0,30,13.462,30,30
		v120h-90v-30h-60v30h-15c-8.291,0-15,6.709-15,15v121c0,8.291,6.709,15,15,15h240c8.291,0,15-6.709,15-15V376
		C512,367.709,505.291,361,497,361z M407,451h-60c-8.291,0-15-6.709-15-15s6.709-15,15-15h60c8.291,0,15,6.709,15,15
		S415.291,451,407,451z"/>
</g>
<g>
</g>
<g>
</g>
<g>
</g>
<g>
</g>
<g>
</g>
<g>
</g>
<g>
</g>
<g>
</g>
<g>
</g>
<g>
</g>
<g>
</g>
<g>
</g>
<g>
</g>
<g>
</g>
<g>
</g>
</svg>
