<?xml version="1.0" encoding="iso-8859-1"?>
<!-- Generator: Adobe Illustrator 23.1.0, SVG Export Plug-In . SVG Version: 6.00 Build 0)  -->
<svg version="1.1" id="Capa_1" xmlns="http://www.w3.org/2000/svg" xmlns:xlink="http://www.w3.org/1999/xlink" x="0px" y="0px"
	 viewBox="0 0 512 512" style="enable-background:new 0 0 512 512;" xml:space="preserve">
<g>
	<polygon points="241,224.022 241,287.978 288.959,256 	"/>
	<path d="M121,407c0,8.276,6.724,15,15,15h240c8.276,0,15-6.724,15-15V105c0-8.276-6.724-15-15-15H136c-8.276,0-15,6.724-15,15V407z
		 M211,196c0-5.537,3.047-10.62,7.925-13.228c4.878-2.622,10.781-2.329,15.396,0.747l90,60c4.175,2.783,6.68,7.471,6.68,12.48
		s-2.505,9.697-6.68,12.48l-90,60c-4.651,3.102-10.585,3.327-15.396,0.747C214.047,326.62,211,321.537,211,316V196z"/>
	<path d="M121,467c0,24.814,20.186,45,45,45h180c24.814,0,45-20.186,45-45v-17.763c-4.715,1.681-9.716,2.763-15,2.763H136
		c-5.284,0-10.285-1.082-15-2.763V467z"/>
	<path d="M346,0H166c-24.814,0-45,20.186-45,45v17.763c4.715-1.681,9.716-2.763,15-2.763h240c5.284,0,10.285,1.082,15,2.763V45
		C391,20.186,370.814,0,346,0z"/>
</g>
<g>
</g>
<g>
</g>
<g>
</g>
<g>
</g>
<g>
</g>
<g>
</g>
<g>
</g>
<g>
</g>
<g>
</g>
<g>
</g>
<g>
</g>
<g>
</g>
<g>
</g>
<g>
</g>
<g>
</g>
</svg>
