<?xml version="1.0" encoding="iso-8859-1"?>
<!-- Generator: Adobe Illustrator 23.1.0, SVG Export Plug-In . SVG Version: 6.00 Build 0)  -->
<svg version="1.1" id="Capa_1" xmlns="http://www.w3.org/2000/svg" xmlns:xlink="http://www.w3.org/1999/xlink" x="0px" y="0px"
	 viewBox="0 0 512 512" style="enable-background:new 0 0 512 512;" xml:space="preserve">
<g>
	<path d="M467,31H106c-24.853,0-45,20.147-45,45v15h316c41.353,0,75,33.647,75,75v195h15c24.853,0,45-20.147,45-45V76
		C512,51.147,491.853,31,467,31z"/>
	<path d="M196.088,328.51c4.805,4.072,9.785,8.306,14.927,12.7c6.753-5.757,13.271-11.221,19.497-16.45
		C272.963,289.135,301,265.595,301,237.367C301,213.783,285.121,196,264.071,196c-27.656,0-38.291,33.003-38.73,34.409
		c-2.007,6.401-8.569,10.84-14.751,10.547c-6.694-0.19-12.466-4.761-14.121-11.25c-0.41-1.553-9.229-33.706-36.24-33.706
		c-21.05,0-36.914,17.783-36.914,41.367C123.314,266.766,150.707,289.999,196.088,328.51z"/>
	<path d="M46,421h15v45c0,5.537,3.047,10.62,7.925,13.228c4.81,2.58,10.745,2.355,15.396-0.747L170.541,421H377
		c24.814,0,45-20.186,45-45V166c0-24.814-20.186-45-45-45H46c-24.814,0-46,20.186-46,45v210C0,400.814,21.186,421,46,421z
		 M160.229,166c23.877,0,40.62,12.832,51.328,27.363C222.06,179.594,238.832,166,264.071,166C301.601,166,331,197.348,331,237.367
		c0,42.217-34.058,70.796-81.196,110.376c-9.082,7.617-18.779,15.747-28.975,24.595C218.002,374.784,214.501,376,211,376
		s-7.002-1.216-9.829-3.662c-8.584-7.441-16.772-14.399-24.492-20.947c-50.2-42.598-83.364-70.737-83.364-114.023
		C93.314,197.348,122.699,166,160.229,166z"/>
</g>
<g>
</g>
<g>
</g>
<g>
</g>
<g>
</g>
<g>
</g>
<g>
</g>
<g>
</g>
<g>
</g>
<g>
</g>
<g>
</g>
<g>
</g>
<g>
</g>
<g>
</g>
<g>
</g>
<g>
</g>
</svg>
