<?xml version="1.0" encoding="iso-8859-1"?>
<!-- Generator: Adobe Illustrator 23.1.0, SVG Export Plug-In . SVG Version: 6.00 Build 0)  -->
<svg version="1.1" id="Capa_1" xmlns="http://www.w3.org/2000/svg" xmlns:xlink="http://www.w3.org/1999/xlink" x="0px" y="0px"
	 viewBox="0 0 512 512" style="enable-background:new 0 0 512 512;" xml:space="preserve">
<g>
	<path d="M466,31H196c-24.853,0-45,20.147-45,45h240c41.353,0,75,33.647,75,75v120c24.853,0,46-20.147,46-45V76
		C512,51.147,490.853,31,466,31z"/>
	<path d="M391,106H121c-24.853,0-45,20.147-45,45h240c41.353,0,75,33.647,75,75v120c24.853,0,45-20.147,45-45V151
		C436,126.147,415.853,106,391,106z"/>
	<path d="M46,421h15v45c0,5.537,3.047,10.62,7.925,13.228c4.81,2.58,10.745,2.353,15.396-0.747L170.541,421H316
		c24.814,0,45-20.186,45-45V226c0-24.814-20.186-45-45-45H46c-24.814,0-46,20.186-46,45v150C0,400.815,21.186,421,46,421z M91,256
		h180c8.291,0,15,6.709,15,15s-6.709,15-15,15H91c-8.291,0-15-6.709-15-15S82.709,256,91,256z M91,316h180c8.291,0,15,6.709,15,15
		s-6.709,15-15,15H91c-8.291,0-15-6.709-15-15S82.709,316,91,316z"/>
</g>
<g>
</g>
<g>
</g>
<g>
</g>
<g>
</g>
<g>
</g>
<g>
</g>
<g>
</g>
<g>
</g>
<g>
</g>
<g>
</g>
<g>
</g>
<g>
</g>
<g>
</g>
<g>
</g>
<g>
</g>
</svg>
