<?xml version="1.0" encoding="iso-8859-1"?>
<!-- Generator: Adobe Illustrator 23.1.0, SVG Export Plug-In . SVG Version: 6.00 Build 0)  -->
<svg version="1.1" id="Capa_1" xmlns="http://www.w3.org/2000/svg" xmlns:xlink="http://www.w3.org/1999/xlink" x="0px" y="0px"
	 viewBox="0 0 512 512" style="enable-background:new 0 0 512 512;" xml:space="preserve">
<g>
	<path d="M497,91h-72.367l13.184,13.184C446.313,112.68,451,123.988,451,136v285h46c8.291,0,15-6.709,15-15V106
		C512,97.709,505.291,91,497,91z"/>
	<path d="M15,421h46V91H15c-8.291,0-15,6.709-15,15v300C0,414.291,6.709,421,15,421z"/>
	<polygon points="331,121 412.211,121 331,39.789 	"/>
	<path d="M106,31c-8.291,0-15,6.709-15,15v420c0,8.291,6.709,15,15,15h300c8.291,0,15-6.709,15-15V151H316c-8.291,0-15-6.709-15-15
		V31H106z M196,121h60c8.291,0,15,6.709,15,15s-6.709,15-15,15h-60c-8.291,0-15-6.709-15-15S187.709,121,196,121z M316,391H196
		c-8.291,0-15-6.709-15-15s6.709-15,15-15h120c8.291,0,15,6.709,15,15S324.291,391,316,391z M316,331H196c-8.291,0-15-6.709-15-15
		s6.709-15,15-15h120c8.291,0,15,6.709,15,15S324.291,331,316,331z M316,271H196c-8.291,0-15-6.709-15-15s6.709-15,15-15h120
		c8.291,0,15,6.709,15,15S324.291,271,316,271z M316,181c8.291,0,15,6.709,15,15s-6.709,15-15,15H196c-8.291,0-15-6.709-15-15
		s6.709-15,15-15H316z"/>
</g>
<g>
</g>
<g>
</g>
<g>
</g>
<g>
</g>
<g>
</g>
<g>
</g>
<g>
</g>
<g>
</g>
<g>
</g>
<g>
</g>
<g>
</g>
<g>
</g>
<g>
</g>
<g>
</g>
<g>
</g>
</svg>
