<?xml version="1.0" encoding="iso-8859-1"?>
<!-- Generator: Adobe Illustrator 23.1.0, SVG Export Plug-In . SVG Version: 6.00 Build 0)  -->
<svg version="1.1" id="Capa_1" xmlns="http://www.w3.org/2000/svg" xmlns:xlink="http://www.w3.org/1999/xlink" x="0px" y="0px"
	 viewBox="0 0 512 512" style="enable-background:new 0 0 512 512;" xml:space="preserve">
<g>
	<path d="M64.282,466c0,24.814,20.186,46,45,46h180c24.814,0,45-21.186,45-46v-17.763c-4.715,1.681-9.716,2.763-15,2.763h-240
		c-5.284,0-10.285-1.082-15-2.763V466z"/>
	<path d="M64.282,46v17.763c4.715-1.681,9.716-2.763,15-2.763h240c5.284,0,10.285,1.082,15,2.763V46c0-24.814-20.186-46-45-46h-180
		C84.468,0,64.282,21.186,64.282,46z"/>
	<circle cx="334.282" cy="256" r="15"/>
	<path d="M445.706,208.99l-15-25.981c-4.142-7.174-13.315-9.631-20.491-5.49L392.4,187.804
		c-8.254-7.042-17.688-12.585-28.118-16.293V151c0-8.286-6.716-15-15-15h-30c-8.284,0-15,6.714-15,15v20.511
		c-10.43,3.708-19.863,9.25-28.118,16.293l-17.814-10.285c-7.176-4.142-16.349-1.685-20.491,5.49l-15,25.981
		c-4.142,7.174-1.685,16.349,5.491,20.491l17.582,10.151c-0.981,5.323-1.65,10.761-1.65,16.368s0.668,11.045,1.65,16.368
		l-17.582,10.151c-7.176,4.142-9.633,13.315-5.491,20.49l15,25.981c4.142,7.174,13.315,9.633,20.491,5.491l17.814-10.285
		c8.254,7.042,17.688,12.585,28.118,16.293V361c0,8.284,6.716,15,15,15h30c8.284,0,15-6.716,15-15v-20.511
		c10.43-3.708,19.863-9.25,28.118-16.293l17.814,10.285c7.176,4.142,16.349,1.683,20.491-5.491l15-25.981
		c4.142-7.174,1.685-16.348-5.491-20.49l-17.582-10.151c0.981-5.323,1.65-10.761,1.65-16.368s-0.668-11.045-1.65-16.368
		l17.582-10.151C447.39,225.339,449.847,216.164,445.706,208.99z M334.282,301c-24.814,0-45-20.186-45-45s20.186-45,45-45
		s45,20.186,45,45S359.097,301,334.282,301z"/>
	<path d="M64.282,406c0,8.276,6.724,15,15,15h240c8.276,0,15-6.724,15-15h-15c-24.814,0-45-20.186-45-45v-1.069l-0.938,0.542
		c-6.855,3.94-14.619,6.021-22.471,6.021c-16.055,0-30.981-8.628-38.994-22.515l-15-25.972c-6.006-10.4-7.603-22.529-4.497-34.131
		c3.091-11.616,10.547-21.328,20.962-27.334l0.923-0.542l-0.923-0.527c-10.415-6.021-17.871-15.732-20.977-27.363
		c-3.091-11.616-1.494-23.745,4.526-34.146l14.985-25.957c7.983-13.872,22.925-22.5,38.979-22.5c7.866,0,15.63,2.08,22.456,6.006
		l0.967,0.557V151c0-24.814,20.186-45,45-45h15c0-8.276-6.724-15-15-15h-240c-8.276,0-15,6.724-15,15V406z"/>
</g>
<g>
</g>
<g>
</g>
<g>
</g>
<g>
</g>
<g>
</g>
<g>
</g>
<g>
</g>
<g>
</g>
<g>
</g>
<g>
</g>
<g>
</g>
<g>
</g>
<g>
</g>
<g>
</g>
<g>
</g>
</svg>
