<?xml version="1.0" encoding="iso-8859-1"?>
<!-- Generator: Adobe Illustrator 23.1.0, SVG Export Plug-In . SVG Version: 6.00 Build 0)  -->
<svg version="1.1" id="Capa_1" xmlns="http://www.w3.org/2000/svg" xmlns:xlink="http://www.w3.org/1999/xlink" x="0px" y="0px"
	 viewBox="0 0 512 512" style="enable-background:new 0 0 512 512;" xml:space="preserve">
<g>
	<path d="M317,90c-8.024,0-26.55,31.644-29.42,90h58.839C343.55,121.644,325.024,90,317,90z"/>
	<path d="M213.516,180h44.061c1.364-29.685,6.656-58.336,15.941-80.292C241.72,114.287,218.705,144.208,213.516,180z"/>
	<path d="M317,300c8.024,0,26.55-31.644,29.42-90H287.58C290.45,268.356,308.976,300,317,300z"/>
	<path d="M360.482,99.708c9.285,21.956,14.577,50.607,15.941,80.292h44.061C415.295,144.208,392.28,114.287,360.482,99.708z"/>
	<path d="M317,0C209.48,0,122,87.48,122,195s87.48,195,195,195s195-87.48,195-195S424.52,0,317,0z M317,330
		c-74.443,0-135-60.557-135-135S242.557,60,317,60s135,60.557,135,135S391.443,330,317,330z"/>
	<path d="M213.516,210c5.189,35.792,28.204,65.713,60.002,80.292c-9.285-21.956-14.577-50.607-15.941-80.292H213.516z"/>
	<path d="M360.482,290.292c31.798-14.579,54.813-44.5,60.002-80.292h-44.061C375.059,239.685,369.767,268.336,360.482,290.292z"/>
	<path d="M13.151,498.861c17.538,17.509,46.113,17.534,63.633-0.015l116.258-116.255c-25.237-16.734-46.899-38.395-63.633-63.633
		L13.151,435.213C-4.384,452.748-4.384,481.283,13.151,498.861z"/>
</g>
<g>
</g>
<g>
</g>
<g>
</g>
<g>
</g>
<g>
</g>
<g>
</g>
<g>
</g>
<g>
</g>
<g>
</g>
<g>
</g>
<g>
</g>
<g>
</g>
<g>
</g>
<g>
</g>
<g>
</g>
</svg>
