<?xml version="1.0" encoding="iso-8859-1"?>
<!-- Generator: Adobe Illustrator 23.1.0, SVG Export Plug-In . SVG Version: 6.00 Build 0)  -->
<svg version="1.1" id="Capa_1" xmlns="http://www.w3.org/2000/svg" xmlns:xlink="http://www.w3.org/1999/xlink" x="0px" y="0px"
	 viewBox="0 0 512 512" style="enable-background:new 0 0 512 512;" xml:space="preserve">
<g>
	<path d="M497,241h-46.76C442.912,145.452,366.548,69.088,271,61.76V15c0-8.291-6.709-15-15-15s-15,6.709-15,15v46.76
		C145.452,69.088,69.088,145.452,61.76,241H15c-8.291,0-15,6.709-15,15s6.709,15,15,15h46.76
		c7.328,95.548,83.692,171.912,179.24,179.24V497c0,8.291,6.709,15,15,15s15-6.709,15-15v-46.76
		c95.548-7.328,171.912-83.692,179.24-179.24H497c8.291,0,15-6.709,15-15S505.291,241,497,241z M420.24,241h-30.756
		C382.473,178.675,333.325,129.527,271,122.516V91.76C350.021,98.925,413.075,161.979,420.24,241z M241,91.76v30.756
		C178.675,129.527,129.527,178.675,122.516,241H91.76C98.925,161.979,161.979,98.925,241,91.76z M271,420.24v-30.703
		c10.342-1.32,20.44-3.422,30-6.83V346c0-24.814-20.186-45-45-45s-45,20.186-45,45v36.707c9.56,3.408,19.658,5.51,30,6.83v30.703
		C161.979,413.075,98.925,350.021,91.76,271h30.194c4.506,40.432,26.838,75.536,59.046,97.147V346c0-41.353,33.647-75,75-75
		c-24.814,0-45-20.186-45-45s20.186-45,45-45s45,20.186,45,45s-20.186,45-45,45c41.353,0,75,33.647,75,75v22.147
		c32.208-21.61,54.54-56.715,59.046-97.157h30.194C413.075,350.021,350.021,413.075,271,420.24z"/>
	<circle cx="256" cy="226" r="15"/>
</g>
<g>
</g>
<g>
</g>
<g>
</g>
<g>
</g>
<g>
</g>
<g>
</g>
<g>
</g>
<g>
</g>
<g>
</g>
<g>
</g>
<g>
</g>
<g>
</g>
<g>
</g>
<g>
</g>
<g>
</g>
</svg>
