<?xml version="1.0" encoding="iso-8859-1"?>
<!-- Generator: Adobe Illustrator 23.1.0, SVG Export Plug-In . SVG Version: 6.00 Build 0)  -->
<svg version="1.1" id="Capa_1" xmlns="http://www.w3.org/2000/svg" xmlns:xlink="http://www.w3.org/1999/xlink" x="0px" y="0px"
	 viewBox="0 0 512 512" style="enable-background:new 0 0 512 512;" xml:space="preserve">
<g>
	<circle cx="241" cy="316" r="15"/>
	<circle cx="121" cy="376" r="15"/>
	<circle cx="241" cy="436" r="15"/>
	<path d="M331,497V210H226c-8.291,0-15-6.709-15-15V90H46c-8.291,0-15,6.709-15,15v392c0,8.291,6.709,15,15,15h270
		C324.291,512,331,505.291,331,497z M76,150h90c8.291,0,15,6.709,15,15s-6.709,15-15,15H76c-8.291,0-15-6.709-15-15
		S67.709,150,76,150z M61,225c0-8.291,6.709-15,15-15h90c8.291,0,15,6.709,15,15s-6.709,15-15,15H76C67.709,240,61,233.291,61,225z
		 M166,376c0,1.868-0.33,3.646-0.551,5.453l44.401,22.2C217.945,395.856,228.899,391,241,391c24.814,0,45,20.186,45,45
		s-20.186,45-45,45s-45-20.186-45-45c0-1.868,0.33-3.646,0.551-5.453l-44.401-22.2C144.055,416.144,133.101,421,121,421
		c-24.814,0-45-20.186-45-45s20.186-45,45-45c12.101,0,23.055,4.856,31.15,12.653l44.401-22.2C196.33,319.646,196,317.868,196,316
		c0-24.814,20.186-45,45-45s45,20.186,45,45s-20.186,45-45,45c-12.101,0-23.055-4.856-31.15-12.653l-44.401,22.2
		C165.67,372.354,166,374.132,166,376z"/>
	<polygon points="241,180 322.211,180 241,98.789 	"/>
	<polygon points="391,90 472.211,90 391,8.789 	"/>
	<path d="M466,451c8.291,0,15-6.709,15-15V120H376c-8.291,0-15-6.709-15-15V0H166c-8.291,0-15,6.709-15,15v45h75
		c12.012,0,23.32,4.688,31.816,13.184l90,90C356.313,171.68,361,182.988,361,195v256H466z"/>
</g>
<g>
</g>
<g>
</g>
<g>
</g>
<g>
</g>
<g>
</g>
<g>
</g>
<g>
</g>
<g>
</g>
<g>
</g>
<g>
</g>
<g>
</g>
<g>
</g>
<g>
</g>
<g>
</g>
<g>
</g>
</svg>
