<?xml version="1.0" encoding="iso-8859-1"?>
<!-- Generator: Adobe Illustrator 23.1.0, SVG Export Plug-In . SVG Version: 6.00 Build 0)  -->
<svg version="1.1" id="Capa_1" xmlns="http://www.w3.org/2000/svg" xmlns:xlink="http://www.w3.org/1999/xlink" x="0px" y="0px"
	 viewBox="0 0 512 512" style="enable-background:new 0 0 512 512;" xml:space="preserve">
<g>
	<path d="M419.667,121.879c-6.343-33.179-34.629-58.682-69.141-60.747C333.314,24.745,296.62,0,256,0s-77.314,24.745-94.526,61.132
		c-34.512,2.065-62.798,27.568-69.141,60.747C40.873,128.603,0,172.738,0,226c0,43.978,28.821,86.223,76,100.314V286
		c0-24.814,20.186-45,45-45h270c24.814,0,45,20.186,45,45v40.322c46.755-13.944,76-55.96,76-100.322
		C512,172.738,471.127,128.603,419.667,121.879z M241,196c0,8.291-6.709,15-15,15s-15-6.709-15-15v-60c0-8.291,6.709-15,15-15
		s15,6.709,15,15V196z M301,196c0,8.291-6.709,15-15,15s-15-6.709-15-15v-60c0-8.291,6.709-15,15-15s15,6.709,15,15V196z"/>
	<path d="M406,497V286c0-8.291-6.709-15-15-15H121c-8.291,0-15,6.709-15,15v211c0,8.291,6.709,15,15,15h270
		C399.291,512,406,505.291,406,497z M324.32,403.48l-90,60c-4.651,3.1-10.585,3.327-15.396,0.747
		C214.047,461.62,211,456.537,211,451V331c0-5.537,3.047-10.62,7.925-13.228c4.863-2.593,10.811-2.329,15.396,0.747l90,60
		c4.175,2.783,6.68,7.471,6.68,12.48S328.495,400.697,324.32,403.48z"/>
	<polygon points="241,422.978 288.959,391 241,359.022 	"/>
</g>
<g>
</g>
<g>
</g>
<g>
</g>
<g>
</g>
<g>
</g>
<g>
</g>
<g>
</g>
<g>
</g>
<g>
</g>
<g>
</g>
<g>
</g>
<g>
</g>
<g>
</g>
<g>
</g>
<g>
</g>
</svg>
