<?xml version="1.0" encoding="iso-8859-1"?>
<!-- Generator: Adobe Illustrator 23.1.0, SVG Export Plug-In . SVG Version: 6.00 Build 0)  -->
<svg version="1.1" id="Capa_1" xmlns="http://www.w3.org/2000/svg" xmlns:xlink="http://www.w3.org/1999/xlink" x="0px" y="0px"
	 viewBox="0 0 512 512" style="enable-background:new 0 0 512 512;" xml:space="preserve">
<g>
	<path d="M211,452h90c8.291,0,15-6.709,15-15s-6.709-15-15-15h-90c-8.291,0-15,6.709-15,15S202.709,452,211,452z"/>
	<path d="M211,512h90c8.291,0,15-6.709,15-15s-6.709-15-15-15h-90c-8.291,0-15,6.709-15,15S202.709,512,211,512z"/>
	<path d="M267.777,156.698C264.936,153.095,260.585,151,256,151s-8.936,2.095-11.777,5.698l-75,90
		c-3.56,4.512-4.233,10.664-1.714,15.85C170.014,267.719,175.258,271,181,271h15v106c0,8.291,6.709,15,15,15h90
		c8.291,0,15-6.709,15-15V271h15c5.742,0,10.986-3.281,13.491-8.452c2.52-5.186,1.846-11.338-1.714-15.85L267.777,156.698z"/>
	<path d="M419.667,121.879c-6.343-33.179-34.629-59.682-69.141-61.747C333.314,23.745,296.62,0,256,0s-77.314,23.745-94.526,60.132
		c-34.512,2.065-62.798,28.568-69.141,61.747C40.873,128.603,0,172.738,0,226c0,57.479,47.585,105,106,105h60v-32.607
		c-10.972-3.911-20.288-12.012-25.488-22.764c-7.485-15.396-5.464-34.058,5.156-47.52l75.513-90.615
		C229.252,127.24,242.128,121,256,121s26.748,6.24,35.332,17.124l74.487,89.37c11.133,14.077,13.154,32.739,5.654,48.164
		c-5.2,10.737-14.502,18.823-25.474,22.734V331h60c58.521,0,106-47.622,106-105C512,172.738,471.127,128.603,419.667,121.879z"/>
</g>
<g>
</g>
<g>
</g>
<g>
</g>
<g>
</g>
<g>
</g>
<g>
</g>
<g>
</g>
<g>
</g>
<g>
</g>
<g>
</g>
<g>
</g>
<g>
</g>
<g>
</g>
<g>
</g>
<g>
</g>
</svg>
