<?xml version="1.0" encoding="iso-8859-1"?>
<!-- Generator: Adobe Illustrator 23.1.0, SVG Export Plug-In . SVG Version: 6.00 Build 0)  -->
<svg version="1.1" id="Capa_1" xmlns="http://www.w3.org/2000/svg" xmlns:xlink="http://www.w3.org/1999/xlink" x="0px" y="0px"
	 viewBox="0 0 512 512" style="enable-background:new 0 0 512 512;" xml:space="preserve">
<g>
	<path d="M391,0c-66.167,0-120,53.833-120,120s53.833,120,120,120s121-53.833,121-120S457.167,0,391,0z M391,187.5
		c-8.284,0-15-6.716-15-15c0-8.286,6.716-15,15-15s15,6.714,15,15C406,180.784,399.284,187.5,391,187.5z M406,127.5
		c0,8.291-6.709,15-15,15s-15-6.709-15-15v-60c0-8.291,6.709-15,15-15s15,6.709,15,15V127.5z"/>
	<path d="M15,452h361c8.291,0,15-6.709,15-15s-6.709-15-15-15c-24.814,0-45-20.186-45-45V257.285
		c-50.354-22.103-85.811-71.122-89.134-128.723c-2.159-0.786-4.482-1.179-6.683-1.875C238.775,120.225,241,112.903,241,105
		c0-24.814-20.186-45-45-45s-45,20.186-45,45c0,7.831,2.19,15.09,5.722,21.511C101.512,143.452,61,194.31,61,255v122
		c0,24.814-21.186,45-46,45c-8.291,0-15,6.709-15,15S6.709,452,15,452z M181,105c0-8.276,6.724-15,15-15s15,6.724,15,15
		s-6.724,15-15,15S181,113.276,181,105z"/>
	<path d="M238.237,482h-84.474c6.213,17.422,22.707,30,42.237,30S232.024,499.422,238.237,482z"/>
</g>
<g>
</g>
<g>
</g>
<g>
</g>
<g>
</g>
<g>
</g>
<g>
</g>
<g>
</g>
<g>
</g>
<g>
</g>
<g>
</g>
<g>
</g>
<g>
</g>
<g>
</g>
<g>
</g>
<g>
</g>
</svg>
