<?xml version="1.0" encoding="iso-8859-1"?>
<!-- Generator: Adobe Illustrator 23.1.0, SVG Export Plug-In . SVG Version: 6.00 Build 0)  -->
<svg version="1.1" id="Capa_1" xmlns="http://www.w3.org/2000/svg" xmlns:xlink="http://www.w3.org/1999/xlink" x="0px" y="0px"
	 viewBox="0 0 512 512" style="enable-background:new 0 0 512 512;" xml:space="preserve">
<g>
	<path d="M144.789,277.138L136,259.545l-8.789,17.593c-2.183,4.365-6.357,7.397-11.177,8.13l-19.468,2.93l14.019,13.799
		c3.472,3.413,5.068,8.32,4.263,13.14l-3.223,19.409l17.461-9.067c2.168-1.128,4.541-1.685,6.914-1.685s4.746,0.557,6.914,1.685
		l17.461,9.067l-3.223-19.409c-0.806-4.819,0.791-9.727,4.263-13.14l14.019-13.799l-19.468-2.93
		C151.146,284.535,146.972,281.503,144.789,277.138z"/>
	<path d="M384.789,277.138L376,259.545l-8.789,17.593c-2.183,4.365-6.357,7.397-11.177,8.13l-19.468,2.93l14.019,13.799
		c3.472,3.413,5.068,8.32,4.263,13.14l-3.223,19.409l17.461-9.067c2.168-1.128,4.541-1.685,6.914-1.685s4.746,0.557,6.914,1.685
		l17.461,9.067l-3.223-19.409c-0.806-4.819,0.791-9.727,4.263-13.14l14.019-13.799l-19.468-2.93
		C391.146,284.535,386.972,281.503,384.789,277.138z"/>
	<path d="M466,121H340.613l3.864,23.291c2.827,16.904-4.043,33.691-17.944,43.784c-14.046,10.247-32.347,11.21-47.139,3.56
		L256,179.491l-23.364,12.129c-14.788,7.63-33.115,6.727-47.227-3.589c-13.843-10.049-20.713-26.836-17.886-43.77L171.387,121H46
		c-24.814,0-46,20.186-46,45v240c0,24.814,21.186,45,46,45h164.18l33.105,53.954c2.739,4.38,7.544,7.046,12.715,7.046
		s9.976-2.666,12.715-7.046L301.82,451H466c24.814,0,46-20.186,46-45V166C512,141.186,490.814,121,466,121z M217.855,288.52
		l-29.839,29.37l6.87,41.323c0.938,5.61-1.377,11.25-5.977,14.59c-4.492,3.281-10.576,3.851-15.732,1.187L136,355.697
		l-37.178,19.292c-5.054,2.607-11.177,2.153-15.732-1.187c-4.6-3.34-6.914-8.979-5.977-14.59l6.87-41.323l-29.839-29.37
		c-4.043-3.999-5.493-9.932-3.735-15.322c1.758-5.405,6.416-9.36,12.026-10.21l41.426-6.226l18.721-37.471
		c5.068-10.166,21.768-10.166,26.836,0l18.721,37.471l41.426,6.226c5.61,0.85,10.269,4.805,12.026,10.21
		C223.349,278.588,221.898,284.521,217.855,288.52z M457.855,288.52l-29.839,29.37l6.87,41.323c0.938,5.61-1.377,11.25-5.977,14.59
		c-4.492,3.281-10.576,3.851-15.732,1.187L376,355.697l-37.178,19.292c-5.054,2.607-11.177,2.153-15.732-1.187
		c-4.6-3.34-6.914-8.979-5.977-14.59l6.87-41.323l-29.839-29.37c-4.043-3.999-5.493-9.932-3.735-15.322
		c1.758-5.405,6.416-9.36,12.026-10.21l41.426-6.226l18.721-37.471c5.068-10.166,21.768-10.166,26.836,0l18.721,37.471l41.426,6.226
		c5.61,0.85,10.269,4.805,12.026,10.21C463.349,278.588,461.898,284.521,457.855,288.52z"/>
	<path d="M341.576,63.183c-1.758-5.391-6.416-9.346-12.026-10.195l-41.411-6.226L269.418,7.625
		c-5.098-10.166-21.738-10.166-26.836,0l-18.721,39.137l-41.411,6.226c-5.61,0.85-10.269,4.805-12.026,10.195
		c-1.758,5.405-0.308,11.338,3.735,15.322l29.824,29.385l-6.87,41.323c-0.938,5.61,1.377,11.25,5.977,14.59
		c4.556,3.325,10.679,3.794,15.732,1.187L256,145.697l37.178,19.292c5.156,2.664,11.241,2.095,15.732-1.187
		c4.6-3.34,6.914-8.979,5.977-14.59l-6.87-41.323l29.824-29.385C341.884,74.521,343.334,68.588,341.576,63.183z"/>
</g>
<g>
</g>
<g>
</g>
<g>
</g>
<g>
</g>
<g>
</g>
<g>
</g>
<g>
</g>
<g>
</g>
<g>
</g>
<g>
</g>
<g>
</g>
<g>
</g>
<g>
</g>
<g>
</g>
<g>
</g>
</svg>
