<?xml version="1.0" encoding="iso-8859-1"?>
<!-- Generator: Adobe Illustrator 23.1.0, SVG Export Plug-In . SVG Version: 6.00 Build 0)  -->
<svg version="1.1" id="Capa_1" xmlns="http://www.w3.org/2000/svg" xmlns:xlink="http://www.w3.org/1999/xlink" x="0px" y="0px"
	 viewBox="0 0 512 512" style="enable-background:new 0 0 512 512;" xml:space="preserve">
<g>
	<path d="M497,60h-98.5L357.997,6.006C355.17,2.227,350.717,0,346,0H226c-4.717,0-9.17,2.227-11.997,6.006L173.5,60H15
		C6.709,60,0,66.709,0,75v166h191.532C184.977,227.307,181,212.165,181,196c0-57.891,47.109-105,105-105s105,47.109,105,105
		c0,16.165-3.977,31.307-10.532,45H512V75C512,66.709,505.291,60,497,60z M151,196c0,8.291-6.709,15-15,15H76
		c-8.291,0-15-6.709-15-15v-60c0-8.291,6.709-15,15-15h60c8.291,0,15,6.709,15,15V196z"/>
	<path d="M359.594,270.716C340.628,289.4,314.66,301,286,301s-54.628-11.6-73.594-30.284C211.921,270.764,211.498,271,211,271H0v75
		c0,8.291,6.709,15,15,15h482c8.291,0,15-6.709,15-15v-75H361C360.502,271,360.079,270.764,359.594,270.716z"/>
	<rect x="91" y="151" width="30" height="30"/>
	<circle cx="286" cy="196" r="15"/>
	<path d="M286,271c41.353,0,75-33.647,75-75s-33.647-75-75-75s-75,33.647-75,75S244.647,271,286,271z M286,151
		c24.814,0,45,20.186,45,45s-20.186,45-45,45s-45-20.186-45-45S261.186,151,286,151z"/>
	<path d="M76,0c-8.291,0-15,6.709-15,15v15h90V15c0-8.291-6.709-15-15-15H76z"/>
	<path d="M121,497c0,8.291,6.709,15,15,15h240c8.291,0,15-6.709,15-15V391H121V497z"/>
	<path d="M482,436v-45h-61v60h46C475.291,451,482,444.291,482,436z"/>
	<path d="M30,436c0,8.291,6.709,15,15,15h46v-60H30V436z"/>
</g>
<g>
</g>
<g>
</g>
<g>
</g>
<g>
</g>
<g>
</g>
<g>
</g>
<g>
</g>
<g>
</g>
<g>
</g>
<g>
</g>
<g>
</g>
<g>
</g>
<g>
</g>
<g>
</g>
<g>
</g>
</svg>
