<?xml version="1.0" encoding="iso-8859-1"?>
<!-- Generator: Adobe Illustrator 23.1.0, SVG Export Plug-In . SVG Version: 6.00 Build 0)  -->
<svg version="1.1" id="Capa_1" xmlns="http://www.w3.org/2000/svg" xmlns:xlink="http://www.w3.org/1999/xlink" x="0px" y="0px"
	 viewBox="0 0 512 512" style="enable-background:new 0 0 512 512;" xml:space="preserve">
<g>
	<path d="M497,90h-91v45c0,24.814-20.186,45-45,45h-90v91h45c8.291,0,15,6.709,15,15s-6.709,15-15,15H196c-8.291,0-15-6.709-15-15
		s6.709-15,15-15h45v-91H121c-24.814,0-45-20.186-45-45V90H15c-8.291,0-15,6.709-15,15v226h512V105C512,96.709,505.291,90,497,90z"
		/>
	<path d="M0,406c0,8.291,6.709,15,15,15h196v46c0,8.276-6.724,15-15,15h-30c-8.291,0-15,6.709-15,15s6.709,15,15,15h180
		c8.291,0,15-6.709,15-15s-6.709-15-15-15h-30c-8.262,0-15-6.725-15-15v-46h196c8.291,0,15-6.709,15-15v-45H0V406z"/>
	<path d="M106,135c0,8.284,6.716,15,15,15h75V45c0-24.853-20.147-45-45-45s-45,20.147-45,45V135z"/>
	<path d="M361,150c8.284,0,15-6.716,15-15V60c0-33.138-26.863-60-60-60H210.617C220.135,12.574,226,28.052,226,45v105H361z M256,75
		c0-8.291,6.709-15,15-15s15,6.709,15,15v30c0,8.291-6.709,15-15,15s-15-6.709-15-15V75z"/>
</g>
<g>
</g>
<g>
</g>
<g>
</g>
<g>
</g>
<g>
</g>
<g>
</g>
<g>
</g>
<g>
</g>
<g>
</g>
<g>
</g>
<g>
</g>
<g>
</g>
<g>
</g>
<g>
</g>
<g>
</g>
</svg>
