<?xml version="1.0" encoding="iso-8859-1"?>
<!-- Generator: Adobe Illustrator 23.1.0, SVG Export Plug-In . SVG Version: 6.00 Build 0)  -->
<svg version="1.1" id="Capa_1" xmlns="http://www.w3.org/2000/svg" xmlns:xlink="http://www.w3.org/1999/xlink" x="0px" y="0px"
	 viewBox="0 0 512 512" style="enable-background:new 0 0 512 512;" xml:space="preserve">
<g>
	<path d="M0,406c0,8.291,6.709,15,15,15h196v46c0,8.276-6.724,15-15,15h-30c-8.291,0-15,6.709-15,15s6.709,15,15,15h180
		c8.291,0,15-6.709,15-15s-6.709-15-15-15h-30c-8.262,0-15-6.725-15-15v-46h196c8.291,0,15-6.709,15-15v-46H0V406z"/>
	<path d="M497,90h-53.853C457.552,111.471,466,137.258,466,165c0,20.186-4.541,39.858-13.257,57.935l2.124,2.432
		c11.631,13.301,14.399,32.241,7.075,48.281C454.691,289.629,438.607,300,421,300h-90c-48.809,0-91.252-26.281-114.968-65.191
		C204.789,237.852,193.193,240,181,240H91c-17.607,0-33.691-10.371-40.972-26.411c-7.295-15.981-4.526-34.922,7.09-48.208
		l2.139-2.446C50.541,144.844,46,125.186,46,105c0-5.136,0.954-10.01,1.516-15H15c-8.291,0-15,6.709-15,15v225h512V105
		C512,96.709,505.291,90,497,90z"/>
	<path d="M330.998,60c-7.74,0-15.234,0.959-22.498,2.549C312.988,75.976,316,90.081,316,105c0,51.599-29.423,95.989-72.068,118.705
		C262.801,251.636,294.754,270,330.998,270h90c5.889,0,11.221-3.442,13.652-8.804c2.446-5.361,1.509-11.646-2.358-16.069
		l-16.419-18.765c12.528-17.292,20.125-38.377,20.125-61.362C435.998,107.01,388.988,60,330.998,60z"/>
	<path d="M76,105c0,22.985,7.597,44.07,20.125,61.362l-16.419,18.765c-3.867,4.424-4.805,10.708-2.358,16.069
		C79.779,206.558,85.111,210,91,210h90c57.99,0,105-47.01,105-105S238.99,0,181,0S76,47.01,76,105z M241,90c8.284,0,15,6.714,15,15
		c0,8.284-6.716,15-15,15s-15-6.716-15-15C226,96.714,232.716,90,241,90z M181,90c8.284,0,15,6.714,15,15c0,8.284-6.716,15-15,15
		s-15-6.716-15-15C166,96.714,172.716,90,181,90z M121,90c8.284,0,15,6.714,15,15c0,8.284-6.716,15-15,15s-15-6.716-15-15
		C106,96.714,112.716,90,121,90z"/>
</g>
<g>
</g>
<g>
</g>
<g>
</g>
<g>
</g>
<g>
</g>
<g>
</g>
<g>
</g>
<g>
</g>
<g>
</g>
<g>
</g>
<g>
</g>
<g>
</g>
<g>
</g>
<g>
</g>
<g>
</g>
</svg>
