<?xml version="1.0" encoding="iso-8859-1"?>
<!-- Generator: Adobe Illustrator 23.1.0, SVG Export Plug-In . SVG Version: 6.00 Build 0)  -->
<svg version="1.1" id="Capa_1" xmlns="http://www.w3.org/2000/svg" xmlns:xlink="http://www.w3.org/1999/xlink" x="0px" y="0px"
	 viewBox="0 0 512 512" style="enable-background:new 0 0 512 512;" xml:space="preserve">
<g>
	<path d="M294.027,241.816c-5.859,5.859-15.352,5.859-21.211,0l-63.633-63.633c-5.859-5.859-5.859-15.352,0-21.211l10.605-10.605
		l-21.211-21.226l-10.605,10.605c-17.549,17.549-17.549,46.099,0,63.647l63.633,63.633c17.563,17.549,46.113,17.549,63.647,0
		l10.605-10.605l-21.226-21.211L294.027,241.816z"/>
	<path d="M255.927,0C148.949,0.527,61.908,87.993,61.908,195c0,103.334,108.296,232.709,159.331,287H166c-8.291,0-15,6.709-15,15
		s6.709,15,15,15h180c8.291,0,15-6.709,15-15s-6.709-15-15-15h-55.239c51.035-54.291,159.331-183.666,159.331-287
		C450.092,87.993,363.051,0.527,255.927,0z M357.675,263.027l-21.211,21.211c-29.238,29.236-76.829,29.24-106.069,0l-63.633-63.633
		c-29.238-29.238-29.238-76.831,0-106.069l21.211-21.211c2.813-2.813,6.621-4.395,10.605-4.395s7.793,1.582,10.605,4.395
		l42.422,42.437c5.859,5.859,5.859,15.352,0,21.211L241,167.578L283.422,210l10.605-10.605c5.859-5.859,15.352-5.859,21.211,0
		l42.437,42.422c2.813,2.813,4.395,6.621,4.395,10.605S360.487,260.215,357.675,263.027z"/>
</g>
<g>
</g>
<g>
</g>
<g>
</g>
<g>
</g>
<g>
</g>
<g>
</g>
<g>
</g>
<g>
</g>
<g>
</g>
<g>
</g>
<g>
</g>
<g>
</g>
<g>
</g>
<g>
</g>
<g>
</g>
</svg>
