<?xml version="1.0" encoding="iso-8859-1"?>
<!-- Generator: Adobe Illustrator 23.1.0, SVG Export Plug-In . SVG Version: 6.00 Build 0)  -->
<svg version="1.1" id="Capa_1" xmlns="http://www.w3.org/2000/svg" xmlns:xlink="http://www.w3.org/1999/xlink" x="0px" y="0px"
	 viewBox="0 0 512 512" style="enable-background:new 0 0 512 512;" xml:space="preserve">
<g>
	<path d="M106,151c-8.401,0-15,6.599-15,15v241c0,8.399,6.599,15,15,15h75V316c0-8.401,6.599-15,15-15s15,6.599,15,15v106h90
		v-69.701l-4.501,4.2c-5.7,6-15.298,6-20.999,0c-6-5.7-6-15.3,0-21l30-30c5.7-5.999,15.298-5.999,20.999,0l30,30c6,5.7,6,15.3,0,21
		c-5.7,6-15.298,6-20.999,0l-4.501-4.2V422h75c8.401,0,15-6.601,15-15V166c0-8.401-6.599-15-15-15h-15v45c0,24.814-20.186,45-45,45
		H166c-24.814,0-45-20.186-45-45v-45H106z"/>
	<path d="M466,151h-17.763c1.681,4.715,2.763,9.716,2.763,15v241c0,5.284-1.082,10.285-2.763,15H466c24.814,0,46-21.186,46-46V196
		C512,171.186,490.814,151,466,151z"/>
	<path d="M46,422h17.763C62.082,417.285,61,412.284,61,407V166c0-5.284,1.082-10.285,2.763-15H46c-24.814,0-46,20.186-46,45v180
		C0,400.814,21.186,422,46,422z"/>
	<path d="M361,15c0-8.286-6.716-15-15-15h-45v60h60V15z"/>
	<path d="M151,196c0,8.284,6.716,15,15,15h180c8.284,0,15-6.716,15-15V90H151V196z"/>
	<path d="M166,0c-8.284,0-15,6.714-15,15v45h120V0H166z"/>
	<path d="M181,460.699l-4.501-4.2c-5.7-5.999-15.298-5.999-20.999,0c-6,5.7-6,15.3,0,21l30,30c5.7,6,15.298,6,20.999,0l30-30
		c6-5.7,6-15.3,0-21c-5.7-5.999-15.298-5.999-20.999,0l-4.501,4.2V422h-30V460.699z"/>
	<path d="M301,497c0,8.399,6.599,15,15,15s15-6.601,15-15v-75h-30V497z"/>
</g>
<g>
</g>
<g>
</g>
<g>
</g>
<g>
</g>
<g>
</g>
<g>
</g>
<g>
</g>
<g>
</g>
<g>
</g>
<g>
</g>
<g>
</g>
<g>
</g>
<g>
</g>
<g>
</g>
<g>
</g>
</svg>
