<?xml version="1.0" encoding="iso-8859-1"?>
<!-- Generator: Adobe Illustrator 23.1.0, SVG Export Plug-In . SVG Version: 6.00 Build 0)  -->
<svg version="1.1" id="Capa_1" xmlns="http://www.w3.org/2000/svg" xmlns:xlink="http://www.w3.org/1999/xlink" x="0px" y="0px"
	 viewBox="0 0 512 512" style="enable-background:new 0 0 512 512;" xml:space="preserve">
<g>
	<path d="M241,497V391H0v106c0,8.291,6.709,15,15,15h211C234.291,512,241,505.291,241,497z"/>
	<path d="M226,301h-45v60h60v-45C241,307.709,234.291,301,226,301z"/>
	<path d="M90,15v46h242V0H105C96.709,0,90,6.709,90,15z"/>
	<path d="M362,61h60V15c0-8.291-6.709-15-15-15h-45V61z"/>
	<path d="M286,301c-8.291,0-15,6.709-15,15v45h151v-60H286z"/>
	<path d="M271,497c0,8.291,6.709,15,15,15h211c8.291,0,15-6.709,15-15V391H271V497z"/>
	<path d="M497,301h-15V166c0-8.291-6.709-15-15-15h-45V91H90v60H45c-8.291,0-15,6.709-15,15v135H15c-8.291,0-15,6.709-15,15v45h151
		v-60H60V181h30v75c0,8.291,6.709,15,15,15h302c8.291,0,15-6.709,15-15v-75h30v180h60v-45C512,307.709,505.291,301,497,301z
		 M317,226H196c-8.291,0-15-6.709-15-15s6.709-15,15-15h121c8.291,0,15,6.709,15,15S325.291,226,317,226z M317,166H196
		c-8.291,0-15-6.709-15-15s6.709-15,15-15h121c8.291,0,15,6.709,15,15S325.291,166,317,166z"/>
</g>
<g>
</g>
<g>
</g>
<g>
</g>
<g>
</g>
<g>
</g>
<g>
</g>
<g>
</g>
<g>
</g>
<g>
</g>
<g>
</g>
<g>
</g>
<g>
</g>
<g>
</g>
<g>
</g>
<g>
</g>
</svg>
