<?xml version="1.0" encoding="iso-8859-1"?>
<!-- Generator: Adobe Illustrator 23.1.0, SVG Export Plug-In . SVG Version: 6.00 Build 0)  -->
<svg version="1.1" id="Capa_1" xmlns="http://www.w3.org/2000/svg" xmlns:xlink="http://www.w3.org/1999/xlink" x="0px" y="0px"
	 viewBox="0 0 512 512" style="enable-background:new 0 0 512 512;" xml:space="preserve">
<g>
	<path d="M272,0H15C6.709,0,0,6.709,0,15v46h272V0z"/>
	<path d="M362,15c0-8.291-6.709-15-15-15h-45v61h60V15z"/>
	<path d="M139.763,271h84.474c-6.213-17.422-22.707-30-42.237-30S145.976,253.578,139.763,271z"/>
	<path d="M15,271h93.518c6.969-34.191,37.266-60,73.482-60c-24.814,0-45-20.186-45-45s20.186-45,45-45s45,20.186,45,45
		s-20.186,45-45,45c36.216,0,66.513,25.809,73.482,60H347c8.291,0,15-6.709,15-15V91H0v165C0,264.291,6.709,271,15,271z"/>
	<circle cx="182" cy="166" r="15"/>
	<path d="M497,61h-60c-8.291,0-15,6.709-15,15s6.709,15,15,15h45v75c0,8.291,6.709,15,15,15s15-6.709,15-15V76
		C512,67.709,505.291,61,497,61z"/>
	<path d="M15,452h62c8.291,0,15-6.709,15-15s-6.709-15-15-15H30v-75c0-8.291-6.709-16-15-16s-15,7.709-15,16v90
		C0,445.291,6.709,452,15,452z"/>
	<path d="M497,211h-30v60h45v-45C512,217.709,505.291,211,497,211z"/>
	<path d="M332,482c-19.53,0-36.024,12.578-42.237,30h84.474C368.024,494.578,351.53,482,332,482z"/>
	<path d="M152,497c0,8.291,6.709,15,15,15h91.518c6.969-34.191,37.266-60,73.482-60c-24.814,0-45-20.186-45-45s20.186-45,45-45
		s45,20.186,45,45s-20.186,45-45,45c36.216,0,66.513,25.809,73.482,60H497c8.291,0,15-6.709,15-15V301H152V497z"/>
	<circle cx="332" cy="407" r="15"/>
	<path d="M392,211v45c0,5.284-1.082,10.285-2.763,15H437v-60H392z"/>
</g>
<g>
</g>
<g>
</g>
<g>
</g>
<g>
</g>
<g>
</g>
<g>
</g>
<g>
</g>
<g>
</g>
<g>
</g>
<g>
</g>
<g>
</g>
<g>
</g>
<g>
</g>
<g>
</g>
<g>
</g>
</svg>
