<?xml version="1.0" encoding="iso-8859-1"?>
<!-- Generator: Adobe Illustrator 23.1.0, SVG Export Plug-In . SVG Version: 6.00 Build 0)  -->
<svg version="1.1" id="Capa_1" xmlns="http://www.w3.org/2000/svg" xmlns:xlink="http://www.w3.org/1999/xlink" x="0px" y="0px"
	 viewBox="0 0 512 512" style="enable-background:new 0 0 512 512;" xml:space="preserve">
<g>
	<path d="M497,32.579h-76v60h91v-45C512,39.288,505.291,32.579,497,32.579z"/>
	<path d="M391,32.579H15c-8.291,0-15,6.709-15,15v45h391V32.579z"/>
	<path d="M181,452.579v-150h-45c-8.291,0-15,6.709-15,15v120c0,8.291,6.709,15,15,15H181z"/>
	<path d="M0,377.579c0,8.291,6.709,15,15,15h76v-75c0-24.814,20.186-45,45-45h60c8.276,0,15-6.724,15-15v-30
		c0-24.814,20.186-45,45-45c41.353,0,75,33.647,75,75v15h21.548c27.393,0,51.797,14.238,65.288,38.071
		c13.477,23.804,13.125,52.046-0.981,75.527l-3.843,6.401H497c8.291,0,15-6.709,15-15v-255H0V377.579z"/>
	<path d="M256,212.579c-8.284,0-15,6.714-15,15v30c0,19.565-12.563,36.048-30,42.246v159.794l78.486,18.419
		c19.109,4.834,39.155-3.235,49.512-20.479l52.134-86.821c8.452-14.077,8.687-31.025,0.586-45.322
		c-8.086-14.297-22.734-22.837-39.17-22.837H301v-45C301,232.726,280.853,212.579,256,212.579z"/>
</g>
<g>
</g>
<g>
</g>
<g>
</g>
<g>
</g>
<g>
</g>
<g>
</g>
<g>
</g>
<g>
</g>
<g>
</g>
<g>
</g>
<g>
</g>
<g>
</g>
<g>
</g>
<g>
</g>
<g>
</g>
</svg>
