<?xml version="1.0" encoding="iso-8859-1"?>
<!-- Generator: Adobe Illustrator 23.1.0, SVG Export Plug-In . SVG Version: 6.00 Build 0)  -->
<svg version="1.1" id="Capa_1" xmlns="http://www.w3.org/2000/svg" xmlns:xlink="http://www.w3.org/1999/xlink" x="0px" y="0px"
	 viewBox="0 0 512 512" style="enable-background:new 0 0 512 512;" xml:space="preserve">
<g>
	<path d="M22.5,437h196c12.426,0,22.5-10.074,22.5-22.5c0-12.427-10.074-22.5-22.5-22.5h-196C10.074,392,0,402.073,0,414.5
		C0,426.926,10.074,437,22.5,437z"/>
	<path d="M489.5,392h-196c-12.426,0-22.5,10.073-22.5,22.5c0,12.426,10.074,22.5,22.5,22.5h196c12.426,0,22.5-10.074,22.5-22.5
		C512,402.073,501.926,392,489.5,392z"/>
	<path d="M166,512h180c24.853,0,45-20.147,45-45H121C121,491.853,141.147,512,166,512z"/>
	<path d="M346,317H166c-24.853,0-45,20.147-45,45h270C391,337.147,370.853,317,346,317z"/>
	<path d="M428.815,105h-92.386c5.165,22.544,8.373,48.818,9.245,76H450.24C448.178,154.115,440.713,127.751,428.815,105z"/>
	<path d="M102.62,75h81.546C200.323,28.87,225.96,0,256,0C193.746,0,138.347,29.436,102.62,75z"/>
	<path d="M206.507,287h98.987c5.746-22.57,8.976-49.285,9.939-76H196.568C197.531,237.715,200.761,264.43,206.507,287z"/>
	<path d="M409.38,75C373.653,29.436,318.254,0,256,0c30.04,0,55.677,28.87,71.834,75H409.38z"/>
	<path d="M175.917,287c-5.314-23.134-8.445-49.583-9.34-76H62.302c3.1,39.368,17.518,77.776,42.166,108.322
		C118.026,299.836,140.515,287,166,287H175.917z"/>
	<path d="M256,30c-13.792,0-28.319,16.941-39.655,45h79.31C284.319,46.941,269.792,30,256,30z"/>
	<path d="M61.76,181h104.566c0.872-27.182,4.08-53.456,9.245-76H83.187C71.289,127.751,63.822,154.115,61.76,181z"/>
	<path d="M407.533,319.322c24.648-30.546,39.066-68.954,42.166-108.322H345.423c-0.895,26.417-4.026,52.866-9.34,76H346
		C371.485,287,393.974,299.836,407.533,319.322z"/>
	<path d="M196.621,181h118.759c-1.022-27.841-4.556-54.342-10.085-76h-98.588C201.176,126.658,197.642,153.159,196.621,181z"/>
</g>
<g>
</g>
<g>
</g>
<g>
</g>
<g>
</g>
<g>
</g>
<g>
</g>
<g>
</g>
<g>
</g>
<g>
</g>
<g>
</g>
<g>
</g>
<g>
</g>
<g>
</g>
<g>
</g>
<g>
</g>
</svg>
