<?xml version="1.0" encoding="iso-8859-1"?>
<!-- Generator: Adobe Illustrator 23.1.0, SVG Export Plug-In . SVG Version: 6.00 Build 0)  -->
<svg version="1.1" id="Capa_1" xmlns="http://www.w3.org/2000/svg" xmlns:xlink="http://www.w3.org/1999/xlink" x="0px" y="0px"
	 viewBox="0 0 512 512" style="enable-background:new 0 0 512 512;" xml:space="preserve">
<g>
	<path d="M181,44c0-24.814-20.186-44-45-44S91,19.186,91,44c0,19.53,12.578,36.024,30,42.237V134c0,8.291,6.709,15,15,15h105v30h30
		v-30h105c8.291,0,15-6.709,15-15V86.237C408.422,80.024,421,63.53,421,44c0-24.814-20.186-44-45-44s-45,19.186-45,44
		c0,19.53,12.578,36.024,30,42.237V119h-90V86.237C288.422,80.024,301,63.53,301,44c0-24.814-20.186-44-45-44s-45,19.186-45,44
		c0,19.53,12.578,36.024,30,42.237V119h-90V86.237C168.422,80.024,181,63.53,181,44z"/>
	<path d="M467,239h-17.763c1.681,4.715,2.763,9.716,2.763,15v243c0,5.284-1.082,10.285-2.763,15H467c24.814,0,45-22.186,45-47V284
		C512,259.186,491.814,239,467,239z"/>
	<path d="M46,512h17.763C62.082,507.285,61,502.284,61,497V254c0-5.284,1.082-10.285,2.763-15H46c-24.814,0-46,20.186-46,45v181
		C0,489.814,21.186,512,46,512z"/>
	<path d="M256,419c8.024,0,26.55-31.644,29.42-90H226.58C229.45,387.356,247.976,419,256,419z"/>
	<path d="M256,209c-8.024,0-26.55,31.644-29.42,90h58.839C282.55,240.644,264.024,209,256,209z"/>
	<path d="M359.484,299c-5.189-35.792-28.204-65.713-60.002-80.292c9.285,21.956,14.577,50.607,15.941,80.292H359.484z"/>
	<path d="M359.484,329h-44.061c-1.364,29.685-6.656,58.336-15.941,80.292C331.28,394.713,354.295,364.792,359.484,329z"/>
	<path d="M212.518,409.292c-9.285-21.956-14.577-50.607-15.941-80.292h-44.061C157.705,364.792,180.72,394.713,212.518,409.292z"/>
	<path d="M212.518,218.708c-31.798,14.579-54.813,44.5-60.002,80.292h44.061C197.941,269.315,203.233,240.664,212.518,218.708z"/>
	<path d="M106,239c-8.276,0-15,6.724-15,15v243c0,8.276,6.724,15,15,15h301c8.276,0,15-6.724,15-15V254c0-8.276-6.724-15-15-15
		h-38.853C382.552,260.471,391,286.258,391,314c0,74.443-60.557,135-135,135s-135-60.557-135-135c0-27.742,8.448-53.529,22.853-75
		H106z"/>
</g>
<g>
</g>
<g>
</g>
<g>
</g>
<g>
</g>
<g>
</g>
<g>
</g>
<g>
</g>
<g>
</g>
<g>
</g>
<g>
</g>
<g>
</g>
<g>
</g>
<g>
</g>
<g>
</g>
<g>
</g>
</svg>
