<?xml version="1.0" encoding="iso-8859-1"?>
<!-- Generator: Adobe Illustrator 23.1.0, SVG Export Plug-In . SVG Version: 6.00 Build 0)  -->
<svg version="1.1" id="Capa_1" xmlns="http://www.w3.org/2000/svg" xmlns:xlink="http://www.w3.org/1999/xlink" x="0px" y="0px"
	 viewBox="0 0 512 512" style="enable-background:new 0 0 512 512;" xml:space="preserve">
<g>
	<path d="M91,301h330V91H91V301z M211,136c0-5.537,3.047-10.62,7.925-13.228c4.863-2.622,10.796-2.329,15.396,0.747l90,60
		c4.175,2.783,6.68,7.471,6.68,12.48s-2.505,9.697-6.68,12.48l-90,60c-4.651,3.1-10.585,3.327-15.396,0.747
		C214.047,266.62,211,261.537,211,256V136z"/>
	<circle cx="286" cy="421" r="15"/>
	<polygon points="241,164.022 241,227.978 288.959,196 	"/>
	<path d="M497,0H15C6.709,0,0,6.709,0,15v482c0,8.291,6.709,15,15,15h482c8.291,0,15-6.709,15-15V15C512,6.709,505.291,0,497,0z
		 M91,451c0,8.291-6.709,15-15,15s-15-6.709-15-15v-60c0-8.291,6.709-15,15-15s15,6.709,15,15V451z M151,451c0,8.291-6.709,15-15,15
		s-15-6.709-15-15v-60c0-8.291,6.709-15,15-15s15,6.709,15,15V451z M436,436H328.237c-6.213,17.422-22.707,30-42.237,30
		s-36.024-12.578-42.237-30H196c-8.291,0-15-6.709-15-15s6.709-15,15-15h47.763c6.213-17.422,22.707-30,42.237-30
		s36.024,12.578,42.237,30H436c8.291,0,15,6.709,15,15S444.291,436,436,436z M451,316c0,8.291-6.709,15-15,15H76
		c-8.291,0-15-6.709-15-15V76c0-8.291,6.709-15,15-15h360c8.291,0,15,6.709,15,15V316z"/>
</g>
<g>
</g>
<g>
</g>
<g>
</g>
<g>
</g>
<g>
</g>
<g>
</g>
<g>
</g>
<g>
</g>
<g>
</g>
<g>
</g>
<g>
</g>
<g>
</g>
<g>
</g>
<g>
</g>
<g>
</g>
</svg>
