<?xml version="1.0" encoding="iso-8859-1"?>
<!-- Generator: Adobe Illustrator 23.1.0, SVG Export Plug-In . SVG Version: 6.00 Build 0)  -->
<svg version="1.1" id="Capa_1" xmlns="http://www.w3.org/2000/svg" xmlns:xlink="http://www.w3.org/1999/xlink" x="0px" y="0px"
	 viewBox="0 0 512 512" style="enable-background:new 0 0 512 512;" xml:space="preserve">
<g>
	<path d="M346,0v61h60V15c0-8.291-6.709-15-15-15H346z"/>
	<path d="M106,15v46h210V0H121C112.709,0,106,6.709,106,15z"/>
	<path d="M106,226c0,8.291,6.709,15,15,15h270c8.291,0,15-6.709,15-15V91H106V226z M196,121h120c8.291,0,15,6.709,15,15
		s-6.709,15-15,15H196c-8.291,0-15-6.709-15-15S187.709,121,196,121z M196,181h120c8.291,0,15,6.709,15,15s-6.709,15-15,15H196
		c-8.291,0-15-6.709-15-15S187.709,181,196,181z"/>
	<path d="M0,406c0,8.291,6.709,15,15,15h196v46c0,8.276-6.724,15-15,15h-60c-8.291,0-15,6.709-15,15s6.709,15,15,15h240
		c8.291,0,15-6.709,15-15s-6.709-15-15-15h-60c-8.262,0-15-6.725-15-15v-46h196c8.291,0,15-6.709,15-15v-45H0V406z"/>
	<path d="M497,91h-61v135c0,24.814-20.186,45-45,45H121c-24.814,0-45-20.186-45-45V91H15c-8.291,0-15,6.709-15,15v225h512V106
		C512,97.709,505.291,91,497,91z"/>
</g>
<g>
</g>
<g>
</g>
<g>
</g>
<g>
</g>
<g>
</g>
<g>
</g>
<g>
</g>
<g>
</g>
<g>
</g>
<g>
</g>
<g>
</g>
<g>
</g>
<g>
</g>
<g>
</g>
<g>
</g>
</svg>
