<?xml version="1.0" encoding="iso-8859-1"?>
<!-- Generator: Adobe Illustrator 23.1.0, SVG Export Plug-In . SVG Version: 6.00 Build 0)  -->
<svg version="1.1" id="Capa_1" xmlns="http://www.w3.org/2000/svg" xmlns:xlink="http://www.w3.org/1999/xlink" x="0px" y="0px"
	 viewBox="0 0 512 512" style="enable-background:new 0 0 512 512;" xml:space="preserve">
<g>
	<path d="M207.682,226v120c0,8.291,6.709,15,15,15h45V211h-45C214.391,211,207.682,217.709,207.682,226z"/>
	<path d="M27.682,467c0,24.814,20.186,45,45,45h180c24.814,0,45-20.186,45-45v-18.763c-4.715,1.681-9.716,2.763-15,2.763h-240
		c-5.284,0-10.285-1.082-15-2.763V467z"/>
	<path d="M282.682,60c5.284,0,10.285,1.082,15,2.763V45c0-24.814-20.186-45-45-45h-180c-24.814,0-45,20.186-45,45v17.763
		c4.715-1.681,9.716-2.763,15-2.763H282.682z"/>
	<path d="M27.682,406c0,8.276,6.724,15,15,15h240c8.276,0,15-6.724,15-15v-7.15L264.221,391h-41.539c-24.814,0-45-20.186-45-45V226
		c0-24.814,20.186-45,45-45h60c8.276,0,15-6.724,15-15v-61c0-8.276-6.724-15-15-15h-240c-8.276,0-15,6.724-15,15V406z"/>
	<path d="M478.4,233.837C470.314,219.54,455.665,211,439.23,211h-51.548v-45c0-24.853-20.147-45-45-45c-8.284,0-15,6.714-15,15v30
		c0,19.565-12.563,36.048-30,42.246V368.04l78.486,18.419c19.109,4.834,39.155-3.235,49.512-20.479l52.134-86.821
		C486.266,265.082,486.5,248.134,478.4,233.837z"/>
</g>
<g>
</g>
<g>
</g>
<g>
</g>
<g>
</g>
<g>
</g>
<g>
</g>
<g>
</g>
<g>
</g>
<g>
</g>
<g>
</g>
<g>
</g>
<g>
</g>
<g>
</g>
<g>
</g>
<g>
</g>
</svg>
