<?xml version="1.0" encoding="iso-8859-1"?>
<!-- Generator: Adobe Illustrator 23.1.0, SVG Export Plug-In . SVG Version: 6.00 Build 0)  -->
<svg version="1.1" id="Capa_1" xmlns="http://www.w3.org/2000/svg" xmlns:xlink="http://www.w3.org/1999/xlink" x="0px" y="0px"
	 viewBox="0 0 512 512" style="enable-background:new 0 0 512 512;" xml:space="preserve">
<g>
	<path d="M361.071,151c-25.239,0-42.012,13.594-52.515,27.363C297.849,163.832,281.105,151,257.229,151
		c-37.529,0-66.914,31.348-66.914,71.367c0,43.286,33.164,71.426,83.364,114.023c7.72,6.548,15.908,13.506,24.492,20.947
		c2.827,2.446,6.328,3.662,9.829,3.662s7.002-1.216,9.829-3.662c10.195-8.848,19.893-16.978,28.975-24.595
		C393.942,293.163,429,264.584,429,222.367C429,182.348,398.601,151,361.071,151z"/>
	<path d="M353,467v-17.763c-4.715,1.681-9.716,2.763-15,2.763H98c-5.284,0-10.285-1.082-15-2.763V467c0,24.814,20.186,45,45,45h180
		C332.814,512,353,491.814,353,467z"/>
	<path d="M308,0H128c-24.814,0-45,20.186-45,45v18.763C87.715,62.082,92.716,61,98,61h240c5.284,0,10.285,1.082,15,2.763V45
		C353,20.186,332.814,0,308,0z"/>
	<path d="M257.229,121c18.779,0,36.343,5.552,51.475,16.011c13.165-9.045,28.134-14.103,44.297-15.43V106c0-8.276-6.724-15-15-15H98
		c-8.276,0-15,6.724-15,15v301c0,8.276,6.724,15,15,15h240c8.276,0,15-6.724,15-15v-40.168c-5.145,4.349-10.122,8.491-15.513,13.167
		C329.284,387.104,318.811,391,308,391s-21.284-3.896-29.458-10.972c-8.525-7.383-16.626-14.282-24.272-20.757
		c-52.5-44.546-93.955-79.731-93.955-136.904C160.314,165.531,202.883,121,257.229,121z"/>
</g>
<g>
</g>
<g>
</g>
<g>
</g>
<g>
</g>
<g>
</g>
<g>
</g>
<g>
</g>
<g>
</g>
<g>
</g>
<g>
</g>
<g>
</g>
<g>
</g>
<g>
</g>
<g>
</g>
<g>
</g>
</svg>
