<?xml version="1.0" encoding="iso-8859-1"?>
<!-- Generator: Adobe Illustrator 23.1.0, SVG Export Plug-In . SVG Version: 6.00 Build 0)  -->
<svg version="1.1" id="Capa_1" xmlns="http://www.w3.org/2000/svg" xmlns:xlink="http://www.w3.org/1999/xlink" x="0px" y="0px"
	 viewBox="0 0 512 512" style="enable-background:new 0 0 512 512;" xml:space="preserve">
<g>
	<path d="M211,451v21.101c13.916,5.643,29.061,8.899,45,8.899s31.084-3.256,45-8.899V451c0-24.814-20.186-45-45-45
		S211,426.186,211,451z"/>
	<circle cx="256" cy="331" r="15"/>
	<path d="M376,361c0-66.275-53.725-120-120-120s-120,53.725-120,120c0,37.733,17.769,70.984,45,92.983V451c0-41.353,33.647-75,75-75
		c-24.814,0-45-20.186-45-45s20.186-45,45-45s45,20.186,45,45s-20.186,45-45,45c41.353,0,75,33.647,75,75v2.983
		C358.231,431.984,376,398.733,376,361z"/>
	<path d="M467,31h-91c-24.853,0-45,20.147-45,45v17.763c4.715-1.681,9.716-2.763,15-2.763h151c5.284,0,10.285,1.082,15,2.763V76
		C512,51.147,491.853,31,467,31z"/>
	<path d="M166,91c5.284,0,10.285,1.082,15,2.763V76c0-24.853-20.147-45-45-45H45C20.147,31,0,51.147,0,76v17.763
		C4.715,92.082,9.716,91,15,91H166z"/>
	<path d="M497,121H346c-8.276,0-15,6.724-15,15v15H181v-15c0-8.276-6.724-15-15-15H15c-8.276,0-15,6.724-15,15v120
		c0,8.276,6.724,15,15,15h121.767c11.999-15.851,26.984-29.072,44.233-39.133V181h60v31.516c5.006-0.507,9.864-1.516,15-1.516
		s9.994,1.009,15,1.516V181h60v50.867c17.249,10.062,32.234,23.282,44.233,39.133H497c8.276,0,15-6.724,15-15V136
		C512,127.724,505.276,121,497,121z"/>
	<path d="M393.285,301c8.08,18.408,12.715,38.646,12.715,60h61c24.853,0,45-20.147,45-45v-17.763c-4.715,1.681-9.716,2.763-15,2.763
		H393.285z"/>
	<path d="M45,361h61c0-21.354,4.634-41.592,12.715-60H15c-5.284,0-10.285-1.082-15-2.763V316C0,340.853,20.147,361,45,361z"/>
</g>
<g>
</g>
<g>
</g>
<g>
</g>
<g>
</g>
<g>
</g>
<g>
</g>
<g>
</g>
<g>
</g>
<g>
</g>
<g>
</g>
<g>
</g>
<g>
</g>
<g>
</g>
<g>
</g>
<g>
</g>
</svg>
