<?xml version="1.0" encoding="iso-8859-1"?>
<!-- Generator: Adobe Illustrator 23.1.0, SVG Export Plug-In . SVG Version: 6.00 Build 0)  -->
<svg version="1.1" id="Capa_1" xmlns="http://www.w3.org/2000/svg" xmlns:xlink="http://www.w3.org/1999/xlink" x="0px" y="0px"
	 viewBox="0 0 512 512" style="enable-background:new 0 0 512 512;" xml:space="preserve">
<g>
	<path d="M497,0h-76v61h91V15C512,6.709,505.291,0,497,0z"/>
	<path d="M391,0H15C6.709,0,0,6.709,0,15v46h391V0z"/>
	<path d="M106,226v45c0,24.366,19.492,44.158,43.689,44.868C141.098,298.03,136,278.544,136,258.578V226H106z"/>
	<path d="M406,226h-30v32.578c0,19.966-5.098,39.452-13.689,57.29C386.508,315.158,406,295.366,406,271V226z"/>
	<path d="M0,376c0,8.291,6.709,15,15,15h179.057c-3.294-14.255-9.836-29.357-19.268-38.789c-1.902-1.902-3.305-4.2-5.079-6.211H151
		c-41.353,0-75-33.647-75-75v-60c0-8.291,6.709-15,15-15h45v-30h-15c-8.284,0-15-6.716-15-15c0-8.286,6.716-15,15-15h270
		c8.284,0,15,6.714,15,15c0,8.284-6.716,15-15,15h-15v30h45c8.291,0,15,6.709,15,15v60c0,41.353-33.647,75-75,75h-18.71
		c-1.774,2.01-3.177,4.308-5.079,6.211c-9.274,9.274-16.075,24.465-19.539,38.789H497c8.291,0,15-6.709,15-15V91H0V376z"/>
	<path d="M182.582,459.291l-15,31c-2.329,4.644-2.08,10.166,0.659,14.59S175.8,512,181,512h150c5.2,0,10.02-2.695,12.759-7.119
		s2.988-9.946,0.659-14.59l-15-31c-2.54-5.081-7.734-8.291-13.416-8.291H195.998C190.316,451,185.122,454.21,182.582,459.291z"/>
	<circle cx="256" cy="256" r="15"/>
	<path d="M346,258.578V166H166v92.578c0,26.953,10.928,53.35,30,72.422c21.367,21.367,34.136,62.102,29.934,90h60.159
		c-4.193-27.931,8.56-68.654,29.907-90C335.072,311.928,346,285.531,346,258.578z M256,301c-24.814,0-45-20.186-45-45
		s20.186-45,45-45s45,20.186,45,45S280.814,301,256,301z"/>
</g>
<g>
</g>
<g>
</g>
<g>
</g>
<g>
</g>
<g>
</g>
<g>
</g>
<g>
</g>
<g>
</g>
<g>
</g>
<g>
</g>
<g>
</g>
<g>
</g>
<g>
</g>
<g>
</g>
<g>
</g>
</svg>
