<?xml version="1.0" encoding="iso-8859-1"?>
<!-- Generator: Adobe Illustrator 23.1.0, SVG Export Plug-In . SVG Version: 6.00 Build 0)  -->
<svg version="1.1" id="Capa_1" xmlns="http://www.w3.org/2000/svg" xmlns:xlink="http://www.w3.org/1999/xlink" x="0px" y="0px"
	 viewBox="0 0 512 512" style="enable-background:new 0 0 512 512;" xml:space="preserve">
<g>
	<path d="M497,0h-76v62h91V15C512,6.709,505.291,0,497,0z"/>
	<path d="M391,0H15C6.709,0,0,6.709,0,15v47h391V0z"/>
	<path d="M0,377c0,8.291,6.709,15,15,15h46V167c0-24.814,20.186-45,45-45h300c24.814,0,45,20.186,45,45v225h46
		c8.291,0,15-6.709,15-15V92H0V377z"/>
	<rect x="271" y="152" width="30" height="45"/>
	<rect x="331" y="152" width="30" height="45"/>
	<path d="M421,167c0-8.286-6.716-15-15-15h-15v45h30V167z"/>
	<polygon points="241,300.022 241,363.978 288.959,332 	"/>
	<rect x="151" y="152" width="30" height="45"/>
	<path d="M91,437h330V227H91V437z M211,272c0-5.537,3.047-10.62,7.925-13.228s10.825-2.314,15.396,0.747l90,60
		c4.175,2.783,6.68,7.471,6.68,12.48s-2.505,9.697-6.68,12.48l-90,60c-4.651,3.1-10.585,3.327-15.396,0.747
		C214.047,402.62,211,397.537,211,392V272z"/>
	<rect x="211" y="152" width="30" height="45"/>
	<rect x="331" y="467" width="30" height="45"/>
	<path d="M406,512c8.284,0,15-6.716,15-15v-30h-30v45H406z"/>
	<rect x="271" y="467" width="30" height="45"/>
	<path d="M106,152c-8.284,0-15,6.714-15,15v30h30v-45H106z"/>
	<path d="M91,497c0,8.284,6.716,15,15,15h15v-45H91V497z"/>
	<rect x="211" y="467" width="30" height="45"/>
	<rect x="151" y="467" width="30" height="45"/>
</g>
<g>
</g>
<g>
</g>
<g>
</g>
<g>
</g>
<g>
</g>
<g>
</g>
<g>
</g>
<g>
</g>
<g>
</g>
<g>
</g>
<g>
</g>
<g>
</g>
<g>
</g>
<g>
</g>
<g>
</g>
</svg>
