<?xml version="1.0" encoding="iso-8859-1"?>
<!-- Generator: Adobe Illustrator 23.1.0, SVG Export Plug-In . SVG Version: 6.00 Build 0)  -->
<svg version="1.1" id="Capa_1" xmlns="http://www.w3.org/2000/svg" xmlns:xlink="http://www.w3.org/1999/xlink" x="0px" y="0px"
	 viewBox="0 0 512 512" style="enable-background:new 0 0 512 512;" xml:space="preserve">
<g>
	<path d="M437,421c8.291,0,15-6.709,15-15V46c0-8.291-6.709-15-15-15s-15,6.709-15,15v19.42l-212,74.883v171.394l212,74.883V406
		C422,414.291,428.709,421,437,421z"/>
	<path d="M90,331v135c0,8.291,6.709,15,15,15h30c8.291,0,15-6.709,15-15v-75h15c24.814,0,45-20.186,45-45v-15h-30v15
		c0,8.276-6.724,15-15,15h-15v-30H90z"/>
	<path d="M503.709,182.582L482,171.728v108.545l21.709-10.854C508.792,266.869,512,261.684,512,256v-60
		C512,190.316,508.792,185.131,503.709,182.582z"/>
	<path d="M75,301h105V151H75c-41.353,0-75,33.647-75,75S33.647,301,75,301z"/>
</g>
<g>
</g>
<g>
</g>
<g>
</g>
<g>
</g>
<g>
</g>
<g>
</g>
<g>
</g>
<g>
</g>
<g>
</g>
<g>
</g>
<g>
</g>
<g>
</g>
<g>
</g>
<g>
</g>
<g>
</g>
</svg>
