<?xml version="1.0" encoding="iso-8859-1"?>
<!-- Generator: Adobe Illustrator 23.1.0, SVG Export Plug-In . SVG Version: 6.00 Build 0)  -->
<svg version="1.1" id="Capa_1" xmlns="http://www.w3.org/2000/svg" xmlns:xlink="http://www.w3.org/1999/xlink" x="0px" y="0px"
	 viewBox="0 0 512 512" style="enable-background:new 0 0 512 512;" xml:space="preserve">
<g>
	<path d="M316,449.237c-4.715,1.681-9.716,2.763-15,2.763H61c-5.284,0-10.285-1.082-15-2.763V467c0,24.814,20.186,45,45,45h180
		c24.814,0,45-20.186,45-45V449.237z"/>
	<path d="M316,45c0-24.814-20.186-45-45-45H91C66.186,0,46,20.186,46,45v17.763C50.715,61.082,55.716,60,61,60h240
		c5.284,0,10.285,1.082,15,2.763V45z"/>
	<path d="M316,105c0-8.276-6.724-15-15-15H61c-8.276,0-15,6.724-15,15v302c0,8.276,6.724,15,15,15h240c8.276,0,15-6.724,15-15
		v-16.626c-8.291,0-16.421-2.3-23.511-6.636c-24.551-15.103-39.448-21.24-51.489-21.24c-9.609,0-21.724,4.248-38.115,13.374
		c-14.368,7.916-31.296,7.306-44.634-0.498C144.511,367.288,136,352.42,136,336.541V189.375c0-15.498,8.188-30.176,21.387-38.306
		c29.751-18.34,55.356-30.571,83.613-30.571c24.902,0,48.018,9.478,75,25.356V105z"/>
	<path d="M443.705,349.651c4.673,2.607,10.342,2.52,14.897-0.176c4.585-2.695,7.397-7.617,7.397-12.935V189.375
		c0-5.2-2.695-10.034-7.119-12.759c-30.469-18.794-49.497-26.118-67.881-26.118c-16.54,0-34.124,6.454-60,21.612v181.892
		c21.87-12.918,40.961-21.504,60-21.504C406.132,332.498,422.377,337.786,443.705,349.651z"/>
	<path d="M173.119,176.616c-4.424,2.725-7.119,7.559-7.119,12.759v147.166c0,5.317,2.813,10.239,7.397,12.935
		c4.556,2.666,10.225,2.754,14.897,0.176c21.328-11.865,37.573-17.153,52.705-17.153c19.039,0,38.13,8.586,60,21.504V172.11
		c-25.876-15.157-43.46-21.612-60-21.612C222.616,150.498,203.588,157.822,173.119,176.616z"/>
</g>
<g>
</g>
<g>
</g>
<g>
</g>
<g>
</g>
<g>
</g>
<g>
</g>
<g>
</g>
<g>
</g>
<g>
</g>
<g>
</g>
<g>
</g>
<g>
</g>
<g>
</g>
<g>
</g>
<g>
</g>
</svg>
