<?xml version="1.0" encoding="iso-8859-1"?>
<!-- Generator: Adobe Illustrator 23.1.0, SVG Export Plug-In . SVG Version: 6.00 Build 0)  -->
<svg version="1.1" id="Capa_1" xmlns="http://www.w3.org/2000/svg" xmlns:xlink="http://www.w3.org/1999/xlink" x="0px" y="0px"
	 viewBox="0 0 512 512" style="enable-background:new 0 0 512 512;" xml:space="preserve">
<g>
	<path d="M121,482v21.101c13.916,5.643,29.061,8.899,45,8.899s31.084-3.256,45-8.899V482c0-24.814-20.186-45-45-45
		S121,457.186,121,482z"/>
	<circle cx="166" cy="362" r="15"/>
	<path d="M286,392c0-66.275-53.725-120-120-120S46,325.725,46,392c0,37.733,17.769,70.984,45,92.983V482c0-41.353,33.647-75,75-75
		c-24.814,0-45-20.186-45-45s20.186-45,45-45s45,20.186,45,45s-20.186,45-45,45c41.353,0,75,33.647,75,75v2.983
		C268.231,462.984,286,429.733,286,392z"/>
	<path d="M211,196c0,15.346,1.095,31.326,2.739,46h114.628c1.575-14.083,2.633-29.943,2.633-46c0-15.861-1.161-30.707-2.781-45
		H213.781C212.161,165.293,211,180.139,211,196z"/>
	<path d="M271,30c-20.065,0-41.589,36.793-52.566,91h105.132C312.589,66.793,291.065,30,271,30z"/>
	<path d="M81.451,151C78.012,165.473,76,180.491,76,196c0,15.223,2.463,31.238,5.993,46h101.574
		c-1.522-14.731-2.567-30.703-2.567-46c0-15.617,0.84-30.617,2.294-45H81.451z"/>
	<path d="M466,196c0-15.509-2.012-30.527-5.451-45H358.706c1.454,14.383,2.294,29.383,2.294,45c0,15.524-0.972,31.482-2.455,46
		H460.12C463.574,227.471,466,211.558,466,196z"/>
	<path d="M450.387,272h-96.021c-7.749,42.559-22.042,77.507-41.113,98.485c0.762,5.224,1.948,10.314,2.159,15.696
		C377.608,371.644,426.722,328.342,450.387,272z"/>
	<path d="M323.835,272h-69.113c21.017,15.692,37.901,36.469,48.395,60.894C311.331,317.857,318.721,297.32,323.835,272z"/>
	<path d="M354.538,121h96.418C421.505,50.607,351.951,0,271,0C309.904,0,341.507,49.243,354.538,121z"/>
	<path d="M91.046,121h96.416C200.493,49.243,232.096,0,271,0C190.049,0,120.496,50.607,91.046,121z"/>
</g>
<g>
</g>
<g>
</g>
<g>
</g>
<g>
</g>
<g>
</g>
<g>
</g>
<g>
</g>
<g>
</g>
<g>
</g>
<g>
</g>
<g>
</g>
<g>
</g>
<g>
</g>
<g>
</g>
<g>
</g>
</svg>
