<?xml version="1.0" encoding="iso-8859-1"?>
<!-- Generator: Adobe Illustrator 23.1.0, SVG Export Plug-In . SVG Version: 6.00 Build 0)  -->
<svg version="1.1" id="Capa_1" xmlns="http://www.w3.org/2000/svg" xmlns:xlink="http://www.w3.org/1999/xlink" x="0px" y="0px"
	 viewBox="0 0 512 512" style="enable-background:new 0 0 512 512;" xml:space="preserve">
<g>
	<path d="M466,241h-17.763c1.681,4.715,2.763,9.716,2.763,15v241c0,5.284-1.082,10.285-2.763,15H466c24.814,0,46-20.186,46-45V286
		C512,261.186,490.814,241,466,241z"/>
	<path d="M46,512h17.763C62.082,507.285,61,502.284,61,497V256c0-5.284,1.082-10.285,2.763-15H46c-24.814,0-46,20.186-46,45v181
		C0,491.814,21.186,512,46,512z"/>
	<path d="M256,421c8.024,0,26.55-31.644,29.42-90H226.58C229.45,389.356,247.976,421,256,421z"/>
	<path d="M256,211c-8.024,0-26.55,31.644-29.42,90h58.839C282.55,242.644,264.024,211,256,211z"/>
	<path d="M299.482,220.708c9.285,21.956,14.577,50.607,15.941,80.292h44.061C354.295,265.208,331.28,235.287,299.482,220.708z"/>
	<path d="M299.482,411.292c31.798-14.579,54.813-44.5,60.002-80.292h-44.061C314.059,360.685,308.767,389.336,299.482,411.292z"/>
	<path d="M212.518,411.292c-9.285-21.956-14.577-50.607-15.941-80.292h-44.061C157.705,366.792,180.72,396.713,212.518,411.292z"/>
	<path d="M196.577,301c1.364-29.685,6.656-58.336,15.941-80.292c-31.798,14.579-54.813,44.5-60.002,80.292H196.577z"/>
	<path d="M106,241c-8.276,0-15,6.724-15,15v241c0,8.276,6.724,15,15,15h300c8.276,0,15-6.724,15-15V256c0-8.276-6.724-15-15-15
		h-37.853C382.552,262.471,391,288.258,391,316c0,74.443-60.557,135-135,135s-135-60.557-135-135c0-27.742,8.448-53.529,22.853-75
		H106z"/>
	<path d="M331,75c0-41.353-33.647-75-75-75s-75,33.647-75,75c0,13.11,3.457,26.045,10.005,37.412l40.446,71.069
		C239.436,182.003,247.594,181,256,181s16.564,1.003,24.547,2.481l40.448-71.084C327.543,101.045,331,88.11,331,75z M256,90
		c-8.284,0-15-6.716-15-15c0-8.286,6.716-15,15-15s15,6.714,15,15C271,83.284,264.284,90,256,90z"/>
</g>
<g>
</g>
<g>
</g>
<g>
</g>
<g>
</g>
<g>
</g>
<g>
</g>
<g>
</g>
<g>
</g>
<g>
</g>
<g>
</g>
<g>
</g>
<g>
</g>
<g>
</g>
<g>
</g>
<g>
</g>
</svg>
