<?xml version="1.0" encoding="iso-8859-1"?>
<!-- Generator: Adobe Illustrator 23.1.0, SVG Export Plug-In . SVG Version: 6.00 Build 0)  -->
<svg version="1.1" id="Capa_1" xmlns="http://www.w3.org/2000/svg" xmlns:xlink="http://www.w3.org/1999/xlink" x="0px" y="0px"
	 viewBox="0 0 512 512" style="enable-background:new 0 0 512 512;" xml:space="preserve">
<g>
	<circle cx="256" cy="105" r="15"/>
	<path d="M391,135C391,60.557,330.443,0,256,0S121,60.557,121,135c0,46.701,23.859,88.898,60,113.147V225c0-41.353,33.647-75,75-75
		c-24.814,0-45-20.186-45-45s20.186-45,45-45s45,20.186,45,45s-20.186,45-45,45c41.353,0,75,33.647,75,75v23.147
		C367.141,223.898,391,181.701,391,135z"/>
	<path d="M467,394.13V346c0-24.814-20.186-45-45-45H271v-31.463c10.342-1.32,20.44-3.422,30-6.83V225c0-24.814-20.186-45-45-45
		s-45,20.186-45,45v37.707c9.56,3.408,19.658,5.51,30,6.83V301H90c-24.814,0-45,20.186-45,45v48.13C19.193,400.837,0,424.119,0,452
		c0,33.091,26.909,60,60,60s60-26.909,60-60c0-27.881-19.193-51.163-45-57.87V346c0-8.276,6.724-15,15-15h151v63.13
		c-25.807,6.707-45,29.989-45,57.87c0,33.091,26.909,60,60,60s60-26.909,60-60c0-27.881-19.193-51.163-45-57.87V331h151
		c8.276,0,15,6.724,15,15v48.13c-25.807,6.707-45,29.989-45,57.87c0,33.091,26.909,60,60,60s60-26.909,60-60
		C512,424.119,492.807,400.837,467,394.13z"/>
</g>
<g>
</g>
<g>
</g>
<g>
</g>
<g>
</g>
<g>
</g>
<g>
</g>
<g>
</g>
<g>
</g>
<g>
</g>
<g>
</g>
<g>
</g>
<g>
</g>
<g>
</g>
<g>
</g>
<g>
</g>
</svg>
