<?xml version="1.0" encoding="iso-8859-1"?>
<!-- Generator: Adobe Illustrator 23.1.0, SVG Export Plug-In . SVG Version: 6.00 Build 0)  -->
<svg version="1.1" id="Capa_1" xmlns="http://www.w3.org/2000/svg" xmlns:xlink="http://www.w3.org/1999/xlink" x="0px" y="0px"
	 viewBox="0 0 512 512" style="enable-background:new 0 0 512 512;" xml:space="preserve">
<g>
	<path d="M123.763,301H106c-24.814,0-46,20.186-46,45v121c0,24.814,21.186,45,46,45h17.763c-1.681-4.715-2.763-9.716-2.763-15V316
		C121,310.716,122.082,305.715,123.763,301z"/>
	<path d="M388.237,512H406c24.814,0,45-20.186,45-45V346c0-24.814-20.186-45-45-45h-17.763c1.681,4.715,2.763,9.716,2.763,15v181
		C391,502.284,389.918,507.285,388.237,512z"/>
	<path d="M419.667,121.879c-6.343-33.179-34.629-58.682-69.141-60.747C333.314,24.745,296.62,0,256,0s-77.314,24.745-94.526,61.132
		c-34.512,2.065-62.798,27.568-69.141,60.747C40.873,128.603,0,172.738,0,226c0,32.842,15.436,63.085,40.362,82.632
		C53.355,286.253,78.314,271,106,271h107.763c6.213-17.422,22.707-30,42.237-30s36.024,12.578,42.237,30H406
		c27.686,0,51.645,15.253,64.638,37.632C495.566,289.078,512,258.84,512,226C512,172.738,471.127,128.603,419.667,121.879z
		 M315.136,216.596c-4.266,7.09-13.504,9.37-20.596,5.098c-23.203-14.004-53.877-14.004-77.08,0
		c-7.148,4.277-16.318,1.992-20.596-5.098c-4.277-7.104-1.992-16.318,5.098-20.596c32.578-19.629,75.498-19.629,108.076,0
		C317.128,200.277,319.413,209.491,315.136,216.596z M346,165.136c-4.272,7.097-13.519,9.391-20.581,5.112
		c-41.865-25.195-96.973-25.195-138.838,0c-7.119,4.263-16.318,1.978-20.581-5.112c-4.277-7.09-1.992-16.318,5.112-20.581
		c51.182-30.82,118.594-30.82,169.775,0C347.992,148.817,350.277,158.046,346,165.136z"/>
	<path d="M213.763,301H166c-8.276,0-15,6.724-15,15v181c0,8.276,6.724,15,15,15h180c8.276,0,15-6.724,15-15V316
		c0-8.276-6.724-15-15-15h-47.763c-6.213,17.422-22.707,30-42.237,30S219.976,318.422,213.763,301z"/>
	<circle cx="256" cy="286" r="15"/>
</g>
<g>
</g>
<g>
</g>
<g>
</g>
<g>
</g>
<g>
</g>
<g>
</g>
<g>
</g>
<g>
</g>
<g>
</g>
<g>
</g>
<g>
</g>
<g>
</g>
<g>
</g>
<g>
</g>
<g>
</g>
</svg>
