<?xml version="1.0" encoding="iso-8859-1"?>
<!-- Generator: Adobe Illustrator 23.1.0, SVG Export Plug-In . SVG Version: 6.00 Build 0)  -->
<svg version="1.1" id="Capa_1" xmlns="http://www.w3.org/2000/svg" xmlns:xlink="http://www.w3.org/1999/xlink" x="0px" y="0px"
	 viewBox="0 0 512 512" style="enable-background:new 0 0 512 512;" xml:space="preserve">
<g>
	<path d="M421,226c33.091,0,60-26.909,60-60s-26.909-60-60-60s-60,24.243-60,60c0,4.307,0.5,8.492,1.366,12.545l-76.368,38.183
		C274.992,204.132,259.007,196,241,196c-33.091,0-60,26.909-60,60s26.909,60,60,60c18.007,0,33.992-8.132,44.998-20.728
		l76.368,38.183C361.5,337.508,361,341.693,361,346c0,33.091,26.909,60,60,60s60-26.909,60-60s-26.909-60-60-60
		c-18.007,0-33.992,8.132-44.998,20.728l-76.368-38.183C300.5,264.492,301,260.307,301,256s-0.5-8.492-1.366-12.545l76.368-38.183
		C387.008,217.868,402.993,226,421,226z"/>
	<path d="M46,452c-5.284,0-10.285-1.082-15-2.763V467c0,24.814,20.186,45,45,45h180c24.814,0,45-20.186,45-45v-17.763
		c-4.715,1.681-9.716,2.763-15,2.763H46z"/>
	<path d="M256,0H76C51.186,0,31,20.186,31,45v17.763C35.715,61.082,40.716,60,46,60h240c5.284,0,10.285,1.082,15,2.763V45
		C301,20.186,280.814,0,256,0z"/>
	<path d="M241,346c-49.629,0-90-40.371-90-90s40.371-90,90-90c18.279,0,35.259,5.548,49.471,14.947L301,175.683V105
		c0-8.276-6.724-15-15-15H46c-8.276,0-15,6.724-15,15v302c0,8.276,6.724,15,15,15h240c8.276,0,15-6.724,15-15v-70.686l-10.527-5.262
		C276.261,340.452,259.281,346,241,346z"/>
</g>
<g>
</g>
<g>
</g>
<g>
</g>
<g>
</g>
<g>
</g>
<g>
</g>
<g>
</g>
<g>
</g>
<g>
</g>
<g>
</g>
<g>
</g>
<g>
</g>
<g>
</g>
<g>
</g>
<g>
</g>
</svg>
