<?xml version="1.0" encoding="iso-8859-1"?>
<!-- Generator: Adobe Illustrator 23.1.0, SVG Export Plug-In . SVG Version: 6.00 Build 0)  -->
<svg version="1.1" id="Capa_1" xmlns="http://www.w3.org/2000/svg" xmlns:xlink="http://www.w3.org/1999/xlink" x="0px" y="0px"
	 viewBox="0 0 512 512" style="enable-background:new 0 0 512 512;" xml:space="preserve">
<g>
	<path d="M497,0h-76v61h91V15C512,6.709,505.291,0,497,0z"/>
	<path d="M391,0H15C6.709,0,0,6.709,0,15v46h391V0z"/>
	<path d="M414.159,382.006c-22.031,0-33.721,20.171-37.207,32.227v0.015l-0.029-0.117c-3.413-11.938-15.073-32.124-37.178-32.124
		c-21.226,0-37.222,17.358-37.222,40.386c0,20.854,6.348,36.753,64.717,86.034c2.798,2.388,6.255,3.574,9.712,3.574
		c3.472,0,6.929-1.201,9.727-3.589c48.137-39.589,64.702-62.212,64.702-86.02C451.381,399.364,435.385,382.006,414.159,382.006z"/>
	<path d="M174.159,352.006c-22.031,0-33.721,20.171-37.207,32.227v0.015l-0.029-0.117c-3.413-11.938-15.073-32.124-37.178-32.124
		c-21.226,0-38.222,17.358-38.222,40.386c0,20.854,7.348,35.753,65.717,85.034c2.798,2.388,6.255,3.574,9.712,3.574
		c3.472,0,6.929-1.201,9.727-3.589c48.137-39.589,64.702-61.212,64.702-85.02C211.381,369.364,195.385,352.006,174.159,352.006z"/>
	<path d="M0,406c0,8.291,6.709,15,15,15h21.484c-3.376-9.111-4.96-18.301-4.96-28.608c0-39.463,30.531-70.386,68.222-70.386
		c14.502,0,27.026,4.658,37.251,12.026c10.225-7.368,22.705-12.026,37.163-12.026c37.69,0,67.222,30.923,67.222,70.386
		c0,10.06-1.891,19.466-5.422,28.608h36.694c0.703-38.778,29.857-68.994,67.092-68.994c14.502,0,27.026,4.658,37.251,12.026
		c10.225-7.368,22.705-12.026,37.163-12.026c37.234,0,66.389,30.216,67.092,68.994H497c8.291,0,15-6.709,15-15V91H0V406z
		 M205.229,121c23.877,0,40.62,12.832,51.328,27.363C267.06,134.594,283.832,121,309.071,121C346.601,121,376,152.348,376,192.367
		c0,42.217-34.058,70.796-81.196,110.376c-9.082,7.617-18.779,15.747-28.975,24.595C263.002,329.784,259.501,331,256,331
		s-7.002-1.216-9.829-3.662c-8.584-7.441-16.772-14.399-24.492-20.947c-50.2-42.598-83.364-70.737-83.364-114.023
		C138.314,152.348,167.699,121,205.229,121z"/>
	<path d="M241.088,283.51c4.805,4.072,9.785,8.306,14.927,12.7c6.753-5.757,13.271-11.221,19.497-16.45
		C317.963,244.135,346,220.595,346,192.367C346,168.783,330.121,151,309.071,151c-27.656,0-38.291,33.003-38.73,34.409
		c-2.007,6.416-8.965,11.206-14.751,10.547c-6.694-0.19-12.466-4.761-14.121-11.25c-0.41-1.553-9.229-33.706-36.24-33.706
		c-21.05,0-36.914,17.783-36.914,41.367C168.314,221.767,195.707,244.999,241.088,283.51z"/>
</g>
<g>
</g>
<g>
</g>
<g>
</g>
<g>
</g>
<g>
</g>
<g>
</g>
<g>
</g>
<g>
</g>
<g>
</g>
<g>
</g>
<g>
</g>
<g>
</g>
<g>
</g>
<g>
</g>
<g>
</g>
</svg>
