<?xml version="1.0" encoding="iso-8859-1"?>
<!-- Generator: Adobe Illustrator 23.1.0, SVG Export Plug-In . SVG Version: 6.00 Build 0)  -->
<svg version="1.1" id="Capa_1" xmlns="http://www.w3.org/2000/svg" xmlns:xlink="http://www.w3.org/1999/xlink" x="0px" y="0px"
	 viewBox="0 0 512 512" style="enable-background:new 0 0 512 512;" xml:space="preserve">
<g>
	<path d="M15,451c-5.284,0-10.285-1.082-15-2.763V466c0,24.814,20.186,46,45,46h151c24.814,0,45-21.186,45-46v-17.763
		c-4.715,1.681-9.716,2.763-15,2.763H15z"/>
	<path d="M467,0H316c-24.814,0-45,21.186-45,46v17.763c4.715-1.681,9.716-2.763,15-2.763h211c5.284,0,10.285,1.082,15,2.763V46
		C512,21.186,491.814,0,467,0z"/>
	<path d="M497,91H286c-8.276,0-15,6.724-15,15v1.17c55.673,5.737,104.203,42.451,124.468,95.026l27.114,13.55
		c15.337,7.646,24.873,23.071,24.873,40.254s-9.536,32.607-24.902,40.269l-27.085,13.535c-2.851,7.397-6.302,14.456-10.212,21.196
		H497c8.276,0,15-6.724,15-15V106C512,97.724,505.276,91,497,91z"/>
	<path d="M116.532,309.804l-27.114-13.55C74.081,288.607,64.545,273.183,64.545,256s9.536-32.607,24.902-40.269l27.085-13.535
		c2.853-7.397,6.308-14.456,10.217-21.196H15c-8.276,0-15,6.724-15,15v210c0,8.276,6.724,15,15,15h211c8.276,0,15-6.724,15-15v-1.17
		C185.327,399.093,136.797,362.379,116.532,309.804z"/>
	<path d="M149.993,151c21.804-22.115,50.021-37.401,81.163-42.744C222.907,97.83,210.297,91,196,91H45c-24.814,0-45,20.186-45,45
		v17.763C4.715,152.082,9.716,151,15,151H149.993z"/>
	<path d="M362.014,361c-21.804,22.115-50.026,37.401-81.171,42.744C289.093,414.17,301.703,421,316,421h151
		c24.814,0,45-20.186,45-45v-17.763c-4.715,1.681-9.716,2.763-15,2.763H362.014z"/>
	<circle cx="256" cy="226" r="15"/>
	<path d="M301,346c0-24.853-20.147-45-45-45s-45,20.147-45,45v20.812c13.909,5.72,28.984,9.188,45,9.188s31.091-3.468,45-9.188V346z
		"/>
	<path d="M370.981,288.503l38.183-19.085c5.083-2.534,8.291-7.734,8.291-13.418s-3.208-10.884-8.291-13.418l-38.185-19.087
		C356.735,173.125,310.932,136,256,136s-100.737,37.128-114.981,87.499l-38.183,19.083c-5.083,2.534-8.291,7.734-8.291,13.418
		s3.208,10.884,8.291,13.418l38.185,19.087c6.837,24.177,21.081,45.15,39.979,60.584V346c0-41.422,33.578-75,75-75
		c-24.814,0-45-20.186-45-45s20.186-45,45-45s45,20.186,45,45s-20.186,45-45,45c41.422,0,75,33.578,75,75v3.089
		C349.9,333.655,364.144,312.68,370.981,288.503z"/>
</g>
<g>
</g>
<g>
</g>
<g>
</g>
<g>
</g>
<g>
</g>
<g>
</g>
<g>
</g>
<g>
</g>
<g>
</g>
<g>
</g>
<g>
</g>
<g>
</g>
<g>
</g>
<g>
</g>
<g>
</g>
</svg>
