<?xml version="1.0" encoding="iso-8859-1"?>
<!-- Generator: Adobe Illustrator 23.1.0, SVG Export Plug-In . SVG Version: 6.00 Build 0)  -->
<svg version="1.1" id="Capa_1" xmlns="http://www.w3.org/2000/svg" xmlns:xlink="http://www.w3.org/1999/xlink" x="0px" y="0px"
	 viewBox="0 0 512 512" style="enable-background:new 0 0 512 512;" xml:space="preserve">
<g>
	<path d="M286,31c0-16.569-13.431-31-30-31s-30,14.431-30,31c0,16.567,13.431,30,30,30S286,47.567,286,31z"/>
	<circle cx="256" cy="256" r="30"/>
	<path d="M256,421c-24.853,0-45,20.147-45,45s20.147,46,45,46s45-21.147,45-46S280.853,421,256,421z"/>
	<circle cx="61" cy="376" r="30"/>
	<circle cx="451" cy="376" r="30"/>
	<circle cx="451" cy="151" r="45"/>
	<circle cx="61" cy="151" r="45"/>
	<path d="M241,313.87c-25.807-6.707-45-29.989-45-57.87c0-4.307,0.5-8.491,1.366-12.543l-82.059-41.025
		C101.629,216.869,82.409,226,61,226v90c33.091,0,60,26.909,60,60c0,7.82-1.608,15.247-4.34,22.103l71.788,35.889
		c9.952-20.898,29.366-35.942,52.551-40.785V313.87z"/>
	<path d="M204.906,62.035l-78.772,52.509C132.23,125.385,136,137.703,136,151c0,9.104-1.873,17.725-4.858,25.805L211,216.729
		C222.005,204.134,237.993,196,256,196s33.995,8.134,45,20.729l79.858-39.924C377.873,168.725,376,160.104,376,151
		c0-13.297,3.77-25.615,9.866-36.456l-78.772-52.509C296.554,79.323,277.693,91,256,91S215.446,79.323,204.906,62.035z"/>
	<path d="M451,316v-90c-21.409,0-40.629-9.131-54.307-23.568l-82.059,41.025C315.5,247.509,316,251.693,316,256
		c0,27.881-19.193,51.163-45,57.87v79.336c23.185,4.843,42.599,19.887,52.551,40.785l71.788-35.889
		C392.608,391.247,391,383.82,391,376C391,342.909,417.909,316,451,316z"/>
</g>
<g>
</g>
<g>
</g>
<g>
</g>
<g>
</g>
<g>
</g>
<g>
</g>
<g>
</g>
<g>
</g>
<g>
</g>
<g>
</g>
<g>
</g>
<g>
</g>
<g>
</g>
<g>
</g>
<g>
</g>
</svg>
