<?xml version="1.0" encoding="iso-8859-1"?>
<!-- Generator: Adobe Illustrator 23.1.0, SVG Export Plug-In . SVG Version: 6.00 Build 0)  -->
<svg version="1.1" id="Capa_1" xmlns="http://www.w3.org/2000/svg" xmlns:xlink="http://www.w3.org/1999/xlink" x="0px" y="0px"
	 viewBox="0 0 512 512" style="enable-background:new 0 0 512 512;" xml:space="preserve">
<g>
	<path d="M482,211H361c-16.538,0-30,13.462-30,30v17.763c4.715-1.681,9.716-2.763,15-2.763h151c5.284,0,10.285,1.082,15,2.763V241
		C512,224.462,498.538,211,482,211z"/>
	<path d="M497,286H346c-8.276,0-15,6.724-15,15v121c0,8.276,6.724,15,15,15h151c8.276,0,15-6.724,15-15V301
		C512,292.724,505.276,286,497,286z"/>
	<path d="M346,467c-5.284,0-10.285-1.082-15-2.763V482c0,16.538,13.462,30,30,30h121c16.538,0,30-13.462,30-30v-17.763
		c-4.715,1.681-9.716,2.763-15,2.763H346z"/>
	<path d="M286,482c-8.262,0-15-6.725-15-15v-45h30v-61H0v46c0,8.291,6.709,15,15,15h166v45c0,8.276-6.724,15-15,15h-60
		c-8.291,0-15,6.709-15,15s6.709,15,15,15h203.344c-5.167-8.86-8.344-19.023-8.344-30H286z"/>
	<path d="M452,181v-75c0-8.291-6.709-15-15-15H181v120c0,33.091-26.909,60-60,60H30c-10.977,0-21.14-3.177-30-8.344V331h301v-90
		c0-33.091,26.909-60,60-60H452z"/>
	<path d="M15,166h121c8.276,0,15-6.724,15-15V30c0-16.538-13.462-30-30-30H30C13.462,0,0,13.462,0,30v121
		C0,159.276,6.724,166,15,166z"/>
	<path d="M30,241h91c16.538,0,30-13.462,30-30v-17.763c-4.715,1.681-9.716,2.763-15,2.763H15c-5.284,0-10.285-1.082-15-2.763V211
		C0,227.538,13.462,241,30,241z"/>
</g>
<g>
</g>
<g>
</g>
<g>
</g>
<g>
</g>
<g>
</g>
<g>
</g>
<g>
</g>
<g>
</g>
<g>
</g>
<g>
</g>
<g>
</g>
<g>
</g>
<g>
</g>
<g>
</g>
<g>
</g>
</svg>
